<svg xmlns="http://www.w3.org/2000/svg" viewBox="0 0 575.77 321.64"><defs><style>.cls-1{isolation:isolate;}.cls-2{fill:#5ab069;}.cls-3{fill:#74d4a4;}.cls-4{fill:#ca8741;}.cls-5{fill:#fff;}.cls-6{fill:#b25f14;}.cls-7{fill:#adadad;}.cls-8{fill:#96a19b;}.cls-9{fill:#79827d;}.cls-10{fill:#bf7a00;}.cls-11{fill:#f6c600;}.cls-12{fill:#ed9e00;}.cls-13{fill:#eaeaea;}.cls-14{fill:#dbba8f;}.cls-15{fill:#ffe7c7;}.cls-16{fill:#ecd5b3;}.cls-17{fill:#3b8944;}.cls-18{fill:#5ab16a;}.cls-19{fill:#175118;}.cls-20{fill:#2b6b2f;}.cls-21{fill:#b56b14;}.cls-22{fill:#ff6e41;}.cls-23{fill:#7c4208;}.cls-24{fill:#ce4520;}.cls-25{fill:#c6a209;}.cls-26{fill:#ff9f45;}.cls-27{fill:#bc7433;}.cls-28{opacity:0.34;}.cls-28,.cls-41{mix-blend-mode:overlay;}.cls-29{fill:#946724;}.cls-30{fill:#765216;}.cls-31{fill:#3f2805;}.cls-32{fill:#fcbe95;}.cls-33{fill:#d69270;}.cls-34{fill:#664232;}.cls-35{fill:#cc967a;}.cls-36{fill:#b26b4d;}.cls-37{opacity:0.44;}.cls-38{fill:#3a3a3a;}.cls-39{fill:#686868;}.cls-40{fill:#262626;}.cls-41{opacity:0.3;}.cls-42{fill:#4f3209;}.cls-43{fill:#cc7e6e;}.cls-44{fill:#a5594c;}.cls-45{fill:#ffde55;}.cls-46{fill:#f4b400;}.cls-47{fill:#f2ab99;}.cls-48{fill:#161616;}.cls-49{fill:#303030;}.cls-50{fill:#1e1e1e;}.cls-51{fill:#96521a;}.cls-52{fill:#bc6124;}.cls-53{fill:#ff9976;}.cls-54{fill:#eeb36d;}.cls-55{fill:#e05424;}.cls-56{fill:#f48771;}.cls-57{fill:#ea9b54;}.cls-58{fill:#c46f22;}.cls-59{fill:#7f4109;}.cls-60,.cls-62{fill:#602b2b;mix-blend-mode:multiply;}.cls-60{opacity:0.25;}.cls-61{fill:#c4c4c4;}.cls-62{opacity:0.35;}.cls-63{fill:#444;}.cls-64{fill:#b3bcb7;}.cls-65{fill:#404441;}.cls-66{fill:#555956;}.cls-67{fill:#cec7c0;}.cls-68{fill:#b7aea7;}.cls-69{fill:#9b948f;}.cls-70{fill:#fbbd96;}.cls-71{fill:#fe9a76;}.cls-72{fill:#c1581e;}.cls-73{fill:#c45f3f;}.cls-74{fill:#ff723f;}.cls-75{fill:#af3215;}.cls-76{fill:#dd5228;}</style></defs><title>mainHero</title><g class="cls-1"><g id="Capa_2" data-name="Capa 2"><g id="OBJECTS"><path class="cls-2" d="M237.3,262.2c3.57-14.43,4.39-29.69,13.07-43.16,7.1-11,15.63-16.84,28.41-19,6.72-1.13,18.87,2.54,24.4.58,8.12-2.89,11-20.25,18.77-27,15.69-13.75,35.11-14,51.86-4.81C379.53,150,400.25,141.2,419.24,143c10.59,1,11.9,8,19.05,11.14,3.28,1.45,4.92-1,8.54-.23,11.77,2.5,21.67,8.71,27.08,20.18,1.71,3.62.77,15.17,3.09,17.46,2.55,2.51,13,2.16,16.43,3.55,11.45,4.68,19.65,14.69,23.12,26.52,4.81,16.4,3,5.54,19,14.3,11.74,6.4,12.52,19.07,20.93,25.67,7,5.49,13.86,4.68,16.52,16.5,1.44,6.43.38,14.93-.67,21.17-55.16,2.71-112.9,2.88-169-.58-40.72-2.51-82,.84-122.43-2.55-21.77-1.83-43.35-7-65-6.86C217.61,277.18,225.79,261.44,237.3,262.2Z"/><path class="cls-3" d="M25.25,301.94c.57-11.53-2.47-38,20.13-36.33C39.78,237.76,64,221.28,91,222c.28-19.05,10-41.29,29.44-48.26C131,170,145,165.45,155.51,170c7.5,3.24,10.27,11.56,15.34,14.46,4.61,2.64,3.35.12,9.55.41,17.93.83,27.49,5.58,34.17,21.24,17.59-6.93,45.06,4.79,51.32,23.4,10.69-4.44,22.66-.25,30.59,8.58,4,4.42,11,11.24,13.9,15.9,5.57,9,8.31,34.22-1.64,39.56-7.57,4.06-22.13,1.92-30.51,2.26-22.87.92-45.55.48-68.48-.47-40.82-1.69-82.2-2.81-122.81,0C70.08,296.49,43.23,294.63,25.25,301.94Z"/><ellipse class="cls-4" cx="287.88" cy="301.09" rx="287.88" ry="20.55"/><path class="cls-5" d="M84.23,72H204.9c3.51-10.17-10.24-15.56-18.23-12.7C185,47.2,180,36.17,167.15,42.85c-3.57-6.67-4.78-13.19-11.87-18.1-11-7.6-19.05-1.51-26.83,6.05-5,4.86-6.35,1.34-13.49,2.32C103,34.76,101.53,45.57,98,54.85c-5.08-.4-8.48-1-12.2,3.26C83,61.35,81.36,68,84.23,72Z"/><path class="cls-5" d="M392.6,44.36H498.1c3.07-8.88-9-13.6-15.94-11.1-1.48-10.59-5.88-20.23-17.07-14.39C462,13,460.92,7.34,454.72,3.05c-9.59-6.64-16.66-1.32-23.46,5.29-4.38,4.25-5.55,1.17-11.8,2-10.49,1.43-11.73,10.88-14.81,19-4.44-.36-7.42-.88-10.67,2.84C391.5,35.05,390.1,40.88,392.6,44.36Z"/><ellipse class="cls-6" cx="486.03" cy="293.67" rx="40.61" ry="5.88"/><path class="cls-7" d="M499.56,50.42l.31.16Z"/><path class="cls-7" d="M497.92,49.2a3.89,3.89,0,0,0,.36.34A3.89,3.89,0,0,1,497.92,49.2Z"/><path class="cls-7" d="M497,48a2.76,2.76,0,0,0,.28.39A3.16,3.16,0,0,1,497,48Z"/><path class="cls-7" d="M496.67,47.57a3.45,3.45,0,0,0,.25.41A3.45,3.45,0,0,1,496.67,47.57Z"/><path class="cls-8" d="M524.83,195.64l-.5,4.36-3,26.71-.15,1.32-.17,1.53c-6.44,1.78-11.2,1.15-14,.15-2-.69-2.92-.92-2.92-.92-.16-.77-.29-2.59-.41-3.86-.05-.54-.09-1.12-.14-1.73-.52-7.69-.5-20.61-.44-27.91,0-3.14.07-5.24.07-5.43A58.64,58.64,0,0,0,524.83,195.64Z"/><path class="cls-9" d="M524.83,195.64l-.5,4.36c-3.8.86-8.8,0-11.62-.65a28.12,28.12,0,0,1-9.63-4.06c0-3.14.07-5.24.07-5.43A58.64,58.64,0,0,0,524.83,195.64Z"/><path class="cls-9" d="M521.15,228l-.17,1.53c-6.44,1.78-11.2,1.15-14,.15-2-.69-2.92-.92-2.92-.92-.16-.77-.29-2.59-.41-3.86-.05-.54-.09-1.12-.14-1.73a21.37,21.37,0,0,0,5.1,3.29,23.61,23.61,0,0,0,8.83,1.8,18.12,18.12,0,0,0,2.33,0C520.2,228.26,520.68,228.1,521.15,228Z"/><path class="cls-8" d="M461.54,197.74l-.26-3.6-1.56-21.3L458,149.39c-.63.25-22,8.74-5.26,50.73.29.75.61,1.51.93,2.28l8.15-.83Zm6.29-22.24a4.91,4.91,0,0,1,3.09-4.56l5.93-2.35a41.68,41.68,0,0,0-13-12.32l.56,11.27.4,8.11,1.25,25.48,6.78-.71-4.93-23.92A5.65,5.65,0,0,1,467.83,175.5Z"/><path class="cls-9" d="M467.93,176.5l4.93,23.92-6.78.71-1.25-25.48-.4-8.11a67.88,67.88,0,0,1,6.73-5.69,40.55,40.55,0,0,1,5.69,6.74l-5.93,2.35a4.91,4.91,0,0,0-3.09,4.56A5.65,5.65,0,0,0,467.93,176.5Z"/><path class="cls-9" d="M461.82,201.57l-8.15.83c-.32-.77-.64-1.53-.93-2.28a33,33,0,0,1,3.44-1.2c1.69-.38,3.4-.73,5.09-1.11l.27-.07Z"/><path class="cls-10" d="M464.45,247.65c-10,5-16.35,4.9-19,4.46a2.39,2.39,0,0,1-1.89-1.56s-1.72,3.79,3,4.44a35.66,35.66,0,0,0,7.7-.88,31.22,31.22,0,0,0,8.89-3.31c.73-.42,1.45-.88,2.15-1.38l-.15-2.08C464.93,247.44,464.68,247.53,464.45,247.65ZM475,244.51a1.83,1.83,0,0,1-1.38,1c-1.62.24-3.65.65-5.32,1l.14,2.85s1.79.15,4,.15c.62,0,1.29,0,1.94,0a1.86,1.86,0,0,0,1.77-1.89A5.17,5.17,0,0,0,475,244.51Z"/><path class="cls-11" d="M475.13,243.24,473,235.38a20.14,20.14,0,0,1-.4-2.68,21.13,21.13,0,0,1-.1-2.39l.4-29.89-6.78.71,1.73,35,.51,10.4c1.67-.37,3.7-.78,5.32-1a1.82,1.82,0,0,0,1.49-2.29Zm-10.59-4.42-2.72-37.25-8.15.83L457,235.52a8.53,8.53,0,0,1-4.86,8.58l-7.37,3.45a2.41,2.41,0,0,0,.65,4.56c2.28.37,7.24.53,14.83-2.55,1.32-.53,2.72-1.16,4.2-1.91a6.36,6.36,0,0,1,.71-.31Z"/><path class="cls-12" d="M464.54,238.82l.62,8.52a6.36,6.36,0,0,0-.71.31c-1.48.75-2.88,1.38-4.2,1.91l-.42.12c-2,.59-4.23,1.07-3.51-1.65.6-2.28,2.23-3.72,4-5.38Q462.43,240.72,464.54,238.82Z"/><path class="cls-12" d="M475,244.51a1.84,1.84,0,0,1-1.38,1c-1.62.25-3.65.66-5.32,1l-.51-10.4c1.06-.72,2.16-1.39,3.16-2.15.21-.17.94-.79,1.59-1.31a20.14,20.14,0,0,0,.4,2.68l2.17,7.86A1.84,1.84,0,0,1,475,244.51Z"/><path class="cls-11" d="M514,279.07c0,.16,0,.31,0,.46a28.05,28.05,0,0,1,3.17,5.74,3.76,3.76,0,0,1,.17,2.38,3.64,3.64,0,0,1-2,2.5c-4,1.85-11.18.58-11.18.58a3.87,3.87,0,0,1-2.7-2l0-.09-.42-.95v0a9.4,9.4,0,0,1-.46-2.67,6,6,0,0,0-.32-1.67c-1.52-4.35.83-15,.83-15V228l6.12,1.49c2.79,1,7.46,1.82,13.9,0l2.65-.44s-2.47,9.69-4.93,20.89C516.37,260.7,514.05,272.78,514,279.07Z"/><path class="cls-10" d="M517.3,287.65a2.85,2.85,0,0,1-.53,4.1c-5.89,3.76-14.51.84-14.51.84-2.31-1.09-1.35-4.94-1.35-4.94l0,0a4.78,4.78,0,0,0,.41,1l0,.08a3.84,3.84,0,0,0,2.69,2s7.15,1.26,11.18-.59a3.61,3.61,0,0,0,2-2.5Z"/><path class="cls-12" d="M519.82,245c-2.33,10.69-5.77,27.76-5.87,34l-.21-.14a7.42,7.42,0,0,1-1.9-2c-1.16-1.72-.4-3.34-.2-5.28C512,268.63,519.15,246.34,519.82,245Z"/><path class="cls-10" d="M513.94,280.07a.57.57,0,0,1-.44-.22,24.44,24.44,0,0,0-2.7-3.2.54.54,0,0,1,.76-.76,26.54,26.54,0,0,1,2.82,3.33.53.53,0,0,1-.13.75A.5.5,0,0,1,513.94,280.07Z"/><path class="cls-5" d="M519.73,54.71c-1-.28-1.58-.41-1.58-.41l.08.68s.63,9.77-10.61,11.2a5.48,5.48,0,0,1-.7,0c-1.69,0-7.67-.64-8.35-8.83-1.14.12-2.25.26-3.31.44C493.64,65,492.18,69.39,491,72c.5.11,15.61,3.51,27.91-.63C518.46,68.47,518.46,63.44,519.73,54.71Zm3.56,1.11a119,119,0,0,1-.47,14.28s1,2,2,4.53A24.12,24.12,0,0,1,526.3,80a5.16,5.16,0,0,1,.36-.64,17.15,17.15,0,0,1,1.65-2.13,23.39,23.39,0,0,1,3.85-3.44,13.5,13.5,0,0,1,6.32-2.87c.93-.13,1.86-.21,2.79-.26v-.08C539.47,62.62,529.54,58,523.29,55.82ZM463.72,81.24a18.77,18.77,0,0,1,2.88.73,19.78,19.78,0,0,1,9.08,5.65,13,13,0,0,1,2,3.13,11.59,11.59,0,0,0,1.16,2.13,5.06,5.06,0,0,0,2.29,2l.39,0a74.33,74.33,0,0,1,3.93-19.79c.84-2.38,1.46-3.74,1.46-3.74l.09,0a89.37,89.37,0,0,1,4.6-12.82C470.19,63.78,463.72,81.24,463.72,81.24Zm75.55-4.11a1.7,1.7,0,0,1-1.67-.48c-.57-.53-.93-1.12-1.79-1.31-1-.24-1.91.63-2.74,1.2a14.44,14.44,0,0,0-2.39,2.24c-.33.36-.65.74-1,1.1a7.72,7.72,0,0,0-1.46,2.51,8.46,8.46,0,0,1-.43,1.44l0,0c.1.06.21.12.32.2a4.83,4.83,0,0,1,1.56,2.82l.14.05a6,6,0,0,1,.8-1.73,2.16,2.16,0,0,1,1.69-1v0c1-1.18,1.7-2.53,2.77-3.7.17-.19.35-.38.54-.56a16.89,16.89,0,0,1,3.67-2.76Zm5.12,3.25c-.55-1.45-2.91-1.17-4-.76a12.18,12.18,0,0,0-2.28,1.15,12,12,0,0,0-3.93,4.16l0,0a3.49,3.49,0,0,1,.71,1.6,10.13,10.13,0,0,1,.18,2l.1,0c.81-1.41,2-3,3.27-3.31l0-.16a8.25,8.25,0,0,1,5.38-4.46,3.74,3.74,0,0,1,.66-.09Z"/><path class="cls-13" d="M485.46,75.11a74.33,74.33,0,0,0-3.93,19.79l-.39,0a5.06,5.06,0,0,1-2.29-2,11.59,11.59,0,0,1-1.16-2.13,13,13,0,0,0-2-3.13,3.77,3.77,0,0,1,.51-.68A8.92,8.92,0,0,0,479,80.31c0-.82-.25-2.14.29-2.83.71-.91,1.18-.23,2.14-.09C483.7,77.71,484.54,76.44,485.46,75.11Z"/><path class="cls-13" d="M526.49,75.85c-.41-.29-1-.79-1.66-1.22A24.12,24.12,0,0,1,526.3,80a5.16,5.16,0,0,1,.36-.64,17.15,17.15,0,0,1,1.65-2.13Zm17.25,4.78h-.31c-1.75.06-3.55.2-5.33.15a12,12,0,0,0-3.93,4.16l0,0a3.49,3.49,0,0,1,.71,1.6,10.13,10.13,0,0,1,.18,2l.1,0c.81-1.41,2-3,3.27-3.31l0-.16A8.25,8.25,0,0,1,543.74,80.63Zm-12.33-1.42-.73-.43c-.33.36-.65.74-1,1.1a7.72,7.72,0,0,0-1.46,2.51,8.46,8.46,0,0,1-.43,1.44l0,0c.1.06.21.12.32.2a4.83,4.83,0,0,1,1.56,2.82l.14.05a6,6,0,0,1,.8-1.73,2.16,2.16,0,0,1,1.69-1v0c1-1.18,1.7-2.53,2.77-3.7A11.63,11.63,0,0,1,531.41,79.21Z"/><path class="cls-13" d="M496.71,66.46c1.92,3.77,8.91,6.53,12.84,4.93-2.49.49-6.38-1.08-8.31-2.54a35.81,35.81,0,0,1-4.85-4.76A4.61,4.61,0,0,0,496.71,66.46Z"/><path class="cls-14" d="M518.88,71.38c-.41-2.9-.41-7.94.86-16.66.89.24,2.12.61,3.55,1.1a119.12,119.12,0,0,1-.47,14.29c-.35,2.9-.94,5.13-1.93,5.23C520.89,75.34,519.47,75.42,518.88,71.38Z"/><path class="cls-15" d="M517.05,78.61a53.91,53.91,0,0,1-7.89,1.78c-11.51,1.64-16.59-2.24-16.59-2.24s-4,13.75,9.18,14.33l.14-.09-1.77-3a2.6,2.6,0,0,1,2.26-3.91,2.58,2.58,0,0,1,2.25,1.3l2.65,4.48.2-.07,0-5.54a2.62,2.62,0,0,1,2.1-2.55,3,3,0,0,1,.52,0,2.61,2.61,0,0,1,2.6,2.62l0,3.88c.54-.15,1.09-.29,1.64-.42C517.88,85.21,517.05,78.61,517.05,78.61Z"/><path class="cls-14" d="M491.62,58.58c1.17-.3,2.38-.54,3.64-.75C493.65,65.05,492.19,69.4,491,72h0c-2.27,4.82-3.72,3.67-3.72,3.67-.78-.41-.71-2.1-.21-4.27A88.87,88.87,0,0,1,491.62,58.58Z"/><path class="cls-16" d="M533.69,143.52c-1,24-8.86,52.12-8.86,52.12a58.64,58.64,0,0,1-21.68-5.78,77.27,77.27,0,0,1-25.47-20c-.27-.44-.55-.87-.83-1.29a42.09,42.09,0,0,0-13-12.32l-.55-11.18a40.94,40.94,0,0,0,13.66-17,58.16,58.16,0,0,0,4.57-16.87c.17-1.42.26-2.59.3-3.42a16.16,16.16,0,0,0-.08-2.51,60.69,60.69,0,0,1-.24-10.38,71.45,71.45,0,0,1,5.39-23.53l.09,0c-.49,2.18-.57,3.86.22,4.27,0,0,1.45,1.15,3.72-3.66h0c.5.11,15.61,3.51,27.91-.63.57,3.9,1.92,4,2,4,1-.11,1.58-2.33,1.94-5.24,0,0,3,5.82,3.48,9.85-.56,1.25-.47,2.46-1,3.73l.06.1c-.75.48-.66,1.74-.66,2.54q0,.65,0,1.29l.05.7a6.76,6.76,0,0,0-1-.64,5.39,5.39,0,0,0-5.86.73c-1.21.2-2.41.45-3.61.73,3.53-3.92,2.71-10.52,2.71-10.52a52.78,52.78,0,0,1-7.89,1.77c-11.52,1.65-16.59-2.24-16.59-2.24s-4,13.75,9.18,14.33l.14-.08.56,1c-7,3.49-11.78,8.23-10.61,13.25a6.9,6.9,0,0,0,2.1,3.5,9.59,9.59,0,0,0,2,1.43l8.93,10.19.48.18a1.63,1.63,0,0,0,.66,1.7s-2,4.9,11,6.73v0s0,6,16.42.7l0,.08A93.54,93.54,0,0,1,533.69,143.52Z"/><path class="cls-14" d="M475.68,139.53a4.69,4.69,0,0,1,3.48.94,16.19,16.19,0,0,1,2.81,2.41,38.92,38.92,0,0,1,4.31,6c2.55,4.22,4.3,8.87,6.5,13.16a47.19,47.19,0,0,0,8.39,11.77,34.9,34.9,0,0,0,5.56,4.65,25.2,25.2,0,0,0,6.5,3.25c-4.8-1.1-9.07-4-12.64-7.31a45.58,45.58,0,0,1-8.76-11.87c-1.1-2.21-2.08-4.48-3.05-6.7s-2.08-4.39-3.21-6.54a39.38,39.38,0,0,0-4-6.06A15.43,15.43,0,0,0,479,140.7a7.11,7.11,0,0,0-1.56-.9A3.14,3.14,0,0,0,475.68,139.53Z"/><path class="cls-14" d="M486,142.3a44.83,44.83,0,0,0,3.82,3.61,48.65,48.65,0,0,0,4.14,3.2,42.29,42.29,0,0,0,9.18,4.86,32.44,32.44,0,0,0,10.12,2.09,27.46,27.46,0,0,0,5.2-.24,36.67,36.67,0,0,0,5.15-1,27.78,27.78,0,0,1-10.36,2.1A29.17,29.17,0,0,1,502.79,155a36.52,36.52,0,0,1-9.28-5.21A37.55,37.55,0,0,1,486,142.3Z"/><path class="cls-14" d="M533.69,143.52a21.06,21.06,0,0,1-11.55-.13,67.12,67.12,0,0,1-11.43-4.73c-2.94-1.57-4.72-3.35-7.15-5.54-.59-.53-4.17-3-2.59-4,.66-.44,2.28.94,3.1,1-1.13-1.38-1.83-3-3.1-4.26-2.63-2.68-6.09-5.38-7.93-8.74-.78-1.44-1.52-4.8-.41-6.25a1.86,1.86,0,0,1,1.31-.71,9.59,9.59,0,0,0,2,1.43l8.93,10.19.48.18a1.63,1.63,0,0,0,.66,1.7s-2,4.9,11,6.73v0s0,6,16.42.7l0,.08A93.54,93.54,0,0,1,533.69,143.52Z"/><path class="cls-14" d="M503.71,147.53c-6.76-1.71-11.48-5.53-15.94-10.69-2.78-3.23-6.21-8-10.79-8.76a58.16,58.16,0,0,0,4.57-16.87c2.8,2.94,5,8.89,5.7,12.24,1.11,5.23,1.63,10.8,5.3,15.07A39.47,39.47,0,0,0,503.71,147.53Z"/><path class="cls-17" d="M558.12,79.93l.23.14c1.61,1.14,1,3,2.21,4.29,1.53,1.65,2.82,2.24,2.64,4.75a9.67,9.67,0,0,0-.21,2.78c.24,1.1.91,2.11.89,3.29,0,2.06-.85,4.52-2.61,5.65-.51-.81-1.17-1.54-1.64-2.46-.81-1.56-.4-3.7-.75-5.43-.44-2.3-1.48-4.72-3.57-5.94-1.83-1.07-3.84-1.42-5.45-2.87s-2.7-3.59-5.21-3.59h-.24l0-.16c-.54-1.46-2.91-1.18-4-.77a12.08,12.08,0,0,0-6.22,5.31l0,0a2.1,2.1,0,0,0-1.1-.67,1.93,1.93,0,0,0-.71-.07v0a39.12,39.12,0,0,1,3.31-4.26,17.73,17.73,0,0,1,3.67-2.76,13.07,13.07,0,0,1,2.5-1c2.22-.64,4.51-1,6.3.8,1.35,1.3,1.7,2.82,3.91,2.84C554,79.82,556.28,78.85,558.12,79.93Z"/><path class="cls-18" d="M560.65,108.19c.41,1.81,2.16,3.27,1.93,5.29-.16,1.45-1.84,3.11-3.39,2.48a2.38,2.38,0,0,1-1.18-1.1c-.87-1.56-.88-4-3.21-3.9-1,0-1.63.83-2.64.73a3.49,3.49,0,0,1-2.33-1.92,7.81,7.81,0,0,1-.87-5.11,18.34,18.34,0,0,1,.56-2.67c.59-2.13,1.14-3.89-.79-5.46-1.33-1.07-1.28-2-.8-3.56,1-3.2,1.45-6.47-1.25-9.47a2.6,2.6,0,0,0-2.77-1c-1.6.45-3,2.34-4.06,3.06a1.79,1.79,0,0,0-1.45-.31l0-.16c.62-1.58,3.19-4.4,6-4.54h.24c2.51,0,3.53,2.07,5.21,3.59s3.62,1.8,5.45,2.87c2.09,1.22,3.13,3.64,3.57,5.94.35,1.73-.06,3.87.75,5.43.47.92,1.13,1.65,1.64,2.46a4.23,4.23,0,0,1,.79,2.73C562,105.26,560.22,106.32,560.65,108.19Z"/><path class="cls-18" d="M557.24,72.3a5.46,5.46,0,0,1,2.67,4.52,5.18,5.18,0,0,1-1.79,3.11c-1.84-1.08-4.13-.11-6.11-.13-2.21,0-2.56-1.54-3.91-2.84-1.79-1.76-4.08-1.44-6.3-.8a13.07,13.07,0,0,0-2.5,1l0,0a1.75,1.75,0,0,1-1.68-.48c-.57-.53-.92-1.12-1.78-1.32-1.06-.23-1.92.64-2.74,1.21a19.6,19.6,0,0,0-3.36,3.33,7.85,7.85,0,0,0-1.46,2.52,7.87,7.87,0,0,1-.43,1.44l0,0a2.75,2.75,0,0,0-2.17-.21l-.24.12,0-.09c.48-1.27.4-2.49.95-3.73a5.26,5.26,0,0,1,.36-.65,21.9,21.9,0,0,1,5.5-5.57,13.7,13.7,0,0,1,6.32-2.87c.94-.13,1.86-.2,2.8-.26l.87-.06a5.54,5.54,0,0,1,4.58-3.48,5.67,5.67,0,0,1,3.85.44c1.07.72,1,1.84,1.53,2.86C553.24,72.41,555.47,71.54,557.24,72.3Z"/><path class="cls-17" d="M548.73,96.53c1.93,1.57,1.38,3.33.79,5.46a18.34,18.34,0,0,0-.56,2.67h-.1a3.57,3.57,0,0,0-1.86-1.5h0c-.78-.27-2.05,0-2.76-.58-.94-.72-.75-1.83-.35-2.84.21-.57.5-1.12.67-1.56.63-1.52,0-2-.7-3.21a3.4,3.4,0,0,1-.4-.93,4.29,4.29,0,0,1,.35-2.94,9.17,9.17,0,0,0,.91-5,11,11,0,0,0-.45-2.48,4.52,4.52,0,0,1-.29-.92l0-.19a2.6,2.6,0,0,1,2.77,1c2.7,3,2.24,6.27,1.25,9.47C547.45,94.57,547.4,95.46,548.73,96.53Z"/><path class="cls-19" d="M547,103.15l0,.1s-.53,1.19-1.52,3c-.92-.92-2.69.17-2.69.17a2.49,2.49,0,0,1-2.86-.15v0l.84-5.18h0a9.77,9.77,0,0,0,.92-1.52,1.63,1.63,0,0,0,2.21.23h0c-.4,1-.59,2.12.35,2.84.71.55,2,.31,2.76.58Z"/><path class="cls-20" d="M544.69,86.09a9.17,9.17,0,0,1-.91,5,4.29,4.29,0,0,0-.35,2.94l-1.35.11a7.21,7.21,0,0,0-2.54-3.45c.78-1.43,2-4,.31-5.12,1-.72,2.46-2.61,4.06-3.06l0,.19a4.52,4.52,0,0,0,.29.92A11,11,0,0,1,544.69,86.09Z"/><path class="cls-18" d="M542.74,106.37s1.77-1.09,2.69-.17a41.12,41.12,0,0,1-7,9.35l0,0,1.52-9.31A2.49,2.49,0,0,0,542.74,106.37Z"/><path class="cls-20" d="M543.83,95c.72,1.21,1.33,1.69.7,3.21-.17.44-.46,1-.67,1.56h0a1.63,1.63,0,0,1-2.21-.23,7,7,0,0,0,.62-4.78,5.58,5.58,0,0,0-.18-.58l1.35-.11A3.4,3.4,0,0,0,543.83,95Z"/><path class="cls-21" d="M542.26,94.71a7,7,0,0,1-.62,4.78,9.77,9.77,0,0,1-.92,1.52h0c-3.54,4.93-12.05,9-21,11.14-.63.15-1.25.29-1.87.41a0,0,0,0,1,0,0,59.68,59.68,0,0,1-6.54,1h0c-1.45.12-2.87.19-4.22.19-4.68,0-8.46-.76-11.11-2.19h0a7.71,7.71,0,0,1-4.14-4.94c-1.17-5,3.6-9.76,10.61-13.24l1.62,2.76-1,.53a2.43,2.43,0,0,0-.61-.06,4,4,0,0,0-3.89,3c-2.66,2.13-4,4.35-3.55,6.32l.07.23h0c.59,1.87,2.82,3.19,6.11,3.88l1,.17a31.1,31.1,0,0,0,6,.34h.15A53.68,53.68,0,0,0,519,109l1.07-.26.45-.12a48.49,48.49,0,0,0,11.39-4.45l.94-.54c4.38-2.66,6.85-5.65,6.25-8.19a3.92,3.92,0,0,0-1.31-2c.58-.85,1.14-1.69,1.64-2.59a.85.85,0,0,1,.09-.15,7.21,7.21,0,0,1,2.54,3.45A5.58,5.58,0,0,1,542.26,94.71Z"/><path class="cls-4" d="M540.72,101l-.84,5.18h0l-1.52,9.32h0c-2.7,2.56-5.92,4.58-9.55,4.89l-1.2-.5-7.78-3.21a1.75,1.75,0,0,0-1.74,3l4.72,3.63a9.58,9.58,0,0,1-4.61.49,19.15,19.15,0,0,1-5-1.2l-5.77-1.91a1.63,1.63,0,0,0-1.94.8c0,.12-.09.24-.13.35l-.48-.18L496,111.52h0c2.64,1.43,6.43,2.19,11.1,2.19,1.36,0,2.78-.06,4.23-.19h0a54.76,54.76,0,0,0,6.53-1h0c.63-.11,1.25-.25,1.87-.41a56.2,56.2,0,0,0,11.39-4C535.33,106.18,538.78,103.72,540.72,101Z"/><path class="cls-22" d="M539.53,90.68a.71.71,0,0,0-.08.15c-.51.89-1.07,1.74-1.65,2.59a26.74,26.74,0,0,0-2.95,5.09c-.12.31-.25.61-.4.92a17.8,17.8,0,0,0-1.6,4.17l0,0-1,.55a6.16,6.16,0,0,0-1.82-3.1c.06-.29.08-.64.15-.9a20.12,20.12,0,0,1,1.06-3.27c.19-.46.38-.92.56-1.38.56-1.36,1.11-2.72,1.75-4.06.16-.37.34-.74.53-1.1a19.69,19.69,0,0,1,1-1.82c.81-1.41,2-3,3.27-3.31a1.77,1.77,0,0,1,1.45.3C541.53,86.69,540.32,89.25,539.53,90.68Z"/><path class="cls-23" d="M539.12,95.46c.6,2.54-1.87,5.53-6.25,8.19l0-.05c.28-1.72,1.35-3.43,2-5.08a26.35,26.35,0,0,1,3-5.1A3.92,3.92,0,0,1,539.12,95.46Z"/><path class="cls-24" d="M535.12,88.56a19.69,19.69,0,0,0-1,1.82c-.19.36-.37.73-.53,1.1-.64,1.34-1.19,2.7-1.75,4.06-.18.46-.37.92-.56,1.38a20.12,20.12,0,0,0-1.06,3.27c-.07.26-.09.61-.15.9a6,6,0,0,0-2.52-1.37,30.09,30.09,0,0,1,.84-7.73c.1-.35.18-.69.28-1l0-.12c.27-1,.55-2.12.86-3.16,0,0,0,0,0,0,.07-.24.14-.48.23-.72a6,6,0,0,1,.8-1.73,2.16,2.16,0,0,1,1.69-1,2.18,2.18,0,0,1,.71.06,2.15,2.15,0,0,1,1.1.68,3.49,3.49,0,0,1,.71,1.6,10.13,10.13,0,0,1,.18,2Z"/><path class="cls-24" d="M531.92,104.19c-.55.31-1.13.62-1.73.9a50.41,50.41,0,0,1-9.65,3.55,4.83,4.83,0,0,1-.37-.8,1,1,0,0,0,0-.18,6.25,6.25,0,0,0-.4-2.22,6.12,6.12,0,0,1,1.68-4,6,6,0,0,1,1.61-1.22,6.13,6.13,0,0,1,2.87-.71h.4a5.66,5.66,0,0,1,1.24.23,6,6,0,0,1,2.52,1.37A6.16,6.16,0,0,1,531.92,104.19Z"/><path class="cls-22" d="M529.83,86.93c-.09.24-.16.48-.23.72,0,0,0,0,0,0-.31,1-.59,2.11-.86,3.16l0,.12c-.1.35-.18.69-.28,1a30.09,30.09,0,0,0-.84,7.73,5.66,5.66,0,0,0-1.24-.23v-.22a17.26,17.26,0,0,0-.59-2.59l-.15-.77c-.21-1.27-.31-2.53-.44-3.81s-.27-2.53-.35-3.79c0-.23,0-.46-.05-.7s0-.32,0-.48,0-.54,0-.81c0-.8-.09-2.06.66-2.54a.72.72,0,0,1,.23-.12,2.77,2.77,0,0,1,2.18.2c.1.06.21.12.32.2a4.83,4.83,0,0,1,1.56,2.82Z"/><path class="cls-25" d="M526.36,99.27v.23h-.41a6.13,6.13,0,0,0-4.47,1.92,4.76,4.76,0,0,0,.18-1.31,4.91,4.91,0,0,0-.51-2.2,1.46,1.46,0,0,0,.29,0,5.37,5.37,0,0,0,4.19-2c0,.26.09.5.15.76A20.51,20.51,0,0,1,526.36,99.27Z"/><path class="cls-26" d="M525.61,95.91a5.32,5.32,0,0,1-4.18,2,1.42,1.42,0,0,1-.29,0,5,5,0,0,0-4.42-2.84h-.05a.36.36,0,0,1,0-.09h0a5.13,5.13,0,0,1-.43-1.15,5.4,5.4,0,0,1-.15-1.28,3.48,3.48,0,0,1,0-.47A5.25,5.25,0,0,1,518,88.4a5.39,5.39,0,0,1,5.86-.73,5.67,5.67,0,0,1,1,.61l0,0c.08,1.26.22,2.52.35,3.79S525.4,94.64,525.61,95.91Z"/><path class="cls-11" d="M521.65,100.09a4.79,4.79,0,0,1-.19,1.32,6.12,6.12,0,0,0-1.68,4,6.36,6.36,0,0,0-6-4.14,4.17,4.17,0,0,0-.71,0,1.75,1.75,0,0,0-.32,0,4.42,4.42,0,0,0-.5.1l-.27.07h0l-.2.06a1.55,1.55,0,0,1-.06-.23,4.65,4.65,0,0,1-.15-.76,4.89,4.89,0,0,1,0-.54,4.73,4.73,0,0,1,.17-1.26,5,5,0,0,1,4.86-3.78h.12a5,5,0,0,1,4.42,2.84A5.11,5.11,0,0,1,521.65,100.09Z"/><path class="cls-26" d="M520.18,107.66a1,1,0,0,1,0,.18,5.43,5.43,0,0,1-.08.92L519,109a54.32,54.32,0,0,1-10.75,1.46h-.15a6.44,6.44,0,0,1-.62-2.18c0-.21,0-.43,0-.64a6.56,6.56,0,0,1,.41-2.26,5.58,5.58,0,0,1,.3-.66,6.25,6.25,0,0,1,.51-.82,6.41,6.41,0,0,1,3.13-2.3l.2-.06h0l.27-.07a4,4,0,0,1,.5-.1l.27,0h.05a1.53,1.53,0,0,1,.3,0,2.75,2.75,0,0,1,.41,0,6.36,6.36,0,0,1,6,4.14A6.25,6.25,0,0,1,520.18,107.66Z"/><path class="cls-23" d="M516.67,95.06h-.06a5,5,0,0,0-3.88,1.83v-4c.77-.23,1.56-.43,2.36-.62.34-.07.66-.15,1-.21a3.44,3.44,0,0,0,0,.46A5.31,5.31,0,0,0,516.67,95.06Z"/><path class="cls-21" d="M514.34,89.13c1.2-.27,2.41-.52,3.61-.73a5.33,5.33,0,0,0-1.88,3.66c-.33.06-.65.14-1,.21-.8.19-1.59.39-2.36.62l0-3.34C513.24,89.4,513.79,89.26,514.34,89.13Z"/><path class="cls-17" d="M512.72,95.29v1.59a5,5,0,0,0-1,2l-.52-.89-2-3.34-.31-.53h0l-1.45-2.46v-.43l0-5.53a2.62,2.62,0,0,1,2.09-2.55,3.17,3.17,0,0,1,.53,0,2.61,2.61,0,0,1,2.6,2.62V90.2l0,2.68Z"/><path class="cls-18" d="M511.81,101.62a6.41,6.41,0,0,0-3.13,2.3l-.46-.77-.7-1.19h0l-.47-.8-.6-1h0a4,4,0,0,0-1.63-2.76l-.74-1.25-1.62-2.77-.56-1-1.77-3a2.61,2.61,0,0,1,.95-3.57,2.55,2.55,0,0,1,1.3-.34,2.58,2.58,0,0,1,2.26,1.3l2.64,4.48.21.34h0l1.45,2.46h0l.31.53,2,3.34.52.89a4.73,4.73,0,0,0-.17,1.26A5.16,5.16,0,0,0,511.81,101.62Z"/><path class="cls-23" d="M507.53,102l1.16,2a4.86,4.86,0,0,0-.52.81,4,4,0,0,0-2.82-1.14h-.16a4,4,0,0,0,1.29-3,4.41,4.41,0,0,0,0-.52l1.08,1.83Z"/><path class="cls-25" d="M507.49,108.3a6.44,6.44,0,0,0,.62,2.18,31.81,31.81,0,0,1-6-.35,3.09,3.09,0,0,1-.39-.6,3.84,3.84,0,0,0,1.13-1.62,3.74,3.74,0,0,0,.27-1.42,3.85,3.85,0,0,0-.43-1.79.11.11,0,0,0-.05-.09,3.94,3.94,0,0,1,2.51-1h.17a4,4,0,0,1,2.82,1.14,5.58,5.58,0,0,0-.3.66,6.56,6.56,0,0,0-.41,2.26C507.46,107.87,507.47,108.09,507.49,108.3Z"/><path class="cls-24" d="M506.48,100.64a4.23,4.23,0,0,1-.16,1.13h0a4,4,0,0,1-1.12,1.84h0a3.94,3.94,0,0,0-2.51,1,4,4,0,0,0-3.59-2.18h-.3a3.22,3.22,0,0,1-.24-.61,3.85,3.85,0,0,1-.18-1.19,4.21,4.21,0,0,1,.16-1.12,4.06,4.06,0,0,1,3.9-2.94,3,3,0,0,1,.61,0,4,4,0,0,1,3.41,3.49h0A4.24,4.24,0,0,1,506.48,100.64Z"/><path class="cls-11" d="M503.15,106.49a4,4,0,0,1-1.4,3,3.07,3.07,0,0,1-.59.43,13.43,13.43,0,0,1-3.7-1.29,4.71,4.71,0,0,1-2.42-2.59h0a4.08,4.08,0,0,1,3.43-3.6l.31,0h.3a4,4,0,0,1,3.59,2.18.11.11,0,0,1,.05.09A3.85,3.85,0,0,1,503.15,106.49Z"/><path class="cls-23" d="M498.53,99.53a3.75,3.75,0,0,0-.16,1.12,4,4,0,0,0,.42,1.79,4.05,4.05,0,0,0-3.74,3.64l-.07-.23C494.52,103.88,495.87,101.66,498.53,99.53Z"/><path class="cls-23" d="M503,96.64a9.17,9.17,0,0,1,1-.53l.75,1.26A3.92,3.92,0,0,0,503,96.64Z"/><path class="cls-27" d="M540.72,101l-.84,5.18h0l-1.52,9.32h0c-2.7,2.56-5.92,4.58-9.55,4.89l-1.2-.5a37.69,37.69,0,0,0,3.52-11.73C535.33,106.18,538.78,103.72,540.72,101Z"/><path class="cls-28" d="M532.85,103.6l0,0-1,.55a6.16,6.16,0,0,0-1.82-3.1,6,6,0,0,0-2.52-1.37,5.66,5.66,0,0,0-1.24-.23v-.22a17.26,17.26,0,0,0-.59-2.59l-.15-.77c-.21-1.27-.31-2.53-.44-3.81s-.27-2.53-.35-3.79c0-.23,0-.46-.05-.7s0-.32,0-.48c.66,1.85,1.79,3.41,3.94,3.82l.08,0c.13,2.22.89,3.82,3.09,4.57l.08,0a4,4,0,0,0,2,3.53l.51.33A17.8,17.8,0,0,0,532.85,103.6Z"/><path class="cls-28" d="M506.31,101.77a4,4,0,0,1-1.12,1.84h0a3.94,3.94,0,0,0-2.51,1,.11.11,0,0,1,.05.09,3.85,3.85,0,0,1,.43,1.79,4,4,0,0,1-1.4,3,3.07,3.07,0,0,1-.59.43,13.43,13.43,0,0,1-3.7-1.29,2.93,2.93,0,0,1,.49-1.25c.53-.73,1.4-1,1.73-1.89.55-1.55-.71-2.08-1.21-3.06a1.62,1.62,0,0,1-.18-.55l.25-.09c1.61-.58,2.72-.12,4.37.18A6.51,6.51,0,0,0,506.31,101.77Z"/><path class="cls-28" d="M512.72,95.3a1,1,0,0,0,0,.56v1a5,5,0,0,0-1,2,4.73,4.73,0,0,0-.17,1.26,5.16,5.16,0,0,0,.24,1.53,6.41,6.41,0,0,0-3.13,2.3l-.46-.77-.7-1.19h0l-.47-.8,0-.05c.29-.55.16-1.51.35-2.13.27-.88.67-1.71,1-2.58a11.79,11.79,0,0,1,.82-1.79,8.19,8.19,0,0,1,1.56-1.86,8.87,8.87,0,0,0,1.88-2.54l0,2.68v2.41Z"/><path class="cls-28" d="M530.19,105.09a50.41,50.41,0,0,1-9.65,3.55,4.83,4.83,0,0,1-.37-.8,5.43,5.43,0,0,1-.08.92L519,109a54.32,54.32,0,0,1-10.75,1.46h-.15a31.81,31.81,0,0,1-6-.35,3.09,3.09,0,0,1-.39-.6,3.84,3.84,0,0,0,1.13-1.62,5.53,5.53,0,0,1,4.16.14l.45.25c.84.46,1.92,1,2.72.44s.83-1.67,2.08-2,2.4-.07,3.26-1.21a1.87,1.87,0,0,0-.31-2.68c-1-.89-2.13-.78-3.18-1.28l0,0h0a1.06,1.06,0,0,1-.26-.17.59.59,0,0,1-.15-.76,1.75,1.75,0,0,1,1.18-.78c1.55-.37,3,.67,4.44-.14a2.34,2.34,0,0,0,.59-3.51,15.34,15.34,0,0,0-1.09-1.15l-.09-.09h0c-.44-.47-.75-.91-.43-1.15a1.47,1.47,0,0,1,.78-.19c1.82-.08,3.88-.13,5.48-1.17a6.39,6.39,0,0,0,2.33-4.16l0,0c.08,1.26.22,2.52.35,3.79s.23,2.54.44,3.81a5.32,5.32,0,0,1-4.18,2,1.42,1.42,0,0,1-.29,0,5.11,5.11,0,0,1,.51,2.2,4.79,4.79,0,0,1-.19,1.32,6,6,0,0,1,1.61-1.22,3.5,3.5,0,0,0,.3,3c1.17,1.66,2.86.49,4.47.72A3.84,3.84,0,0,1,530.19,105.09Z"/><path class="cls-29" d="M519.48,20.94c-1.48.14-3,.3-4.38.5a113.4,113.4,0,0,0-22.53,5.4,104.66,104.66,0,0,0-10.95,4.58,47.19,47.19,0,0,0,11.95,1.14h0l1.14,6.51C472.67,43.93,471,35.71,471,35.71s-2.66-8.18,21.9-15.21c1-.29,2.08-.58,3.2-.87a146.09,146.09,0,0,1,19-4.15c9.28-1.31,19.15-1.4,22.43,3.22a3.35,3.35,0,0,1,.59,2.24c-.26,2.68-2.55,8.81-17.63,12.54a3.1,3.1,0,0,0-1.72-2.22l.3-4.71h0a67.15,67.15,0,0,0,10.29-6.05C526,20.49,522.68,20.65,519.48,20.94Z"/><path class="cls-30" d="M527.76,20.85a32.86,32.86,0,0,0,3.94-.48c.58-.05,3.27-.56,3.75-.1.87.84-.89,3.46-1.46,4.11a10.73,10.73,0,0,1-2.39,1.68,28.4,28.4,0,0,1-5.88,3.27,123.8,123.8,0,0,1-23.63,6c-4.48.64-8.87,2-13.38,2.38-3.4.32-7.45.55-10.5-1.24-1.83-1.08-2.26-2.52-.31-3.63a18.13,18.13,0,0,1,4-1.56,26.26,26.26,0,0,1,4.19-.59A51,51,0,0,0,493.08,29c3.15-.8,6.21-1.94,9.37-2.7,3.59-.87,7.12-1.66,10.68-2.68a43.21,43.21,0,0,1,7.21-1.19,27.51,27.51,0,0,0,5.11-.92A10.13,10.13,0,0,1,527.76,20.85Z"/><path class="cls-31" d="M519.48,20.94c3.2-.29,6.53-.45,10-.44a67.15,67.15,0,0,1-10.29,6.05h0Z"/><path class="cls-30" d="M515.14,15.48a144.28,144.28,0,0,0-19,4.15c-1.12.29-2.18.58-3.21.87,0,0,0-.21-.08-.57-.2-2-.23-8.6,7.93-11.57a9.25,9.25,0,0,1,2-.48,14.18,14.18,0,0,1,6.74.56C512,9.38,514.28,11.39,515.14,15.48Z"/><path class="cls-31" d="M493.13,30l.45,2.53h0a47.19,47.19,0,0,1-11.95-1.14,104.66,104.66,0,0,1,10.95-4.58Z"/><path class="cls-28" d="M515.14,15.48a144.28,144.28,0,0,0-19,4.15c-1.12.29-2.18.58-3.21.87,0,0,0-.21-.08-.57a4.92,4.92,0,0,1,.69-.47c2.05-1.18,4-1.58,6.18-2.43,2.78-1.09,6.65-1.63,8.65-4a5.68,5.68,0,0,0,1.21-4.05c0-.11,0-.29-.06-.5C512,9.38,514.28,11.39,515.14,15.48Z"/><path class="cls-23" d="M519.48,20.94l-.22,3.39-.14,2.22-.3,4.71A2.75,2.75,0,0,0,518,31a2.84,2.84,0,0,0-1.05,0l-1.4-7.19-.39-2,0-.36C516.53,21.24,518,21.08,519.48,20.94Z"/><path class="cls-32" d="M518.23,55s.64,9.78-10.61,11.21a5.37,5.37,0,0,1-.7,0c-1.68,0-7.67-.65-8.35-8.84,0-.32,0-.64-.05-1,9.79,1.57,13.55-7.66,14-9l.51-.48c1.22-1.19,2.82-1.94,4-3.21l1.11,10.56Z"/><path class="cls-33" d="M512.6,47.3a.63.63,0,0,1,0,.14c-.49,1.3-4.25,10.53-14,9,0-.36,0-.74,0-1.12V49.73a6.35,6.35,0,0,0,1.05.69l.31.16.37.16A7.71,7.71,0,0,0,501,51C506.65,52.52,512.3,47.57,512.6,47.3Z"/><path class="cls-32" d="M520.54,33.47a3.08,3.08,0,0,0-1.72-2.21A2.75,2.75,0,0,0,518,31a2.84,2.84,0,0,0-1.05,0l-1.4-7.19-.39-2,0-.36a112.27,112.27,0,0,0-14.6,2.94c-2.88.78-5.53,1.62-7.93,2.47l.56,3.18.45,2.54,1.14,6.5.54,3a18.23,18.23,0,0,1,2.46-3.34,8.27,8.27,0,0,1,4-2.24,8.77,8.77,0,0,1,2.73-.26,10,10,0,0,1,5.63,2.34,4,4,0,0,0,4.26,1c.59-.18,1.38-.89,2.09-1.18l-.17-1.55a3.2,3.2,0,0,0,1.2.23A3.08,3.08,0,0,0,520.54,33.47ZM499,32.74a1.33,1.33,0,0,1-1.33-1.32A1.31,1.31,0,0,1,499,30.09a1.33,1.33,0,1,1,0,2.65Zm9.94-.81a1.33,1.33,0,1,1,1.34-1.32A1.33,1.33,0,0,1,509,31.93Z"/><path class="cls-34" d="M512.6,47.3c-.3.27-6,5.22-11.59,3.7a7.71,7.71,0,0,1-.77-.26,3,3,0,0,1-.37-.16l-.31-.16a6.35,6.35,0,0,1-1.05-.69l-.23-.19a3.89,3.89,0,0,1-.36-.34,5,5,0,0,1-.68-.77A2.76,2.76,0,0,1,497,48l0-.06a3.45,3.45,0,0,1-.25-.41,7.24,7.24,0,0,1-.74-1.84,4.47,4.47,0,0,1-.14-.61l-.53-3a18,18,0,0,1,2.46-3.35,8.3,8.3,0,0,1,4-2.23,8.82,8.82,0,0,1,2.73-.27,10.08,10.08,0,0,1,5.64,2.34,4,4,0,0,0,4.25,1c.6-.18,1.38-.89,2.09-1.18l.57,5.33c-1.16,1.27-2.76,2-4,3.21l-.51.48A.63.63,0,0,0,512.6,47.3Z"/><path d="M509,29.28a1.33,1.33,0,1,1-1.34,1.34A1.33,1.33,0,0,1,509,29.28Z"/><path d="M499,30.09a1.33,1.33,0,1,1-1.33,1.33,1.38,1.38,0,0,1,.23-.75A1.34,1.34,0,0,1,499,30.09Z"/><path class="cls-35" d="M499.72,42A5.73,5.73,0,0,0,504,43.22a8.44,8.44,0,0,0,2.16-.68l1.07-.54c.35-.2.71-.41,1.1-.59a12.25,12.25,0,0,1-.77,1c-.31.29-.63.58-1,.84a5.65,5.65,0,0,1-2.44,1,4.41,4.41,0,0,1-2.65-.44A4,4,0,0,1,499.72,42Z"/><path class="cls-35" d="M502.29,31a26.66,26.66,0,0,1,.1,4.37,42.1,42.1,0,0,1-.46,4.33l-.45-.49a22.86,22.86,0,0,1,3.28.44,22.88,22.88,0,0,1-3.28.45.43.43,0,0,1-.44-.38v-.11c0-1.45.17-2.89.35-4.33A24.51,24.51,0,0,1,502.29,31Z"/><path class="cls-23" d="M495.67,30.06a3.55,3.55,0,0,1,1.09-1.34,4.29,4.29,0,0,1,1.58-.76,3.58,3.58,0,0,1,1.78,0,2.91,2.91,0,0,1,1.49.88A14.75,14.75,0,0,0,500,28.8a6.25,6.25,0,0,0-1.43.21A19.28,19.28,0,0,0,495.67,30.06Z"/><path class="cls-23" d="M505.55,28.55a5.22,5.22,0,0,1,1.71-1.19,6.92,6.92,0,0,1,2-.59,5.66,5.66,0,0,1,2.13.15A4,4,0,0,1,513.23,28a15.93,15.93,0,0,0-2-.24,11.66,11.66,0,0,0-1.87.09C508.15,28,506.92,28.29,505.55,28.55Z"/><path class="cls-36" d="M516.85,35.36a2.32,2.32,0,0,1,.54-1.89,2.51,2.51,0,0,1,1.73-.91,8.08,8.08,0,0,0-1.35,1.23A6,6,0,0,0,516.85,35.36Z"/><path class="cls-37" d="M519.48,20.94l-.22,3.39c-1.14-.17-2.2-.37-2.7-.42l-1-.08a54.84,54.84,0,0,0-9,.24c-2,.19-4,.14-6,.3a112.27,112.27,0,0,1,14.6-2.94C516.53,21.24,518,21.08,519.48,20.94Z"/><path class="cls-38" d="M482.06,290.73l-2.93-14-1-4.85a7.56,7.56,0,0,0-7.41-6h-2.5l4.22-16.31c.62,0,1.29,0,1.94,0l7.13.54.4,28.46Z"/><path class="cls-39" d="M478.12,271.89l3.94,18.85-4.05,1.7a24.72,24.72,0,0,1-20.86-.77l-3.38-1.74L458,271.75a7.56,7.56,0,0,1,7.38-5.88h5.37A7.59,7.59,0,0,1,478.12,271.89Z"/><path class="cls-40" d="M472.42,249.56l-4.22,16.31-4.18-15-.86-.09a23.8,23.8,0,0,0,2.15-1.39h3.15S470.24,249.56,472.42,249.56Z"/><path class="cls-38" d="M468.2,265.87h-2.87a7.59,7.59,0,0,0-7.38,5.88l-4.18,18.17.45-32.36,0-3.45a31.44,31.44,0,0,0,8.89-3.31l.86.09Z"/><path class="cls-40" d="M453.77,289.93c1-5.23,2.07-10.43,3.17-15.63a30.27,30.27,0,0,1,1-3.95,8.08,8.08,0,0,1,2.55-3.32,8,8,0,0,1,3.88-1.6,16.18,16.18,0,0,1,2.06-.08h4a8.29,8.29,0,0,1,2.09.21,8.09,8.09,0,0,1,5.92,5.54c.35,1.36.54,2.62.81,3.94l1.48,7.84c.46,2.62,1,5.23,1.38,7.86-.66-2.58-1.26-5.17-1.89-7.76l-1.78-7.77c-.31-1.27-.57-2.64-.89-3.84a7.06,7.06,0,0,0-5.25-4.81,7.67,7.67,0,0,0-1.87-.16h-4a17.34,17.34,0,0,0-1.93,0,7.12,7.12,0,0,0-5.7,4.27,12.22,12.22,0,0,0-.54,1.83l-.48,1.94C456.47,279.64,455.18,284.8,453.77,289.93Z"/><path class="cls-41" d="M481.89,278.52c-.93-.58-1.84-1.19-2.76-1.78-1.14-.74-2.28-1.47-3.45-2.17A91.25,91.25,0,0,1,463.75,266c-2.9-2.38-5.69-4.9-8.34-7.44-.3-.29-.73-.65-1.19-1l0-3.45a31.44,31.44,0,0,0,8.89-3.31,23.8,23.8,0,0,0,2.15-1.39h3.15s1.78.15,4,.15c.62,0,1.29,0,1.94,0l7.13.54Z"/><path class="cls-42" d="M468.25,113.73c.73,0,1.32,1.21,1.32,2.71s-.59,2.7-1.32,2.7h-.15c-.66-.16-1.17-1.31-1.17-2.69S467.52,113.73,468.25,113.73Z"/><path class="cls-30" d="M468.46,249.41h-3.15l-.15-2.07-3.34-45.77L458,149.39l-1.48-20.31-.24-3.31a1.58,1.58,0,0,0,1.53,1.16h.2a1.56,1.56,0,0,0,1.37-1.66c0-.28,0-.57-.06-.88h.17a3.4,3.4,0,0,0,2.68-2.66l0,.7.51,10.37.61,12.31.55,11.18,1,19.38,1.25,25.48,2.24,45.43Z"/><path class="cls-30" d="M468.09,119.12l-.88-.09-2.15-.21-2.44-.24h0a15.29,15.29,0,0,0-.05-1.66,12.6,12.6,0,0,1,.75-3.39h0l3,.12.79,0,1.16,0c-.73,0-1.32,1.22-1.32,2.71S467.44,119,468.09,119.12Z"/><path class="cls-41" d="M462.2,122.41l.51,10.37-1.52-1.05a50,50,0,0,0-4.67-2.65l-.24-3.31a1.58,1.58,0,0,0,1.53,1.16h.2a1.56,1.56,0,0,0,1.37-1.66c0-.28,0-.57-.06-.88h.17a3.4,3.4,0,0,0,2.68-2.66Z"/><path class="cls-41" d="M465.52,115.16a8.21,8.21,0,0,0-.46,3.66l-2.44-.24h0a15.29,15.29,0,0,0-.05-1.66,12.6,12.6,0,0,1,.75-3.39h0l3,.12A11.93,11.93,0,0,0,465.52,115.16Z"/><path class="cls-32" d="M478.85,92.88a22.26,22.26,0,0,0-4.23,2.22,27.69,27.69,0,0,0-8.94,10.25,23.12,23.12,0,0,0-1.44,3.28h0l-.12.14a8.75,8.75,0,0,1,3,4.9l-3.76-.15h0a12.6,12.6,0,0,0-.75,3.39,15.29,15.29,0,0,1,.05,1.66,11.13,11.13,0,0,1-.44,3.13,3.4,3.4,0,0,1-2.68,2.66h-.17c0,.31,0,.6.06.88a1.56,1.56,0,0,1-1.37,1.66h-.2a1.58,1.58,0,0,1-1.53-1.16,32.81,32.81,0,0,1-.79-3.6,4.13,4.13,0,0,1-3-3c-4.46-1.35-2.5-8.45-2.5-8.45,0-1.45,2.36-3.11,2.36-3.11l.46-7.74a11.74,11.74,0,0,1,1.63-5.4c3-5,8.59-9.7,11-11.59.67-.53,1.09-.84,1.14-.87,3.34,1,8.69,3.51,11.09,8.78A11.59,11.59,0,0,0,478.85,92.88Z"/><path class="cls-33" d="M462.63,118.59l4.59.45c-.51,3.44-5,3.37-5,3.37l0-.69a11.26,11.26,0,0,0,.45-3.13Z"/><path class="cls-36" d="M455.49,122.72a.54.54,0,0,1-.53-.45,23.1,23.1,0,0,1-.07-8.65.54.54,0,1,1,1.05.22,22.26,22.26,0,0,0,.08,8.25.54.54,0,0,1-.44.62Z"/><path class="cls-36" d="M459.33,124.92a.54.54,0,0,1-.54-.51c-.23-4-.4-9.9-.4-10a.54.54,0,0,1,.52-.55h0a.54.54,0,0,1,.54.52c0,.06.16,5.92.39,9.93a.54.54,0,0,1-.5.57Z"/><path class="cls-36" d="M452.52,119.67a.55.55,0,0,1-.51-.36,18.55,18.55,0,0,1-.58-6.93.52.52,0,0,1,.59-.47.53.53,0,0,1,.48.59A17.47,17.47,0,0,0,453,119a.53.53,0,0,1-.33.68A.57.57,0,0,1,452.52,119.67Z"/><path class="cls-33" d="M478.85,92.88a22.26,22.26,0,0,0-4.23,2.22c-.19-.58-.33-1.11-.46-1.4a27.18,27.18,0,0,0-2.65-5.28,28.13,28.13,0,0,0-6.05-5.58c.67-.53,1.09-.84,1.14-.87,3.34,1,8.69,3.51,11.09,8.78A11.59,11.59,0,0,0,478.85,92.88Z"/><path class="cls-33" d="M465.68,105.35a23.12,23.12,0,0,0-1.44,3.28,25.52,25.52,0,0,0-8.15-2.53,10.41,10.41,0,0,1,5.89-1.74A8,8,0,0,1,465.68,105.35Z"/><path class="cls-36" d="M464.12,109.32a.59.59,0,0,1-.35-.12,10.72,10.72,0,0,0-4.69-2.22.54.54,0,0,1-.45-.61.55.55,0,0,1,.62-.45,11.69,11.69,0,0,1,5.22,2.45.55.55,0,0,1,.06.76A.52.52,0,0,1,464.12,109.32Z"/><path class="cls-36" d="M462.18,122.25a.5.5,0,0,1-.17,0,.54.54,0,0,1-.35-.68,10.54,10.54,0,0,0,.42-3A14.46,14.46,0,0,0,462,117a.24.24,0,0,1,0-.12,13.08,13.08,0,0,1,.79-3.53,3,3,0,0,1,.51-.89.54.54,0,0,1,.76,0,.55.55,0,0,1,0,.76,2.36,2.36,0,0,0-.31.57,12.08,12.08,0,0,0-.71,3.19,14.34,14.34,0,0,1,0,1.67,11.93,11.93,0,0,1-.46,3.28A.54.54,0,0,1,462.18,122.25Z"/><path class="cls-32" d="M558,114.85a18.49,18.49,0,0,1-3.72,4.22c-5.74,5-15,9.64-16.87,10.55a4.27,4.27,0,0,1-.66.29c-1.16.43-2.26.81-3.29,1.14-16.42,5.33-16.42-.7-16.42-.7v0c-13-1.83-11-6.73-11-6.73a1.63,1.63,0,0,1-.66-1.7c0-.11.08-.23.13-.35a1.63,1.63,0,0,1,1.94-.8l5.77,1.91a19.15,19.15,0,0,0,5,1.2,9.58,9.58,0,0,0,4.61-.49l-4.72-3.63a1.75,1.75,0,0,1,1.74-3l9,3.71c3.63-.31,6.85-2.33,9.55-4.89a35.06,35.06,0,0,0,4-4.63,45.47,45.47,0,0,0,3-4.71c1-1.76,1.53-3,1.53-3l0-.09a3.48,3.48,0,0,1,1.86,1.49H549a7.72,7.72,0,0,0,.87,5.12,3.48,3.48,0,0,0,2.32,1.91c1,.11,1.68-.7,2.65-.73C557.13,110.89,557.14,113.29,558,114.85Z"/><path class="cls-33" d="M558,114.85a18.49,18.49,0,0,1-3.72,4.22l-.39-.53a15.12,15.12,0,0,0-3.43-3.15,27.53,27.53,0,0,0-3.34-2.45c-.83-.43-1.78-.68-2.63-1.1-.68-.33-1.41-.65-2.11-.93a45.47,45.47,0,0,0,3-4.71c1-1.76,1.53-3,1.53-3l0-.09a3.48,3.48,0,0,1,1.86,1.49H549a7.72,7.72,0,0,0,.87,5.12,3.48,3.48,0,0,0,2.32,1.91c1,.11,1.68-.7,2.65-.73C557.13,110.89,557.14,113.29,558,114.85Z"/><path class="cls-36" d="M515.92,127.66c-4.3,0-8.11-2.17-10.18-3.62a.54.54,0,0,1-.13-.75.53.53,0,0,1,.75-.13c1.85,1.29,6.68,4.2,11.69,3.22a.54.54,0,0,1,.21,1.05A11.75,11.75,0,0,1,515.92,127.66Z"/><path class="cls-36" d="M519.45,130.06c-.82-.09-1.59-.17-2.32-.27l-1-.15a21.11,21.11,0,0,1-7.45-2.35.54.54,0,1,0-.57.91,22.11,22.11,0,0,0,7.85,2.5l1,.16c.73.1,1.51.18,2.35.27h0a.54.54,0,0,0,.06-1.07Z"/><path class="cls-6" d="M402.43,294.14c0,3.84-18.19,6.95-40.61,6.95s-40.61-3.11-40.61-6.95,18.18-6.94,40.61-6.94S402.43,290.31,402.43,294.14Z"/><path class="cls-43" d="M422.26,158.61a1.14,1.14,0,0,1-.52,1.62,1.3,1.3,0,0,1-1.55-.15s-.12-.1-.29-.27a3.08,3.08,0,0,1-1-1.84,1.17,1.17,0,0,1,.69-1,2.3,2.3,0,0,1,2.35,1.13A2.78,2.78,0,0,1,422.26,158.61Z"/><path class="cls-43" d="M419.9,159.81c.49,1.08-.87,1.74-.87,1.74-.38.27-1.11-.12-1.77-.6a15.5,15.5,0,0,1-1.29-1.1,3.6,3.6,0,0,1-1.42-2.08,1.67,1.67,0,0,1,.69-1.64c1.53-.88,3.64,1.84,3.64,1.84A3.08,3.08,0,0,0,419.9,159.81Z"/><path class="cls-43" d="M417.26,161a1,1,0,0,1-.29,1.34,2.17,2.17,0,0,1-2.76-.06,5.48,5.48,0,0,1-.56-.52,12.36,12.36,0,0,1-1-1.15,4.63,4.63,0,0,1-1.39-2.79,1.55,1.55,0,0,1,.79-1.43c1.28-.73,2.49,1.43,2.49,1.43h0a3.6,3.6,0,0,0,1.42,2.08A15.5,15.5,0,0,0,417.26,161Z"/><path class="cls-43" d="M412.64,160.56a12.36,12.36,0,0,0,1,1.15c-1.88,1.88-3.73-1.91-3.73-1.91a2.51,2.51,0,0,1-.16-1c0-1.27,1.49-1.07,1.49-1.07A4.63,4.63,0,0,0,412.64,160.56Z"/><path class="cls-44" d="M420.19,160.62a.54.54,0,0,1-.34-.12,4.57,4.57,0,0,1-1.51-2.53.54.54,0,0,1,1.07,0,2.54,2.54,0,0,0,.87,1.46,2.11,2.11,0,0,0,.25.23.54.54,0,0,1,.07.76A.53.53,0,0,1,420.19,160.62Z"/><path class="cls-44" d="M417.26,161.49a.51.51,0,0,1-.31-.11,14.35,14.35,0,0,1-1.35-1.14,4.25,4.25,0,0,1-1.59-2.39.54.54,0,0,1,1.07-.16,3.31,3.31,0,0,0,1.24,1.76s.62.59,1.26,1.07a.54.54,0,0,1,.12.75A.56.56,0,0,1,417.26,161.49Z"/><path class="cls-44" d="M413.65,162.25a.54.54,0,0,1-.38-.16,14.38,14.38,0,0,1-1.06-1.2,5.11,5.11,0,0,1-1.5-3.11.54.54,0,0,1,.53-.55.53.53,0,0,1,.54.53,4.29,4.29,0,0,0,1.27,2.45,11.8,11.8,0,0,0,1,1.12.54.54,0,0,1,0,.76A.51.51,0,0,1,413.65,162.25Z"/><path class="cls-11" d="M376.85,249.71c-.13.49-.21.75-.21.75H364.29l.7-5.22,2.26-16.85,1.21-9a6.12,6.12,0,0,0-.28-2.82l-14.5-41.86-.21-.61c-2.61,23.6-7,70-7.51,75.78,0,.39,0,.6,0,.6H334.84a21.38,21.38,0,0,1-1.15-3.67c-2.74-11.86-2.4-37.69-2.14-42.87a8.23,8.23,0,0,0-.12-1.85A336.42,336.42,0,0,1,327,165c-.06-1.11-.13-2.19-.17-3.26C339.7,160.34,339,142.26,339,142.26h0c1.16.15,2.38.26,3.67.35a64.17,64.17,0,0,0,7.24.05,63.18,63.18,0,0,0,6.59-.67v10.07l2.36.42,21.21,3.89C392.47,190.68,378.75,242.86,376.85,249.71Z"/><path class="cls-12" d="M364.49,88.39l.82,4.92-2.44.48c0-.26-.35-2-.91-4.44C360.1,81,356.05,64,356.05,64h0a27.25,27.25,0,0,1,4.46.7Z"/><path class="cls-12" d="M341.56,91.23l1.13,6.71-2.44.47c0-.3-.5-2.61-1.23-5.84-2-8.8-5.7-24.4-5.7-24.4a28,28,0,0,1,3.64-.64,11.41,11.41,0,0,0,1,2.55Z"/><path class="cls-11" d="M370.46,110.55a1.09,1.09,0,0,0,0,.17,1.09,1.09,0,0,1,0-.17Z"/><path class="cls-11" d="M370.22,103.14c-1-4.46-3.57-10.25-4.9-13.06h0c-.49-1.06-.82-1.69-.82-1.69h0l.83,4.91-2.44.48c0-.25-.35-2-.91-4.43-8,4.6-20.4,1.88-20.4,1.88l1.12,6.7-2.44.48c0-.3-.49-2.62-1.22-5.84l-1.76,9.72a49.85,49.85,0,0,0,19.35,23.55V113.78l2.22-.41h0a7,7,0,0,1,.37-2.1,9.24,9.24,0,0,1-4.11.75s-12.51,1.2-10.91-13.61c0,0,11.95,3.1,19.94-1a22.27,22.27,0,0,1-.42,7.89A14.66,14.66,0,0,1,370.22,103.14ZM369,110.93c-.05.2-.1.41-.14.59l1.42-.26a4.54,4.54,0,0,1,.12-.53C370.2,111.36,369,110.93,369,110.93ZM353.56,135l-13-5.46a26.48,26.48,0,0,1-10.89-9,59.9,59.9,0,0,0-1.73,8.78c-.23,1.59-.45,3.41-.64,5.45h0a53.77,53.77,0,0,0,29.2,2.88v-1.45Z"/><path class="cls-45" d="M356.52,137.69V142a63.09,63.09,0,0,1-6.59.66,64,64,0,0,1-7.23-.05c-1.29-.08-2.52-.19-3.68-.34A52.84,52.84,0,0,1,327,139.53c.1-1.69.23-3.26.36-4.72h0A53.83,53.83,0,0,0,356.52,137.69Z"/><path class="cls-45" d="M339,142.27s.68,18.08-12.14,19.51a209.35,209.35,0,0,1,.08-22.25A52.84,52.84,0,0,0,339,142.26Z"/><path class="cls-10" d="M327,165a13.24,13.24,0,0,0,3.71-.76,15.45,15.45,0,0,0,1.75-.68,17.22,17.22,0,0,0,1.61-.93,15.94,15.94,0,0,0,5-5.39l.86-1.65c.26-.57.44-1.17.67-1.75l.34-.87.24-.91c.15-.61.32-1.21.5-1.82.25-1.23.45-2.48.66-3.74s.24-2.53.42-3.8c.07,1.28.07,2.56.1,3.85s-.21,2.56-.37,3.85a22.63,22.63,0,0,1-2.49,7.37,14.92,14.92,0,0,1-5.47,5.57A12.81,12.81,0,0,1,327,165Z"/><path class="cls-10" d="M349.93,142.73a76.34,76.34,0,0,1,1.47,9.47,72.82,72.82,0,0,1,.4,9.58,85.43,85.43,0,0,1-1.87-19.05Z"/><path class="cls-10" d="M327.33,134.81a62.11,62.11,0,0,0,7.16,1.83A75.86,75.86,0,0,0,349.12,138c2.47,0,4.92-.19,7.4-.34-1.21.28-2.42.56-3.65.76s-2.47.34-3.72.4a45.26,45.26,0,0,1-14.84-1.41c-1.21-.32-2.4-.7-3.57-1.11A29.74,29.74,0,0,1,327.33,134.81Z"/><path class="cls-10" d="M327,139.53c1.21.32,2.42.62,3.64.86s2.43.5,3.66.7c2.45.39,4.91.69,7.38.87s4.94.3,7.42.32q1.86,0,3.72-.09c1.25,0,2.49-.13,3.74-.2-1.21.31-2.45.52-3.69.72s-2.49.3-3.74.39a45.2,45.2,0,0,1-7.54-.07,48.06,48.06,0,0,1-7.45-1.14A36.44,36.44,0,0,1,327,139.53Z"/><path class="cls-12" d="M370.11,222.74c-1,1.79-2,3.76-2.86,5.65l1.21-9a6.12,6.12,0,0,0-.28-2.82l-14.5-41.86a54.31,54.31,0,0,1,.71-9.65c.65-4.08.69-4.91,4.65-4.67,2.26-.16,5.14,6.78,6.13,8.8.37.77,1.68,2.91.73,3.54-.54.35-2.67-1.05-3.33-1.12.61,5.06,3.43,10.8,5,15.83,1.79,5.79,3.82,11.8,4.73,17.76C373.26,211.59,373.19,217.16,370.11,222.74Z"/><path class="cls-10" d="M353.47,174.61h-.06a.54.54,0,0,1-.48-.6c.8-7.1,1.34-11.35,1.64-13a.54.54,0,1,1,1.06.2c-.3,1.6-.84,5.82-1.63,12.9A.53.53,0,0,1,353.47,174.61Z"/><path class="cls-10" d="M353.47,161.13a41,41,0,0,1,6.23-1.51l-.45.58c-.17-1.27-.28-2.55-.36-3.84a31.39,31.39,0,0,1,0-3.88,31.34,31.34,0,0,1,.88,3.78c.22,1.27.41,2.54.53,3.82v0a.53.53,0,0,1-.44.57c-1.05.15-2.11.28-3.18.36A28.54,28.54,0,0,1,353.47,161.13Z"/><path class="cls-46" d="M376.85,249.71c-.13.49-.21.75-.21.75H364.29l.7-5.22c2,.44,4.41,1.82,6.2,2.54s3.78,1.26,5.65,1.93Z"/><path class="cls-46" d="M346,249c0,.39-.13,1.46-.13,1.46H334.84a21.38,21.38,0,0,1-1.15-3.67C336.16,247.52,344.45,248.71,346,249Z"/><path class="cls-12" d="M353.56,135c-2.42.6-5,.37-7.53.35-4.21,0-7.77-1.4-11.65-2.8-2.07-.74-4.85-1.5-6.43-3.19a59.9,59.9,0,0,1,1.73-8.78,26.48,26.48,0,0,0,10.89,9Z"/><path class="cls-45" d="M364.13,97.43a22.28,22.28,0,0,1-.42,7.89,11.22,11.22,0,0,0-4.35,5.52c-.05.15-.11.29-.15.44a9.36,9.36,0,0,1-4.11.74s-12.51,1.2-10.91-13.61C344.19,98.41,356.15,101.52,364.13,97.43Z"/><path class="cls-10" d="M345.15,100.2c1.5.23,3,.43,4.48.58s3,.25,4.48.28a41.82,41.82,0,0,0,4.48-.13,34.23,34.23,0,0,0,4.44-.73,17.78,17.78,0,0,1-4.37,1.31,25.88,25.88,0,0,1-4.57.3,31.46,31.46,0,0,1-4.54-.46A25.66,25.66,0,0,1,345.15,100.2Z"/><path class="cls-47" d="M381.07,100.74a10.7,10.7,0,0,0-6.39,2.43,16.7,16.7,0,0,0-3-.13c-.45,0-.93,0-1.44.1-1-4.46-3.57-10.25-4.9-13.06l8-1.9,4-1s3,9.19,3.77,13.38Z"/><path class="cls-43" d="M373.29,88.18c-.09.43-.14.84-.2,1.16-.55,2.71-1,5.41-1.36,8.15a33.16,33.16,0,0,0-.07,5.55c-.45,0-.93,0-1.44.1-1-4.46-3.57-10.25-4.9-13.06Z"/><path class="cls-47" d="M392.11,151a1.49,1.49,0,0,1-.75.61h-.94a1.08,1.08,0,0,1-.3-.11l-8-4.8a13.34,13.34,0,0,0,3.37,5,4.44,4.44,0,0,0,2.05,1,.59.59,0,0,1,.41.95,3.28,3.28,0,0,1-2.31,1.16,4.52,4.52,0,0,1-3-.78,3.27,3.27,0,0,1-4-.1h0c-2.38,1.2-4.48,0-6.22-2.1a29.2,29.2,0,0,1-4.3-8.13c-.59-1.59-.93-2.76-1-2.93h0l-7.64-3.21-3-1.25h0l-15.95-6.7a26.48,26.48,0,0,1-10.89-9c-7.05-9.64-8.31-22.33-8.45-24.1,0-.11,0-.18,0-.2l13.2-4.09a34.44,34.44,0,0,0,1,4.66,50.37,50.37,0,0,0,1.85,5.45,49.85,49.85,0,0,0,19.35,23.55,50.77,50.77,0,0,0,5.9,3.27,59.56,59.56,0,0,0,11.48,4s8.54-1.31,13.45,2.48a1.43,1.43,0,0,1,.45,1.7,1.41,1.41,0,0,1-1.3.85,1.42,1.42,0,0,1-.34,0L382,137.07a1.17,1.17,0,0,0-1.28,1.78,28.48,28.48,0,0,0,3.21,3.91,34.05,34.05,0,0,0,7.69,6.18A1.46,1.46,0,0,1,392.11,151Z"/><path class="cls-44" d="M382.65,154.52a.55.55,0,0,1-.3-.09,6.1,6.1,0,0,1-1.19-1.07,31.35,31.35,0,0,1-3-4.15.54.54,0,0,1,.94-.53,30.21,30.21,0,0,0,2.93,4,4.45,4.45,0,0,0,1,.87.55.55,0,0,1,.15.75A.56.56,0,0,1,382.65,154.52Z"/><path class="cls-44" d="M378.63,154.43a.57.57,0,0,1-.3-.1,13.33,13.33,0,0,1-3.64-4.64A.55.55,0,0,1,375,149a.54.54,0,0,1,.71.26,12.21,12.21,0,0,0,3.27,4.22.53.53,0,0,1,.13.74A.54.54,0,0,1,378.63,154.43Z"/><path class="cls-43" d="M368,138.46a7.25,7.25,0,0,1-.65,1.71q-.12.27-.21.54h0l-7.64-3.21c1.91-.08,3.81-.14,5.75-.32C366.74,137,368.25,136.72,368,138.46Z"/><path class="cls-43" d="M335.41,96.84l-.48,0c-3.44-.31-6.76.15-10.21.13a11.83,11.83,0,0,1-3.49-.45c0-.11,0-.18,0-.2l13.2-4.09A34.44,34.44,0,0,0,335.41,96.84Z"/><path class="cls-48" d="M387.75,291.37c1.76,2.62-.41,4.22-2.72,5.13a14.94,14.94,0,0,1-7.64.75c-9.85-1.48-12.57-8.55-12.57-8.55-1.18-.67-2.63-1.62-3.89-2.47-1.61-1.1-2.9-2-2.9-2a2.93,2.93,0,0,1,.53-3,3.35,3.35,0,0,0,1.62,2.19c1.44.82,3.3,1.72,4.55,2.33a4.21,4.21,0,0,1,1.93,1.73c1.71,3,6.43,6.09,6.43,6.09a19.75,19.75,0,0,0,13,0A2.37,2.37,0,0,0,387.75,291.37Z"/><path class="cls-49" d="M387.74,291.36a2.38,2.38,0,0,1-1.64,2.23,19.91,19.91,0,0,1-13,0s-4.72-3.14-6.43-6.1a4.3,4.3,0,0,0-1.92-1.73l-.47-.22c-1.22-.59-2.82-1.38-4.09-2.1a3.3,3.3,0,0,1-1.61-2.19,3.13,3.13,0,0,1,0-1.58,128.34,128.34,0,0,0,3.34-20.11c.25-2.89.4-5.94.4-9.06h16.6l-4.61,17.41a11.44,11.44,0,0,0,.66,7.71l4.54,9.85,0,.17c2.37.36,5.94,1.41,7.91,4.5A2.23,2.23,0,0,1,387.74,291.36Z"/><path d="M379.48,286.15h-.08a15.49,15.49,0,0,0-2.29-.17.57.57,0,0,1-.55-.52.54.54,0,0,1,.52-.55,15.58,15.58,0,0,1,2.48.18.53.53,0,0,1,.45.61A.55.55,0,0,1,379.48,286.15Z"/><path class="cls-50" d="M365.08,284.25a2.45,2.45,0,0,1-.82,1.25c-1.22-.59-2.82-1.38-4.09-2.1a3.3,3.3,0,0,1-1.61-2.19,3.13,3.13,0,0,1,0-1.58,128.34,128.34,0,0,0,3.34-20.11,29.31,29.31,0,0,1,1.91,4.35,12.86,12.86,0,0,1,.63,6c-.25,2.85-1.41,5.75-1.28,8.59C363.26,280.53,365.72,282.27,365.08,284.25Z"/><path class="cls-48" d="M360.54,291.62c1.53,3.73-3,3.77-4.43,3.68a4.4,4.4,0,0,1-.8-.11,16.18,16.18,0,0,0-7.64-.28,25.21,25.21,0,0,1-6.47.82,2.81,2.81,0,0,1-2.61-3.64,6.64,6.64,0,0,1,.26-.72c1.67,3.11,6.88,1.4,6.88,1.4.68-.13,1.47-.25,2.29-.34a32.88,32.88,0,0,1,8.23.26,6.46,6.46,0,0,0,3.21-.26,1.76,1.76,0,0,0,1-.87Z"/><path class="cls-49" d="M360.44,291.56a1.78,1.78,0,0,1-1,.87,6.52,6.52,0,0,1-3.2.26,32.88,32.88,0,0,0-8.23-.26c-.82.08-1.62.2-2.29.33,0,0-5.22,1.71-6.88-1.4a3.76,3.76,0,0,1-.42-1.25s-.37-4.2-1-10.86a12,12,0,0,0-.25-1.68l-5.52-27.11h17.55s.62,9.36,2.07,18.7c1,6.28,2.32,12.56,4.11,16l-.07.29.17,0a7.19,7.19,0,0,1,2.63,1.24,7.75,7.75,0,0,1,2.36,3.07A2.06,2.06,0,0,1,360.44,291.56Z"/><path class="cls-50" d="M355.52,285.45c-1.42.06-2.61-.7-4.23-.29-1.29.32-2.54,1-3.29-.51-.55-1.09-.15-3.08,0-4.21.36-2.3,1.44-4.28,2.07-6.52.36-1.27.88-3,1.22-4.76,1,6.28,2.32,12.56,4.11,16l-.07.29Z"/><path d="M348.6,286.53a.54.54,0,0,1-.2-1,13.41,13.41,0,0,1,7.07-.6.54.54,0,0,1-.24,1.05,12.37,12.37,0,0,0-6.43.55A.48.48,0,0,1,348.6,286.53Z"/><path class="cls-11" d="M356.69,38.24c.68-14.23-10.17-12.7-11.93-12.5a3.25,3.25,0,0,0-.43.08C326.52,30.36,333,44.65,333.58,45.9l.05.09a3.19,3.19,0,0,0-1.9.64C321,23.91,346,22.22,346,22.22c16.47-1,11,17.57,11,17.57-.08-.47-.19-.93-.3-1.4A.71.71,0,0,1,356.69,38.24Z"/><path class="cls-51" d="M374.44,42.88a11,11,0,0,0-1.34,3.35c-.06.54-.11,1.09-.21,1.62l-.05.29A4.39,4.39,0,0,1,371.22,51c-1.47,1.11-3.28,1.13-4.75,2.09a.83.83,0,0,0-.16.12l-.21.15c-.93.77-1.5,1.91-2.48,2.61-2.06,1.45-5.73.5-7-1.59.06-.18.11-.36.15-.53a33.28,33.28,0,0,0,.23-14s5.07-17.16-9.19-17.59h-.39c-.45,0-.92,0-1.41,0l-.44,0-.34,0c-4.14.52-23.11,4-13.48,24.33a3.08,3.08,0,0,0,1.89,5.5,2.87,2.87,0,0,0,1.2-.25L336,60.4h-.06a6.82,6.82,0,0,1-3.89.86l-.51-.07-.41-.08a4.31,4.31,0,0,1-2-1.07c-.79-.77-1.09-1.92-1.86-2.69-1.92-1.92-4.6.43-6.67-1.36a6.75,6.75,0,0,1-.93-1,2.48,2.48,0,0,1-.19-.26,4,4,0,0,1-.82-2.18c0-1.45.74-2.87.24-4.31-.62-1.82-2.31-3-2.93-4.93a9.29,9.29,0,0,1,.62-6.84,9,9,0,0,1,2-2.73l.4-.4h0c1.42-1.37,2.88-2.65,3.28-4.78.63-3.45,1.64-6.64,5-8.25,2.3-1.11,5-.38,7.08-1.89a8.36,8.36,0,0,1,7.52-1.66A11.7,11.7,0,0,1,346.65,19c1.49-1.08,3.29-2.44,5.18-2.59s3.11,1.6,4.88,2a8.1,8.1,0,0,0,2.94-.17l.41,0h.44a8.29,8.29,0,0,1,4,1.24,7,7,0,0,1,3.54,4.34c.35,1.28.2,2.51.88,3.7.84,1.48,2.47,2.25,3.21,3.8s.38,2.5.45,4C372.72,38,375.75,39.86,374.44,42.88Z"/><path class="cls-52" d="M344.76,25.74c1.76-.2,12.61-1.73,11.93,12.5a2.45,2.45,0,0,1-1.49-1.58c-.64-1.57-.51-2.69-2.1-3.55-1.24-.69-1.62-2.5-3.24-2.62-.71-.06-1.17.22-1.87-.06s-.88-.79-1.4-1.38-.74-.51-1.34,0a8.51,8.51,0,0,1-2.05,1.58c-.71.31-1.41.15-2.1.43s-1.05,1-1.55,1.68c-.9,1.13-2.33,1.06-2.91,2.53s-.55,2.66-1.46,3.89c-.78,1.07-1.34,1.57-1.2,3a10.26,10.26,0,0,1,.13,2.14c0,.39-.5,1.48-.42,1.6l-.11,0c-.6-1.25-7.06-15.54,10.75-20.08A3.25,3.25,0,0,1,344.76,25.74Z"/><path class="cls-53" d="M342.63,20.5a9.19,9.19,0,0,1,2.92,1.76l-.34,0a8.72,8.72,0,0,0-2.66-1.56c-2.81-1-4.82-.55-6.53,1.33a2.37,2.37,0,0,1-1.9,1l-.5.08c-2.72.46-4.34,2-5.58,5.22l-.09.25a4,4,0,0,1-1.42,2.16c-2.07,1.85-2.59,5.78-1.77,8.29a5.63,5.63,0,0,0,.51,1,4.21,4.21,0,0,1,.65,1.53,1.5,1.5,0,0,1-.21.88,3.52,3.52,0,0,0-.17.39,9.23,9.23,0,0,0,1.59,8,6.9,6.9,0,0,0,1,.82,4.68,4.68,0,0,1,1.5,1.55,2.07,2.07,0,0,1,0,1.23,3.55,3.55,0,0,0-.09.5,7.8,7.8,0,0,0,2,6.24l-.41-.08a8.07,8.07,0,0,1-1.89-6.19,3.64,3.64,0,0,1,.1-.52,1.91,1.91,0,0,0,0-1.08,4.52,4.52,0,0,0-1.42-1.45,7.41,7.41,0,0,1-1-.86,9.32,9.32,0,0,1-1.63-8.21,3.33,3.33,0,0,1,.17-.42,1.24,1.24,0,0,0,.19-.75,4.14,4.14,0,0,0-.61-1.42,5.5,5.5,0,0,1-.53-1.06c-.85-2.58-.31-6.64,1.84-8.56a3.75,3.75,0,0,0,1.34-2.06l.1-.25c.89-2.33,2.26-4.79,5.77-5.37.19,0,.36-.06.51-.08a2.2,2.2,0,0,0,1.75-.93C337.6,20,339.76,19.52,342.63,20.5Z"/><path class="cls-53" d="M366.31,53.19l-.21.15a6.09,6.09,0,0,0-3-3.43.12.12,0,0,1-.07-.13c.08-.56.19-1.11.3-1.63a9.86,9.86,0,0,0,.25-4.2,8.49,8.49,0,0,0-1.84-3.77c-.1-.11-.21-.21-.31-.3a1.33,1.33,0,0,1-.55-.84,5.88,5.88,0,0,1,.62-2.42,9.21,9.21,0,0,0,.48-1.38,10.11,10.11,0,0,0-.4-5.42c-.51-1.34-1.7-4.5-3.49-4.73A.12.12,0,0,1,358,25a5.91,5.91,0,0,1,0-.85,3.21,3.21,0,0,0-.21-1.83c-.87-1.65-2.94-1.88-4.66-1.9h-.1a8.3,8.3,0,0,0-5.29,1.8h-.39a8.6,8.6,0,0,1,5.68-2h.11c1.78,0,3.94.27,4.87,2a3.37,3.37,0,0,1,.24,2c0,.23,0,.48,0,.72,1.88.35,3.07,3.51,3.58,4.87a10.33,10.33,0,0,1,.41,5.56,9.14,9.14,0,0,1-.48,1.42,5.68,5.68,0,0,0-.61,2.3,1,1,0,0,0,.47.68A3.42,3.42,0,0,1,362,40a8.82,8.82,0,0,1,1.89,3.88,10,10,0,0,1-.25,4.3c-.1.49-.2,1-.28,1.52A6.38,6.38,0,0,1,366.31,53.19Z"/><path class="cls-53" d="M372.89,47.85l-.05.29-.34-.33a2.72,2.72,0,0,1-.24-.24c-.5-.49-1.12-1.09-1.75-.82h-.1a.12.12,0,0,1-.06-.08,4.52,4.52,0,0,1-.13-1.73c0-.21,0-.41,0-.61a6.83,6.83,0,0,0-2.17-5,3.26,3.26,0,0,0-.63-.46,1.15,1.15,0,0,1-.69-1,5.41,5.41,0,0,1,.14-1.77,6.53,6.53,0,0,0,.16-1.09,9.94,9.94,0,0,0-.32-3A8.54,8.54,0,0,0,364,27.3l-.18-.15c-.35-.3-.37-.35-.31-.79,0-.14.05-.33.08-.61a9.1,9.1,0,0,0-1.24-5.08,6.42,6.42,0,0,0-2.33-2.52h.44a6.69,6.69,0,0,1,2.11,2.41,9.43,9.43,0,0,1,1.27,5.23c0,.28-.06.47-.08.62-.05.33-.05.33.22.56l.18.16A8.67,8.67,0,0,1,367,31.88,9.79,9.79,0,0,1,367.3,35a7.68,7.68,0,0,1-.16,1.13A5.23,5.23,0,0,0,367,37.8a.94.94,0,0,0,.58.83,3.44,3.44,0,0,1,.67.49,7,7,0,0,1,2.25,5.21c0,.2,0,.41,0,.62a5.43,5.43,0,0,0,.07,1.52c.74-.21,1.4.44,1.89.93l.24.23Z"/><path class="cls-53" d="M322.2,50.24c0,.5-.51,1-.94,1.43a4.71,4.71,0,0,0-.55.61A8,8,0,0,0,319.63,55a2.48,2.48,0,0,1-.19-.26,7.79,7.79,0,0,1,1.06-2.61,6.22,6.22,0,0,1,.58-.66c.4-.4.85-.86.87-1.26a1.68,1.68,0,0,0-.33-.72,2.4,2.4,0,0,1-.19-.32,12,12,0,0,1-1-2.76,5.53,5.53,0,0,1,.11-2.58c.05-.27.11-.54.16-.83a1.64,1.64,0,0,0-.1-1,3.06,3.06,0,0,0-.46-.73,5.69,5.69,0,0,1-.4-.6,16.94,16.94,0,0,1-1.2-3.2,6.35,6.35,0,0,1,0-3.69l.4-.4a6.25,6.25,0,0,0-.19,4A17.54,17.54,0,0,0,320,40.55c.1.18.24.36.38.56a3.14,3.14,0,0,1,.49.79,1.82,1.82,0,0,1,.11,1.16c-.05.29-.1.57-.16.84a5.35,5.35,0,0,0-.11,2.47,12,12,0,0,0,1,2.71c0,.08.1.18.17.29A1.7,1.7,0,0,1,322.2,50.24Z"/><path class="cls-54" d="M333.63,46l-.05-.09.11,0c-.08-.12.38-1.21.42-1.6a10.26,10.26,0,0,0-.13-2.14c-.14-1.38.42-1.88,1.2-3,.91-1.23.93-2.52,1.46-3.89s2-1.4,2.91-2.53c.5-.64.73-1.36,1.55-1.68s1.39-.12,2.1-.43a8.51,8.51,0,0,0,2.05-1.58c.6-.51.87-.55,1.34,0s.61,1.06,1.4,1.38,1.16,0,1.87.06c1.62.12,2,1.93,3.24,2.62,1.59.86,1.46,2,2.1,3.55a2.45,2.45,0,0,0,1.49,1.58.71.71,0,0,0,0,.15c.11.47.22.93.3,1.4a33.09,33.09,0,0,1-.22,14l-.15.53a7.76,7.76,0,0,1-3.45,4.4,7.45,7.45,0,0,1-1.74.73c-4.58,1.23-8.73-1.56-8.73-1.56s5.19,8.11,11.43,6c2.56,9.16-5.1,11.45-5.1,11.45-6.41.91-9.58-2.67-11-5.29a11.41,11.41,0,0,1-1-2.55l-1-7.13-1.16-8.51a3,3,0,0,1-1.19.25,3.08,3.08,0,0,1-1.9-5.51A3.19,3.19,0,0,1,333.63,46Zm19.53-3.84a1.33,1.33,0,1,0-1.34,1.32A1.33,1.33,0,0,0,353.16,42.15Zm-10.72.62a1.34,1.34,0,1,0-1.33,1.34A1.34,1.34,0,0,0,342.44,42.77Z"/><path class="cls-43" d="M353.22,58.88l.9,5c-6.24,2.12-11.43-6-11.43-6s4.15,2.79,8.73,1.56a7.45,7.45,0,0,0,1.74-.73Z"/><path d="M351.82,40.82a1.33,1.33,0,1,1-1.32,1.33A1.33,1.33,0,0,1,351.82,40.82Z"/><circle cx="341.11" cy="42.77" r="1.33"/><path class="cls-44" d="M342.66,51.58a10.59,10.59,0,0,0,5,1,7.31,7.31,0,0,0,2.41-.57c.4-.13.76-.37,1.17-.55s.75-.46,1.17-.66a6.22,6.22,0,0,1-2,2,5.73,5.73,0,0,1-2.71.89,6.08,6.08,0,0,1-2.81-.46A5.76,5.76,0,0,1,342.66,51.58Z"/><path class="cls-55" d="M348.88,38.7a1.62,1.62,0,0,1,.6-.56,4.64,4.64,0,0,1,.72-.32,4.77,4.77,0,0,1,1.55-.28,4.05,4.05,0,0,1,2.9,1.1c-1.07,0-2,0-2.9,0-.46,0-.92,0-1.4,0h-.73A3.21,3.21,0,0,0,348.88,38.7Z"/><path class="cls-43" d="M345.7,48.19a19.13,19.13,0,0,1,2.85-.63l-.32.41a25.61,25.61,0,0,1-.35-2.89,17.92,17.92,0,0,1,0-2.93A18.15,18.15,0,0,1,348.6,45a28.13,28.13,0,0,1,.35,2.89v0a.34.34,0,0,1-.32.36h0A17.85,17.85,0,0,1,345.7,48.19Z"/><path class="cls-55" d="M336.79,40.61a3.83,3.83,0,0,1,1.28-1.25,5.2,5.2,0,0,1,1.67-.68,4.85,4.85,0,0,1,1.82,0,3.78,3.78,0,0,1,1.65.69c-.61.08-1.15.08-1.69.15a13.34,13.34,0,0,0-1.56.25C338.93,39.94,337.93,40.27,336.79,40.61Z"/><path class="cls-44" d="M332,48a2.31,2.31,0,0,1,1.85.64,2.5,2.5,0,0,1,.82,1.79A7.61,7.61,0,0,0,333.5,49,5.86,5.86,0,0,0,332,48Z"/><path class="cls-56" d="M342.42,46.25c.08.56-.78,1.15-1.93,1.32s-2.14-.15-2.22-.72.78-1.15,1.93-1.32S342.34,45.68,342.42,46.25Z"/><path class="cls-56" d="M356.21,45.05c.05.57-.85,1.11-2,1.2S352.08,46,352,45.4s.85-1.1,2-1.2S356.16,44.49,356.21,45.05Z"/><polygon class="cls-57" points="436.98 146.84 436.98 157.11 405.7 151.42 405.7 141.52 436.98 146.84"/><polygon class="cls-58" points="436.98 138.95 436.98 146.84 405.7 141.52 405.7 133.95 436.98 138.95"/><polygon class="cls-57" points="436.98 131.24 436.98 138.95 405.7 133.95 405.7 124.9 436.98 131.24"/><polygon class="cls-58" points="436.98 122.65 436.98 131.24 405.7 124.9 405.7 114.44 436.98 122.65"/><polygon class="cls-57" points="436.98 115.84 436.98 122.65 405.7 114.44 405.7 104.74 407.91 105.53 418.53 109.29 428.99 113.01 429 113.01 436.98 115.84"/><path class="cls-59" d="M437,157.11l-15.06,1a2.3,2.3,0,0,0-2.35-1.13,1.17,1.17,0,0,0-.69,1s-2.11-2.72-3.64-1.84a1.67,1.67,0,0,0-.69,1.64h0s-1.21-2.16-2.49-1.43a1.55,1.55,0,0,0-.79,1.43s-1.46-.2-1.49,1.07h0l-11.93.76-17.73-3.24-21.2-3.88-2.37-.43,15.81-.2.08-.07c1.74,2.09,3.85,3.3,6.22,2.11h0a3.29,3.29,0,0,0,4,.09,4.49,4.49,0,0,0,3,.79,3.36,3.36,0,0,0,2.31-1.16.59.59,0,0,0-.41-1,4.34,4.34,0,0,1-2.05-1l4.93-.06a1.25,1.25,0,0,0,.43.07,1.7,1.7,0,0,0,.51-.08l14.34-.18Z"/><path class="cls-11" d="M431.07,111.12a4.56,4.56,0,0,1-.27.39A5.37,5.37,0,0,1,429,113h0l-10.46-3.72c.23-.23.44-.47.63-.7a5.79,5.79,0,0,0,.63-.92,6.39,6.39,0,0,0,.9-3.49l.17-.18a6.32,6.32,0,0,1,10.53,2.68A5.54,5.54,0,0,1,431.07,111.12Z"/><path class="cls-26" d="M420.69,104.17a6.39,6.39,0,0,1-.9,3.49,5.79,5.79,0,0,1-.63.92c-.19.23-.4.47-.63.7l-10.62-3.76c0-.5.09-1,.13-1.47,0,0,0-.09,0-.14.09-1.19.15-2.31.19-3.36,0,0,3.1-4.17,7.46-3.16a6.41,6.41,0,0,1,4.41,4A8.55,8.55,0,0,1,420.69,104.17Z"/><path class="cls-22" d="M408.24,100.55c0,1-.1,2.17-.19,3.36,0,0,0,.09,0,.14,0,.48-.08,1-.13,1.47l-2.21-.78-8.91,1.63s-.23-2.47-.24-5.77c0-1,0-2.06.06-3.15,0-.25,0-.51,0-.77.34-5.78,1.66-12.07,5.72-12.54C402.37,84.14,408.94,82.25,408.24,100.55Z"/><path class="cls-4" d="M405.7,141.51v9.9l-11.23.14-3.11,0a1.49,1.49,0,0,0,.75-.61,1.46,1.46,0,0,0-.52-2,34.05,34.05,0,0,1-7.69-6.18l9.19-.53Z"/><path class="cls-21" d="M405.7,133.94v7.57l-12.61.72-9.19.53a28.48,28.48,0,0,1-3.21-3.91,1.17,1.17,0,0,1,1.28-1.78l4.28,1.08a1.42,1.42,0,0,0,.34,0,1.41,1.41,0,0,0,1.3-.85,1.43,1.43,0,0,0-.45-1.7l1.9-.18Z"/><path class="cls-4" d="M405.7,124.89v9l-16.36,1.52-1.9.18c-4.91-3.79-13.45-2.48-13.45-2.48a59.56,59.56,0,0,1-11.48-4l15.89-1.55Z"/><path class="cls-21" d="M405.7,114.43v10.46l-27.3,2.67-15.89,1.55a50.77,50.77,0,0,1-5.9-3.27v-4.59l13-1.8.14,0c.28,2.21,1,5.45,2.72,5a19.77,19.77,0,0,0,1-5.56h0l6-.84Z"/><path class="cls-4" d="M405.7,104.74v9.69l-26.19,3.64-6,.84h0c.07-.9.12-1.91.12-3,0,0,4.51,3.45,5.05-4.36h0a1.23,1.23,0,0,0,0-.19s4.11,3.27,6.67-2.76a.25.25,0,0,0,0-.07l7-1.28,4.46-.83Z"/><path class="cls-24" d="M396.79,106.37l-4.46.83-.32-.28-.79-.71-.85-.77c-1.65-1.53-3-2.94-4.18-4.23-8.07-9-5-12.5-4.33-13.08l0,0s0,0,0,0c.52-.52,6-4.43,14.07,8.46l.55.91h.06c-.05,1.09-.06,2.16-.06,3.15C396.56,103.9,396.79,106.37,396.79,106.37Z"/><path class="cls-17" d="M392.34,107.2l-7,1.28a3.91,3.91,0,0,1,1.8-1.88c1.16-.57,2.81-1.12,4.07-.38C391.57,106.54,392,106.87,392.34,107.2Z"/><path class="cls-47" d="M390.42,151.61h.94a1.7,1.7,0,0,1-.51.08A1.25,1.25,0,0,1,390.42,151.61Z"/><path class="cls-4" d="M390.42,151.6l-4.93.07a13.34,13.34,0,0,1-3.37-5l8,4.8A1.08,1.08,0,0,0,390.42,151.6Z"/><path class="cls-4" d="M372.41,151.78l-.08.06-15.81.21v-7.73l11.59-.67A29.2,29.2,0,0,0,372.41,151.78Z"/><path class="cls-4" d="M369.54,117.48s0,.85.17,2l-.14,0-13,1.8v-7.47l2.22-.41h0a5.84,5.84,0,0,0,.3,2.15c.48,1.47,1.57,2.5,3.92-.41,0,0,3.84,4,5.8-3.59l1.41-.26h0A31.85,31.85,0,0,0,369.54,117.48Z"/><path class="cls-21" d="M368.11,143.65l-11.59.67v-8.08l10.61,4.46S367.47,141.93,368.11,143.65Z"/><path class="cls-18" d="M385.35,108.48l0,.08c-2.57,6-6.68,2.75-6.68,2.75-.48,8.07-5.07,4.57-5.07,4.57q0,1.7-.12,3a19.92,19.92,0,0,1-1,5.57c-1.73.41-2.44-2.84-2.72-5-.14-1.11-.17-2-.17-2a31.65,31.65,0,0,1,.74-6.21c0-.19.08-.37.12-.54h0a13.89,13.89,0,0,1,4.28-7.55,10.66,10.66,0,0,1,6.38-2.43,14.41,14.41,0,0,1,5,.61l.14-.13a66.09,66.09,0,0,0,5,5c-1.26-.74-2.91-.19-4.07.38A3.91,3.91,0,0,0,385.35,108.48Z"/><path class="cls-17" d="M370.23,103.14a18.37,18.37,0,0,1,4.46,0,13.89,13.89,0,0,0-4.28,7.55h0c-.2.63-1.4.2-1.4.2,0,.21-.1.41-.14.6-2,7.57-5.79,3.59-5.79,3.59-2.36,2.91-3.44,1.88-3.93.4a6,6,0,0,1-.3-2.15,7,7,0,0,1,.37-2.09c0-.15.1-.29.15-.44a11.22,11.22,0,0,1,4.35-5.52A15,15,0,0,1,370.23,103.14Z"/><path class="cls-60" d="M367.13,140.7l-10.61-4.46v15.81l15.81-.21.08-.06a29.2,29.2,0,0,1-4.3-8.13C367.47,141.93,367.13,140.7,367.13,140.7Zm15,6a13.34,13.34,0,0,0,3.37,5l4.93-.07a1.08,1.08,0,0,1-.3-.11Zm9.24,4.9,3.11,0c0-2.94-14.14-38.1-15.66-39.85a1.14,1.14,0,0,0-.19-.19c-.54,7.81-5.05,4.36-5.05,4.36,0,1.13-.05,2.14-.12,3a19.77,19.77,0,0,1-1,5.56c-1.73.41-2.44-2.83-2.72-5-.14-1.1-.17-2-.17-2a31.85,31.85,0,0,1,.74-6.22h0l-1.41.26c-2,7.58-5.8,3.59-5.8,3.59-2.35,2.91-3.44,1.88-3.92.41a5.84,5.84,0,0,1-.3-2.15h0l-2.22.41v12.06a50.77,50.77,0,0,0,5.9,3.27,59.56,59.56,0,0,0,11.48,4s8.54-1.31,13.45,2.48a1.43,1.43,0,0,1,.45,1.7,1.41,1.41,0,0,1-1.3.85,1.42,1.42,0,0,1-.34,0L382,137.07a1.17,1.17,0,0,0-1.28,1.78,28.48,28.48,0,0,0,3.21,3.91,34.05,34.05,0,0,0,7.69,6.18,1.46,1.46,0,0,1,.52,2A1.49,1.49,0,0,1,391.36,151.59Z"/><path class="cls-28" d="M430.8,111.51A5.37,5.37,0,0,1,429,113h0l-10.46-3.72-10.62-3.76-2.21-.78-8.91,1.63-4.46.83-.32-.28c.07-2.24,1.14-4.9,1.72-6.78a6,6,0,0,1,2.27-3.6,2.83,2.83,0,0,1,.58-.28,1.67,1.67,0,0,0,.07.42,15.09,15.09,0,0,0,2.37,3.85,8.72,8.72,0,0,0,5.38,3,15.52,15.52,0,0,0,3.65.36l.44,0a8,8,0,0,1,5.92,1,23.2,23.2,0,0,1,2.24,1.83c.48.44.8,1.31,1.3,1.68s.65.36,1.21.2l.37-.1c1.05-.24,2.16-.36,3.22-.56,2.75-.49,5.58.11,7.36,2.46A5.63,5.63,0,0,1,430.8,111.51Z"/><path class="cls-5" d="M356,64h0a16.34,16.34,0,0,0-1.92-.05c2.56,9.16-5.1,11.45-5.1,11.45-6.41.91-9.58-2.67-11-5.29l3.56,21.16S354,94,362,89.35C360.1,81,356,64,356,64ZM337.9,87.7c-2-8.7-4.58-19.53-4.58-19.53-7.25,1.74-22.13,7.9-13.37,28.48l1.26-.38,13.2-4.09s0,.17.07.49a45.64,45.64,0,0,0,2.78,9.62L339,92.57C338.69,91.1,338.31,89.45,337.9,87.7Zm22.61-23,2.54,15.22s0,0,0,0l1.42,8.5h0s.33.63.82,1.69h0L370,89l7.32-1.75,1.3-.31C376.93,71.31,367.19,66.27,360.51,64.65Z"/><path class="cls-13" d="M342,85.14c3.6.64,6.38-.38,9.26-2.64,2.55-2,4.1-5,6.37-6.89,0,4.32-4.23,8.71-7.51,11.1C346.44,89.42,344.75,87.33,342,85.14Z"/><path class="cls-13" d="M370,89l-4.65,1.11h0c-.49-1.06-.82-1.69-.82-1.69h0l-1.42-8.5c.12.27.23.54.37.81a20.85,20.85,0,0,0,3,4C367.61,86.1,368.9,87.49,370,89Z"/><path class="cls-13" d="M339,92.57l-1.76,9.72a45.64,45.64,0,0,1-2.78-9.62,5.6,5.6,0,0,1,.73-1,14.78,14.78,0,0,0,2.69-4C338.31,89.45,338.69,91.1,339,92.57Z"/><path class="cls-61" d="M334.41,92.73a.54.54,0,0,1-.52-.41l-4.24-16.67A.53.53,0,0,1,330,75a.54.54,0,0,1,.66.38l4.23,16.68a.54.54,0,0,1-.39.65Z"/><ellipse class="cls-6" cx="249.16" cy="299.78" rx="43.59" ry="7.17"/><polygon class="cls-21" points="208.61 246.13 208.61 257.12 201.54 257.12 201.54 257.1 138.42 257.1 138.42 246.13 208.61 246.13"/><rect class="cls-4" x="138.42" y="233.44" width="70.19" height="12.69"/><rect class="cls-21" x="138.42" y="220.74" width="70.19" height="12.7"/><rect class="cls-4" x="138.42" y="209.68" width="70.19" height="11.06"/><polygon class="cls-21" points="208.61 151.31 208.61 162.28 201.54 162.28 201.54 162.26 138.42 162.26 138.42 151.31 208.61 151.31"/><rect class="cls-4" x="138.42" y="138.61" width="70.19" height="12.69"/><rect class="cls-21" x="138.42" y="125.92" width="70.19" height="12.69"/><path class="cls-4" d="M208.61,114.85v11.07H138.42V114.85h68c.61,0,1.24,0,1.9,0Z"/><rect class="cls-58" x="131.36" y="293.54" width="70.18" height="10.97"/><rect class="cls-57" x="131.36" y="280.85" width="70.18" height="12.69"/><rect class="cls-58" x="131.36" y="268.16" width="70.18" height="12.69"/><polygon class="cls-57" points="201.54 257.12 201.54 268.17 131.36 268.17 131.36 257.1 138.42 257.1 138.42 257.12 201.54 257.12"/><rect class="cls-58" x="131.36" y="198.71" width="70.18" height="10.97"/><rect class="cls-57" x="131.36" y="186.02" width="70.18" height="12.69"/><rect class="cls-58" x="131.36" y="173.33" width="70.18" height="12.69"/><polygon class="cls-57" points="201.54 162.28 201.54 173.34 131.36 173.34 131.36 162.26 138.42 162.26 138.42 162.28 201.54 162.28"/><path class="cls-62" d="M208.61,114.85v47.43h-7.07v47.4h7.07v47.43h-7.07V304.5h-30l25.13-189.66h9.7c.61,0,1.24,0,1.9,0Z"/><path class="cls-48" d="M269.14,285.56a31.29,31.29,0,0,1,1.43,8.39c-.88,3.52-4.13,6.37-6.39,8a12.38,12.38,0,0,1-4.93,2.08,25.06,25.06,0,0,1-12.59-.73,2.08,2.08,0,0,1-1.35-2.47,3.48,3.48,0,0,1,.53-1.13c.94,1.31,3.23,2.25,8.38,1.4,0,0,10,.08,13.18-7.85A16,16,0,0,0,269.14,285.56Z"/><path class="cls-49" d="M269.14,285.56a16.22,16.22,0,0,1-1.74,7.68c-3.23,7.93-13.18,7.84-13.18,7.84-5.15.85-7.44-.08-8.39-1.4-1.2-1.66-.23-3.95-.23-3.95a7.18,7.18,0,0,1,4.75-4.49l0-.29c.8-4.18-2.47-21-2.47-21l4.5-4.35,12.07-11.64,2.12,13.45,2.5,15.9C269.12,284.09,269.14,284.85,269.14,285.56Z"/><path d="M258.52,291.91l-.16,0s-4.26-1.28-7.84-.13a.54.54,0,1,1-.33-1,16,16,0,0,1,8.49.13.54.54,0,0,1,.36.67A.56.56,0,0,1,258.52,291.91Z"/><path class="cls-50" d="M266.54,267.38c-.86-.27-1.75-.49-2.62-.7a43.29,43.29,0,0,0-11.57-1.11l12.07-11.64Z"/><path class="cls-49" d="M270.21,248.33l-5.79,5.6-16.57,16L245,272.71a23.11,23.11,0,0,0-7,16.58v.85a12.36,12.36,0,0,0,.44,3.25c.54,1.94.86,5.71-3.6,7.69,0,0-10.16-3.3-8.37-25,0,0,.82-15-.22-21,0,0,.91-2.88,6.12-2.06l.12,0a35.47,35.47,0,0,0,7.75-3.63c.82-.51,1.68-1.07,2.56-1.7a39,39,0,0,0,12.81-15.5l2.65,2.93,10.68,11.78Z"/><path class="cls-48" d="M234.77,301.09a3.24,3.24,0,0,1-4.31.32c-9.81-9.79-6.69-23.75-6.69-23.75,1-7.7,0-20.77,0-20.77a1.72,1.72,0,0,1,2.41-1.83c1,6.05.21,21,.21,21C224.61,297.79,234.77,301.09,234.77,301.09Z"/><path d="M247.86,270.46a.54.54,0,0,1-.38-.92l22.36-21.6a.54.54,0,0,1,.75.78l-22.36,21.59A.53.53,0,0,1,247.86,270.46Z"/><path class="cls-50" d="M236.87,257.29c-1.54,2.57-.94,5.58-1.27,8.52a.29.29,0,0,1-.58,0c-.32-2.44-.92-4.92-1.26-7.34-.25-1.78-.38-3.92-1.35-5.52a35.47,35.47,0,0,0,7.75-3.63C240.31,252,238.11,255.24,236.87,257.29Z"/><path d="M261.38,28.74a22.86,22.86,0,0,1-1.67,5c-.54,1-1.18,1.72-1.88,1.58-.57-2.06-.38-4.28-.65-6.42a38.77,38.77,0,0,0-1.6-7.48c-1.35,1.39-1.89,3.21-3.48,4.51a12.32,12.32,0,0,1-4.66,2.36c-2.93.77-6.94.82-9.68-.56-.33,2.26.53,5.23-.78,7.31-.48.74-1,.91-1.51.76h0a4.41,4.41,0,0,1-2-1.94c-1.17-2-2.38-5.27-1.68-7.58.41-1.37,1.79-3,3.36-2.63.07-.34.15-.67.24-1,0-.11.06-.22.1-.33a13.61,13.61,0,0,1,1-2.42l.13-.23c2.51-4.45,7.42-7.52,12.25-9a18.12,18.12,0,0,1,3.57-.74l.32,0a9.85,9.85,0,0,1,2,0,7.2,7.2,0,0,1,3.6,1.51l.34.29a6.51,6.51,0,0,1,1.1,1.28c1.41,2.14,1.06,4,.5,6.36-.36,1.5.42,1.91.86,3.36A11.92,11.92,0,0,1,261.38,28.74Z"/><path class="cls-63" d="M258.78,11.75a3.34,3.34,0,0,0-3.7,1.59,8.5,8.5,0,0,0-1,2.53c-.1.35-.21.71-.33,1.06a15.55,15.55,0,0,1-2.21,4.18,10.45,10.45,0,0,1-7.1,4.05,17.27,17.27,0,0,1-2.32.16,10.76,10.76,0,0,1-3.89-.63,6.57,6.57,0,0,1-2.77-2.08c0-.11.06-.22.1-.33a6.06,6.06,0,0,0,2.76,2.18,13.59,13.59,0,0,0,6.09.46,10.23,10.23,0,0,0,6.93-4,15.31,15.31,0,0,0,2.17-4.11c.12-.35.23-.71.33-1.05a9.28,9.28,0,0,1,1.07-2.6,3.52,3.52,0,0,1,3.57-1.74Z"/><path class="cls-63" d="M236.54,19.86a3.82,3.82,0,0,0,1.75,1.21,7.79,7.79,0,0,0,2.52.39,12,12,0,0,0,4.22-.83c2.95-1.14,4.92-4.7,6.45-8l.32-.71a13.08,13.08,0,0,1,1-2l-.32,0a16.78,16.78,0,0,0-.92,1.85c-.1.23-.2.47-.32.71-1.51,3.3-3.44,6.81-6.31,7.91a9.84,9.84,0,0,1-6.56.44,3.5,3.5,0,0,1-1.71-1.2Z"/><path class="cls-32" d="M262.25,36.88a3.06,3.06,0,0,0-2.54-3.18c-.53,1-1.18,1.72-1.88,1.58-.57-2.05-.37-4.28-.64-6.42a39.7,39.7,0,0,0-1.6-7.48c-1.36,1.39-1.9,3.22-3.49,4.52a12.37,12.37,0,0,1-4.66,2.35c-2.92.78-6.93.83-9.68-.56-.33,2.26.53,5.24-.78,7.31-.47.74-1,.92-1.5.77h0l-.32,0a3.08,3.08,0,1,0,2.18,5.61h.07l1.31,17.67s.27,7.43,12.11,7c0,0,9.61-1,8.43-9.53a4.61,4.61,0,0,0-.07-.5l-.13,0c-11.93,4.38-16.14-4.11-16.41-4.7.34.51,4.1,5.7,12,1.93,0,0,2.15-.7,3.38-4.15.73-2,1.14-5,.6-9.41a2.7,2.7,0,0,0,.41.06A3.07,3.07,0,0,0,262.25,36.88Zm-19.58-.27a1.33,1.33,0,0,1-1.39-1.27A1.34,1.34,0,0,1,242.56,34,1.35,1.35,0,0,1,244,35.24,1.33,1.33,0,0,1,242.67,36.61ZM253,36a1.33,1.33,0,1,1,1.28-1.37A1.31,1.31,0,0,1,253,36Z"/><path class="cls-33" d="M259.17,56.05l-.13,0c-11.93,4.38-16.14-4.11-16.41-4.7.34.51,4.1,5.7,12,1.93,0,0,2.15-.7,3.38-4.15l1,6.1C259.07,55.52,259.12,55.79,259.17,56.05Z"/><path d="M254.25,34.66a1.33,1.33,0,0,1-2.65.09,1.33,1.33,0,0,1,2.65-.09Z"/><path d="M244,35.24A1.34,1.34,0,1,1,242.56,34,1.35,1.35,0,0,1,244,35.24Z"/><path class="cls-36" d="M252.65,45.3a3.93,3.93,0,0,1-1.72,1.91,4.39,4.39,0,0,1-2.64.54,5.79,5.79,0,0,1-2.47-.93c-.35-.25-.68-.53-1-.81a10.8,10.8,0,0,1-.81-1c.4.17.76.36,1.12.55l1.09.5a8.14,8.14,0,0,0,2.19.6A5.75,5.75,0,0,0,252.65,45.3Z"/><path class="cls-33" d="M249.66,34.37a25.32,25.32,0,0,1,1.07,4.24,41.71,41.71,0,0,1,.51,4.32V43a.42.42,0,0,1-.39.44h0a23.29,23.29,0,0,1-3.31-.31,21.87,21.87,0,0,1,3.28-.57l-.43.5a41.8,41.8,0,0,1-.62-4.31A25.45,25.45,0,0,1,249.66,34.37Z"/><path d="M244.29,32.37a16,16,0,0,1-2.24.54c-.71.12-1.33.28-2.2.47a2.57,2.57,0,0,1,2-1.53A3.13,3.13,0,0,1,244.29,32.37Z"/><path d="M255.39,31.52a9.84,9.84,0,0,1-2.21.34c-.35,0-.69,0-1.05,0s-.71,0-1.15,0a2.74,2.74,0,0,1,2.14-1.07A3.08,3.08,0,0,1,255.39,31.52Z"/><path class="cls-36" d="M234.31,37.25a2.32,2.32,0,0,1,1.75.89,2.5,2.5,0,0,1,.56,1.88,8.29,8.29,0,0,0-1-1.57A6.15,6.15,0,0,0,234.31,37.25Z"/><path class="cls-36" d="M260.6,35a5.87,5.87,0,0,0-1,1.53,8.85,8.85,0,0,0-.5,1.76,2.56,2.56,0,0,1,0-2A2.35,2.35,0,0,1,260.6,35Z"/><path class="cls-8" d="M274.38,144.4a1.63,1.63,0,0,1-2.35-.83,1.51,1.51,0,0,1-.11-.59,1.65,1.65,0,0,1,.82-1.42l8.6-4.91L275.48,139a1.6,1.6,0,0,1-2.2-1.49,1.58,1.58,0,0,1,1-1.47l4.5-1.91a6.6,6.6,0,0,1,2.44-.53h1.47c-1-6.67-1.64-12.47-2.05-17.51v0c-2.92-7.4-5.44-25.33-5.44-25.33l-3,.6c-.17-.88-.39-1.86-.66-2.9l-30.08,1.69c1.08,3.77,1.91,6.18,1.91,6.18l-3.16.39c-.47-1.56-.91-3.1-1.31-4.62-.17.45-4.3,11.26-5.51,18.74A35.3,35.3,0,0,1,240,123.18s3.12,11.1-2.33,12.92l-.2-.07a7.61,7.61,0,0,1-1.22,2.21.94.94,0,0,1-.43.3,1.08,1.08,0,0,1-.79,0,1.11,1.11,0,0,1-.71-1,1.07,1.07,0,0,1,.09-.43l.42-1a8.13,8.13,0,0,1-.68,1,1,1,0,0,1-.84.4,1.17,1.17,0,0,1-.73-.28,1.1,1.1,0,0,1-.25-1.25,29.9,29.9,0,0,0,2.06-8.6,33.8,33.8,0,0,0,.19-3.85l-.42,3.21-.08.65a9.39,9.39,0,0,1-1.57,4.09l-1.38,2a1,1,0,0,1-.77.37,1,1,0,0,1-.66-.24,1,1,0,0,1-.21-1.19l.53-1a1.54,1.54,0,0,0,.17-.42,14.68,14.68,0,0,0-.43-9l-.21.09a161.45,161.45,0,0,0-1.67,26.1s.54.15,1.52.38c.38.1.83.2,1.35.31,1.5.33,3.54.72,6,1.08h0c9.63,1.41,25.44,2.25,38.91-4.07a1.67,1.67,0,0,1,.55-2.37l8.14-4.79Zm-14.27-30s-13.24,1.94-11.77-13.92c0,0,11,1.57,19.73-1.36C268.07,99.15,273.14,113.23,260.11,114.43Z"/><path class="cls-9" d="M237.78,149.58a1.72,1.72,0,0,1-1,.27h0a22.8,22.8,0,0,1-6-1.08l-.15-.05a6.93,6.93,0,0,0-1.2-.26c-1-.23-1.52-.38-1.52-.38a161.45,161.45,0,0,1,1.67-26.1l.21-.09a14.68,14.68,0,0,1,.43,9,1.54,1.54,0,0,1-.17.42l-.53,1a1,1,0,0,0,.21,1.19,1,1,0,0,0,.66.24,1,1,0,0,0,.77-.37l1.38-2a9.39,9.39,0,0,0,1.57-4.09l.08-.65c.09.21.16.42.23.64,1.13,3.34,1.27,7.43,1.43,11.21a42.65,42.65,0,0,0,.69,7C236.87,146.94,237.42,148.3,237.78,149.58Z"/><path class="cls-9" d="M271.52,88.39C268.67,76.87,261,56.54,261,56.54h0c.85,0,2,.07,3.34.22h0c4.88,10.15,10.84,33.93,10.84,33.93l-3,.61C272,90.41,271.79,89.44,271.52,88.39Z"/><path class="cls-8" d="M293.74,206.05l-2.54-17.21c-.69-7.18-1.63-13.74-2.6-19.39-13.31-1.78-13.43-18.34-13.43-18.34a83.78,83.78,0,0,1-9.7,2.91l-1.4.33c-1.12.24-2.21.45-3.29.63-2.23.38-4.36.64-6.41.81h-.06a71,71,0,0,1-8.77.16c-2.21-.1-4.24-.31-6.08-.57h0s0,.06,0,.17c.09.4.31,1.5.5,3,.74,6,1,18.46-9.83,19.77a213.51,213.51,0,0,0,7.2,32.26,37.06,37.06,0,0,1,1.39,6.33l2.46,19.27,1.45,11.36.05.06a39,39,0,0,0,12.81-15.5l2.65,2.93,6.5,7.17,4.18,4.61.18-.16L289.68,221A19.27,19.27,0,0,0,293.74,206.05Zm-21.41,6.59a16.25,16.25,0,0,1-2.81,6.64l-2.94,4.09-6.12,8.51.06-12.16.24-45v-.4l0,.12,10.82,29.75A16.28,16.28,0,0,1,272.33,212.64Z"/><path class="cls-9" d="M243.34,96.26l-3.16.4c-.47-1.57-.91-3.11-1.31-4.62h0a161.83,161.83,0,0,1-5.5-31.85,31.23,31.23,0,0,1,3.33-.83c-.61,10,2.56,23.14,4.73,30.73C242.52,93.85,243.34,96.26,243.34,96.26Z"/><path class="cls-64" d="M283.85,147.74a207.19,207.19,0,0,1,4.76,21.71c-13.32-1.77-13.44-18.34-13.44-18.34q2.4-.88,4.88-2a1.7,1.7,0,0,0,2.48-.1l1.22-1.4Z"/><path class="cls-64" d="M285.85,141.13l-5.79,5.58a1.69,1.69,0,0,0-.51,1.22,1.75,1.75,0,0,0,.5,1.22q-2.48,1.08-4.88,2A81.49,81.49,0,0,1,260.78,155q-3.37.57-6.46.82a67.5,67.5,0,0,1-14.86-.41A45.78,45.78,0,0,1,228,152.48c0-1.52-.06-3-.06-4.4,0,0,26.73,7.56,47.77-2.3a1.66,1.66,0,0,0,2.3.48Z"/><path class="cls-64" d="M230.17,178.34c-1-7.31-1.67-14.15-2-20.38-.09-1.81-.16-3.56-.2-5.26a1.77,1.77,0,0,1,0-.23,45.31,45.31,0,0,0,11.48,2.92h0s0,.06,0,.17c.09.4.31,1.5.5,3C240.74,164.55,241,177,230.17,178.34Z"/><path class="cls-65" d="M227.92,148.08c2,.4,4,.78,6,1s4,.55,6,.73a99.89,99.89,0,0,0,12.1.44,74.49,74.49,0,0,0,12-1.18l3-.6c1-.2,1.94-.54,2.92-.79,2-.44,3.82-1.3,5.76-1.93a48.43,48.43,0,0,1-11.48,4.13,66.31,66.31,0,0,1-12.16,1.44,85.87,85.87,0,0,1-12.21-.69A71.12,71.12,0,0,1,227.92,148.08Z"/><path class="cls-65" d="M254.32,155.8A56.17,56.17,0,0,1,256.75,171,48.06,48.06,0,0,1,255,163.5,49.3,49.3,0,0,1,254.32,155.8Z"/><path class="cls-9" d="M268.86,246.84l-10.68-11.79-2.65-2.93a39,39,0,0,1-12.81,15.5l-.05-.06-1.45-11.36c1-.44,2.11-.79,2.72-1.12,4.21-2.29,6.52-5.19,9.49-8.77,1-1.27,4.59-5.42,7.09-6.59l-.06,12.16.87-1.2C262.08,232.25,266.84,241.28,268.86,246.84Z"/><path class="cls-65" d="M258.08,235.74a.5.5,0,0,1-.31-.1.54.54,0,0,1-.13-.75l3.58-5a.54.54,0,0,1,.87.63l-3.57,5A.56.56,0,0,1,258.08,235.74Z"/><path class="cls-9" d="M241.57,136.14c5.53-4,11.51-7.35,16.76-11.86,2.34-2,4.95-3.38,7-5.73a21.58,21.58,0,0,1,2.69-3.2c-2.33,5.6-6.69,9.62-9.73,14.68,4.87-2.69,9.27-7,13.83-10.61A58.3,58.3,0,0,1,258,135.18c-2.31,1.81-4.36,4.2-6.83,5.85-1.54,1-3.56,1.41-4.9,2.73,3.4-4.09,8.73-9,9.94-14.32C251.89,132.4,246.89,136.5,241.57,136.14Z"/><path class="cls-66" d="M260.61,174.31l.15.08v.3A2.5,2.5,0,0,0,260.61,174.31Z"/><path class="cls-9" d="M273.92,210.6c-.25.87-.7,2.19-1.59,2a16.28,16.28,0,0,0-.71-8.48L260.8,174.41c4.12-.58,4.65-3.94,5.73.09C267.33,177.51,277.45,198.71,273.92,210.6Z"/><path class="cls-65" d="M260.78,155c.83,3,1.48,6.09,2,9.17s1,6.16,1.42,9.27v0a.36.36,0,0,1-.29.41c-1.76.38-3.54.72-5.33,1,1.69-.65,3.41-1.23,5.13-1.76l-.29.45c-.64-3.06-1.18-6.14-1.65-9.23S261,158.12,260.78,155Z"/><path class="cls-9" d="M265.8,154.06a22.62,22.62,0,0,1-7.49,2.78,99.17,99.17,0,0,1-16,1.68c-.76,0-1.52,0-2.28,0-2.38,0-4.77-.15-7.14-.17a17.35,17.35,0,0,1-4.67-.44c-.09-1.81-.17-3.78-.21-5.48,1.13.36,2.29,1,3.41,1.25.93.2,1.85.46,2.76.73a33,33,0,0,0,5.35,1.11,46.76,46.76,0,0,0,6,.39c1.56,0,3.11-.05,4.64-.13s2.79-.05,4.19,0a33.43,33.43,0,0,0,4.59-.18,22.88,22.88,0,0,0,4.53-1l.58-.22a3.46,3.46,0,0,1,1.4-.33A2,2,0,0,1,265.8,154.06Z"/><path class="cls-65" d="M228,152.48a43.69,43.69,0,0,0,6.44,1.72,63.47,63.47,0,0,0,6.57,1,71.53,71.53,0,0,0,13.25.09l6.59-.79c2.19-.35,4.35-.84,6.51-1.34s4.29-1.12,6.41-1.8,4.18-1.5,6.3-2.19c-1,.47-2,.93-3.05,1.38s-2,.92-3.08,1.31c-2.09.79-4.22,1.48-6.37,2.1a64,64,0,0,1-6.55,1.5l-6.67.9a64.93,64.93,0,0,1-13.44-.35A45.78,45.78,0,0,1,228,152.48Z"/><path class="cls-65" d="M242.46,160a19.59,19.59,0,0,1,.6,6.21,17.36,17.36,0,0,1-1.47,6.14,12.36,12.36,0,0,1-4,4.91,13.77,13.77,0,0,1-5.76,2.42,18.31,18.31,0,0,0,5.27-3,13.17,13.17,0,0,0,3.58-4.72,20.15,20.15,0,0,0,1.61-5.8A31.32,31.32,0,0,0,242.46,160Z"/><path class="cls-65" d="M273.37,153.91a52.52,52.52,0,0,0,2,5.82,29.16,29.16,0,0,0,2.85,5.35,14.87,14.87,0,0,0,4.19,4.21,11.77,11.77,0,0,0,2.72,1.24,13.06,13.06,0,0,0,3,.5,10.53,10.53,0,0,1-3.12,0,10.4,10.4,0,0,1-3-1,13.59,13.59,0,0,1-4.63-4.32,22.3,22.3,0,0,1-2.74-5.64A25.52,25.52,0,0,1,273.37,153.91Z"/><path class="cls-64" d="M268.08,99.15s5.06,14.08-8,15.29c0,0-13.24,1.93-11.77-13.92C248.34,100.52,259.35,102.09,268.08,99.15Z"/><path class="cls-65" d="M248.88,101.76a45.51,45.51,0,0,0,4.75.56,44.28,44.28,0,0,0,4.75,0,33.76,33.76,0,0,0,4.69-.58l1.17-.24,1.14-.32c.79-.16,1.51-.5,2.29-.71a18.7,18.7,0,0,1-4.46,1.83,22.26,22.26,0,0,1-4.79.77,26.22,26.22,0,0,1-4.85-.19A21.68,21.68,0,0,1,248.88,101.76Z"/><path class="cls-67" d="M233.36,60.17c-6.61,2-18.7,7.76-32.36,24l.76.78,11.45,11.88.56.58a13.86,13.86,0,0,0,6.08-3.8s0,.1.1.29c.48,1.38,2.5,7.34,2.76,11,1.78.49,3.33.95,4.55,1.32a10.85,10.85,0,0,1,5,3.21l.75.9c.13.15.25.31.38.47,1.21-7.48,5.34-18.29,5.51-18.74h0A162.38,162.38,0,0,1,233.36,60.17ZM261,56.54h0c-1.12,0-1.74,0-1.74,0h0c1.18,8.55-8.43,9.52-8.43,9.52-11.84.43-12.11-7-12.11-7a14.44,14.44,0,0,0-2,.26c-.62,10,2.56,23.15,4.73,30.74l30.08-1.69C268.67,76.87,261,56.54,261,56.54Zm3.33.2h0c4.88,10.15,10.85,33.94,10.85,33.94s.09.67.27,1.81c.72,4.74,2.82,17.55,5.17,23.52C279,95.94,281.26,88,282,86.1c.14-.35.22-.51.22-.51,2.14,5,5.36,6.43,5.36,6.43l1.49-1.33L299,81.8l.89-.81C289.49,61.87,272.7,57.64,264.32,56.74Z"/><path class="cls-68" d="M233,110.3l-.75-.9a10.85,10.85,0,0,0-5-3.21c-1.22-.37-2.77-.83-4.55-1.32-.26-3.61-2.28-9.57-2.76-11,.62-1.15,1.43-2.17,2.07-3.38a29.1,29.1,0,0,0,2-5.69c1.63,4,1.89,8.84,3.54,13,1.19,3,2.88,5.64,4,8.63C232.07,107.65,232.59,109,233,110.3Z"/><path class="cls-68" d="M280.61,116c-2.35-6-4.45-18.78-5.17-23.52.47-2.13,1.05-4.23,1.61-6.33A43.33,43.33,0,0,1,279,79.9a12.63,12.63,0,0,0,1.25-3c-.45,2.91,1,5.46,1.54,7.86.09.45.16.9.22,1.35C281.26,88,279,95.94,280.61,116Z"/><path class="cls-68" d="M242.46,83.4c1.49,0,2.92-1.06,4.11-1.88,2.76-1.9,5.48-3.49,7.78-6s4.72-4.41,6.15-7.35c.5-1,.91-2.1,1.41-3.13C261.28,72,256.75,78.42,251,82,248.9,83.35,244.21,86,242.46,83.4Z"/><path class="cls-69" d="M282.21,86.14a.53.53,0,0,1-.49-.33c-1.71-4-2.27-9.07-1.68-15.06a.55.55,0,0,1,.59-.48.53.53,0,0,1,.48.59c-.57,5.8,0,10.69,1.6,14.53a.56.56,0,0,1-.5.75Z"/><path class="cls-69" d="M219.86,94.18a.52.52,0,0,1-.38-.16.54.54,0,0,1,0-.76c3.13-3.2,4.83-7.71,5.06-13.39a.52.52,0,0,1,.56-.52.55.55,0,0,1,.52.56c-.24,6-2.05,10.7-5.37,14.1A.52.52,0,0,1,219.86,94.18Z"/><path class="cls-32" d="M300.22,132a5.85,5.85,0,0,0-.62,1.16l-1.76,4.45a7.19,7.19,0,0,1-3.71,3.92l-7.06,3.27a7.26,7.26,0,0,0-2.46,1.85l-.86,1-1.22,1.4a1.7,1.7,0,0,1-2.48.09,1.7,1.7,0,0,1,0-2.44l5.78-5.58L278,146.25a1.66,1.66,0,0,1-2.3-.47,1.67,1.67,0,0,1,.55-2.37l8.14-4.79-10,5.78a1.63,1.63,0,0,1-2.35-.83,1.51,1.51,0,0,1-.11-.59,1.65,1.65,0,0,1,.82-1.42l8.6-4.91L275.48,139a1.6,1.6,0,0,1-2.2-1.49,1.58,1.58,0,0,1,1-1.47l4.5-1.91a6.6,6.6,0,0,1,2.44-.53h5.59a3.29,3.29,0,0,0,1.36-.29,3.35,3.35,0,0,0,1.81-1.83c.13-.33.28-.69.44-1.08,2.62-6.53,8.19-21.38,7.93-29a5.49,5.49,0,0,0,0-.58,12.55,12.55,0,0,1-4.22-2.93,29.24,29.24,0,0,1-5-7.11l5-4.47,1.72-1.54L299,81.8S324,97.5,300.22,132Z"/><path class="cls-36" d="M275.69,140.42a.53.53,0,0,1-.47-.27.53.53,0,0,1,.2-.73l5.66-3.23a.54.54,0,0,1,.53.93L276,140.35A.48.48,0,0,1,275.69,140.42Z"/><path class="cls-36" d="M276.24,144a.55.55,0,0,1-.47-.27A.54.54,0,0,1,276,143l8.14-4.8a.54.54,0,0,1,.74.19.55.55,0,0,1-.19.74l-8.14,4.79A.56.56,0,0,1,276.24,144Z"/><path class="cls-36" d="M278,146.79a.52.52,0,0,1-.45-.24.54.54,0,0,1,.15-.74l7.86-5.13a.55.55,0,0,1,.75.15.55.55,0,0,1-.16.75l-7.86,5.13A.6.6,0,0,1,278,146.79Z"/><path class="cls-33" d="M294.91,136.13a11.93,11.93,0,0,0-3.71-2.06c-.75-.31-2.12-.41-3.06-.81a3.35,3.35,0,0,0,1.81-1.83c.13-.33.28-.69.44-1.08A14.79,14.79,0,0,1,294.91,136.13Z"/><path class="cls-36" d="M300.84,101.76a7.68,7.68,0,0,1-2.74-.52.55.55,0,0,1-.31-.7.54.54,0,0,1,.69-.31,6.21,6.21,0,0,0,3.74.29.54.54,0,1,1,.25,1A6.85,6.85,0,0,1,300.84,101.76Z"/><path class="cls-33" d="M294.07,97.8a29.24,29.24,0,0,1-5-7.11L299,81.8C298.08,85.63,295.88,92.73,294.07,97.8Z"/><path class="cls-32" d="M240,123.18a35.3,35.3,0,0,0-6.68-12.41c-.39-.5-.78-1-1.13-1.37a10.85,10.85,0,0,0-5-3.21c-1.22-.37-2.77-.83-4.55-1.32-4.07-1.12-9.28-2.42-14.1-3.22l.28-.23c.92-.74,3.87-3.21,4.32-4.57L201.76,85s-1.36,1.46-3.29,3.72c-4.23,5-11.21,13.91-12.28,19.67a3.11,3.11,0,0,0,1.85,3.4c2.7,1.17,8.48,3,18.37,3.09h2.2a116.16,116.16,0,0,0,16.63-1.52h.33A7.05,7.05,0,0,0,228,118.5a13,13,0,0,1,1.82,3.39,14.68,14.68,0,0,1,.43,9,1.54,1.54,0,0,1-.17.42l-.53,1a1,1,0,0,0,.21,1.19,1,1,0,0,0,.66.24,1,1,0,0,0,.77-.37l1.38-2a9.39,9.39,0,0,0,1.57-4.09l.5-3.86a33.78,33.78,0,0,1-2.25,12.45,1.1,1.1,0,0,0,.25,1.25,1.17,1.17,0,0,0,.73.28,1,1,0,0,0,.84-.4,8.13,8.13,0,0,0,.68-1,12.72,12.72,0,0,0,1.47-3.85,12.39,12.39,0,0,1-1.47,3.86l-.42,1a1.06,1.06,0,0,0-.08.43,1.11,1.11,0,0,0,.71,1,1.1,1.1,0,0,0,1.21-.3,7.63,7.63,0,0,0,1.23-2.21l.19.06C243.16,134.28,240,123.18,240,123.18Z"/><path class="cls-36" d="M234.87,136.65a.6.6,0,0,1-.28-.08.55.55,0,0,1-.18-.74A12.93,12.93,0,0,0,236,131a26.1,26.1,0,0,0,.26-3.7.54.54,0,0,1,1.08,0,27,27,0,0,1-.28,3.86,14.21,14.21,0,0,1-1.76,5.21A.55.55,0,0,1,234.87,136.65Z"/><path class="cls-36" d="M232.37,136.47a.52.52,0,0,1-.21,0,.54.54,0,0,1-.29-.71,33.49,33.49,0,0,0,2.22-12.22.54.54,0,0,1,.52-.55.56.56,0,0,1,.55.52,33.94,33.94,0,0,1-2.3,12.68A.53.53,0,0,1,232.37,136.47Z"/><path class="cls-36" d="M225.58,113.88h0a.54.54,0,0,1-.52-.55,5.56,5.56,0,0,1,.81-2.85.54.54,0,0,1,.89.61,4.48,4.48,0,0,0-.63,2.26A.53.53,0,0,1,225.58,113.88Z"/><path class="cls-36" d="M237.52,136.57a.48.48,0,0,1-.2,0,.53.53,0,0,1-.3-.69,21.64,21.64,0,0,0,1.11-4.45,37.36,37.36,0,0,0,.38-3.72.56.56,0,0,1,.55-.52.55.55,0,0,1,.52.56,37,37,0,0,1-.39,3.85,22.48,22.48,0,0,1-1.17,4.67A.55.55,0,0,1,237.52,136.57Z"/><path class="cls-33" d="M213.21,96.85c-.45,1.36-3.4,3.83-4.32,4.57-.79-.24-1-.92-1.7-2.18a24.94,24.94,0,0,0-3.92-5.43,52.62,52.62,0,0,0-4.8-5.12c1.93-2.26,3.29-3.72,3.29-3.72Z"/><path class="cls-36" d="M208.61,102.2h-.08c-4.59-.76-8.07-.92-10.34-.49a.54.54,0,0,1-.63-.43.53.53,0,0,1,.43-.62c2.4-.46,6-.3,10.71.48a.54.54,0,0,1-.09,1.07Z"/><path class="cls-6" d="M89.44,291.12c-5.75,0-11.21.19-16.17.52-4.37-.25-9.08-.38-14-.38-22.43,0-40.61,2.83-40.61,6.31s18.18,6.32,40.61,6.32c5.75,0,11.21-.19,16.17-.52,4.37.25,9.08.38,14,.38,22.43,0,40.61-2.83,40.61-6.31S111.87,291.12,89.44,291.12Z"/><path class="cls-39" d="M83.89,266.82V301.4a1.83,1.83,0,0,1-1.83,1.83H81a1.82,1.82,0,0,1-1.82-1.83V271.9a1.83,1.83,0,0,0-3.66,0v29.5a1.83,1.83,0,0,1-1.83,1.83H72.17a1.83,1.83,0,0,1-1.83-1.83V271.6a1.82,1.82,0,0,0-1.82-1.83H67.24a1.81,1.81,0,0,0-1.33.57,1.79,1.79,0,0,0-.5,1.26v29.8a1.83,1.83,0,0,1-1.83,1.83H62.4a1.83,1.83,0,0,1-1.83-1.83V271.6a1.82,1.82,0,0,0-1.83-1.83H57.66a1.83,1.83,0,0,0-1.83,1.83v29.8A1.83,1.83,0,0,1,54,303.23H52.65a1.83,1.83,0,0,1-1.83-1.83V266.82a10.79,10.79,0,0,1,10.77-10.77,1.84,1.84,0,0,0,1.85-1.88l0-2.14-.33-14.34-.11-5h7.71v21.51a1.83,1.83,0,0,0,1.83,1.84h.61a10.78,10.78,0,0,1,10.77,10.22C83.89,266.45,83.89,266.64,83.89,266.82Z"/><path class="cls-41" d="M83.89,266.82v26.44c-1-1.08-2-2.23-3-3-.63-.54-1.23-1.09-1.81-1.64V271.9a1.83,1.83,0,0,0-3.66,0V285l-1-1q-2.13-2-4.11-4V271.6a1.82,1.82,0,0,0-1.82-1.83H67.24a1.81,1.81,0,0,0-1.33.57,1.79,1.79,0,0,0-.5,1.26v3c-1.8-2.14-3.52-4.36-5.16-6.71-2-2.91-4.11-5.82-6.27-8.66a10.75,10.75,0,0,1,7.61-3.16,1.84,1.84,0,0,0,1.85-1.88l0-2.14-.33-14.34c1.64,1.94,3.27,3.91,5.06,5.7a21.5,21.5,0,0,0,2.54,2.13v8.69a1.83,1.83,0,0,0,1.83,1.84h.61a10.78,10.78,0,0,1,10.77,10.22C83.89,266.45,83.89,266.64,83.89,266.82Z"/><path class="cls-30" d="M69.32,232.7H64.67L62,177.86l-.92-19.18-1.25-25.92L58.24,98.58,57.64,86l.4-2.08a1.71,1.71,0,0,1,1.68-1.4,1.73,1.73,0,0,1,1.51.9,7.94,7.94,0,0,1,.87,2.32,1.43,1.43,0,0,0,2.4.7.1.1,0,0,0,0-.08l.56,17L66,129.89l.91,27.87.6,18.38Z"/><path class="cls-41" d="M65.1,103.4c-1-.85-2-1.66-3-2.41s-2.43-1.58-3.84-2.41L57.64,86l.4-2.08a1.71,1.71,0,0,1,1.68-1.4,1.73,1.73,0,0,1,1.51.9,7.94,7.94,0,0,1,.87,2.32,1.43,1.43,0,0,0,2.4.7.1.1,0,0,0,0-.08Z"/><path class="cls-10" d="M40.85,295.74a4.71,4.71,0,0,1-3-1.1,3.52,3.52,0,0,0,.28,2.77,1.93,1.93,0,0,0,1.09.83c1.23.34,4.38.48,11.65-2.5v-2.89l-8.58,2.68A4.85,4.85,0,0,1,40.85,295.74Zm27.79-7.38a3.37,3.37,0,0,0-.88-2,2.76,2.76,0,0,1-1.83,1.78l-.52.17v2.25l2.35-.82a1.36,1.36,0,0,0,.89-1.25S68.64,288.4,68.64,288.36ZM55.84,294l4.74-1.69v-2.47l-4.74,1.48Z"/><path class="cls-11" d="M58.74,269.77H57.66a1.84,1.84,0,0,0-1.83,1.83v19.69l2.79-.87,2-.61V271.6A1.82,1.82,0,0,0,58.74,269.77ZM63.4,252h-17l2.47,28.56c0,.2,0,.4,0,.6a6.92,6.92,0,0,1-5,6.63l-5,1.46a3.09,3.09,0,0,0-2.2,2.51,3.83,3.83,0,0,0,0,.47,3.06,3.06,0,0,0,1.12,2.37,4.72,4.72,0,0,0,3,1.11,4.8,4.8,0,0,0,1.39-.22l8.58-2.67v-26a10.72,10.72,0,0,1,3.12-7.57l0,0a10.75,10.75,0,0,1,7.61-3.16,1.84,1.84,0,0,0,1.85-1.88Zm4.47,33.06-2-14.75a1.79,1.79,0,0,0-.5,1.26v16.7l.52-.16a2.79,2.79,0,0,0,1.82-1.78A3,3,0,0,0,67.87,285.09Z"/><path class="cls-12" d="M58.74,269.77H57.66a1.82,1.82,0,0,0-1,.32c.59,5.29,1,10.61,1.66,15.89a36.46,36.46,0,0,0,.33,4.44l2-.61V271.6A1.82,1.82,0,0,0,58.74,269.77Zm9.13,15.32-2-14.75a1.79,1.79,0,0,0-.5,1.26v16.7l.52-.16a2.79,2.79,0,0,0,1.82-1.78A3,3,0,0,0,67.87,285.09ZM51.11,252c-.36,1.83,1.24,4.34,2,5.66.3.52.58,1,.82,1.56l0,0a10.75,10.75,0,0,1,7.61-3.16,1.84,1.84,0,0,0,1.85-1.88l0-2.14Z"/><path class="cls-10" d="M118.52,292.87c3.19,4.1-10.35,4.69-10.35,4.69a20.62,20.62,0,0,1-12.68-4.19,5.19,5.19,0,0,0-1.82-.91,28.4,28.4,0,0,0-6.2-.66c-.73-.74,0-2.74,0-2.74a20.33,20.33,0,0,1,13.29,4.39A21.25,21.25,0,0,0,118.52,292.87Z"/><path class="cls-11" d="M118.52,292.87a21.45,21.45,0,0,1-14.43,1.69,19.51,19.51,0,0,1-3.34-1.11,20.33,20.33,0,0,0-13.28-4.4l-1.26-22.91-.17-3L85.44,252h18.44l-1.06,19.57a14.45,14.45,0,0,0,4.74,11.48l3.71,3.34a9.43,9.43,0,0,0,2.68,1.67C115.72,288.82,118.52,290.38,118.52,292.87Z"/><path class="cls-12" d="M104.09,294.56a19.51,19.51,0,0,1-3.34-1.11,20.33,20.33,0,0,0-13.28-4.4l-1.26-22.91-.17-3a7.19,7.19,0,0,1,3.15,2.21c2.12,2.93,2,7.4,2.49,10.82.34,2.23.52,4.78,2,6.53,1.41,1.6,3.38,2.34,5.08,3.56a5.12,5.12,0,0,1,2.17,2.83c.2.62.25,1.29.44,1.92.41,1.33,1.19,1.62,2.08,2.59A2.43,2.43,0,0,1,104.09,294.56Z"/><path class="cls-64" d="M96.88,172.07c-9,0-11.87-7.63-12.78-12.95a27.56,27.56,0,0,1-.42-5c3-.83,6.25-1.8,9.75-3l.56,3.37Z"/><path class="cls-8" d="M102,202.92l-5.09-30.85c-9,0-11.87-7.63-12.78-12.95a27.56,27.56,0,0,1-.42-5,154.43,154.43,0,0,1-16.8,3.66h0l.14,4.3.21,6.41.25,7.67a219.13,219.13,0,0,1,19.25,56.34c1,5,1.72,10.14,2.23,15.4.14,1.38.25,2.76.35,4.15h10.83l.26-2,2.08-15.71A106.82,106.82,0,0,0,102,202.92Zm-40.1-28.59-.57-11.86-.18-3.79c-.58.06-.62.06-1.15.13a57.78,57.78,0,0,1-12-.13,28.73,28.73,0,0,1,.78,4.58c.55,6-.19,16.32-10.66,20.75L48.6,249.74,49,252H60.32v-4.88c0-4.53,0-11.8.11-20,.15-20,.56-45.44,1.61-49.32Z"/><path class="cls-64" d="M38,184l-2.89-18-.81-5s4.08-3.31,13.58-2.29a28.73,28.73,0,0,1,.78,4.58C49.25,169.28,48.51,179.58,38,184Z"/><path class="cls-65" d="M50.93,158.94A30.2,30.2,0,0,1,52,167.2a25,25,0,0,1-1.38,8.29,16.47,16.47,0,0,1-4.72,7A16.16,16.16,0,0,1,38.37,186a21.91,21.91,0,0,0,3.75-1.71,19.19,19.19,0,0,0,1.72-1.09,16.1,16.1,0,0,0,1.53-1.32,17.38,17.38,0,0,0,4.3-6.75,29,29,0,0,0,1.55-8,35.38,35.38,0,0,0,0-4.12A38.11,38.11,0,0,0,50.93,158.94Z"/><path class="cls-65" d="M81.12,154.79c.12,1.17.27,2.32.5,3.47s.45,2.28.76,3.4A25.77,25.77,0,0,0,85,168a14.05,14.05,0,0,0,4.66,4.85,11.82,11.82,0,0,0,3.13,1.37,17,17,0,0,0,3.43.64,12.64,12.64,0,0,1-6.94-1.34,12.2,12.2,0,0,1-2.92-2.14,16.43,16.43,0,0,1-2.21-2.86,21.1,21.1,0,0,1-2.51-6.69A26.06,26.06,0,0,1,81.12,154.79Z"/><path class="cls-9" d="M60,158.81a57.78,57.78,0,0,1-12-.13c-9.5-1-13.58,2.29-13.58,2.29l.81,5a13.17,13.17,0,0,1,1.35-.59,38.31,38.31,0,0,1,10-2l2.15-.14c3.7-.26,7.39-.6,11.07-.73l1.53-.06-.18-3.79C60.54,158.74,60.5,158.74,60,158.81Zm33.46-7.67c-3.5,1.16-6.74,2.13-9.75,3a154.43,154.43,0,0,1-16.8,3.66h0l.14,4.3a108.26,108.26,0,0,0,17.09-2.94c.67-.17,1.33-.35,2-.54,3-.84,5.37-2.69,7.9-4.07Z"/><path class="cls-9" d="M86.72,232.48a219.13,219.13,0,0,0-19.25-56.34l-.25-7.67c5,3.49,9.74,7.2,12.22,13,1.55,3.66,7,25.75,7.87,28.88a83.8,83.8,0,0,1,2,10.17C89.63,222.87,89.86,232.88,86.72,232.48Z"/><path class="cls-9" d="M60.32,247.15V252H49l-.37-2.29c1-.29,2-.72,2.71-.9a72.69,72.69,0,0,1,7.9-1.45C59.45,247.36,59.85,247.26,60.32,247.15Z"/><path class="cls-9" d="M100.39,250.06l-.26,2H89.3c-.1-1.39-.21-2.77-.35-4.15.62.17,1.23.36,1.83.5,2.38.56,4.8.87,7.2,1.36C98.62,249.87,99.54,249.91,100.39,250.06Z"/><path class="cls-9" d="M62,177.86c-1,3.88-1.46,29.31-1.61,49.32-1.1.32-1.85-.28-2.5-1.32-2.57-4-1.87-10-1.87-14.61,0-7.65-.06-15.27,1-22.84.47-3.52.79-7,2.24-10.24a13.46,13.46,0,0,1,2.61-3.84Z"/><path class="cls-70" d="M55.57,57.62a11.68,11.68,0,0,0,5.34,1.68,9.88,9.88,0,0,0,9.08-5,9.54,9.54,0,0,0,.59-1.2A22.74,22.74,0,0,0,72,43.64a44.76,44.76,0,0,0-.56-5.54A19.35,19.35,0,0,0,69,33.3a12,12,0,0,0-.85-1.09,1.64,1.64,0,0,0-2.07-.32c-7.66,4.53-12.24,2.57-12.24,2.57-1,.43-2,.85-3,1.26h0a5.37,5.37,0,0,1-.66,2A8.05,8.05,0,0,1,49.37,39a6.15,6.15,0,0,1-.59.66,3.29,3.29,0,0,0-.83,0l-.17,0a3.08,3.08,0,0,0,.85,6.09,2.94,2.94,0,0,0,1.16-.38h.08l.06,5.33.12,8.63,0,3.76s-.18,7.43,11.66,7.71c0,0,9.66-.37,9-9C61,65.06,55.83,58,55.57,57.62ZM66,42.68a1.33,1.33,0,1,1,1.32-1.33A1.33,1.33,0,0,1,66,42.68ZM53.9,42a1.33,1.33,0,1,1,1.33,1.34A1.34,1.34,0,0,1,53.9,42Z"/><path class="cls-71" d="M70.6,60.49a10.46,10.46,0,0,1,.17,1.31C61,65.07,55.84,58,55.58,57.63a11.76,11.76,0,0,0,5.33,1.68,9.92,9.92,0,0,0,9.08-5l.5,5Z"/><path class="cls-72" d="M73,33c.08,6.4-1.55,5.06-1.55,5.06A19.35,19.35,0,0,0,69,33.3a12,12,0,0,0-.85-1.09,1.64,1.64,0,0,0-2.07-.32c-7.66,4.53-12.24,2.57-12.24,2.57,1.76-.73,3.63-1.49,5.64-2.29,0,0,6.22-2.7,13.15-4.85.18,1.76.28,3.23.33,4.47C73,32.24,73,32.65,73,33Z"/><path class="cls-72" d="M50.85,35.72h0a5.37,5.37,0,0,1-.66,2A7.4,7.4,0,0,1,49.37,39a6.15,6.15,0,0,1-.59.66,3.29,3.29,0,0,0-.83,0l-.17,0a2.63,2.63,0,0,1-.55-1.15,3,3,0,0,1,0-1.14C48.33,36.82,49.55,36.29,50.85,35.72Z"/><path d="M66,40a1.33,1.33,0,1,1-1.33,1.32A1.32,1.32,0,0,1,66,40Z"/><circle cx="55.23" cy="41.99" r="1.33"/><path class="cls-73" d="M55.89,51.08a10.61,10.61,0,0,0,4.89,1.41,7.11,7.11,0,0,0,2.44-.38,12.94,12.94,0,0,0,1.21-.46c.4-.17.78-.4,1.22-.57a6,6,0,0,1-2.11,1.8,5.77,5.77,0,0,1-2.77.69A6.14,6.14,0,0,1,58,52.88,5.67,5.67,0,0,1,55.89,51.08Z"/><path class="cls-72" d="M63,37.92a2.37,2.37,0,0,1,1.31-.9,4.85,4.85,0,0,1,1.55-.26,4.05,4.05,0,0,1,2.91,1.09c-1.08,0-2,0-2.9,0-.46,0-.93,0-1.4,0A9.16,9.16,0,0,0,63,37.92Z"/><path class="cls-71" d="M59.82,47.41a12.8,12.8,0,0,1,2.85-.76l-.43.54a18.85,18.85,0,0,1-.35-2.89A12.76,12.76,0,0,1,62,41.35a14,14,0,0,1,.83,2.83,20.16,20.16,0,0,1,.34,2.89v.07a.45.45,0,0,1-.43.47h0A14,14,0,0,1,59.82,47.41Z"/><path class="cls-72" d="M50.91,39.82a3.85,3.85,0,0,1,1.29-1.25,5.2,5.2,0,0,1,1.67-.68,4.59,4.59,0,0,1,1.81,0,3.59,3.59,0,0,1,1.66.69c-.61.07-1.15.07-1.69.14a11.54,11.54,0,0,0-1.56.26C53.05,39.15,52.06,39.48,50.91,39.82Z"/><path class="cls-72" d="M47.31,41.18A2.37,2.37,0,0,1,49,42.26a2.55,2.55,0,0,1,.35,1.93,8.78,8.78,0,0,0-.77-1.66A6.38,6.38,0,0,0,47.31,41.18Z"/><path class="cls-37" d="M50.85,35.72c-1.3.57-2.52,1.1-3.67,1.63a3,3,0,0,0,0,1.14c.52-.09,1.07-.31,1.51-.41s1-.22,1.45-.35a5.37,5.37,0,0,0,.66-2Zm21.78-8.4c-6.93,2.15-13.15,4.85-13.15,4.85-2,.8-3.88,1.56-5.64,2.29-1,.43-2,.85-3,1.26h0a5.37,5.37,0,0,1-.66,2c.46-.13.91-.27,1.37-.42a35.83,35.83,0,0,1,7.22-1.59A50.85,50.85,0,0,0,69,33.3c1.35-.46,2.67-1,4-1.51C72.91,30.55,72.81,29.08,72.63,27.32Z"/><path class="cls-29" d="M90.67,24.55v1.87c-1.1-1.66-4-2-7.55-1.54a60.5,60.5,0,0,0-10.48,2.45c-6.94,2.15-13.16,4.85-13.16,4.85-2,.79-3.88,1.55-5.63,2.28-1.05.43-2.05.85-3,1.26-1.3.57-2.53,1.11-3.68,1.64-4.66,2.1-8.12,3.88-10.68,5.33-6,3.41-7,5-7,5s-4.19-3.45.91-7.21a93.92,93.92,0,0,1,12.07-6.93A192.71,192.71,0,0,1,69.74,22.63l1.36-.43a34.78,34.78,0,0,1,10.22-1.64C85.43,20.54,90,21.29,90.67,24.55Z"/><path class="cls-30" d="M90.67,26.42S89.13,36.9,72,43.64h0a41.08,41.08,0,0,0-.56-5.53s1.64,1.33,1.55-5.06h0c7.73-3.1,10.12-8.17,10.12-8.17C86.7,24.46,89.57,24.76,90.67,26.42Z"/><path d="M83.12,24.88S80.73,30,73,33.05h0c0-1.47-.12-3.34-.35-5.72A60.5,60.5,0,0,1,83.12,24.88Z"/><path class="cls-30" d="M69.74,22.63A191,191,0,0,0,42.46,33.57l.18-7.07.07-2.81A4.39,4.39,0,0,1,48,19.51l3,.65a4.38,4.38,0,0,0,5-2.61,4.39,4.39,0,0,1,7.16-1.44L67,19.88Z"/><path class="cls-30" d="M49.87,45.35l.06,5.34h-.07c-15.16,3.2-20.38-3-20.38-3s1-1.61,7-5a18.58,18.58,0,0,0,8.74.33,3.07,3.07,0,0,0,3.39,2.71,2.65,2.65,0,0,0,1.16-.38Z"/><path d="M47.18,37.36a3,3,0,0,0,.6,2.29A3.06,3.06,0,0,0,45.24,43a18.58,18.58,0,0,1-8.74-.33C39.06,41.24,42.52,39.46,47.18,37.36Z"/><path class="cls-28" d="M69.74,22.63A191,191,0,0,0,42.46,33.57l.18-7.07c3.44-1.37,7.52-.23,11.15-1.09A46,46,0,0,0,62.71,22c1.11-.52,2.71-1.54,4.27-2.15Z"/><path class="cls-74" d="M60.64,148.63l-.29-5.91-.48-10-1.56-32.71-.67-14a5.25,5.25,0,0,1-2.52,3.54l-.69.4a3.69,3.69,0,0,0-1.34,1.35l-6.3,11.34c-4.93,8.64-9.58,13.42-13.28,16.06,0,.16.23,1.94.5,4.7.73,7.37,1.83,21.69.59,30.64,0,0-.26,4.68-.26,6.93,0,0,4.08-3.31,13.58-2.29a57.78,57.78,0,0,0,12,.13c.53-.07.57-.07,1.15-.13Zm30.55-33.48c-.09-1.22-.14-2.38-.14-3.47a52,52,0,0,1-12.7-13.06,54.36,54.36,0,0,1-3.29-5.5A9.78,9.78,0,0,0,72.7,90L71,89.22a6.75,6.75,0,0,1-2.89-2.66c-2.21,2.19-3.6-.19-3.6-.19l.37,11.39,1,32.13.33,10.17.27,8.11.31,9.59h0a154.43,154.43,0,0,0,16.8-3.66c3-.83,6.25-1.8,9.75-3,1.52-.49,3.09-1,4.71-1.6C98.14,149.54,92.16,128.88,91.19,115.15ZM101.68,75.5C96.11,58.66,70.79,59.31,70.79,59.31l-.31,0,.12,1.14a9.12,9.12,0,0,1,.16,1.32c.65,8.61-9,9-9,9-11.84-.28-11.66-7.71-11.66-7.71l0-3.76h-.19S21.27,64,17.5,87a30.26,30.26,0,0,0-.27,6.52,106.8,106.8,0,0,0,1.83,15.2s1.3-6.49,14.32-10.51l.13,0a50,50,0,0,0,10-8.36A140.07,140.07,0,0,0,54.63,76.62a.67.67,0,0,1,0-.18l-.49-.23a1,1,0,0,1-.4-1.39,3.45,3.45,0,0,1,1.09-1.06L56.07,73a3.94,3.94,0,0,1,2-.57l2.47-1.22a3.47,3.47,0,0,1,1.2-.33,1.91,1.91,0,0,1,.53,0l5.48.33a2.09,2.09,0,0,1,1.68,1l5.64,9.89a7.52,7.52,0,0,0,1.73,2l4.31,3.53h0L82.79,89a22.38,22.38,0,0,0,3,2.08,59.65,59.65,0,0,0,5.8,2.9l.27.12A31.73,31.73,0,0,0,97.66,96s7.94,1.71,10.14,6.8C107.23,100.08,101.68,75.5,101.68,75.5Z"/><path class="cls-75" d="M82.32,122.92a63.68,63.68,0,0,1-8,4,65.32,65.32,0,0,1-8.39,3,73.19,73.19,0,0,1,16.36-7Z"/><path class="cls-75" d="M45,140.44A47.68,47.68,0,0,1,52.16,136a49.44,49.44,0,0,1,7.72-3.25A69.77,69.77,0,0,1,52.65,137,74.72,74.72,0,0,1,45,140.44Z"/><path class="cls-76" d="M57.64,86l.67,14A18.17,18.17,0,0,0,53,106.26C50,111.73,45.93,119,40.32,122A11,11,0,0,1,34,123.4c-.27-2.76-.48-4.54-.5-4.7,3.7-2.64,8.35-7.42,13.28-16.06l6.3-11.34A3.69,3.69,0,0,1,54.43,90l.69-.4A5.25,5.25,0,0,0,57.64,86Z"/><path class="cls-76" d="M91.19,115.15a27.39,27.39,0,0,1-7.45-2c-4.44-2.38-7.51-6.57-10.26-10.57a10.28,10.28,0,0,0-8.57-4.78l-.37-11.39s1.39,2.38,3.6.19A6.75,6.75,0,0,0,71,89.22L72.7,90a9.78,9.78,0,0,1,2.36,3.12,54.36,54.36,0,0,0,3.29,5.5,52,52,0,0,0,12.7,13.06C91.05,112.77,91.1,113.93,91.19,115.15Z"/><path class="cls-76" d="M60.35,142.72l.29,5.91c-4.74.5-9.31,1-13.51,3.48a63,63,0,0,0-5.26,3.57c.63-1,1.12-2,2.07-3.48,2.07-1.43,3.47-4,5.82-5.43C53,144.84,56.77,144,60.35,142.72Z"/><path class="cls-76" d="M85.83,135.79c-3.62,1.09-5.54,4.89-8.29,7.24-1.93,1.66-3.89,3.43-6.33,4.3a18.77,18.77,0,0,1-4.65.84l-.27-8.11a51.42,51.42,0,0,0,8.17-5c2-1.55,3.83-3.8,5.93-5.1,0,2.94-3.4,6.14-5.27,8.21-1.69,1.88-3.9,3.51-5.41,5.4C75.75,143.5,79.77,136.17,85.83,135.79Z"/><path class="cls-76" d="M43.5,89.84a50,50,0,0,1-10,8.36l-.13,0c-.14-2,.08-4.08,0-6.13-.07-1.57-.64-3.17-.48-4.85.54,1.43,3.23,1.91,4.52,2.27a12,12,0,0,0,4.6.66A11.72,11.72,0,0,0,43.5,89.84Z"/><path class="cls-76" d="M91.63,94a59.65,59.65,0,0,1-5.8-2.9,22.38,22.38,0,0,1-3-2.08l-1.66-1.35a10.5,10.5,0,0,0,4.27-.15c2.07-.49,3.44-1.84,5.23-2.61.72,2.2.28,5,.62,7.38A17.47,17.47,0,0,0,91.63,94Z"/><path class="cls-76" d="M37,68c2.55,5.37,7.35,9.74,13.37,10.79-5.38-1.13-7.8-7.08-9.78-11.42-.8,1.12.16,2.79,0,4.07C39,71.28,37.63,69.06,37,68Z"/><path class="cls-76" d="M74.29,75.06a12.34,12.34,0,0,1,2-.26,16.48,16.48,0,0,0,5.56-3c1.9-1.34,3-3.29,4.72-4.65-.39,3.92-2.19,6.34-5.67,8.2C79.07,76.38,75.62,77.25,74.29,75.06Z"/><path class="cls-75" d="M91.9,94.64a.54.54,0,0,1-.52-.39c-1.91-6.44-.09-16.51,0-16.94a.54.54,0,0,1,1.06.2c0,.1-1.86,10.24,0,16.44a.53.53,0,0,1-.36.67Z"/><path class="cls-75" d="M33.51,98.74h0a.54.54,0,0,1-.51-.56c0-.1.49-9.7-2.21-17.4a.54.54,0,1,1,1-.36c2.78,7.91,2.3,17.42,2.28,17.82A.54.54,0,0,1,33.51,98.74Z"/><path class="cls-70" d="M108.07,107.61s0,.07,0,.2c-.34,1.48-2.79,10.44-12,6.7a26,26,0,0,1-4.93-2.83,52,52,0,0,1-12.7-13.06,54.36,54.36,0,0,1-3.29-5.5A9.78,9.78,0,0,0,72.7,90L71,89.22a6.75,6.75,0,0,1-2.89-2.66,7,7,0,0,1-.57-1.28l-2.43-7.4-2.62-1a1.64,1.64,0,0,0-.66-.11l-4,.15-1.64.53a1.24,1.24,0,0,1-1.58-.86.67.67,0,0,1,0-.18l-.49-.23a1,1,0,0,1-.4-1.39,3.45,3.45,0,0,1,1.09-1.06L56.07,73a3.94,3.94,0,0,1,2-.57l2.47-1.22a3.47,3.47,0,0,1,1.2-.33,1.91,1.91,0,0,1,.53,0l5.48.33a2.09,2.09,0,0,1,1.68,1l5.64,9.89a7.52,7.52,0,0,0,1.73,2l6,4.89a22.38,22.38,0,0,0,3,2.08,58.88,58.88,0,0,0,6.07,3l.2.08A31.3,31.3,0,0,0,97.66,96s7.94,1.71,10.14,6.8v0A7.07,7.07,0,0,1,108.07,107.61Z"/><path class="cls-70" d="M68.14,86.56c-2.21,2.19-3.6-.19-3.6-.19a.1.1,0,0,1,0,.08,1.43,1.43,0,0,1-2.4-.7,7.94,7.94,0,0,0-.87-2.32,1.73,1.73,0,0,0-1.51-.9A1.71,1.71,0,0,0,58,83.93L57.64,86a5.25,5.25,0,0,1-2.52,3.54l-.69.4a3.69,3.69,0,0,0-1.34,1.35l-6.3,11.34c-4.93,8.64-9.58,13.42-13.28,16.06-5,3.59-8.36,3.22-8.36,3.22-7.3-2.13-6.2-12.27-6.1-13.11a.28.28,0,0,0,0-.06s1.31-6.53,14.45-10.55l.28-.17c9.31-5.55,20.84-21.41,20.84-21.41a1.24,1.24,0,0,0,1.58.86L57.85,77l4-.15a1.64,1.64,0,0,1,.66.11l2.62,1,2.43,7.4A7,7,0,0,0,68.14,86.56Z"/><path class="cls-73" d="M64.54,86.91h-.1a.55.55,0,0,1-.43-.63c.11-.55.92-5.4-3.68-7A.55.55,0,0,1,60,78.6a.55.55,0,0,1,.69-.34c5.46,1.89,4.52,7.57,4.39,8.22A.55.55,0,0,1,64.54,86.91Z"/><path class="cls-73" d="M66.12,74a.55.55,0,0,1-.3-.09l-1-.69A1.36,1.36,0,0,0,64,73H58.08a.54.54,0,1,1,0-1.08H64a2.44,2.44,0,0,1,1.42.44l1,.69a.53.53,0,0,1,.15.74A.54.54,0,0,1,66.12,74Z"/><path class="cls-73" d="M68.14,87.1a.51.51,0,0,1-.46-.27,8,8,0,0,1-.62-1.37l-2.35-7.17-2.37-.87a1.26,1.26,0,0,0-.45-.08L58,77.49l-1.57.5A1.82,1.82,0,0,1,55,77.86a1.79,1.79,0,0,1-.86-1.1,1.5,1.5,0,0,1,0-.26,1.42,1.42,0,0,1,0-.19,1.78,1.78,0,0,1,1-1.59l.92-.46a2.91,2.91,0,0,1,1.19-.3l6.2-.21a.54.54,0,0,1,0,1.08l-6.16.2a1.93,1.93,0,0,0-.75.19l-.92.47a.7.7,0,0,0-.39.62.57.57,0,0,1,0,.13.72.72,0,0,0,.35.48.73.73,0,0,0,.56,0l1.64-.53.15,0,4-.15a2,2,0,0,1,.86.14l2.62,1a.52.52,0,0,1,.32.33l2.43,7.41a7.34,7.34,0,0,0,.53,1.18.53.53,0,0,1-.2.73A.54.54,0,0,1,68.14,87.1Z"/><path class="cls-73" d="M69.44,72.73a.53.53,0,0,1-.46-.26,1.55,1.55,0,0,0-1.25-.78l-5.48-.32a1.21,1.21,0,0,0-.39,0,3,3,0,0,0-1.08.29.54.54,0,0,1-.46-1,4.09,4.09,0,0,1,1.4-.39,3.42,3.42,0,0,1,.6,0l5.48.33a2.64,2.64,0,0,1,2.11,1.3.55.55,0,0,1-.19.74A.55.55,0,0,1,69.44,72.73Z"/><path class="cls-71" d="M33.17,102.52c-1.12,1.42-3.49,1.6-5.12,2.24-2.66,1-6,3.25-9,4a.28.28,0,0,0,0-.06s1.31-6.53,14.45-10.55l.28-.17C34.06,99.6,34.09,101.35,33.17,102.52Z"/><path class="cls-71" d="M108.07,107.61s0,.07,0,.2a3.49,3.49,0,0,1-1.64-.77c-2.5-1.94-2.61-5.16-5.82-6.44-4.11-1.65-7-3.39-8.47-6.42A31.3,31.3,0,0,0,97.66,96s7.94,1.71,10.14,6.8v0A7.07,7.07,0,0,1,108.07,107.61Z"/></g></g></g></svg>