<svg viewBox="0 0 387 350" fill="none" xmlns="http://www.w3.org/2000/svg">
  <g clip-path="url(#clip0_1990:1324)">
  <path d="M31.0691 96.6987C48.228 96.6987 62.1381 82.0599 62.1381 64.0022C62.1381 45.9444 48.228 31.3057 31.0691 31.3057C13.9101 31.3057 0 45.9444 0 64.0022C0 82.0599 13.9101 96.6987 31.0691 96.6987Z" fill="#FFB201"/>
  <path d="M360.454 274.355C360.313 279.92 359.427 285.437 357.823 290.743C357.786 290.866 357.748 290.987 357.709 291.11H347.889C347.899 291 347.91 290.877 347.92 290.743C348.575 282.821 352.35 234.605 347.836 226.359C348.231 227.028 361.216 249.183 360.454 274.355Z" fill="#E6E6E6"/>
  <path d="M359.717 290.744C359.635 290.867 359.55 290.99 359.462 291.111H352.095C352.151 291.006 352.216 290.883 352.291 290.744C353.508 288.432 357.11 281.52 360.454 274.355C364.048 266.656 367.345 258.664 367.067 255.771C367.152 256.424 369.639 276.311 359.717 290.744Z" fill="#E6E6E6"/>
  <path d="M379.312 290.406H104.611V291.379H379.312V290.406Z" fill="#E6E6E6"/>
  <path d="M285.367 320.762L286.738 308.852L325.491 298.386L321.033 284.31C324.139 274.936 329.591 270.34 339.552 274.926L356.687 286.128C358.352 287.217 359.709 288.756 360.615 290.586C361.521 292.415 361.943 294.467 361.837 296.528C361.732 298.596 361.099 300.596 360.004 302.317C358.908 304.037 357.392 305.415 355.614 306.304C336.432 315.873 311.984 319.534 285.367 320.762Z" fill="#FFB8B8"/>
  <path d="M287.767 324.371L275.764 322.567L264.537 324.978C263.849 325.126 263.139 325.114 262.456 324.945C261.772 324.776 261.132 324.452 260.579 323.997C260.026 323.542 259.574 322.966 259.253 322.308C258.933 321.651 258.752 320.928 258.722 320.19C258.69 319.365 258.848 318.543 259.184 317.796C259.519 317.049 260.022 316.399 260.649 315.902L278.242 301.953C279.751 300.757 281.615 300.166 283.501 300.286C285.386 300.406 287.17 301.229 288.53 302.608L292.911 307.048C289.776 309.094 287.445 312.165 286.052 316.431C289.065 318.174 289.636 320.821 287.767 324.371Z" fill="#2F2E41"/>
  <path d="M299.231 199.329C305.362 199.329 310.332 194.099 310.332 187.647C310.332 181.195 305.362 175.965 299.231 175.965C293.1 175.965 288.13 181.195 288.13 187.647C288.13 194.099 293.1 199.329 299.231 199.329Z" fill="#FFB8B8"/>
  <path d="M316.575 210.684L291.711 221.692C293.732 211.014 294.739 201.288 291.711 195.345L307.658 193.36C306.867 197.927 310.901 204.042 316.575 210.684Z" fill="#FFB8B8"/>
  <path d="M274.392 320.401L265.133 319.679C259.46 294.786 256.556 271.256 257.824 249.782C258.003 246.648 259.329 243.708 261.523 241.579C263.718 239.451 266.61 238.3 269.594 238.368C272.461 238.437 275.2 239.627 277.278 241.708L289.252 253.699C294.592 259.006 298.737 265.501 301.385 272.71C304.776 282.057 303.558 287.297 295.462 286.407C290.404 285.814 285.751 283.211 282.454 279.129L273.706 268.43L274.392 320.401Z" fill="#FFB8B8"/>
  <path d="M267.222 349.982C266.008 349.899 264.829 349.522 263.776 348.882C262.723 348.242 261.824 347.356 261.148 346.291C260.473 345.226 260.04 344.013 259.882 342.743C259.725 341.474 259.847 340.184 260.239 338.973L262.046 333.394L263.418 319.318C265.531 314.78 268.524 315.459 271.992 318.957C274.197 318.729 274.67 316.409 274.393 313.183L281.345 323.032C281.94 323.875 282.309 324.87 282.414 325.914C282.52 326.958 282.357 328.013 281.943 328.969L274.946 345.121C274.279 346.66 273.183 347.95 271.803 348.818C270.424 349.686 268.826 350.092 267.222 349.982Z" fill="#2F2E41"/>
  <path d="M354.813 284.852C342.124 292.431 338.147 292.651 325.491 298.025L314.517 291.529C301.629 296.544 292.588 289.669 282.795 279.438C289.203 268.205 286.369 253.608 290.339 253.814L337.838 269.513L339.895 274.927L354.813 284.852Z" fill="#2F2E41"/>
  <path d="M339.552 273.122C322.78 280.761 304.723 272.673 289.31 254.896L279.104 211.52C278.984 211.043 278.957 210.544 279.027 210.055C279.096 209.566 279.26 209.097 279.509 208.678C279.757 208.258 280.084 207.896 280.47 207.615C280.857 207.333 281.294 207.138 281.754 207.041L293.597 204.549L299.427 214.293L311.087 203.466L323.47 207.726C325.116 208.293 326.586 209.319 327.721 210.696C328.856 212.073 329.614 213.749 329.915 215.544L339.552 273.122Z" fill="#2EC4B6"/>
  <path opacity="0.2" d="M312.913 309.894C312.008 309.531 311.199 308.945 310.553 308.185C309.908 307.425 309.445 306.513 309.204 305.526C308.962 304.538 308.95 303.505 309.166 302.511C309.383 301.518 309.823 300.594 310.449 299.816L318.289 290.085L323.776 293.333L320.951 305.456C320.746 306.333 320.367 307.155 319.838 307.866C319.309 308.577 318.642 309.162 317.882 309.582C317.122 310.001 316.286 310.246 315.43 310.3C314.573 310.354 313.715 310.215 312.913 309.894Z" fill="black"/>
  <path d="M312.913 308.449C312.008 308.086 311.199 307.5 310.553 306.74C309.908 305.98 309.445 305.068 309.204 304.081C308.962 303.094 308.95 302.06 309.166 301.067C309.383 300.073 309.823 299.149 310.449 298.372L318.289 288.641L323.776 291.889L320.951 304.012C320.746 304.889 320.367 305.71 319.838 306.422C319.309 307.133 318.642 307.718 317.882 308.137C317.122 308.557 316.286 308.802 315.43 308.855C314.573 308.909 313.715 308.771 312.913 308.449Z" fill="#FFB8B8"/>
  <path d="M325.149 294.777L316.918 289.002L328.921 255.437L324.463 208.158L328.53 210.833C330.713 212.269 332.595 214.156 334.064 216.381C335.533 218.605 336.557 221.12 337.074 223.774L343.668 257.603C340.783 273.196 335.974 286.916 325.149 294.777Z" fill="#2EC4B6"/>
  <path opacity="0.2" d="M320.175 241.182L324.291 262.836L320.906 275.501L320.175 241.182Z" fill="black"/>
  <path d="M288.375 186.645C288.375 186.645 281.979 164.613 301.529 169.234C304.561 169.95 307.181 171.805 309.265 174.232C309.452 174.444 309.681 174.611 309.935 174.72C310.189 174.829 310.464 174.879 310.738 174.865C313.861 174.865 315.79 186.61 309.544 191.774C309.544 191.774 310.819 184.825 308.502 182.456C308.085 182.056 307.737 181.583 307.471 181.059C305.963 177.858 300.894 176.808 297.399 177.08C295.614 177.219 295.458 180.494 293.483 180.036C288.987 178.996 287.552 184.476 288.375 186.645Z" fill="#2F2E41"/>
  <path d="M308.053 219.346L307.924 220.343L307.125 226.498L305.816 236.578L305.489 239.102C305.464 239.295 305.373 239.471 305.234 239.599C305.095 239.727 304.916 239.797 304.732 239.797H296.007C295.823 239.798 295.645 239.727 295.505 239.6C295.366 239.472 295.276 239.296 295.25 239.104L294.917 236.578L293.587 226.498L292.774 220.339L292.643 219.348C292.628 219.234 292.636 219.118 292.667 219.008C292.698 218.897 292.752 218.796 292.823 218.709C292.895 218.622 292.984 218.553 293.083 218.505C293.182 218.457 293.29 218.433 293.4 218.433H307.296C307.405 218.433 307.513 218.457 307.612 218.505C307.711 218.552 307.8 218.622 307.871 218.708C307.943 218.795 307.996 218.896 308.028 219.006C308.059 219.116 308.068 219.232 308.053 219.346Z" fill="#E6E6E6"/>
  <path d="M294.321 215.762H306.421C306.521 215.762 306.62 215.783 306.713 215.823C306.806 215.863 306.89 215.923 306.961 215.997C307.032 216.072 307.088 216.161 307.127 216.258C307.165 216.356 307.185 216.46 307.185 216.566V217.629C307.185 217.842 307.104 218.046 306.961 218.197C306.818 218.348 306.623 218.433 306.421 218.433H294.321C294.118 218.433 293.924 218.348 293.78 218.197C293.637 218.046 293.556 217.842 293.556 217.629V216.566C293.556 216.46 293.576 216.356 293.615 216.258C293.653 216.161 293.709 216.072 293.78 215.997C293.851 215.923 293.935 215.863 294.028 215.823C294.121 215.783 294.22 215.762 294.321 215.762Z" fill="#3F3D56"/>
  <path d="M309.146 219.769C303.313 220.439 297.428 220.439 291.595 219.769C291.495 219.769 291.395 219.748 291.302 219.708C291.21 219.667 291.126 219.608 291.055 219.533C290.984 219.459 290.927 219.37 290.889 219.272C290.851 219.175 290.831 219.07 290.831 218.965V217.902C290.831 217.796 290.851 217.692 290.889 217.594C290.927 217.497 290.984 217.408 291.055 217.333C291.126 217.259 291.21 217.199 291.302 217.159C291.395 217.118 291.495 217.098 291.595 217.098C297.423 217.852 303.318 217.852 309.146 217.098C309.349 217.098 309.543 217.182 309.687 217.333C309.83 217.484 309.91 217.689 309.91 217.902V218.965C309.91 219.178 309.83 219.382 309.687 219.533C309.543 219.684 309.349 219.769 309.146 219.769Z" fill="#3F3D56"/>
  <path d="M300.016 232.109C301.838 232.109 303.314 230.555 303.314 228.638C303.314 226.721 301.838 225.167 300.016 225.167C298.195 225.167 296.719 226.721 296.719 228.638C296.719 230.555 298.195 232.109 300.016 232.109Z" fill="white"/>
  <path d="M308.495 235.939C308.595 236.953 308.463 237.977 308.109 238.926C307.755 239.875 307.191 240.72 306.462 241.392C305.733 242.064 304.862 242.542 303.922 242.786C302.982 243.03 301.999 243.033 301.058 242.795L289.27 239.817L289.552 233.198L301.108 230.388C301.944 230.185 302.812 230.171 303.654 230.347C304.495 230.524 305.292 230.886 305.991 231.411C306.689 231.936 307.274 232.611 307.705 233.392C308.137 234.172 308.406 235.04 308.495 235.939Z" fill="#FFB8B8"/>
  <path d="M292.568 241.001L260.756 241.838C259.607 241.868 258.466 241.634 257.413 241.153C256.359 240.672 255.417 239.955 254.654 239.051C253.891 238.148 253.323 237.08 252.992 235.923C252.661 234.765 252.573 233.546 252.736 232.349C252.99 230.474 253.846 228.746 255.16 227.452L270.138 212.706C272.916 209.972 276.378 208.127 280.117 207.389L285.366 206.354L288.453 230.895L270.619 228.73L291.539 231.256L292.568 241.001Z" fill="#2EC4B6"/>
  <path d="M250.658 313.017H169.443C168.721 313.017 168.028 312.715 167.517 312.177C167.007 311.64 166.72 310.911 166.72 310.151C196.16 306.55 225.048 306.55 253.382 310.151C253.382 310.911 253.095 311.64 252.584 312.177C252.073 312.715 251.381 313.017 250.658 313.017Z" fill="#2F2E41"/>
  <path d="M253.382 310.319L166.72 310.15L176.764 292.365L176.812 292.281V253.085C176.812 252.609 176.901 252.138 177.074 251.698C177.247 251.259 177.5 250.859 177.82 250.523C178.139 250.187 178.519 249.92 178.937 249.738C179.354 249.556 179.802 249.462 180.254 249.462H239.367C239.819 249.462 240.266 249.556 240.684 249.738C241.102 249.92 241.481 250.187 241.801 250.523C242.121 250.859 242.374 251.259 242.547 251.698C242.72 252.138 242.809 252.609 242.809 253.085V292.551L253.382 310.319Z" fill="#3F3D56"/>
  <path d="M180.175 251.99C179.878 251.991 179.593 252.115 179.383 252.336C179.173 252.557 179.054 252.857 179.054 253.17V288.909C179.054 289.222 179.173 289.522 179.383 289.743C179.593 289.964 179.878 290.089 180.175 290.089H239.926C240.223 290.089 240.508 289.964 240.718 289.743C240.928 289.522 241.047 289.222 241.047 288.909V253.17C241.047 252.857 240.928 252.558 240.718 252.336C240.508 252.115 240.223 251.991 239.926 251.99L180.175 251.99Z" fill="white"/>
  <path d="M180.568 294.81C180.476 294.81 180.386 294.838 180.309 294.89C180.232 294.942 180.17 295.016 180.131 295.104L177.037 302.184C177.003 302.261 176.988 302.346 176.994 302.431C176.999 302.515 177.025 302.597 177.069 302.668C177.112 302.74 177.172 302.799 177.243 302.839C177.313 302.88 177.393 302.901 177.473 302.901H242.555C242.637 302.901 242.718 302.879 242.789 302.837C242.861 302.795 242.921 302.735 242.964 302.662C243.007 302.588 243.032 302.505 243.035 302.418C243.039 302.332 243.022 302.247 242.985 302.169L239.621 295.089C239.581 295.005 239.52 294.934 239.444 294.885C239.368 294.835 239.281 294.809 239.191 294.81L180.568 294.81Z" fill="#2F2E41"/>
  <path d="M209.81 251.4C210.208 251.4 210.531 251.061 210.531 250.642C210.531 250.223 210.208 249.883 209.81 249.883C209.412 249.883 209.089 250.223 209.089 250.642C209.089 251.061 209.412 251.4 209.81 251.4Z" fill="white"/>
  <path d="M203.413 304.25C203.307 304.25 203.204 304.287 203.12 304.354C203.037 304.422 202.976 304.517 202.949 304.624L202.172 307.659C202.153 307.734 202.151 307.813 202.165 307.889C202.179 307.965 202.21 308.037 202.255 308.099C202.3 308.16 202.357 308.21 202.424 308.245C202.49 308.279 202.563 308.297 202.636 308.297H217.4C217.477 308.297 217.552 308.278 217.62 308.241C217.688 308.204 217.747 308.15 217.791 308.084C217.836 308.019 217.865 307.943 217.875 307.863C217.886 307.783 217.879 307.702 217.854 307.625L216.856 304.59C216.823 304.491 216.762 304.405 216.68 304.344C216.599 304.283 216.502 304.25 216.402 304.25H203.413Z" fill="#2F2E41"/>
  <path d="M242.809 291.69V292.365H176.764L176.813 292.281V291.69H242.809Z" fill="#2F2E41"/>
  <path d="M148.781 269.201C148.962 276.334 150.098 283.405 152.154 290.205C152.201 290.363 152.25 290.519 152.299 290.677H164.886C164.873 290.535 164.859 290.377 164.846 290.205C164.006 280.052 159.168 218.253 164.953 207.685C164.447 208.542 147.805 236.938 148.781 269.201Z" fill="#E6E6E6"/>
  <path d="M149.725 290.206C149.83 290.364 149.94 290.521 150.052 290.677H159.494C159.423 290.543 159.34 290.385 159.244 290.206C157.684 287.243 153.067 278.385 148.781 269.201C144.175 259.332 139.949 249.089 140.305 245.382C140.195 246.218 137.008 271.707 149.725 290.206Z" fill="#E6E6E6"/>
  <path d="M171.021 75.9907L176.139 71.6834C172.163 71.2218 170.53 73.5035 169.861 75.3095C166.756 73.9523 163.375 75.731 163.375 75.731L173.614 79.6428C173.097 78.1909 172.198 76.924 171.021 75.9907Z" fill="#3F3D56"/>
  <path d="M325.154 53.8198L330.271 49.5125C326.296 49.0509 324.662 51.3326 323.994 53.1386C320.888 51.7814 317.507 53.5601 317.507 53.5601L327.746 57.4719C327.229 56.02 326.33 54.7531 325.154 53.8198Z" fill="#3F3D56"/>
  <path d="M295.687 110.98L300.804 106.673C296.829 106.211 295.195 108.493 294.527 110.299C291.421 108.942 288.04 110.72 288.04 110.72L298.279 114.632C297.762 113.18 296.863 111.913 295.687 110.98Z" fill="#3F3D56"/>
  <path d="M94.8044 195.67C119.918 190.905 132.787 143.327 123.548 89.4005C114.31 35.4744 86.4614 -4.37843 61.3477 0.38667C36.2341 5.15177 23.365 52.7304 32.6038 106.656C41.8426 160.582 69.6907 200.435 94.8044 195.67Z" fill="#E6E6E6"/>
  <path d="M70.5096 79.4579C74.5738 91.0881 78.1904 102.877 81.3594 114.824C84.5225 126.759 87.2281 138.816 89.4764 150.992C91.7245 163.165 93.5069 175.419 94.8235 187.755C96.1336 200.07 96.9754 212.426 97.3487 224.824C97.7199 237.209 97.6174 249.596 97.0413 261.986C96.9704 263.504 96.8923 265.021 96.807 266.538C96.7202 268.092 99.0174 268.087 99.1039 266.538C99.7981 254.11 100.016 241.665 99.7573 229.206C99.4972 216.818 98.7663 204.454 97.5644 192.114C96.3596 179.738 94.6905 167.425 92.5572 155.174C90.4226 142.929 87.8237 130.787 84.7606 118.748C81.6993 106.722 78.1795 94.8403 74.201 83.1015C73.7156 81.6702 73.2234 80.2415 72.7245 78.8153C72.2185 77.3675 69.9978 77.9933 70.5096 79.4579V79.4579Z" fill="#3F3D56"/>
  <path d="M86.3356 125.208L96.5118 101.43L99.3799 94.7276C99.5247 94.4487 99.5626 94.1221 99.486 93.8147C99.4094 93.5073 99.2241 93.2423 98.9679 93.074C98.7044 92.9146 98.3919 92.8708 98.0979 92.9519C97.8039 93.0331 97.552 93.2326 97.3966 93.5076L87.2205 117.286L84.3523 123.988C84.2076 124.267 84.1696 124.594 84.2462 124.901C84.3228 125.208 84.5081 125.473 84.7643 125.642C85.0278 125.801 85.3404 125.845 85.6344 125.764C85.9284 125.683 86.1802 125.483 86.3356 125.208H86.3356Z" fill="#3F3D56"/>
  <path d="M88.5849 141.456L65.3815 132.3L58.8415 129.72C58.5479 129.637 58.2352 129.68 57.9709 129.838C57.7066 129.996 57.5119 130.256 57.4288 130.564C57.3544 130.873 57.3964 131.2 57.5458 131.477C57.6953 131.754 57.9408 131.96 58.2309 132.051L81.4343 141.206L87.9743 143.787C88.2679 143.869 88.5806 143.827 88.8449 143.669C89.1092 143.511 89.3039 143.25 89.387 142.943C89.4614 142.634 89.4194 142.307 89.2699 142.03C89.1205 141.752 88.875 141.547 88.5849 141.456V141.456Z" fill="#3F3D56"/>
  <path d="M70.5149 271.151C70.5149 271.151 98.4606 261.48 124.492 271.151H70.5149Z" fill="#E6E6E6"/>
  <path d="M195.561 266.57C201.098 266.509 206.635 266.405 212.173 266.326C214.019 266.299 215.865 266.276 217.711 266.256C219.301 266.239 219.306 263.635 217.711 263.652C212.173 263.713 206.636 263.817 201.099 263.897C199.253 263.923 197.407 263.946 195.561 263.966C193.97 263.983 193.966 266.587 195.561 266.57Z" fill="#2EC4B6"/>
  <path d="M195.56 272.644L217.941 272.4L224.307 272.33C225.897 272.313 225.901 269.709 224.307 269.727L201.926 269.971L195.56 270.04C193.97 270.058 193.966 272.661 195.56 272.644Z" fill="#2EC4B6"/>
  <path d="M195.56 278.717L217.941 278.473L224.307 278.404C225.897 278.386 225.901 275.782 224.307 275.8L201.926 276.044L195.56 276.113C193.97 276.131 193.966 278.735 195.56 278.717Z" fill="#2EC4B6"/>
  </g>
  <defs>
  <clipPath id="clip0_1990:1324">
  <rect width="387" height="350" fill="white"/>
  </clipPath>
  </defs>
</svg>
