<svg width="30" height="30" viewBox="0 0 30 30" fill="none" xmlns="http://www.w3.org/2000/svg">
  <path d="M11.4652 10.8332C12.3052 9.8165 13.5769 9.1665 15.0002 9.1665C16.4235 9.1665 17.6952 9.8165 18.5352 10.8332C19.0882 11.5037 19.4392 12.3176 19.5472 13.1801C19.6552 14.0425 19.5157 14.9179 19.145 15.704C18.7744 16.4902 18.1878 17.1548 17.4538 17.6202C16.7198 18.0857 15.8685 18.3328 14.9994 18.3328C14.1302 18.3328 13.2789 18.0857 12.5449 17.6202C11.8109 17.1548 11.2243 16.4902 10.8537 15.704C10.483 14.9179 10.3435 14.0425 10.4515 13.1801C10.5595 12.3176 10.9105 11.5037 11.4635 10.8332H11.4652Z" fill="#32343A"/>
  <path d="M21.25 13.7502C21.25 12.6968 20.99 11.7035 20.53 10.8335H27.5C28.163 10.8335 28.7989 11.0969 29.2678 11.5657C29.7366 12.0346 30 12.6705 30 13.3335V14.1668C30 16.8118 27.99 19.5202 24.475 20.4735C24.1138 19.8246 23.5857 19.2841 22.9454 18.9078C22.3052 18.5316 21.576 18.3333 20.8333 18.3335H19.25C19.8817 17.749 20.3856 17.04 20.7298 16.2512C21.074 15.4624 21.2511 14.6108 21.25 13.7502Z" fill="#32343A"/>
  <path d="M20.8332 20C21.1617 19.9991 21.4872 20.0632 21.7909 20.1885C22.0946 20.3138 22.3706 20.498 22.6029 20.7303C22.8352 20.9626 23.0193 21.2385 23.1447 21.5423C23.27 21.846 23.3341 22.1715 23.3332 22.5V23.3333C23.3332 26.6183 20.2332 30 14.9998 30C9.76651 30 6.66651 26.6183 6.66651 23.3333V22.5C6.66563 22.1715 6.7297 21.846 6.85502 21.5423C6.98035 21.2385 7.16446 20.9626 7.39678 20.7303C7.62911 20.498 7.90505 20.3138 8.20876 20.1885C8.51248 20.0632 8.83796 19.9991 9.16651 20H20.8332Z" fill="#32343A"/>
  <path d="M0 14.1668C0 16.8118 2.01 19.5202 5.525 20.4735C5.88622 19.8246 6.41429 19.2841 7.05456 18.9078C7.69483 18.5316 8.42403 18.3333 9.16667 18.3335H10.75C10.1183 17.749 9.61444 17.04 9.27023 16.2512C8.92602 15.4624 8.74889 14.6108 8.75 13.7502C8.75 12.6968 9.01 11.7035 9.47167 10.8335H2.5C1.83696 10.8335 1.20107 11.0969 0.732233 11.5657C0.263392 12.0346 0 12.6705 0 13.3335V14.1668Z" fill="#32343A"/>
  <path d="M12.9168 4.58333C12.9168 3.36775 12.4339 2.20197 11.5744 1.34243C10.7148 0.482885 9.54903 0 8.33346 0C7.11788 0 5.95209 0.482885 5.09255 1.34243C4.23301 2.20197 3.75012 3.36775 3.75012 4.58333C3.75012 5.7989 4.23301 6.96469 5.09255 7.82423C5.95209 8.68377 7.11788 9.16666 8.33346 9.16666C9.54903 9.16666 10.7148 8.68377 11.5744 7.82423C12.4339 6.96469 12.9168 5.7989 12.9168 4.58333Z" fill="#32343A"/>
  <path d="M26.2499 4.58333C26.2499 3.36775 25.767 2.20197 24.9075 1.34243C24.0479 0.482885 22.8822 0 21.6666 0C20.451 0 19.2852 0.482885 18.4257 1.34243C17.5661 2.20197 17.0833 3.36775 17.0833 4.58333C17.0833 5.7989 17.5661 6.96469 18.4257 7.82423C19.2852 8.68377 20.451 9.16666 21.6666 9.16666C22.8822 9.16666 24.0479 8.68377 24.9075 7.82423C25.767 6.96469 26.2499 5.7989 26.2499 4.58333Z" fill="#32343A"/>
</svg>
