<svg width="30" height="30" viewBox="0 0 30 30" fill="none" xmlns="http://www.w3.org/2000/svg">
<path d="M30.0001 15.3338C30.0001 14.1004 29.898 13.2004 29.677 12.2671H15.3062V17.8337H23.7415C23.5715 19.2171 22.6531 21.3005 20.6123 22.7004L20.5836 22.8868L25.1274 26.3364L25.4422 26.3672C28.3333 23.7505 30.0001 19.9004 30.0001 15.3338Z" fill="#4285F4"/>
<path d="M15.3063 30.0002C19.4389 30.0002 22.9082 28.6668 25.4423 26.3669L20.6124 22.7001C19.3199 23.5834 17.5851 24.2001 15.3063 24.2001C11.2586 24.2001 7.82328 21.5835 6.59867 17.9668L6.41917 17.9817L1.69448 21.5651L1.63269 21.7334C4.14968 26.6334 9.31978 30.0002 15.3063 30.0002Z" fill="#34A853"/>
<path d="M6.5986 17.967C6.27548 17.0336 6.08847 16.0335 6.08847 15.0003C6.08847 13.9668 6.27548 12.9669 6.5816 12.0336L6.57304 11.8348L1.78914 8.19385L1.63262 8.26681C0.595247 10.3002 0 12.5836 0 15.0003C0 17.4169 0.595247 19.7002 1.63262 21.7336L6.5986 17.967Z" fill="#FBBC05"/>
<path d="M15.3063 5.8C18.1804 5.8 20.1191 7.01667 21.2246 8.03341L25.5443 3.90003C22.8913 1.48335 19.4389 0 15.3063 0C9.31978 0 4.14968 3.36666 1.63269 8.26666L6.58167 12.0334C7.82328 8.41672 11.2586 5.8 15.3063 5.8Z" fill="#EB4335"/>
</svg>
