<svg width="30" height="30" viewBox="0 0 30 30" fill="none" xmlns="http://www.w3.org/2000/svg">
<path d="M15.921 0.31603C15.6577 0.111205 15.3336 0 15 0C14.6664 0 14.3423 0.111205 14.079 0.31603L1.737 9.9157C1.19574 10.3367 0.757866 10.8759 0.456822 11.492C0.155777 12.1081 -0.000474676 12.7849 1.0832e-06 13.4706V27.0001C1.0832e-06 27.7957 0.316071 28.5588 0.878681 29.1213C1.44129 29.6839 2.20435 30 3 30H9C9.79565 30 10.5587 29.6839 11.1213 29.1213C11.6839 28.5588 12 27.7957 12 27.0001V18.0004H18V27.0001C18 27.7957 18.3161 28.5588 18.8787 29.1213C19.4413 29.6839 20.2044 30 21 30H27C27.7956 30 28.5587 29.6839 29.1213 29.1213C29.6839 28.5588 30 27.7957 30 27.0001V13.4706C30.0001 12.7846 29.8434 12.1077 29.5418 11.4916C29.2403 10.8754 28.8018 10.3364 28.26 9.9157L15.921 0.31603Z" fill="#32343A"/>
</svg>
