<svg className='system__location-logo' width="25" height="25" viewBox="0 0 25 25" fill="none" xmlns="http://www.w3.org/2000/svg">
  <path d="M10.5768 0.366466C11.8147 -0.122155 13.1853 -0.122155 14.4232 0.366466L23.2839 3.86277C24.3179 4.27141 25 5.29208 25 6.42819V18.57C25.0001 19.1254 24.8361 19.6679 24.5298 20.1259C24.2234 20.5838 23.7891 20.9358 23.2839 21.1354L14.4232 24.6335C13.1853 25.1222 11.8147 25.1222 10.5768 24.6335L1.71786 21.1354C1.21237 20.9361 0.777624 20.5842 0.470948 20.1263C0.164272 19.6683 7.1683e-05 19.1257 0 18.57V6.42819C7.1683e-05 5.87251 0.164272 5.32989 0.470948 4.87191C0.777624 4.41392 1.21237 4.06208 1.71786 3.86277L10.5768 0.366466V0.366466ZM13.7821 2.07614C12.9569 1.75039 12.0431 1.75039 11.2179 2.07614L8.74643 3.05283L18.7286 6.93028L22.2071 5.40202L13.7821 2.07614V2.07614ZM23.2143 6.95044L13.3929 11.2713V23.0503C13.525 23.0155 13.6536 22.9733 13.7821 22.922L22.6429 19.4257C22.8112 19.3591 22.956 19.2416 23.058 19.0888C23.16 18.9361 23.2145 18.7552 23.2143 18.57V6.95227V6.95044ZM11.6071 23.0503V11.2713L1.78571 6.95227V18.57C1.78553 18.7552 1.84003 18.9361 1.94204 19.0888C2.04405 19.2416 2.18878 19.3591 2.35714 19.4257L11.2179 22.922C11.3464 22.9733 11.475 23.0155 11.6071 23.0503ZM2.79286 5.40202L12.5 9.67162L16.3643 7.97111L6.24464 4.03869L2.79286 5.40202Z" fill="#B8B5B5"/>
</svg>