<svg xmlns="http://www.w3.org/2000/svg" viewBox="0 0 62.23 67.73"><defs><style>.cls-1{fill:#dd7c3e;}.cls-2{fill:#87be00;}.cls-3{fill:#add250;}</style></defs><title>Recurso 2</title><g id="Capa_2" data-name="Capa 2"><g id="Layer_1" data-name="Layer 1"><path class="cls-1" d="M9.46,60.79a79.73,79.73,0,0,1,9.24-8.47,19.56,19.56,0,0,1,9.64-4.26,20.3,20.3,0,0,1,11.2,2.48C44.63,53.13,48.93,57,53.17,60.8a40.84,40.84,0,0,1-20.62,6.88C20,68.44,9.46,60.79,9.46,60.79Z"/><path class="cls-2" d="M56.9,15.05a11,11,0,0,1-4.29,5.6c-3.38,2.09-7.7,1.54-11.66,1s-8.38-.77-11.49,1.72c.76-5,1.65-10.37,5-14.25s8.26-5.52,13.15-6.42S57.51,1.57,62.23,0c-2,1.81-3,4.5-3.55,7.14S57.84,12.52,56.9,15.05Z"/><path class="cls-3" d="M41.39,16.26a60.83,60.83,0,0,0-10.65,5.91C36.33,14.55,48.17,14,54.07,6.61a11.66,11.66,0,0,1-5.21,6.17A57,57,0,0,1,41.39,16.26Z"/><path class="cls-3" d="M39.87,10.58l-6.62,9.31C36.5,17.79,38.48,14.2,39.87,10.58Z"/><path class="cls-3" d="M46.14,7.4a25.37,25.37,0,0,1-5,7.84c.83-.61,1,.07,1.78-.64A10.77,10.77,0,0,0,46.14,7.4Z"/><path class="cls-3" d="M42.92,14.6a.54.54,0,0,0-.41.2c-.15.29.28.52.6.56a20.14,20.14,0,0,0,5.14.2,6.69,6.69,0,0,0,4.45-2.32Z"/><path class="cls-3" d="M49.55,17.93a45.42,45.42,0,0,1-12.48-.59c0,.84.87,1.38,1.68,1.61C42.27,20,46,19,49.55,17.93Z"/><path class="cls-2" d="M28.5,9.92C26,5.22,21,2.2,15.82,1.09S5.2.59,0,1.69A9.07,9.07,0,0,1,5.26,7.16,42.66,42.66,0,0,1,7.1,14.77a15.2,15.2,0,0,0,3.06,7.12c2.45,2.78,6.43,3.79,10.12,3.51s7.19-1.69,10.62-3.07C30.71,18.08,30.48,13.68,28.5,9.92Z"/><path class="cls-3" d="M18.12,12.76C15.85,9.93,14,6.38,10.55,5.2c3.27,2.93,5.29,7,8,10.44S25.06,22.25,29.44,22C25.35,19.32,21.19,16.57,18.12,12.76Z"/><path class="cls-3" d="M21.89,8.59a27,27,0,0,0-.19,5.75,9,9,0,0,0,2.19,5.23,27.13,27.13,0,0,0-.59-3.91Z"/><path class="cls-3" d="M16.75,13.24c.23.5,1.08.23,1.25-.3S17,5.64,16,5C16.26,7.77,16.5,10.51,16.75,13.24Z"/><path class="cls-3" d="M17.4,14.21a.92.92,0,0,0,.75-.36.67.67,0,0,0-.29-.84,1.34,1.34,0,0,0-.93-.22c-2.68.45-4-.1-6.64-.49A9.79,9.79,0,0,0,17.4,14.21Z"/><path class="cls-3" d="M12.9,17.36a13.44,13.44,0,0,0,10,1.36c-.1-.32-.2-.64-.31-1Z"/><path class="cls-2" d="M33.2,51.05c1.78-.61,2.11-2.93,2.15-4.81a91.93,91.93,0,0,0-.44-13.89,31,31,0,0,0-4.47-13A5.08,5.08,0,0,0,29,23.2a20.47,20.47,0,0,0,.77,4.22,39.91,39.91,0,0,1-1,21.72C30,50.32,31.6,51.59,33.2,51.05Z"/></g></g></svg>