<svg width="101" height="101" viewBox="0 0 101 101" fill="none" xmlns="http://www.w3.org/2000/svg">
  <mask id="mask0_2231:1287" style="mask-type:alpha" maskUnits="userSpaceOnUse" x="0" y="0" width="101" height="101">
  <path d="M100.335 50.3356C100.335 22.7211 77.9493 0.33517 50.3349 0.33517C22.7204 0.33517 0.334473 22.7211 0.334473 50.3356C0.334473 77.95 22.7204 100.336 50.3349 100.336C77.9493 100.336 100.335 77.95 100.335 50.3356Z" fill="white"/>
  </mask>
  <g mask="url(#mask0_2231:1287)">
  <path d="M100.335 50.3356C100.335 22.7211 77.9493 0.33517 50.3349 0.33517C22.7204 0.33517 0.334473 22.7211 0.334473 50.3356C0.334473 77.95 22.7204 100.336 50.3349 100.336C77.9493 100.336 100.335 77.95 100.335 50.3356Z" fill="white"/>
  <path d="M10.0591 39.0049C10.0591 43.4049 13.6591 47.0049 18.0591 47.0049C22.4591 47.0049 26.0591 43.4049 26.0591 39.0049C26.0591 34.6049 22.4591 31.0049 18.0591 31.0049C13.6591 31.0049 10.0591 34.6049 10.0591 39.0049Z" fill="#FFF200"/>
  <path d="M18.0591 27.2049V27.1049V27.2049V26.9049L23.5591 -7.49512H18.0591H12.5591L18.0591 26.9049V27.2049Z" fill="#FFF200"/>
  <path d="M22.5591 28.1049V28.0049V28.2049L22.6591 27.8049L40.8591 -1.79512L35.7591 -3.89512V-3.99512L30.6591 -5.99512L22.6591 27.8049L22.5591 28.1049Z" fill="#FFF200"/>
  <path d="M26.3589 30.6047L26.5589 30.5047L26.3589 30.7047L26.7589 30.3047L65.8589 1.60469L60.4589 -3.79531L54.9589 -9.19531L26.6589 30.3047L26.3589 30.6047Z" fill="#FFF200"/>
  <path d="M28.8589 34.4045L29.1589 34.3045L28.9589 34.5045L29.5589 34.2045L91.8589 18.7045L87.9589 9.20449L87.8589 9.10449L83.9589 -0.395508L29.4589 34.1045L28.8589 34.4045Z" fill="#FFF200"/>
  <path d="M30.6589 39.5043L31.0589 39.6043H30.6589H31.459L105.959 51.1043L105.859 39.1043V38.9043L105.759 26.9043L31.4589 39.5043H30.6589Z" fill="#FFF200"/>
  <path d="M28.959 43.4043L29.359 43.6043L28.959 43.5043L29.659 43.8043L97.159 84.0043L101.759 72.6043V72.5043L106.459 61.1043L29.759 43.7043L28.959 43.4043Z" fill="#FFF200"/>
  <path d="M26.4589 47.2051L26.5589 47.4051L26.3589 47.3051L26.6589 47.5051L47.3589 75.4051L51.1589 71.5051H51.2589L55.0589 67.6051L26.6589 47.5051L26.4589 47.2051Z" fill="#FFF200"/>
  <path d="M22.6589 49.8047L22.7589 50.0047L22.6589 49.8047L22.7589 50.2047L31.2589 83.9047L36.2589 81.7047H36.3589L41.3589 79.5047L22.8589 50.1047L22.6589 49.8047Z" fill="#FFF200"/>
  <path d="M18.1589 50.8047V50.9047V50.8047V51.1047L13.1589 85.5047H18.6589H18.7589L24.1589 85.4047L18.2589 51.1047L18.1589 50.8047Z" fill="#FFF200"/>
  <path d="M13.7589 49.9043L13.6589 50.1043V49.9043L13.5589 50.3043L-4.14111 80.2043L0.958887 82.2043L6.05889 84.2043L13.5589 50.3043L13.7589 49.9043Z" fill="#FFF200"/>
  <path d="M9.85889 47.5043L9.75889 47.6043L9.85889 47.4043L9.55889 47.7043L-18.1411 68.6043L-14.2411 72.4043V72.5043L-10.2411 76.3043L9.65889 47.7043L9.85889 47.5043Z" fill="#FFF200"/>
  <path d="M7.25903 43.7051L7.05903 43.8051L7.25903 43.7051L6.85904 43.8051L-26.741 52.6051L-24.541 57.6051L-22.341 62.7051L6.95903 43.9051L7.25903 43.7051Z" fill="#FFF200"/>
  <path d="M6.25898 39.3049L6.05898 39.2049H6.25898H5.85899L-28.541 34.5049L-28.441 40.0049L-28.341 45.5049L5.85899 39.3049H6.25898Z" fill="#FFF200"/>
  <path d="M7.05903 34.8045L6.85904 34.7045H7.05903L6.75903 34.6045L-23.341 17.1045L-25.241 22.2045L-25.341 22.3045L-27.241 27.4045L6.75903 34.6045L7.05903 34.8045Z" fill="#FFF200"/>
  <path d="M9.45908 30.9049L9.35908 30.8049L9.55908 30.9049L9.25908 30.6049L-11.8409 3.00488L-15.6409 7.00488L-19.4409 11.0049L9.25908 30.7049L9.45908 30.9049Z" fill="#FFF200"/>
  <path d="M13.2591 28.3047L13.1591 28.1047L13.2591 28.2047L13.1591 27.9047L4.15908 -5.69531L-0.840918 -3.39531H-0.940918L-5.94092 -1.19531L13.0591 27.9047L13.2591 28.3047Z" fill="#FFF200"/>
  <path d="M4.05908 69.1045C6.55908 75.4045 10.3591 81.0045 15.0591 85.7045L19.4591 82.8045C16.2591 75.7045 4.05908 69.1045 4.05908 69.1045Z" fill="#AACE72"/>
  <path d="M1.75903 62.104C1.75903 62.104 23.659 57.704 48.259 67.404C48.259 67.404 44.159 70.004 40.659 73.804C40.659 73.804 34.159 64.404 1.75903 62.104Z" fill="#AACE72"/>
  <path d="M2.85913 66.0039C2.85913 66.0039 23.7591 65.9039 33.2591 76.7039C33.2591 76.7039 25.2591 82.6039 22.6591 82.7039C22.6591 82.7039 18.1591 73.0039 2.85913 66.0039Z" fill="#AACE72"/>
  <path d="M45.0591 38.1045H44.6591H44.1591L43.3591 71.6045H44.6591H45.8591L45.0591 38.1045Z" fill="#6E7F84"/>
  <path d="M51.6591 48.4041C51.1591 48.1041 45.2591 41.4041 43.5591 39.4041C43.2591 39.2041 43.0591 39.0041 42.9591 38.6041L32.0591 34.7041C32.0591 34.7041 31.9591 34.6041 32.0591 34.4041C32.1591 34.3041 32.2591 34.2041 32.4591 34.2041C32.8591 34.1041 40.7591 36.1041 44.1591 37.0041C44.2591 37.0041 44.3591 37.0041 44.3591 37.0041L51.3591 27.7041C51.3591 27.7041 51.4591 27.7041 51.5591 27.8041C51.6591 27.9041 51.7591 28.0041 51.7591 28.3041C51.7591 28.7041 47.4591 35.7041 45.5591 38.7041C45.5591 38.8041 45.5591 38.9041 45.4591 38.9041L52.2591 48.3041C52.2591 48.3041 52.2591 48.4041 52.0591 48.5041C52.0591 48.5041 51.8591 48.5041 51.6591 48.4041Z" fill="white"/>
  <path d="M52.2591 48.2045L45.4591 38.8045C45.4591 38.7045 45.5591 38.6045 45.5591 38.5045C46.8591 36.4045 51.6591 28.6045 51.7591 28.1045C51.7591 27.6045 51.4591 27.6045 51.4591 27.6045L44.4591 36.9045C44.3591 36.9045 44.2591 36.9045 44.1591 36.9045C41.7591 36.3045 32.8591 34.0045 32.4591 34.1045C31.9591 34.2045 32.1591 34.5045 32.1591 34.5045L43.0591 38.4045C43.1591 38.7045 43.3591 39.0045 43.6591 39.2045C45.1591 40.9045 51.4591 48.1045 51.8591 48.2045C52.1591 48.6045 52.2591 48.2045 52.2591 48.2045Z" fill="#6E7F84"/>
  <path d="M72.659 18.9048C71.559 19.4048 70.659 20.0048 69.359 20.4048C68.159 20.8048 67.059 21.0048 65.859 21.2048C63.259 21.4048 60.959 21.0048 58.559 20.2048C58.459 20.2048 58.059 20.0048 57.459 19.8048C56.859 19.6048 56.159 19.3048 55.359 18.9048C54.959 18.7048 54.459 18.5048 54.059 18.3048C53.559 18.1048 53.159 17.9048 52.659 17.7048C52.159 17.5048 51.659 17.3048 51.159 17.1048C50.859 17.0048 50.659 16.9048 50.359 16.9048L49.959 16.8048C49.859 16.8048 49.659 16.7048 49.559 16.7048C49.059 16.6048 48.559 16.5048 48.059 16.4048C47.559 16.4048 47.059 16.3048 46.559 16.4048C45.559 16.5048 44.759 16.7048 44.059 17.0048C43.359 17.3048 42.859 17.7048 42.459 17.9048C42.059 18.2048 41.959 18.4048 41.959 18.4048C41.959 18.4048 42.459 18.1048 43.059 17.8048C43.659 17.5048 44.159 17.2048 44.259 17.2048C44.859 17.0048 45.859 16.8048 47.059 16.8048C47.659 16.8048 48.359 16.9048 49.059 17.1048C49.259 17.1048 49.459 17.2048 49.559 17.2048C49.759 17.3048 49.959 17.3048 50.159 17.4048C50.359 17.5048 50.559 17.5048 50.759 17.6048L51.359 17.8048C52.859 18.4048 54.359 19.1048 55.659 19.6048C55.959 19.7048 56.259 19.9048 56.559 20.0048C56.859 20.1048 57.159 20.2048 57.359 20.3048C57.559 20.4048 57.859 20.5048 58.059 20.5048C58.259 20.6048 58.459 20.6048 58.559 20.6048C59.459 20.9048 60.359 21.1048 61.359 21.2048C62.259 21.3048 63.259 21.4048 64.159 21.4048C65.059 21.4048 66.059 21.3048 66.959 21.1048C67.859 20.9048 68.759 20.7048 69.659 20.3048C70.659 20.1048 71.559 19.5048 72.659 18.9048C72.759 19.0048 72.759 19.0048 72.659 18.9048C72.659 18.9048 72.759 18.9048 72.659 18.9048Z" fill="#20B8F1"/>
  <path d="M86.0589 30.5048C85.1589 30.9048 84.3589 31.4048 83.3589 31.7048C82.3589 32.0048 81.5589 32.2048 80.5589 32.3048C79.5589 32.4048 78.6589 32.3048 77.7589 32.2048C76.8589 32.1048 75.9589 31.8048 74.8589 31.5048C74.7589 31.5048 74.4589 31.4048 73.9589 31.2048C73.4589 31.0048 72.8589 30.8048 72.0589 30.4048C71.6589 30.2048 71.2589 30.1048 70.8589 29.9048C70.4589 29.7048 69.9589 29.5048 69.4589 29.3048C68.9589 29.1048 68.4589 28.9048 67.9589 28.7048C67.6589 28.6048 67.4589 28.5048 67.1589 28.4048L66.7589 28.3048C66.6589 28.3048 66.4589 28.2048 66.3589 28.2048C65.7589 28.1048 65.1589 28.0048 64.5589 27.9048C63.9589 27.9048 63.3589 27.8048 62.7589 27.9048C61.5589 28.0048 60.5589 28.3048 59.6589 28.7048C58.8589 29.1048 58.1589 29.5048 57.7589 29.8048C57.3589 30.1048 57.1589 30.3048 57.1589 30.4048C57.1589 30.4048 57.7589 30.0048 58.3589 29.7048C58.6589 29.5048 59.0589 29.3048 59.2589 29.2048C59.5589 29.1048 59.7589 29.0048 59.7589 29.0048C60.0589 28.9048 60.5589 28.7048 61.1589 28.6048C61.7589 28.5048 62.4589 28.4048 63.2589 28.4048C64.0589 28.4048 64.8589 28.5048 65.6589 28.7048C65.8589 28.8048 66.0589 28.8048 66.2589 28.9048C66.4589 29.0048 66.6589 29.0048 66.8589 29.1048C67.0589 29.2048 67.2589 29.2048 67.4589 29.3048L68.0589 29.5048C69.5589 30.1048 70.9589 30.7048 72.1589 31.2048C72.4589 31.3048 72.7589 31.4048 72.9589 31.5048C73.2589 31.6048 73.4589 31.7048 73.6589 31.8048C73.8589 31.9048 74.0589 31.9048 74.2589 32.0048C74.4589 32.0048 74.5589 32.1048 74.6589 32.1048C75.4589 32.3048 76.1589 32.5048 76.8589 32.6048C77.5589 32.7048 78.2589 32.7048 79.0589 32.7048C79.7589 32.7048 80.4589 32.6048 81.1589 32.5048C81.8589 32.4048 82.5589 32.2048 83.2589 31.9048C84.3589 31.4048 85.1589 30.9048 86.0589 30.5048C86.0589 30.4048 86.0589 30.5048 86.0589 30.5048Z" fill="#20B8F1"/>
  <path d="M89.659 25.2049C87.959 25.9049 86.559 26.9049 84.759 27.5049C83.059 28.1049 81.559 28.4049 79.859 28.5049C78.159 28.7049 76.459 28.6049 74.859 28.3049C73.259 28.0049 71.659 27.6049 69.759 27.0049C69.559 26.9049 68.959 26.8049 68.059 26.4049C67.159 26.1049 65.959 25.6049 64.559 25.0049C63.859 24.7049 63.059 24.3049 62.159 24.0049C61.759 23.8049 61.259 23.6049 60.859 23.4049C60.459 23.2049 59.959 23.0049 59.459 22.8049C58.959 22.6049 58.459 22.4049 57.959 22.2049C57.459 22.0049 56.959 21.8049 56.359 21.6049C55.859 21.4049 55.259 21.2049 54.659 21.1049L53.859 20.8049L53.459 20.9049C53.359 20.9049 53.159 20.8049 52.959 20.8049C51.759 20.5049 50.459 20.3049 49.159 20.2049C47.859 20.1049 46.559 20.1049 45.359 20.2049C42.859 20.4049 40.459 21.1049 38.659 21.9049C36.859 22.7049 35.459 23.6049 34.559 24.2049C33.659 24.9049 33.259 25.3049 33.259 25.4049C33.259 25.5049 34.459 24.6049 35.859 23.8049C36.559 23.4049 37.259 23.0049 37.859 22.8049C38.459 22.5049 38.859 22.4049 38.959 22.3049C39.759 22.1049 40.759 21.7049 42.059 21.5049C43.359 21.2049 44.959 21.0049 46.559 21.0049C48.259 21.0049 49.959 21.2049 51.759 21.6049C52.159 21.7049 52.659 21.8049 53.059 21.9049C53.459 22.0049 53.859 22.2049 54.259 22.3049C54.659 22.4049 55.059 22.6049 55.459 22.7049L56.659 23.1049C59.759 24.3049 62.559 25.5049 64.759 26.5049C65.259 26.7049 65.859 26.9049 66.259 27.1049C66.759 27.3049 67.159 27.4049 67.559 27.6049C67.959 27.7049 68.259 27.9049 68.559 28.0049C68.859 28.1049 69.159 28.2049 69.259 28.2049C70.659 28.6049 72.059 28.9049 73.359 29.1049C74.659 29.3049 75.959 29.4049 77.159 29.3049C78.459 29.3049 79.659 29.1049 80.859 28.9049C82.159 28.6049 83.359 28.3049 84.659 27.8049C86.559 27.1049 87.959 26.1049 89.659 25.2049C89.759 25.3049 89.759 25.3049 89.659 25.2049C89.759 25.2049 89.759 25.2049 89.659 25.2049Z" fill="#20B8F1"/>
  <path d="M39.759 32.0039H39.159H38.659L37.759 71.6039H39.159H40.659L39.759 32.0039Z" fill="#4E5B60"/>
  <path d="M52.759 37.2041C52.059 37.2041 42.059 34.0041 38.959 33.0041C38.559 33.0041 38.159 32.9041 37.959 32.6041L24.459 35.3041C24.459 35.3041 24.359 35.2041 24.259 35.0041C24.259 34.9041 24.359 34.7041 24.459 34.5041C24.759 34.2041 34.059 31.4041 38.059 30.2041C38.159 30.1041 38.259 30.1041 38.259 30.0041L39.659 16.3041C39.659 16.3041 39.759 16.2041 39.859 16.2041C39.959 16.2041 40.159 16.3041 40.359 16.6041C40.559 17.0041 40.459 26.7041 40.459 30.9041C40.459 31.0041 40.559 31.1041 40.559 31.2041L53.159 36.6041C53.159 36.6041 53.259 36.8041 53.159 36.9041C53.159 37.1041 53.059 37.2041 52.759 37.2041Z" fill="white"/>
  <path d="M53.2591 36.6038L40.6591 31.2038C40.6591 31.1038 40.5591 31.0038 40.5591 30.9038C40.5591 27.9038 40.6591 17.1038 40.4591 16.7038C40.1591 16.2038 39.8591 16.4038 39.8591 16.4038L38.4591 30.1038C38.3591 30.2038 38.2591 30.2038 38.1591 30.3038C35.2591 31.1038 24.9591 34.2038 24.5591 34.6038C24.1591 35.0038 24.4591 35.2038 24.4591 35.2038L37.9591 32.5038C38.2591 32.8038 38.6591 32.9038 39.0591 32.9038C41.6591 33.7038 52.3591 37.2038 52.8591 37.1038C53.3591 37.0038 53.2591 36.6038 53.2591 36.6038Z" fill="#4E5B60"/>
  <path d="M15.0591 85.7049C15.0591 85.7049 42.6591 54.3049 99.3591 60.8049C99.3591 60.8049 72.5591 58.4049 53.3591 74.0049C34.1591 89.5049 18.4591 85.3049 15.0591 85.7049Z" fill="#8DC63F"/>
  <path d="M16.3591 86.7039C16.3591 86.7039 36.1591 94.6039 53.2591 78.6039C70.3591 62.6039 98.0591 61.8039 98.9591 62.2039C98.9591 62.2039 78.2591 66.7039 67.2591 79.8039C56.2591 92.9039 27.2591 99.5039 16.3591 86.7039Z" fill="#8DC63F"/>
  <path d="M80.1589 55.3047H79.6589V60.3047H80.1589V55.3047Z" fill="#755441"/>
  <path d="M82.5589 51.5047C82.5589 54.7047 81.3589 57.2047 79.8589 57.2047C78.3589 57.2047 77.1589 54.6047 77.1589 51.5047C77.1589 48.3047 78.3589 45.8047 79.8589 45.8047C81.3589 45.8047 82.5589 48.3047 82.5589 51.5047Z" fill="#7CA53C"/>
  <path d="M63.9589 85.7039C42.9589 101.504 22.7589 92.0039 22.6589 92.0039C30.5589 97.3039 40.1589 100.404 50.3589 100.404C73.4589 100.404 92.8589 84.7039 98.6589 63.5039C79.5589 68.5039 84.9589 69.8039 63.9589 85.7039Z" fill="#8DC63F"/>
  <path d="M84.5591 53.5039H83.8591V60.2039H84.5591V53.5039Z" fill="#755441"/>
  <path d="M88.059 45.3041C88.059 50.0041 86.359 53.9041 84.159 53.9041C82.059 53.9041 80.259 50.1041 80.259 45.3041C80.259 40.6041 81.959 36.7041 84.159 36.7041C86.259 36.8041 88.059 40.6041 88.059 45.3041Z" fill="#8DC63F"/>
  <path d="M88.5589 53.5039H87.8589V60.2039H88.5589V53.5039Z" fill="#755441"/>
  <path d="M91.7589 48.4041C91.7589 52.7041 90.1589 56.1041 88.0589 56.1041C86.0589 56.1041 84.3589 52.7041 84.3589 48.4041C84.3589 44.1041 85.9589 40.7041 88.0589 40.7041C90.1589 40.7041 91.7589 44.1041 91.7589 48.4041Z" fill="#7CA53C"/>
  </g>
</svg>
