<svg width="191" height="440" viewBox="0 0 191 440" fill="none" xmlns="http://www.w3.org/2000/svg">
<g clip-path="url(#clip1)">
<path d="M175.885 266.292C175.299 265.96 174.366 266.514 174.335 267.115C174.018 267.4 173.987 268.001 173.67 268.286C173.338 268.872 172.69 269.742 172.057 270.312C170.761 272.052 169.179 273.477 167.597 274.901C166.964 275.471 166.632 276.057 166 276.626C165.367 277.196 164.734 277.766 164.102 278.336C163.469 278.905 162.836 279.475 162.504 280.061C162.188 280.345 161.872 280.63 161.54 281.216C160.59 282.07 159.626 283.226 158.677 284.08C158.044 284.65 157.712 285.236 157.095 285.505C156.779 285.79 156.462 286.075 156.13 286.66L155.814 286.945C154.865 287.799 153.916 288.654 152.967 289.509C151.069 291.218 149.186 292.627 147.288 294.336C146.339 295.191 145.706 295.761 144.757 296.615C144.441 296.9 144.125 297.185 143.808 297.47C143.476 298.055 142.859 298.324 142.527 298.91C142.211 299.195 141.895 299.48 141.578 299.765L141.262 300.049C140.629 300.619 140.297 301.205 139.665 301.774C139.348 302.059 139.016 302.645 138.7 302.93C138.067 303.499 137.719 304.385 137.087 304.955C136.122 306.11 135.474 306.981 134.81 308.152C134.478 308.737 134.161 309.022 133.829 309.607C133.497 310.193 133.165 310.778 132.548 311.048C132.548 311.048 132.548 311.048 132.532 311.348C131.9 311.918 131.568 312.503 130.935 313.073C130.619 313.358 130.302 313.643 130.287 313.944C130.287 313.944 130.287 313.944 129.97 314.228C126.76 317.979 123.249 321.714 120.038 325.464C118.425 327.49 116.812 329.515 114.898 331.525C113.949 332.38 113.285 333.551 112.336 334.406C111.387 335.26 110.739 336.131 109.79 336.985C109.473 337.27 108.841 337.84 108.524 338.125C108.524 338.125 108.509 338.425 108.208 338.41C107.892 338.694 107.259 339.264 106.942 339.549C106.942 339.549 106.942 339.549 106.927 339.85C105.978 340.704 105.345 341.274 104.396 342.129C103.447 342.983 102.498 343.838 101.565 344.392C99.6665 346.101 97.7841 347.51 95.5853 349.204C93.6873 350.913 91.7892 352.622 89.8911 354.332C88.9421 355.186 87.993 356.041 87.044 356.896C86.0949 357.75 84.8296 358.89 83.8805 359.744C83.5642 360.029 83.2478 360.314 82.9315 360.599C82.6151 360.884 82.6151 360.884 82.2988 361.169C81.9824 361.454 81.3654 361.723 81.0491 362.008C81.0491 362.008 81.0491 362.008 80.7484 361.992C81.4125 360.821 82.0922 359.35 82.7563 358.179C83.7523 356.423 84.4477 354.65 85.1432 352.878C86.8347 349.35 88.5262 345.822 89.917 342.278C91.6242 338.449 93.0307 334.604 94.4372 330.759C94.4529 330.459 94.7849 329.873 94.8006 329.573C95.1326 328.987 95.4489 328.702 95.781 328.117C96.4293 327.247 96.7614 326.661 97.4097 325.791C97.7261 325.506 97.7418 325.205 98.0581 324.92C98.3745 324.636 98.7065 324.05 98.7222 323.75C99.0542 323.164 99.7026 322.294 100.035 321.708C101.031 319.952 102.011 318.496 102.706 316.724C103.054 315.838 103.703 314.968 104.05 314.082C104.382 313.496 105.031 312.626 105.363 312.04C105.363 312.04 105.363 312.04 105.378 311.74C105.363 312.04 105.347 312.341 105.331 312.642C106.265 312.088 106.913 311.217 107.862 310.363C108.178 310.078 108.51 309.492 108.827 309.207C109.159 308.622 109.475 308.337 109.507 307.736C110.171 306.565 110.835 305.394 111.214 303.907L111.53 303.622C112.51 302.166 113.792 300.726 114.772 299.27C115.752 297.815 116.733 296.359 117.428 294.587C118.424 292.83 119.405 291.375 120.401 289.618C121.065 288.447 122.03 287.292 122.694 286.121C123.658 284.966 124.623 283.811 125.588 282.656C126.22 282.086 126.552 281.5 127.201 280.63C127.533 280.044 128.166 279.475 128.498 278.889C129.146 278.019 129.794 277.149 130.158 275.962C131.47 273.921 132.498 271.563 133.81 269.522C134.49 268.051 135.47 266.595 136.15 265.123C136.83 263.652 137.794 262.497 138.474 261.025C138.806 260.44 139.138 259.854 139.771 259.284C140.103 258.699 140.435 258.114 141.068 257.544C141.4 256.958 142.032 256.389 142.38 255.503C143.028 254.632 143.36 254.047 144.009 253.176C144.325 252.892 144.657 252.306 144.673 252.006C145.005 251.42 145.321 251.135 145.353 250.534C145.685 249.949 146.032 249.063 146.364 248.477C146.712 247.591 147.06 246.705 147.708 245.835C148.056 244.949 148.403 244.063 149.052 243.192C149.747 241.42 150.427 239.949 151.122 238.177C151.802 236.705 152.498 234.933 153.177 233.462C153.873 231.69 154.568 229.918 155.264 228.146C156.354 224.586 157.444 221.026 158.534 217.466C158.882 216.58 158.929 215.679 159.276 214.793C159.624 213.907 159.671 213.005 159.718 212.103C159.765 211.201 160.113 210.315 160.16 209.414C160.207 208.512 160.254 207.61 160.301 206.709C160.395 204.905 160.489 203.102 160.583 201.298C160.678 199.495 160.772 197.692 160.549 196.173C160.596 195.271 160.643 194.37 160.69 193.468C160.722 192.867 160.738 192.566 160.769 191.965C160.8 191.364 160.816 191.063 160.847 190.462C160.941 188.659 161.32 187.172 161.414 185.368C161.509 183.565 161.903 181.777 162.013 179.673C162.107 177.87 162.502 176.082 162.596 174.279C162.627 173.677 162.959 173.092 162.991 172.491C163.323 171.905 163.67 171.019 163.702 170.418C164.034 169.833 164.081 168.931 164.112 168.33C164.128 168.029 164.144 167.729 164.159 167.428C164.175 167.128 164.175 167.128 163.874 167.112C163.89 166.811 163.589 166.796 163.273 167.081C162.957 167.365 162.941 167.666 162.925 167.967C162.562 169.153 162.499 170.355 162.136 171.542C161.472 172.713 161.108 173.9 160.46 174.77C159.796 175.941 159.148 176.811 158.483 177.982C157.819 179.153 157.155 180.324 156.491 181.495C155.827 182.666 155.179 183.536 154.515 184.707C153.866 185.577 153.534 186.163 152.886 187.033C152.57 187.318 152.554 187.618 152.238 187.903C151.921 188.188 151.589 188.774 151.273 189.059C150.625 189.929 149.992 190.499 149.344 191.369C148.062 192.809 146.797 193.949 145.516 195.389C144.868 196.259 144.219 197.129 143.571 198C142.606 199.155 141.926 200.626 141.247 202.098C140.93 202.383 140.915 202.683 140.583 203.269C140.266 203.554 140.235 204.155 139.919 204.44C139.571 205.326 139.239 205.911 138.891 206.797C138.196 208.569 137.5 210.341 136.504 212.098C136.188 212.383 136.157 212.984 135.84 213.269C135.16 214.74 134.164 216.496 133.485 217.968C133.137 218.854 132.789 219.74 132.457 220.325C132.109 221.211 131.762 222.097 131.414 222.983C130.719 224.755 130.324 226.543 129.929 228.331C129.55 229.818 128.855 231.59 128.476 233.077C128.097 234.564 127.417 236.036 127.038 237.523C126.659 239.01 125.963 240.782 125.584 242.269C124.826 245.244 124.052 248.519 123.294 251.493C122.505 255.068 121.43 258.328 120.34 261.887C119.945 263.675 119.25 265.447 118.855 267.235C118.445 269.323 117.749 271.095 117.038 273.168C116.358 274.639 115.964 276.427 115.284 277.899C114.604 279.37 114.225 280.857 113.545 282.329C112.471 285.588 111.111 288.531 110.338 291.806C110.322 292.106 110.322 292.106 110.306 292.407L110.291 292.707C109.548 295.381 108.806 298.055 108.079 300.428C107.731 301.314 107.368 302.501 107.02 303.387C107.004 303.687 106.688 303.972 106.688 303.972C106.372 304.257 106.04 304.843 105.723 305.127C105.091 305.697 104.743 306.583 104.11 307.153C103.462 308.023 103.114 308.909 102.481 309.479C102.165 309.764 102.134 310.365 101.817 310.65C101.501 310.935 101.485 311.235 101.153 311.821C100.806 312.707 100.173 313.277 99.8253 314.163C98.8292 315.919 98.1338 317.691 97.1377 319.447C97.122 319.748 96.8213 319.732 96.8057 320.033C96.8213 319.732 97.1534 319.147 97.1691 318.846C97.8645 317.074 98.2592 315.287 98.9546 313.514C99.65 311.742 100.361 309.67 101.057 307.898C102.447 304.354 103.237 300.778 104.042 296.902C104.832 293.327 105.637 289.451 106.426 285.875C106.931 281.984 107.736 278.108 108.24 274.216C108.24 274.216 108.24 274.216 108.256 273.915C108.557 273.931 108.889 273.345 108.904 273.045C108.92 272.744 108.651 272.128 108.682 271.526C109.093 269.438 109.503 267.35 109.913 265.262C110.387 261.971 111.16 258.696 111.649 255.105C112.107 252.115 112.564 249.125 112.721 246.119C112.878 243.114 113.335 240.124 113.508 236.817C113.508 236.817 113.508 236.817 113.492 237.118C113.523 236.517 113.57 235.615 113.602 235.014C113.633 234.413 113.965 233.827 113.997 233.226C114.77 229.951 115.56 226.376 116.334 223.101C116.728 221.313 117.108 219.826 117.202 218.023C117.249 217.121 117.28 216.52 117.628 215.634C117.675 214.732 117.722 213.83 117.753 213.229C118.226 209.939 118.399 206.632 118.587 203.025C118.681 201.222 118.775 199.419 118.869 197.615C118.948 196.112 119.042 194.309 118.819 192.79C119.151 192.205 119.499 191.319 119.831 190.734C120.495 189.563 121.159 188.392 121.823 187.221C122.155 186.635 122.472 186.35 122.804 185.765C123.12 185.48 123.452 184.895 123.768 184.61C124.417 183.739 125.065 182.869 125.698 182.299C126.331 181.73 126.663 181.144 127.311 180.274C127.944 179.704 128.576 179.134 129.209 178.565C129.842 177.995 130.474 177.425 130.806 176.84C131.439 176.27 131.771 175.684 132.404 175.115C132.736 174.529 133.353 174.26 133.685 173.674C134.318 173.105 134.65 172.519 135.282 171.949C135.915 171.38 136.247 170.794 136.895 169.924C137.228 169.338 137.86 168.769 138.192 168.183C139.821 165.857 141.45 163.531 143.063 161.505C143.727 160.335 144.692 159.179 145.356 158.008C145.688 157.423 146.02 156.837 146.336 156.553C146.668 155.967 147.316 155.097 147.649 154.511C147.981 153.926 148.629 153.056 148.961 152.47C149.293 151.885 149.625 151.299 149.957 150.714C150.289 150.128 150.621 149.543 150.953 148.957C151.285 148.372 151.301 148.071 151.633 147.486C151.649 147.185 151.949 147.201 151.965 146.9C152.313 146.014 152.645 145.429 152.992 144.543C153.324 143.958 153.356 143.356 153.703 142.47C154.067 141.284 154.43 140.097 154.794 138.911C155.852 135.952 156.595 133.278 157.654 130.32C158.033 128.832 158.697 127.662 159.076 126.174C159.408 125.589 159.439 124.988 159.471 124.387C159.502 123.785 159.834 123.2 159.865 122.599C160.213 121.713 160.26 120.811 160.608 119.925C160.639 119.324 160.971 118.739 161.003 118.137C161.366 116.951 161.444 115.448 161.808 114.261C161.808 114.261 161.808 114.261 161.823 113.961C161.855 113.36 161.87 113.059 162.202 112.474L162.218 112.173C162.234 111.873 162.249 111.572 162.281 110.971C162.312 110.37 162.328 110.069 162.359 109.468C162.375 109.167 162.391 108.867 162.422 108.266C162.438 107.965 162.453 107.665 162.153 107.649C161.868 107.333 161.868 107.333 161.567 107.317C161.266 107.301 160.966 107.286 160.966 107.286C160.649 107.57 160.349 107.555 160.333 107.855C160.317 108.156 160.017 108.14 160.001 108.441C159.685 108.726 159.669 109.026 159.368 109.011C159.036 109.596 158.704 110.181 158.087 110.451C157.122 111.606 156.158 112.761 155.478 114.233C154.513 115.388 153.849 116.559 153.185 117.73C151.857 120.071 150.228 122.398 148.9 124.739C148.568 125.325 148.236 125.91 147.588 126.781C147.256 127.366 146.924 127.951 146.607 128.236C145.943 129.407 144.979 130.562 144.315 131.733C143.35 132.889 142.385 134.044 141.721 135.215C141.057 136.386 140.108 137.24 139.444 138.411C138.811 138.981 138.464 139.867 137.831 140.437C137.499 141.022 137.167 141.608 136.85 141.893C136.518 142.478 136.186 143.063 135.854 143.649C135.507 144.535 134.874 145.105 134.526 145.991C133.862 147.162 133.182 148.633 132.518 149.804C131.854 150.975 131.19 152.146 130.542 153.016C129.894 153.886 129.229 155.057 128.581 155.928C127.917 157.099 127.253 158.27 126.304 159.124C125.64 160.295 124.976 161.466 124.312 162.637C123.98 163.222 123.632 164.108 123.3 164.694C122.952 165.58 122.304 166.45 121.956 167.336C121.624 167.922 121.277 168.808 120.944 169.393C120.597 170.279 119.948 171.149 119.601 172.036C119.601 172.036 119.585 172.336 119.284 172.32C119.3 172.02 119.316 171.719 119.347 171.118C119.14 169.299 119.219 167.796 119.012 165.977C118.806 164.158 118.884 162.655 118.978 160.852C118.85 157.53 119.022 154.224 118.91 150.601C118.782 147.279 118.353 143.941 117.924 140.604C117.718 138.785 117.21 136.95 116.988 135.431C116.766 133.913 116.258 132.078 116.036 130.56C115.814 129.041 115.307 127.206 115.084 125.688C114.831 124.77 114.878 123.869 114.624 122.951C114.64 122.651 114.371 122.034 114.386 121.733C114.402 121.433 114.433 120.832 114.148 120.515C113.879 119.898 113.594 119.582 112.993 119.551C112.391 119.519 111.79 119.488 111.458 120.074C110.825 120.643 111.095 121.26 111.063 121.861C111.001 123.064 110.954 123.965 110.606 124.851C110.148 127.841 109.39 130.816 108.331 133.774C107.273 136.733 106.214 139.692 105.456 142.666C104.381 145.925 103.307 149.184 102.248 152.143C102.232 152.443 101.9 153.029 101.885 153.329C101.615 152.713 101.631 152.412 101.362 151.795C101.377 151.495 101.377 151.495 101.092 151.178C101.108 150.878 101.108 150.878 100.823 150.562C100.062 147.809 99.2855 145.358 98.5247 142.606C98.8567 142.02 98.9037 141.118 98.0174 140.771C98.0174 140.771 97.7167 140.755 97.7324 140.455C97.4788 139.537 97.2252 138.62 97.2879 137.418C97.3036 137.117 97.3349 136.516 97.3506 136.215C97.3663 135.915 97.382 135.614 97.4133 135.013L97.429 134.712C97.429 134.712 97.429 134.712 97.4447 134.412C97.4604 134.111 97.476 133.811 97.8081 133.225C97.8237 132.925 97.8394 132.624 97.8551 132.324C98.2185 131.137 98.2969 129.634 98.6603 128.448C98.676 128.147 98.676 128.147 98.9923 127.862C98.9923 127.862 98.9923 127.862 99.008 127.562C99.34 126.976 99.3714 126.375 99.7034 125.789C100.035 125.204 100.051 124.903 100.383 124.318C100.699 124.033 100.731 123.432 101.047 123.147C101.364 122.862 101.395 122.261 101.711 121.976C102.043 121.391 102.375 120.805 102.723 119.919C103.055 119.334 103.371 119.049 103.703 118.463C104.02 118.179 104.352 117.593 104.367 117.293C105.016 116.422 105.664 115.552 106.313 114.682C107.609 112.941 108.906 111.2 110.203 109.46C110.851 108.589 111.5 107.719 112.148 106.849C112.796 105.978 113.445 105.108 114.077 104.538C115.358 103.098 116.323 101.943 117.604 100.503C118.885 99.0626 120.151 97.923 121.131 96.4672C122.729 94.7422 124.326 93.0173 125.923 91.2923C127.22 89.5516 128.802 88.1272 130.099 86.3865C131.395 84.6458 132.977 83.2214 134.274 81.4807C135.871 79.7558 137.168 78.0151 138.765 76.2901C140.062 74.5494 141.644 73.125 142.941 71.3843C143.589 70.514 144.522 69.9599 145.171 69.0896C145.487 68.8047 145.819 68.2192 146.436 67.95C146.752 67.6652 147.385 67.0954 147.717 66.5099C148.049 65.9245 148.096 65.0228 147.511 64.6908C147.226 64.3746 146.925 64.3589 146.324 64.3275L146.023 64.3118C145.722 64.2962 145.422 64.2805 145.105 64.5653C144.504 64.534 143.887 64.8032 143.286 64.7718C142.067 65.0096 140.849 65.2475 139.615 65.7859C137.463 66.5778 135.612 67.3854 133.445 68.4778C131.293 69.2698 129.426 70.3779 127.275 71.1698C125.424 71.9774 123.272 72.7693 121.405 73.8775C120.788 74.1467 120.472 74.4316 119.855 74.7008C119.538 74.9857 119.238 74.97 119.222 75.2705C118.921 75.2549 118.906 75.5554 118.589 75.8403C118.273 76.1252 117.656 76.3944 117.34 76.6793C117.023 76.9642 116.406 77.2334 116.09 77.5182C115.774 77.8031 115.141 78.3729 114.825 78.6578C114.208 78.927 113.876 79.5124 113.543 80.0979C113.227 80.3828 112.911 80.6676 112.594 80.9525C112.278 81.2374 111.946 81.8229 111.63 82.1078C111.298 82.6932 110.665 83.263 110.349 83.5479C110.032 83.8327 109.7 84.4182 109.384 84.7031C109.068 84.988 108.736 85.5734 108.419 85.8583C108.103 86.1432 108.087 86.4437 107.771 86.7286C107.755 87.0292 107.455 87.0135 107.439 87.3141C107.107 87.8995 106.775 88.485 106.458 88.7699C106.126 89.3553 105.81 89.6402 105.779 90.2414C105.462 90.5262 105.431 91.1274 105.115 91.4123C104.783 91.9977 104.767 92.2983 104.435 92.8837C104.103 93.4692 104.072 94.0703 103.739 94.6558C103.407 95.2412 103.392 95.5418 103.06 96.1272C103.044 96.4278 102.712 97.0133 102.696 97.3138C102.364 97.8993 102.333 98.5004 102.001 99.0859C101.653 99.9719 101.622 100.573 101.274 101.459C100.926 102.345 100.895 102.946 100.547 103.832C100.2 104.718 100.168 105.319 99.8206 106.205C99.4416 107.693 99.0625 109.18 98.6834 110.667C98.273 112.755 97.5462 115.128 97.1358 117.217C97.1044 117.818 97.0888 118.118 96.7567 118.704C96.7254 119.305 96.7097 119.606 96.3777 120.191C96.3463 120.792 96.2993 121.694 95.9672 122.279C95.9359 122.88 95.9045 123.482 95.8888 123.782C95.7791 125.886 95.3686 127.974 95.2589 130.078C95.2432 130.379 95.2275 130.68 95.2118 130.98C94.9739 129.762 94.4196 128.829 94.1817 127.611C93.1671 123.942 91.852 120.256 90.8375 116.587C90.5995 115.369 90.0452 114.436 89.8073 113.218C89.3 111.383 88.7928 109.548 88.2855 107.713C88.3012 107.413 88.3012 107.413 88.0162 107.097C87.7783 105.879 87.556 104.36 87.6187 103.158C87.6658 102.256 87.4278 101.038 87.4749 100.136C87.331 97.115 86.8865 94.078 86.7426 91.0566C86.821 89.5537 86.5988 88.0352 86.6615 86.8329C86.7399 85.3301 86.5176 83.8116 86.5803 82.6093C86.6587 81.1064 86.7371 79.6036 86.5149 78.0851C86.5933 76.5822 86.371 75.0637 86.1331 73.8457C85.6885 70.8087 85.244 67.7716 84.7838 65.0351C84.3393 61.9981 83.5941 58.9453 82.8489 55.8926C82.6266 54.374 82.088 53.1404 81.5651 51.6062C81.0421 50.072 80.5035 48.8383 79.9806 47.3041C79.1727 45.4536 78.3647 43.6032 77.5568 41.7527C76.4953 38.9848 75.4181 36.5175 74.0559 33.734C73.5329 32.1998 72.7093 30.6499 72.1707 29.4162C71.9014 28.7994 71.6321 28.1826 71.3628 27.5658C72.155 29.7168 71.87 29.4005 71.8857 29.1C71.6007 28.7837 71.6164 28.4831 71.3314 28.1669C71.0464 27.8506 70.7615 27.5344 70.4451 27.8193C70.1444 27.8036 69.8281 28.0885 69.5117 28.3734C69.4961 28.6739 69.4804 28.9745 69.4647 29.2751C69.4333 29.8762 69.402 30.4773 69.3706 31.0785C69.3236 31.9802 69.2765 32.8819 69.2138 34.0842C68.7564 37.0742 68.5996 40.0799 68.1264 43.3704C67.7473 44.8576 67.6689 46.3604 67.5905 47.8633C67.5121 49.3661 67.4337 50.869 67.3397 52.6724C67.2142 55.0769 67.4051 57.1966 67.2797 59.6011C67.1542 62.0057 67.0288 64.4103 67.204 66.8305C67.1256 68.3333 67.3636 69.5513 67.2852 71.0541C67.2538 71.6553 67.2224 72.2564 67.4917 72.8732C67.5074 72.5727 67.2068 72.557 67.2224 72.2564C66.6995 70.7222 66.1766 69.188 65.97 67.3689C64.9241 64.3005 64.1789 61.2477 62.8324 58.1636C62.8324 58.1636 62.8324 58.1636 62.8481 57.863C62.8638 57.5625 62.8638 57.5625 62.5788 57.2462L62.5945 56.9456C62.5945 56.9456 62.5945 56.9456 62.6101 56.6451C62.0715 55.4114 61.5172 54.4783 61.2793 53.2604C59.9328 50.1763 58.5862 47.0922 57.224 44.3086C56.6854 43.075 55.8618 41.5251 55.3389 39.9908C54.8159 38.4566 53.9923 36.9067 53.4694 35.3725C53.2001 34.7557 52.9465 33.8383 52.3765 33.2058C50.9359 31.9251 50.6823 31.0077 50.413 30.3909C49.8587 29.4578 49.3044 28.5247 49.0351 27.9079C48.4808 26.9748 48.2115 26.358 47.6572 25.4249C47.0872 24.7924 46.8179 24.1756 46.2636 23.2425C45.6936 22.61 45.1237 21.9775 44.8544 21.3607C43.7144 20.0956 42.5745 18.8306 41.7352 17.5813C39.139 15.3361 36.8591 12.8061 34.5635 10.5766C33.1229 9.29594 31.9829 8.03092 30.5423 6.75022C29.9567 6.41828 29.3867 5.78577 28.8167 5.15327C28.2468 4.52076 27.6611 4.18882 27.0911 3.55631C26.8061 3.24005 26.2362 2.60755 25.9512 2.29129C25.6662 1.97504 25.3812 1.65878 25.1119 1.04196C24.8269 0.725706 24.5419 0.409451 23.9563 0.0775119C23.07 -0.270113 22.4373 0.299654 22.3902 1.20136C22.3432 2.10307 22.2962 3.00477 22.5498 3.92217C22.5027 4.82387 22.4714 5.42501 22.4243 6.32672C22.3303 8.13013 22.5525 9.64866 22.4584 11.4521C22.4114 12.3538 22.38 12.9549 22.6337 13.8723C22.5866 14.774 22.5553 15.3752 22.8089 16.2926C22.7775 16.8937 23.0468 17.5105 23.0155 18.1116C22.9998 18.4122 22.9841 18.7128 22.9684 19.0134C23.2534 19.3296 23.507 20.247 23.46 21.1487C23.7136 22.0661 23.6666 22.9678 23.9359 23.5846C24.1425 25.4037 24.6654 26.9379 25.1883 28.4722C25.9806 30.6232 26.7728 32.7742 28.1821 34.6561C28.752 35.2886 29.3063 36.2217 29.5756 36.8385C30.6999 38.4041 31.8398 39.6691 32.9798 40.9341C33.5498 41.5666 33.8348 41.8829 34.4047 42.5154C34.9747 43.1479 35.5447 43.7804 36.1146 44.4129C36.9853 45.0611 37.5553 45.6936 38.4102 46.6424C38.9802 47.2749 39.5658 47.6068 40.1358 48.2393C41.2914 49.2038 42.4471 50.1682 43.587 51.4332C44.7269 52.6983 46.1832 53.6784 47.3232 54.9434C48.4631 56.2084 49.6031 57.4734 51.0594 58.4536C51.6293 59.0861 52.215 59.418 52.4843 60.0348C53.0543 60.6674 53.6242 61.2999 53.8935 61.9167C55.0335 63.1817 56.1734 64.4467 57.2977 66.0123C58.4376 67.2773 59.2926 68.2261 60.4326 69.4911C61.5725 70.7561 62.3961 72.306 63.536 73.571C63.821 73.8873 64.0903 74.5041 64.676 74.8361C64.6603 75.1366 64.9453 75.4529 64.9296 75.7534C65.1832 76.6708 65.7532 77.3034 66.3232 77.9359C66.6082 78.2521 67.1938 78.5841 67.7795 78.916L67.7638 79.2166C67.9861 80.7351 68.2083 82.2536 68.4306 83.7721C68.8751 86.8092 69.636 89.5614 70.3969 92.3136C70.6505 93.231 70.9198 93.8478 71.1734 94.7652C71.4427 95.382 71.6964 96.2994 72.2663 96.9319C72.7893 98.4661 73.6285 99.7154 74.4678 100.965C76.1464 103.463 77.8249 105.962 79.8042 108.476C81.7991 110.69 83.4776 113.189 85.4725 115.403C85.7575 115.719 85.7418 116.019 86.0268 116.336C86.3118 116.652 86.2961 116.953 86.5811 117.269C86.5811 117.269 86.5654 117.569 86.8661 117.585C86.8347 118.186 87.4204 118.518 88.0217 118.55C88.006 118.85 88.006 118.85 88.291 119.166C88.7983 121.001 89.3212 122.535 89.8285 124.37C90.3357 126.205 90.8586 127.739 91.3659 129.574C91.8731 131.409 92.3961 132.943 92.9033 134.778C93.157 135.695 93.4106 136.612 93.6799 137.229C93.9492 137.846 93.9335 138.147 94.2028 138.764C93.6329 138.131 93.3635 137.514 92.8092 136.581C91.4 134.699 89.9908 132.817 88.5658 131.236C87.7109 130.287 87.1409 129.655 86.2859 128.706C85.431 127.757 84.861 127.125 84.006 126.176C82.2804 124.579 80.5548 122.982 78.8292 121.385C78.5443 121.069 78.5443 121.069 78.2593 120.753C77.9743 120.436 77.9743 120.436 77.6893 120.12C76.8187 119.472 75.663 118.508 74.7924 117.859C73.9218 117.211 72.7661 116.247 71.8955 115.599C71.3098 115.267 71.0249 114.95 70.4392 114.618C69.2679 113.955 68.3973 113.306 67.2103 112.943C66.6246 112.611 66.0233 112.58 65.4376 112.248C65.137 112.232 64.852 111.916 64.5513 111.9C64.2506 111.884 63.95 111.869 63.9657 111.568C62.7787 111.205 61.8767 111.158 60.6897 110.795C60.389 110.779 60.389 110.779 60.0884 110.763C60.0884 110.763 60.0884 110.763 60.389 110.779L60.0884 110.763C58.9014 110.4 57.398 110.321 56.1954 110.259C55.2934 110.212 54.0907 110.149 53.1887 110.102C51.986 110.039 50.7834 109.976 49.5807 109.914C47.476 109.804 45.0394 110.279 42.919 110.47C40.783 110.962 38.647 111.453 36.2103 111.929C35.2926 112.182 34.0742 112.42 33.1566 112.673C31.9382 112.911 31.0205 113.165 29.8022 113.403C29.5015 113.387 29.1852 113.672 28.8845 113.656C28.2832 113.625 27.6662 113.894 27.3498 114.179C27.0178 114.764 26.9864 115.365 26.9551 115.967C27.2244 116.583 27.81 116.915 28.3957 117.247C28.6807 117.564 28.9813 117.579 29.567 117.911C30.1526 118.243 30.7383 118.575 31.0233 118.891C32.7646 120.188 34.8222 121.199 36.5635 122.496C38.0198 123.476 39.476 124.456 40.948 125.135C41.5337 125.467 42.1193 125.799 42.705 126.131C42.6266 127.634 43.2279 127.665 43.8136 127.997C44.6999 128.345 45.8712 129.009 46.7575 129.356C47.6438 129.704 48.8308 130.067 49.7171 130.415C50.9041 130.778 52.0911 131.142 53.2781 131.505C54.4651 131.868 55.6521 132.232 56.5384 132.579C57.7254 132.943 58.6117 133.29 59.8143 133.353C61.8876 134.064 63.9766 134.474 66.0499 135.185C67.2369 135.548 68.4239 135.912 69.9116 136.291C71.9849 137.002 74.0582 137.713 76.4321 138.439C78.5054 139.15 80.5944 139.561 82.9684 140.287C83.8547 140.635 84.456 140.666 85.3424 141.014C86.2287 141.361 86.8143 141.693 87.7163 141.74C88.6027 142.088 89.204 142.119 90.0903 142.467C90.9766 142.815 91.5623 143.147 92.4486 143.494C93.0343 143.826 93.9206 144.174 94.5062 144.506C94.7912 144.822 95.0919 144.838 95.6775 145.17C96.2632 145.502 96.5482 145.818 97.1181 146.45C97.4188 146.466 97.4031 146.767 97.7038 146.782L97.9888 147.098C98.5274 148.332 98.7497 149.851 99.2883 151.084C100.049 153.836 101.095 156.905 101.856 159.657C101.508 160.543 101.145 161.73 100.496 162.6C99.801 164.372 99.4219 165.859 98.7265 167.631C98.3318 169.419 97.9527 170.906 97.558 172.694C97.1632 174.482 96.7841 175.969 96.3894 177.757L96.3737 178.057C95.8037 177.425 95.5188 177.108 94.9488 176.476C93.8088 175.211 92.9852 173.661 91.8453 172.396C90.7054 171.131 89.5654 169.866 88.7261 168.617C88.1562 167.984 87.5862 167.351 87.0162 166.719C86.4462 166.086 85.8763 165.454 85.3063 164.821C84.7363 164.189 84.1664 163.556 83.5964 162.924C83.0264 162.291 82.4408 161.959 81.5701 161.311C80.1138 160.331 78.9739 159.066 77.5333 157.785C76.3776 156.821 74.9214 155.841 73.4651 154.861C72.0088 153.881 70.5368 153.201 69.0805 152.221C67.6085 151.541 66.1366 150.862 64.3639 150.167C62.892 149.487 61.42 148.807 59.9323 148.428C59.046 148.081 58.4447 148.049 57.5584 147.702C56.672 147.354 56.0707 147.323 55.1687 147.276C54.2667 147.229 53.6654 147.197 53.064 147.166C52.7634 147.15 52.4627 147.135 52.1464 147.419C51.545 147.388 50.928 147.657 50.596 148.243C50.2796 148.528 49.9319 149.414 50.2012 150.03C50.4705 150.647 50.7555 150.964 51.3412 151.295C51.6419 151.311 51.6419 151.311 51.9425 151.327L52.2432 151.343C52.5439 151.358 52.5439 151.358 52.8445 151.374C52.8445 151.374 52.8445 151.374 53.1452 151.39C53.4459 151.405 53.4459 151.405 53.7465 151.421L54.0472 151.437C54.0315 151.737 54.3322 151.753 54.3165 152.053C54.8708 152.987 55.1401 153.603 56.0107 154.252C56.5807 154.884 57.1664 155.216 58.037 155.864C58.9076 156.512 59.4776 157.145 60.3482 157.793C60.9182 158.426 61.8045 158.773 62.3745 159.406C62.6595 159.722 62.9445 160.038 63.2451 160.054C63.8308 160.386 64.1001 161.003 64.6858 161.335C65.2557 161.967 65.8414 162.299 66.4114 162.932C67.2663 163.88 68.4219 164.845 69.2769 165.794C70.1319 166.742 71.2875 167.707 72.1581 168.355C72.7438 168.687 73.0131 169.304 73.5987 169.636C74.1844 169.968 74.4537 170.584 75.0393 170.916C75.3243 171.233 75.6093 171.549 75.8943 171.865C76.1793 172.181 76.4643 172.498 76.7493 172.814C77.3035 173.747 78.1585 174.696 78.7128 175.629C79.2671 176.562 80.1064 177.811 80.6607 178.744C81.4999 179.994 82.0386 181.227 82.8935 182.176C83.7328 183.425 84.5721 184.675 85.4113 185.924C86.2506 187.173 87.1056 188.122 87.6442 189.356C88.4835 190.605 89.0378 191.538 89.5764 192.772C90.1307 193.705 90.4 194.322 90.9543 195.255C91.5086 196.188 91.7622 197.105 92.3165 198.038C92.8708 198.971 93.1244 199.889 93.663 201.122C93.6317 201.724 93.5846 202.625 93.5533 203.226C93.3651 206.833 93.1926 210.14 93.3051 213.762C93.4333 217.084 93.5458 220.707 94.2753 224.06C94.7042 227.397 95.4337 230.751 96.4795 233.819C96.4639 234.12 96.4482 234.42 96.7488 234.436L96.7645 234.135L96.7488 234.436C96.7488 234.436 96.7488 234.436 96.7332 234.737C96.7175 235.037 96.7175 235.037 96.7018 235.338C97.447 238.391 98.1922 241.443 99.2381 244.512C100.268 247.881 101.615 250.965 102.645 254.334C103.168 255.868 103.691 257.402 104.214 258.936C104.467 259.854 104.737 260.471 104.99 261.388C105.244 262.305 105.513 262.922 105.466 263.824C105.942 266.26 106.434 268.395 106.609 270.815C106.847 272.033 107.1 272.951 107.038 274.153C107.006 274.754 107.276 275.371 107.244 275.972C107.229 276.273 107.213 276.573 107.498 276.89C107.451 277.791 107.103 278.677 107.04 279.88C106.614 282.268 106.204 284.357 105.778 286.746C104.562 292.71 103.362 298.374 101.561 304.006C100.866 305.778 100.487 307.265 99.7912 309.037C98.4003 312.581 97.3102 316.141 96.2357 319.4C95.5403 321.172 95.1455 322.96 94.4344 325.033C93.739 326.805 93.0436 328.577 92.3482 330.349C91.6528 332.121 90.9417 334.194 90.2463 335.966C89.5665 337.437 88.8711 339.209 88.1914 340.681C88.1914 340.681 88.1757 340.981 87.875 340.965C86.8476 343.323 85.8358 345.38 84.8084 347.737C84.8241 347.437 84.8241 347.437 84.5234 347.421C84.5548 346.82 84.5705 346.519 84.6018 345.918C84.6645 344.716 84.7273 343.514 84.79 342.311C85.1534 341.125 85.2161 339.923 85.5638 339.037C85.9429 337.549 86.3376 335.762 86.7167 334.275C87.1114 332.487 87.8068 330.715 88.1859 329.228C88.9754 325.652 89.7649 322.077 90.2537 318.486C90.6485 316.698 91.0589 314.61 91.153 312.806C91.532 311.319 91.9268 309.531 92.0052 308.028C92.3999 306.241 92.7947 304.453 92.9045 302.349C92.9985 300.546 93.3933 298.758 93.4874 296.954C93.6755 293.348 93.8637 289.741 94.0518 286.134C94.1459 284.33 94.2557 282.227 94.0491 280.407C94.1432 278.604 93.9366 276.785 94.0464 274.681C94.1404 272.877 93.9182 271.359 93.7116 269.54C92.9194 267.389 92.9978 265.886 92.7912 264.067C92.5846 262.248 92.663 260.745 92.4564 258.926C92.2498 257.107 92.0432 255.288 91.8366 253.469C91.6301 251.649 91.4078 250.131 91.2012 248.312C90.9946 246.493 90.788 244.674 90.2808 242.839C89.567 239.185 88.8531 235.531 87.8229 232.162C87.3 230.628 87.0934 228.809 86.5705 227.275C86.0632 225.44 85.5403 223.906 85.0331 222.071C84.0029 218.702 82.9727 215.333 82.2589 211.679C81.7359 210.145 81.5293 208.326 81.0064 206.791C80.4835 205.257 80.2455 204.039 79.4219 202.489C79.1369 202.173 78.852 201.857 78.2506 201.825C77.6493 201.794 77.3329 202.079 77.0009 202.664C76.9852 202.965 76.9696 203.265 76.9382 203.867C76.9225 204.167 76.9068 204.468 76.9068 204.468C76.8755 205.069 77.1448 205.686 77.0977 206.587C77.0507 207.489 77.0037 208.391 77.2573 209.308C77.2259 209.909 77.1789 210.811 77.1475 211.412C77.1005 212.314 77.0691 212.915 77.0221 213.817C77.0064 214.117 77.0064 214.117 76.9907 214.418C76.9594 215.019 76.928 215.62 76.9123 215.921C76.8653 216.822 76.8182 217.724 76.7712 218.626C76.7555 218.926 76.7555 218.926 76.7398 219.227C76.7085 219.828 76.6771 220.429 76.3608 220.714C76.3137 221.616 75.9817 222.201 75.9347 223.103C75.5556 224.59 75.1765 226.077 75.0981 227.58C74.7191 229.067 74.3243 230.855 74.2459 232.358C73.8512 234.146 73.4564 235.933 73.3623 237.737C72.9519 239.825 72.5572 241.613 72.4474 243.717C72.0526 245.505 71.9429 247.609 71.5481 249.396C71.5168 249.997 71.4697 250.899 71.4384 251.5C71.3913 252.402 71.3443 253.304 70.9966 254.19C70.9025 255.993 70.8084 257.797 70.7143 259.6C70.6673 260.502 70.6046 261.704 70.5575 262.606C70.5105 263.507 70.4478 264.71 70.4007 265.611C70.3694 266.212 70.3223 267.114 70.291 267.715C70.2439 268.617 70.1969 269.519 70.4505 270.436C70.3878 271.638 70.6414 272.556 70.5787 273.758C70.5317 274.66 70.801 275.277 70.7539 276.178C70.9605 277.997 71.1671 279.816 71.3737 281.636C71.5803 283.455 71.7869 285.274 72.2941 287.109C72.5164 288.627 72.723 290.446 73.2459 291.98C73.7531 293.815 73.944 295.935 74.4513 297.77C74.9585 299.604 75.1651 301.423 75.6881 302.958C76.4176 306.311 77.1314 309.965 77.8452 313.619C78.5748 316.972 78.9879 320.61 79.7175 323.964C80.1463 327.301 80.8601 330.955 81.289 334.293C81.2419 335.194 81.4799 336.412 81.4329 337.314C81.3858 338.216 81.3388 339.118 81.5767 340.336C81.5454 340.937 81.5297 341.237 81.4983 341.838C81.1506 342.724 81.0879 343.927 80.7402 344.813C80.3454 346.6 79.9664 348.088 79.5716 349.875C78.8762 351.647 78.4815 353.435 77.7704 355.508C77.4227 356.394 77.0906 356.979 76.7429 357.865C76.7272 358.166 76.4109 358.451 76.3952 358.751C76.0632 359.337 76.0475 359.637 75.7155 360.223C75.3835 360.808 75.0358 361.694 74.7037 362.28C74.356 363.166 74.0083 364.052 73.6606 364.938C73.2972 366.124 72.6332 367.295 72.2698 368.482C71.9377 369.067 71.3207 369.336 70.9887 369.922C70.024 371.077 69.3756 371.947 68.4109 373.103C67.7939 373.372 67.1612 373.942 66.5442 374.211C65.6108 374.765 64.9781 375.335 64.3454 375.904C63.7127 376.474 62.7637 377.329 62.1153 378.199C61.4669 379.069 60.8186 379.94 60.1702 380.81C59.5218 381.681 58.8735 382.551 58.5414 383.136C57.8931 384.007 57.561 384.592 56.9283 385.162C53.4485 388.296 50.2851 391.144 46.8209 393.978C45.8719 394.832 44.9228 395.687 43.9895 396.241C44.3372 395.355 44.6692 394.769 44.7163 393.868C45.0326 393.583 45.0483 393.282 45.3803 392.697C45.3803 392.697 45.396 392.396 45.6967 392.412C46.0287 391.827 46.3764 390.941 47.0091 390.371C47.3411 389.785 47.6731 389.2 48.0052 388.614C48.3529 387.728 48.6849 387.143 49.0326 386.257C49.3803 385.371 49.728 384.485 50.0757 383.599C50.4234 382.713 50.7711 381.827 51.1188 380.941C51.4666 380.055 51.7986 379.469 52.1463 378.583C52.8417 376.811 53.2208 375.324 53.9162 373.552C54.2482 372.967 54.2953 372.065 54.6273 371.479C54.975 370.593 55.3227 369.707 55.354 369.106C55.7174 367.92 56.0965 366.432 56.4599 365.246C56.4756 364.945 56.4756 364.945 56.4913 364.645L56.5069 364.344C56.5069 364.344 56.5069 364.344 56.4913 364.645C57.5501 361.686 58.3082 358.712 59.367 355.753C59.699 355.168 59.7461 354.266 60.0781 353.681C60.4258 352.795 60.4728 351.893 60.8049 351.307C60.8362 350.706 61.1682 350.121 61.2153 349.219C61.563 348.333 61.61 347.431 61.9577 346.545C61.9891 345.944 62.3368 345.058 62.3682 344.457C62.4152 343.555 62.7472 342.97 62.7943 342.068C62.8413 341.166 63.1733 340.581 63.2204 339.679C63.2517 339.078 63.5995 338.192 63.6308 337.591C64.0099 336.104 64.0883 334.601 64.4674 333.114C64.9405 329.823 65.4137 326.533 65.9025 322.942C65.9495 322.04 65.9966 321.138 66.0436 320.236C66.0906 319.335 66.1534 318.132 66.2004 317.231C66.2788 315.728 66.3729 313.924 66.4513 312.422L66.467 312.121C66.4826 311.821 66.4983 311.52 66.5297 310.919C66.5297 310.919 66.5297 310.919 66.514 311.219C66.5454 310.618 66.5924 309.717 66.6238 309.115C66.6238 309.115 66.6238 309.115 66.6081 309.416C66.6238 309.115 66.6551 308.514 66.6708 308.214C66.6708 308.214 66.6708 308.214 66.6865 307.913C66.7649 306.41 66.8433 304.907 66.9217 303.405C67.0471 301 67.1726 298.595 67.298 296.191C67.3607 294.989 67.4078 294.087 67.1698 292.869C67.2012 292.268 67.2326 291.667 67.2482 291.366C67.2796 290.765 67.2953 290.464 67.026 289.848C67.073 288.946 66.8194 288.028 66.8664 287.127C66.9135 286.225 66.6598 285.308 66.4062 284.39C66.184 282.872 65.9617 281.353 65.7394 279.835C65.3106 276.497 64.8817 273.159 64.4529 269.822C64.4685 269.521 64.4842 269.221 64.1992 268.904C64.2149 268.604 63.9143 268.588 63.9143 268.588C63.6293 268.272 62.7273 268.225 62.4109 268.51C62.0946 268.795 61.7626 269.38 61.7469 269.681C61.4148 270.266 61.3992 270.567 61.0671 271.152C61.0515 271.453 60.7351 271.738 60.7038 272.339C60.3717 272.924 60.024 273.81 59.9927 274.411C59.2972 276.183 58.6018 277.955 58.2071 279.743C57.1326 283.002 56.0738 285.961 54.6986 289.204C54.0189 290.676 53.6398 292.163 52.9601 293.635C52.2804 295.106 51.8856 296.894 51.2059 298.365C50.1157 301.925 49.0413 305.184 47.9511 308.744C47.5563 310.532 47.1773 312.019 46.4819 313.791C46.0871 315.579 45.708 317.066 45.3133 318.854C44.9342 320.341 44.5395 322.128 44.4611 323.631C44.414 324.533 44.0663 325.419 44.0193 326.321C43.9879 326.922 43.9409 327.824 43.6089 328.409C43.5618 329.311 43.2298 329.896 43.1828 330.798C43.12 332 43.073 332.902 43.0103 334.104C42.9632 335.006 42.9319 335.607 42.8848 336.509C42.8378 337.41 42.8064 338.012 42.7594 338.913C42.8876 342.235 43.0001 345.858 43.1283 349.18C43.2564 352.502 43.3846 355.824 43.5128 359.145C43.6253 362.768 43.4528 366.074 43.5653 369.697C43.5183 370.598 43.4869 371.2 43.4399 372.101C43.3145 374.506 43.189 376.91 43.0636 379.315C43.0009 380.517 42.9381 381.72 42.8754 382.922C42.8127 384.124 42.75 385.326 42.3866 386.513C42.3395 387.415 41.9918 388.301 41.9448 389.202C41.9291 389.503 41.5971 390.088 41.5814 390.389C41.55 390.99 41.2337 391.275 41.2023 391.876C40.8703 392.462 40.8233 393.363 40.4912 393.949C40.1435 394.835 39.8115 395.42 39.4638 396.306C39.1161 397.192 38.7527 398.379 38.405 399.265C38.0887 399.55 38.073 399.85 37.7566 400.135C37.1396 400.404 36.5226 400.674 36.2063 400.958C34.6559 401.782 33.4062 402.621 32.1408 403.76C30.8754 404.9 29.9264 405.754 28.9616 406.91C28.6453 407.195 28.3289 407.479 28.0126 407.764L27.6963 408.049C25.5132 409.442 23.3301 410.835 20.8464 412.213C19.296 413.036 18.0463 413.875 16.4959 414.698C15.2462 415.537 13.6959 416.36 12.4462 417.199C10.5794 418.308 8.41205 419.4 6.51397 421.109C5.24858 422.249 4.2525 424.005 4.75975 425.84C4.96634 427.659 6.39127 429.24 7.87892 429.619C8.46457 429.951 9.06591 429.983 9.66724 430.014C10.5692 430.061 11.1706 430.093 12.0882 429.839C12.3889 429.855 12.6896 429.87 13.0059 429.585C14.2243 429.348 15.1733 428.493 16.1067 427.939C16.708 427.97 17.3093 428.002 17.61 428.017C18.2113 428.049 18.5277 427.764 19.1447 427.495C19.4454 427.51 19.461 427.21 19.7617 427.225C20.3787 426.956 21.3121 426.402 21.9291 426.133C22.2454 425.848 22.8625 425.579 23.1788 425.294C24.1122 424.74 25.0612 423.885 25.9946 423.331C27.5606 422.207 29.1424 420.783 30.7241 419.358C31.0404 419.074 31.6731 418.504 31.9895 418.219C32.3058 417.934 32.6222 417.649 32.9385 417.364C33.2549 417.079 33.5712 416.795 33.5869 416.494C33.2705 416.779 33.2705 416.779 32.9542 417.064C34.2353 415.624 35.8013 414.5 37.0824 413.06C37.7308 412.189 38.3634 411.62 39.0118 410.749C39.6602 409.879 40.3086 409.009 40.6563 408.123C41.3203 406.952 41.6994 405.464 42.3791 403.993C43.9609 402.569 45.5269 401.445 47.1087 400.02C49.9558 397.456 52.5022 394.877 55.3493 392.313C58.2121 389.448 61.0593 386.884 63.9221 384.02C65.2031 382.58 66.7849 381.155 68.0659 379.715C68.6986 379.145 69.0306 378.56 69.679 377.69C70.3274 376.819 70.9601 376.249 71.6085 375.379C72.5732 374.224 73.5536 372.768 74.5183 371.613C75.483 370.458 76.4477 369.302 77.4125 368.147C78.0608 367.277 78.6935 366.707 79.3419 365.837C79.6583 365.552 79.6739 365.251 79.9746 365.267C80.5916 364.998 81.2086 364.729 81.8256 364.459C82.4427 364.19 83.0597 363.921 83.6767 363.652C84.2937 363.383 84.9107 363.113 85.5277 362.844C86.7617 362.306 87.7108 361.451 88.9605 360.612C89.5775 360.343 89.9095 359.758 90.5265 359.488C90.8429 359.204 91.1592 358.919 91.4756 358.634C91.7919 358.349 92.0926 358.365 92.4089 358.08C93.643 357.541 94.5763 356.987 95.8104 356.449C96.728 356.195 97.3607 355.626 98.2784 355.372C98.8954 355.103 99.2118 354.818 99.8288 354.549C101.078 353.71 102.613 353.187 103.863 352.348C104.179 352.063 104.796 351.794 105.097 351.81C106.03 351.256 106.647 350.986 107.581 350.432C108.514 349.878 109.447 349.324 110.381 348.77C111.314 348.216 112.548 347.678 113.497 346.823C115.048 346 116.297 345.161 117.848 344.337C118.781 343.783 119.73 342.929 120.663 342.375C121.597 341.821 122.546 340.966 123.479 340.412C124.745 339.272 126.311 338.148 127.56 337.309C128.494 336.755 129.142 335.885 130.075 335.331C130.708 334.761 131.341 334.191 132.274 333.637C132.59 333.352 132.907 333.068 133.223 332.783C134.489 331.643 135.438 330.789 136.703 329.649C138.601 327.94 140.499 326.23 142.097 324.505C144.627 322.226 147.158 319.947 149.689 317.668C150.638 316.814 151.286 315.943 152.235 315.089C152.868 314.519 153.2 313.933 153.833 313.364C154.149 313.079 154.165 312.778 154.481 312.493C155.114 311.923 155.762 311.053 156.395 310.483C156.711 310.198 157.043 309.613 157.36 309.328C158.324 308.173 159.289 307.018 160.254 305.862C161.867 303.837 163.781 301.827 165.394 299.801C167.323 297.491 169.253 295.181 170.581 292.839C171.561 291.383 172.256 289.611 172.952 287.839C173.632 286.367 174.026 284.58 174.405 283.093C175.148 280.419 175.59 277.729 176.016 275.34C176.379 274.154 176.758 272.667 176.821 271.464C176.852 270.863 177.184 270.278 177.2 269.977C177.231 269.376 177.579 268.49 177.61 267.889C177.04 267.256 176.787 266.339 175.885 266.292ZM123.431 271.994C123.825 270.207 124.22 268.419 124.599 266.932L124.615 266.631C125.01 264.844 125.404 263.056 126.1 261.284L126.479 259.797C126.842 258.61 127.206 257.423 127.268 256.221C127.995 253.848 128.437 251.158 129.164 248.785C129.527 247.599 129.59 246.396 129.953 245.21C130.301 244.324 130.348 243.422 130.696 242.536C130.711 242.236 131.043 241.65 131.059 241.35C131.075 241.049 131.391 240.764 131.422 240.163C131.754 239.577 131.786 238.976 132.118 238.391C132.481 237.204 132.845 236.018 133.192 235.132C133.571 233.645 133.966 231.857 134.345 230.37C134.74 228.582 135.451 226.509 135.846 224.722L135.861 224.421C135.877 224.12 136.193 223.836 136.209 223.535L136.557 222.649L136.889 222.063C137.237 221.177 137.584 220.291 137.916 219.706L138.233 219.421L138.248 219.121C138.58 218.535 138.612 217.934 138.944 217.349C139.623 215.877 140.319 214.105 140.999 212.634C141.663 211.463 142.026 210.276 142.389 209.089C142.737 208.203 143.1 207.017 143.749 206.146L144.081 205.561L144.097 205.26L144.112 204.96C144.128 204.659 144.429 204.675 144.444 204.374L144.46 204.074C144.808 203.188 145.456 202.318 146.12 201.147C146.452 200.561 146.768 200.276 147.1 199.691C147.433 199.105 147.749 198.82 148.081 198.235C148.729 197.365 149.378 196.494 150.311 195.94C150.327 195.64 150.627 195.655 150.643 195.355C151.276 194.785 151.924 193.915 152.557 193.345C153.205 192.475 153.838 191.905 154.486 191.034C155.135 190.164 155.783 189.294 156.431 188.423L156.763 187.838L157.095 187.253C157.111 186.952 157.427 186.667 157.427 186.667L157.744 186.382C158.091 185.496 158.424 184.911 158.771 184.025C159.119 183.139 159.451 182.553 159.799 181.667C160.146 180.781 160.795 179.911 161.158 178.724L161.838 177.253L162.17 176.667C162.17 176.667 162.17 176.667 162.154 176.968C162.139 177.269 162.139 177.269 162.123 177.569L162.044 179.072C161.997 179.974 161.935 181.176 161.587 182.062C161.524 183.264 161.145 184.751 160.75 186.539L160.719 187.14L160.656 188.343C160.609 189.244 160.262 190.13 160.23 190.731C160.199 191.333 159.851 192.219 159.804 193.12C159.757 194.022 159.409 194.908 159.347 196.11C159.3 197.012 159.253 197.914 159.206 198.815L159.19 199.116C159.159 199.717 159.127 200.318 159.096 200.919C159.033 202.122 158.986 203.023 158.923 204.226L158.876 205.127L158.829 206.029L158.814 206.33L158.798 206.63L158.782 206.931C158.751 207.532 158.735 207.832 158.704 208.434L158.641 209.636L158.61 210.237L158.578 210.838C158.563 211.139 158.563 211.139 158.547 211.439C158.531 211.74 158.516 212.04 158.5 212.341C158.484 212.642 158.152 213.227 158.137 213.528L158.121 213.828C158.105 214.129 158.09 214.429 158.074 214.73L157.742 215.315C157.363 216.802 156.999 217.989 156.62 219.476L156.273 220.362C155.925 221.248 155.577 222.134 155.53 223.036C155.167 224.223 154.487 225.694 154.124 226.881C153.428 228.653 152.733 230.425 152.053 231.896C151.69 233.083 151.041 233.953 150.678 235.14C150.362 235.425 150.33 236.026 150.014 236.311L149.35 237.482C148.686 238.652 148.307 240.14 147.643 241.311C146.947 243.083 146.252 244.855 145.271 246.31C145.256 246.611 144.955 246.595 144.939 246.896C144.623 247.181 144.592 247.782 144.275 248.067C144.26 248.367 143.959 248.352 143.943 248.652C143.627 248.937 143.596 249.538 143.279 249.823C143.279 249.823 143.264 250.124 142.963 250.108C142.963 250.108 142.947 250.409 142.647 250.393C142.33 250.678 142.299 251.279 141.982 251.564L141.904 253.067L141.588 253.351C141.271 253.636 140.939 254.222 140.623 254.507C140.307 254.792 139.975 255.377 139.959 255.678C139.959 255.678 139.943 255.978 139.643 255.963C139.627 256.263 139.326 256.247 139.311 256.548C138.994 256.833 138.662 257.418 138.647 257.719C138.33 258.004 137.998 258.589 137.982 258.89C137.002 260.346 136.322 261.817 135.342 263.273C134.346 265.029 133.666 266.501 132.67 268.257C132.338 268.842 132.006 269.428 131.674 270.013C130.662 272.07 129.35 274.112 128.037 276.153C127.705 276.738 127.373 277.324 126.741 277.893C126.409 278.479 125.776 279.049 125.444 279.634L125.112 280.22L124.795 280.504C123.815 281.96 122.534 283.4 121.554 284.856C121.886 284.271 121.917 283.67 122.233 283.385C122.913 281.913 123.593 280.442 124.273 278.97C124.605 278.385 124.952 277.499 125.284 276.913C125.632 276.027 125.964 275.442 126.612 274.572C127.292 273.1 128.273 271.644 128.952 270.173C129.616 269.002 130.296 267.53 130.96 266.359C131.292 265.774 131.609 265.489 131.64 264.888C131.972 264.303 132.304 263.717 132.335 263.116C132.999 261.945 133.363 260.758 134.027 259.588C134.707 258.116 135.086 256.629 135.765 255.157C136.097 254.572 136.129 253.971 136.445 253.686C136.793 252.8 137.14 251.914 137.488 251.028C137.852 249.841 138.516 248.67 138.879 247.484C139.242 246.297 139.906 245.126 140.27 243.94C140.633 242.753 141.313 241.282 141.676 240.095C143.036 237.152 144.095 234.194 145.454 231.251C145.817 230.064 146.482 228.893 146.845 227.706C147.208 226.52 147.872 225.349 148.236 224.162C149.295 221.204 150.353 218.245 151.428 214.986C152.487 212.027 153.545 209.069 154.589 206.411C154.257 206.996 153.909 207.882 153.577 208.468C152.233 211.11 151.19 213.768 149.862 216.11C148.518 218.752 147.475 221.41 146.131 224.053C145.104 226.41 143.776 228.752 142.748 231.109C142.084 232.28 141.721 233.467 141.057 234.638C140.377 236.109 139.697 237.581 139.017 239.052C139.017 239.052 139.017 239.052 139.002 239.353C138.67 239.938 138.322 240.824 137.974 241.71C137.627 242.596 137.279 243.482 136.931 244.368C136.599 244.954 136.568 245.555 136.236 246.14C135.888 247.026 135.525 248.213 135.177 249.099C134.149 251.457 133.407 254.13 132.38 256.488C132.016 257.674 131.352 258.845 130.989 260.032C130.309 261.503 129.629 262.975 129.25 264.462C128.586 265.633 128.223 266.819 127.543 268.291C126.516 270.648 125.187 272.99 124.176 275.047C123.828 275.933 123.496 276.519 122.848 277.389C122.657 275.269 123.051 273.482 123.431 271.994ZM120.95 180.846C121.282 180.261 121.298 179.96 121.63 179.375L122.641 177.318L123.653 175.261C124.001 174.375 124.349 173.489 124.981 172.919C125.298 172.634 125.329 172.033 125.645 171.748C125.993 170.862 126.641 169.992 126.989 169.106C127.005 168.805 127.321 168.52 127.337 168.22C127.669 167.634 128.017 166.748 128.649 166.178L128.981 165.593C129.63 164.723 129.977 163.837 130.626 162.966C130.942 162.681 130.958 162.381 130.973 162.08L131.29 161.795C132.255 160.64 132.934 159.169 133.899 158.013L134.231 157.428C134.547 157.143 134.579 156.542 134.895 156.257L136.223 153.915C136.872 153.045 137.219 152.159 137.883 150.988L138.532 150.118C138.879 149.232 139.512 148.662 139.86 147.776C140.176 147.491 140.192 147.19 140.524 146.605C140.54 146.304 140.856 146.02 140.872 145.719C140.887 145.418 141.188 145.434 141.204 145.134C141.536 144.548 141.852 144.263 142.184 143.678L142.832 142.807L143.481 141.937C144.129 141.067 144.762 140.497 145.11 139.611L145.742 139.041C147.371 136.715 149.3 134.405 150.629 132.063C150.644 131.762 150.945 131.778 150.961 131.477C151.277 131.192 151.609 130.607 151.941 130.022L153.253 127.98C153.902 127.11 154.249 126.224 154.898 125.354L155.23 124.768L155.878 123.898C156.226 123.012 156.874 122.141 157.222 121.255C157.554 120.67 157.886 120.085 158.234 119.199C158.566 118.613 158.898 118.028 159.23 117.442L160.195 116.287C160.527 115.701 161.175 114.831 161.507 114.246C161.823 113.961 161.839 113.66 162.155 113.375L162.472 113.09L162.456 113.391L162.409 114.293C162.03 115.78 161.967 116.982 161.588 118.469C161.572 118.77 161.557 119.07 161.541 119.371C161.51 119.972 161.178 120.558 161.146 121.159L160.514 121.729L160.166 122.615L160.15 122.915C160.135 123.216 160.119 123.516 160.119 123.516C160.103 123.817 160.103 123.817 160.088 124.117C159.74 125.003 159.709 125.605 159.361 126.491C158.681 127.962 158.302 129.449 157.622 130.921C156.579 133.579 155.536 136.237 154.794 138.911L154.778 139.211C154.415 140.398 154.051 141.584 153.371 143.056L153.039 143.641C153.024 143.942 152.692 144.527 152.375 144.812L151.711 145.983L151.364 146.869C151.348 147.17 151.032 147.455 151.016 147.755L150.684 148.341L150.367 148.625C150.352 148.926 150.035 149.211 150.02 149.511L149.688 150.097C149.356 150.682 149.024 151.268 148.692 151.853L148.36 152.439C148.012 153.325 147.379 153.895 147.032 154.781C146.067 155.936 145.403 157.107 144.754 157.977C143.458 159.718 142.145 161.759 140.848 163.5L139.868 164.955L139.22 165.826C138.571 166.696 138.239 167.282 137.591 168.152L137.275 168.437C136.958 168.722 136.626 169.307 136.31 169.592L135.013 171.333L134.064 172.187L133.416 173.058C133.099 173.343 132.767 173.928 132.451 174.213L131.834 174.482C131.502 175.067 130.885 175.337 130.553 175.922C130.221 176.508 129.604 176.777 129.272 177.362L128.639 177.932L128.006 178.502C128.006 178.502 127.991 178.802 127.69 178.787L127.374 179.072C126.741 179.641 126.409 180.227 125.776 180.797C125.46 181.081 125.128 181.667 124.812 181.952L124.48 182.537C124.148 183.123 123.831 183.408 123.499 183.993C123.831 183.408 124.163 182.822 124.195 182.221C124.527 181.635 124.874 180.749 125.206 180.164C125.523 179.879 125.538 179.579 125.855 179.294C126.171 179.009 126.202 178.408 126.519 178.123C127.183 176.952 127.831 176.082 128.796 174.926C129.46 173.755 130.425 172.6 131.089 171.429C132.069 169.973 133.05 168.518 134.331 167.078C135.311 165.622 136.291 164.166 136.971 162.695C136.987 162.394 137.287 162.41 137.303 162.109C137.635 161.524 137.967 160.938 138.299 160.353C138.631 159.767 138.963 159.182 139.612 158.311C139.944 157.726 140.592 156.856 140.924 156.27C141.256 155.685 141.889 155.115 142.237 154.229C142.553 153.944 142.569 153.644 142.885 153.359C143.201 153.074 143.217 152.773 143.533 152.488C143.865 151.903 144.182 151.618 144.814 151.048C145.779 149.893 146.744 148.738 147.709 147.583C148.689 146.127 149.654 144.972 150.935 143.531C149.337 145.256 147.424 147.266 145.525 148.976L145.209 149.261C144.893 149.545 144.893 149.545 144.576 149.83C144.576 149.83 144.576 149.83 144.26 150.115L143.944 150.4C142.678 151.54 141.714 152.695 140.448 153.834C140.132 154.119 139.816 154.404 139.499 154.689C139.183 154.974 138.851 155.559 138.534 155.844C138.202 156.43 137.57 156.999 137.238 157.585C136.257 159.041 135.277 160.496 134.297 161.952C133.316 163.408 132.336 164.864 131.34 166.62C130.359 168.076 129.695 169.247 128.715 170.703C127.734 172.158 126.754 173.614 125.774 175.07C125.457 175.355 125.426 175.956 125.11 176.241C124.793 176.526 124.777 176.826 124.445 177.412C124.129 177.697 124.113 177.997 123.797 178.282C123.481 178.567 123.449 179.168 123.133 179.453C122.785 180.339 122.438 181.225 122.09 182.111C121.742 182.997 121.41 183.583 121.062 184.469C120.715 185.355 120.383 185.94 120.035 186.826C120.035 186.826 120.035 186.826 120.019 187.127C120.082 185.924 120.16 184.422 119.923 183.204C119.954 182.602 119.985 182.001 120.017 181.4C120.919 181.447 120.934 181.147 120.95 180.846ZM93.1346 188.135C92.8653 187.518 92.881 187.218 92.6117 186.601C92.358 185.684 91.7881 185.051 91.5344 184.134L91.2495 183.818C90.9645 183.501 90.9645 183.501 90.6795 183.185C90.3945 182.869 90.1095 182.552 89.8245 182.236C88.7003 180.671 87.5603 179.406 86.4204 178.141C84.1562 175.31 82.1769 172.796 79.9127 169.965C80.182 170.582 80.4513 171.199 81.0213 171.831C81.3063 172.147 81.2906 172.448 81.5599 173.065C82.1142 173.998 82.6685 174.931 83.2228 175.864C83.7771 176.797 84.3314 177.73 85.1707 178.98C85.7406 179.612 86.2949 180.545 86.5642 181.162C87.1342 181.794 87.4035 182.411 87.9578 183.344C88.5278 183.977 89.0821 184.91 89.652 185.542C90.222 186.175 90.4913 186.792 90.7449 187.709C91.0142 188.326 91.2992 188.642 91.5685 189.259C91.5529 189.56 91.8378 189.876 91.8222 190.177C91.8222 190.177 91.8222 190.177 91.8065 190.477C91.7908 190.778 92.0758 191.094 92.3765 191.11C92.3765 191.11 92.3765 191.11 92.6771 191.125C92.6301 192.027 92.2824 192.913 92.2353 193.815C92.204 194.416 92.1569 195.318 92.1256 195.919C91.8563 195.302 91.587 194.685 91.3177 194.068C91.0484 193.451 90.779 192.835 90.2091 192.202L90.2248 191.901C90.2248 191.901 90.2404 191.601 89.9398 191.585L89.9554 191.285L89.6705 190.968C88.5619 189.102 87.4533 187.236 86.329 185.671C85.4897 184.421 84.6505 183.172 83.8112 181.923C82.9719 180.673 82.4333 179.44 81.594 178.19C81.309 177.874 81.0397 177.257 80.7704 176.64C79.6618 174.774 78.5533 172.908 77.144 171.026C76.8747 170.409 76.3047 169.777 75.7348 169.144C75.1648 168.512 74.8798 168.196 74.3098 167.563C73.7399 166.931 73.1542 166.599 72.5842 165.966C72.2992 165.65 71.7136 165.318 71.4286 165.002C70.558 164.353 69.703 163.405 68.848 162.456C67.6924 161.491 66.5525 160.226 65.3969 159.262C63.9562 157.981 62.4999 157.001 61.3443 156.037C60.4737 155.389 59.603 154.74 58.7324 154.092L58.1468 153.76C57.8618 153.444 57.5611 153.428 57.2761 153.112L56.9911 152.796L56.7061 152.48C57.0068 152.495 57.2918 152.811 57.8931 152.843C59.9664 153.554 62.0397 154.265 64.683 155.608C65.5693 155.956 66.44 156.604 67.3263 156.952C68.2126 157.299 69.0832 157.947 69.6689 158.279L69.9696 158.295L70.2702 158.311L70.5552 158.627C70.8559 158.643 71.1409 158.959 71.4259 159.275C71.4259 159.275 71.7265 159.291 71.7108 159.591C72.5815 160.24 73.1671 160.572 74.0378 161.22C74.6234 161.552 75.1934 162.184 75.4784 162.5C76.349 163.149 77.204 164.097 78.0746 164.746L79.5152 166.026C80.1009 166.358 80.6709 166.991 80.9558 167.307C81.8108 168.256 82.3651 169.189 82.9351 169.821L83.2201 170.138L83.505 170.454C84.3443 171.703 85.4843 172.968 86.6085 174.534C86.8935 174.85 87.1628 175.467 87.7485 175.799C88.0335 176.115 88.3028 176.732 88.8884 177.064L90.0284 178.329L90.3134 178.645C91.1526 179.894 92.2926 181.159 93.4325 182.424C93.7175 182.741 94.0025 183.057 94.2875 183.373C94.5725 183.689 94.5725 183.689 94.8574 184.006C93.8771 185.462 93.5137 186.648 93.1346 188.135ZM101.659 111.425L101.674 111.124C102.038 109.938 102.385 109.052 102.448 107.849C102.464 107.549 102.796 106.963 102.812 106.663C102.827 106.362 103.159 105.777 103.175 105.476L103.191 105.176C103.523 104.59 103.57 103.689 103.902 103.103C103.933 102.502 104.249 102.217 104.281 101.616C104.297 101.315 104.613 101.03 104.613 101.03C104.644 100.429 104.961 100.144 105.293 99.559C105.293 99.559 105.293 99.559 105.308 99.2584C105.324 98.9578 105.324 98.9578 105.64 98.673C105.957 98.3881 105.988 97.7869 106.304 97.5021C106.32 97.2015 106.621 97.2172 106.636 96.9166L106.652 96.616L106.984 96.0306C106.984 96.0306 106.984 96.0306 107 95.73C107 95.73 107 95.73 107.015 95.4295C107.031 95.1289 107.332 95.1446 107.347 94.844C107.363 94.5434 107.68 94.2585 107.695 93.958C107.711 93.6574 108.027 93.3725 108.043 93.0719L108.691 92.2016C108.691 92.2016 108.707 91.901 109.008 91.9167C109.023 91.6162 109.324 91.6318 109.34 91.3313C109.355 91.0307 109.656 91.0464 109.672 90.7458C109.988 90.4609 110.32 89.8755 110.636 89.5906L110.953 89.3057C111.285 88.7203 111.601 88.4354 111.933 87.8499C112.249 87.565 112.249 87.565 112.566 87.2802L112.882 86.9953L113.199 86.7104C113.214 86.4098 113.515 86.4255 113.831 86.1406L114.464 85.5709C114.78 85.286 115.112 84.7005 115.729 84.4313C116.046 84.1464 116.362 83.8616 116.678 83.5767L116.995 83.2918C117.311 83.0069 117.627 82.722 117.944 82.4371L118.26 82.1523C118.576 81.8674 118.893 81.5825 118.893 81.5825C119.209 81.2976 119.826 81.0284 120.142 80.7435L120.775 80.1738L121.408 79.604C121.408 79.604 121.724 79.3191 122.025 79.3348L122.341 79.0499L122.658 78.765C123.591 78.2109 124.524 77.6569 125.442 77.4033C126.375 76.8493 127.594 76.6114 128.527 76.0574C130.378 75.2498 132.53 74.4579 134.381 73.6503C134.998 73.3811 135.314 73.0962 135.916 73.1275C137.45 72.6048 138.7 71.7659 140.235 71.2432C140.551 70.9583 141.152 70.9896 141.469 70.7048C141.769 70.7205 142.086 70.4356 142.386 70.4513C142.371 70.7518 142.07 70.7361 142.054 71.0367C141.105 71.8914 140.457 72.7617 139.808 73.632C138.844 74.7872 137.895 75.6419 137.231 76.8128C136.598 77.3826 136.266 77.968 135.633 78.5378C134.684 79.3924 134.036 80.2628 133.387 81.1331C132.739 82.0035 132.106 82.5732 131.458 83.4435L130.177 84.8837C129.212 86.0389 128.248 87.1941 126.982 88.3336L125.701 89.7737C124.736 90.929 123.772 92.0842 122.807 93.2394L122.491 93.5243C121.858 94.094 121.21 94.9644 120.577 95.5341L119.881 97.3062C119.549 97.8916 118.917 98.4614 118.6 98.7463C117.651 99.601 117.003 100.471 116.355 101.342C115.706 102.212 114.757 103.067 114.109 103.937C113.46 104.807 112.812 105.678 112.179 106.247L112.164 106.548C111.515 107.418 110.867 108.289 110.234 108.858C109.586 109.729 108.937 110.599 108.273 111.77L107.957 112.055C107.941 112.355 107.625 112.64 107.625 112.64C107.309 112.925 106.977 113.511 106.66 113.796C106.66 113.796 106.645 114.096 106.344 114.08C105.696 114.951 105.032 116.122 104.383 116.992C104.067 117.277 103.735 117.862 103.719 118.163L103.403 118.448C103.086 118.733 103.071 119.033 102.754 119.318C102.754 119.318 102.754 119.318 102.739 119.619L102.723 119.919L102.707 120.22C103.071 119.033 103.118 118.132 103.465 117.245C103.481 116.945 103.813 116.359 103.829 116.059C103.845 115.758 104.177 115.173 104.192 114.872C104.208 114.572 104.524 114.287 104.556 113.686C105.251 111.914 106.231 110.458 107.212 109.002C107.544 108.417 107.86 108.132 108.192 107.546C108.524 106.961 108.856 106.375 109.489 105.806C110.137 104.935 111.102 103.78 111.75 102.91C112.399 102.039 113.032 101.47 113.68 100.599C114.328 99.729 114.977 98.8586 115.625 97.9883C116.906 96.5482 117.902 94.7918 118.898 93.0355C117.633 94.175 116.367 95.3146 115.086 96.7547C114.454 97.3244 113.821 97.8942 113.489 98.4796C112.856 99.0494 112.224 99.6192 111.907 99.9041C111.591 100.189 111.275 100.474 110.958 100.759C110.009 101.613 109.361 102.484 108.412 103.338C107.763 104.209 107.115 105.079 106.15 106.234C105.502 107.105 104.838 108.275 104.19 109.146C103.857 109.731 103.525 110.317 103.193 110.902C102.861 111.488 102.545 111.773 102.514 112.374C102.182 112.959 101.85 113.545 101.818 114.146C101.803 114.446 101.486 114.731 101.471 115.032C101.455 115.332 101.139 115.617 101.123 115.918C101.107 116.218 101.107 116.218 100.791 116.503C100.553 115.285 100.948 113.497 101.659 111.425ZM58.4506 61.2503C58.1499 61.2346 58.1656 60.934 57.8649 60.9183C57.5799 60.6021 57.5956 60.3015 57.3106 59.9852C57.0257 59.669 56.7407 59.3527 56.4557 59.0365C55.8857 58.404 55.6164 57.7871 55.0464 57.1546C55.0464 57.1546 55.0464 57.1546 55.0621 56.8541C54.4921 56.2216 54.2072 55.9053 53.9222 55.5891L53.6372 55.2728C52.4972 54.0078 51.3416 53.0433 50.2017 51.7783C49.6317 51.1458 49.0617 50.5133 48.1911 49.8651C47.3204 49.2169 47.0355 48.9007 46.1648 48.2525C45.5948 47.62 44.7242 46.9718 44.1542 46.3393C43.5686 46.0073 43.2993 45.3905 42.7136 45.0586L42.4286 44.7423C41.843 44.4104 41.5737 43.7935 40.988 43.4616L40.1331 42.5128C39.8481 42.1966 39.5631 41.8803 38.9774 41.5484L38.4075 40.9159L36.9825 39.3346C36.4126 38.7021 36.1276 38.3858 35.5576 37.7533C35.2726 37.4371 35.2726 37.4371 34.9876 37.1208C33.5627 35.5396 32.4384 33.974 31.5992 32.7246C30.7442 31.7759 30.4906 30.8585 29.9206 30.226C29.667 29.3086 29.097 28.6761 28.8434 27.7587C28.3204 26.2245 27.7975 24.6902 27.2903 22.8555L27.021 22.2386C27.0523 21.6375 26.783 21.0207 26.8144 20.4195L26.5451 19.8027L26.2758 19.1859C26.2914 18.8853 26.2914 18.8853 26.3071 18.5848C26.3228 18.2842 26.0378 17.9679 26.0535 17.6674C26.0849 17.0662 25.7999 16.75 25.8312 16.1488C25.8626 15.5477 25.5776 15.2314 25.609 14.6303L25.6403 14.0292C25.6874 13.1275 25.4181 12.5106 25.4651 11.6089L25.5121 10.7072L25.5592 9.80552L25.0363 8.2713C25.099 7.06902 25.1617 5.86675 24.9237 4.64879L24.9394 4.34822C24.9394 4.34822 24.9394 4.34822 25.2401 4.3639C25.2087 4.96504 25.7944 5.29698 26.0794 5.61324C26.6493 6.24574 27.235 6.57768 27.805 7.21019L28.3906 7.54213C29.5462 8.50658 30.4012 9.45534 31.5412 10.7204L31.8261 11.0366C32.9661 12.3016 34.1217 13.2661 35.2617 14.5311C36.1166 15.4799 36.9872 16.1281 37.5415 17.0611L38.6972 18.0256L38.9822 18.3418C39.8528 18.99 40.7077 19.9388 41.5627 20.8876L41.8477 21.2038C42.117 21.8206 42.402 22.1369 42.687 22.4531L42.972 22.7694C43.2413 23.3862 43.8269 23.7182 44.0962 24.335L44.6505 25.2681L44.9355 25.5843C45.2048 26.2011 45.5055 26.2168 45.4898 26.5174C46.0441 27.4505 46.3134 28.0673 46.8677 29.0004C47.1527 29.3166 47.422 29.9334 47.4063 30.234C47.6913 30.5503 47.9763 30.8665 48.2456 31.4833C48.5149 32.1002 48.7842 32.717 49.0535 33.3338C49.0378 33.6344 49.3228 33.9506 49.3228 33.9506C49.8614 35.1843 50.4 36.4179 50.9386 37.6516L51.4772 38.8852C51.7622 39.2015 51.7466 39.502 52.0315 39.8183C52.3008 40.4351 52.8551 41.3682 53.1088 42.2856C53.3938 42.6019 53.3624 43.203 53.6474 43.5192C54.471 45.0691 54.9939 46.6034 55.8175 48.1533C56.0711 49.0707 56.6411 49.7032 56.8947 50.6206C57.687 52.7716 58.4949 54.6221 59.3028 56.4725C58.7485 55.5395 58.2099 54.3058 57.6556 53.3727C57.1013 52.4396 56.832 51.8228 56.2777 50.8897C55.7234 49.9567 55.1535 49.3242 54.5992 48.3911C53.4749 46.8255 52.0656 44.9437 50.9414 43.3781C49.8171 41.8125 48.6928 40.2469 47.5843 38.3807C46.46 36.8152 45.3514 34.949 44.2272 33.3834C43.9578 32.7666 43.6729 32.4503 43.1029 31.8178C42.8022 31.8021 42.5329 31.1853 42.2479 30.8691C41.9629 30.5528 41.678 30.2366 41.393 29.9203C41.108 29.6041 40.8387 28.9872 40.253 28.6553C39.968 28.339 39.6831 28.0228 39.0974 27.6908C38.8124 27.3746 38.5274 27.0583 37.9418 26.7264C37.3875 25.7933 36.5168 25.1451 35.6462 24.4969L35.9312 24.8132C36.2005 25.43 36.4855 25.7463 36.7705 26.0625C37.3404 26.695 37.8947 27.6281 38.4647 28.2606C38.7497 28.5769 39.019 29.1937 39.304 29.5099C39.5733 30.1268 39.8583 30.443 40.1276 31.0598C40.3969 31.6767 40.6819 31.9929 40.9512 32.6097C41.8061 33.5585 42.3761 34.191 42.6297 35.1084C43.184 36.0415 43.754 36.674 44.3083 37.6071C44.8626 38.5401 45.4169 39.4732 45.9869 40.1057C46.8104 41.6556 47.9504 42.9207 48.774 44.4706L49.059 44.7868C50.1832 46.3524 51.5925 48.2342 52.7168 49.7998C53.2867 50.4323 53.841 51.3654 54.411 51.9979C54.3953 52.2985 54.696 52.3142 54.6803 52.6147C55.8046 54.1803 56.6125 56.0308 57.7367 57.5964C58.2754 58.83 59.1303 59.7788 59.6689 61.0124L59.9539 61.3287C59.6689 61.0124 59.6689 61.0124 59.3839 60.6962C59.3839 60.6962 59.0833 60.6805 59.0676 60.9811C59.0519 61.2816 58.7513 61.2659 58.4506 61.2503ZM85.1378 110.262C84.5678 109.629 84.2985 109.012 83.7285 108.38C83.1585 107.747 82.6042 106.814 82.0343 106.182C81.4643 105.549 81.195 104.932 80.625 104.3L80.34 103.984C79.7857 103.051 79.2158 102.418 78.6615 101.485C78.1229 100.251 77.2679 99.3025 76.7293 98.0689C76.175 97.1358 75.9057 96.519 75.3514 95.5859C75.0978 94.6685 74.5278 94.036 74.2742 93.1186L74.0049 92.5018C73.7356 91.885 73.4663 91.2681 73.4976 90.667C73.244 89.7496 72.9904 88.8322 72.7211 88.2154C72.2138 86.3806 72.0072 84.5615 71.785 83.043C71.5784 81.2239 71.3718 79.4048 71.1495 77.8863C70.9429 76.0672 70.7363 74.2481 70.8304 72.4446L70.8461 72.1441C70.6238 70.6255 70.7179 68.8221 70.5113 67.003C70.3048 65.1839 70.4145 63.0799 70.5086 61.2765C70.5556 60.3748 70.6184 59.1726 70.3647 58.2552C70.3961 57.654 70.4275 57.0529 70.4745 56.1512C70.4745 56.1512 70.4745 56.1512 70.4902 55.8506C70.5372 54.9489 70.5686 54.3478 70.315 53.4304C70.362 52.5287 70.3934 51.9275 70.4404 51.0258C70.4718 50.4247 70.5188 49.523 70.5502 48.9218C70.6286 47.419 70.6913 46.2167 70.7383 45.315C70.7854 44.4133 70.8167 43.8122 71.1644 42.9261C71.2115 42.0244 71.2428 41.4233 71.5905 40.5373C71.6689 39.0344 71.7473 37.5316 72.1107 36.345L72.1264 36.0444C72.1734 35.1427 72.2205 34.241 72.2832 33.0387C72.2832 33.0387 72.2832 33.0387 72.2675 33.3393L72.2519 33.6399L72.5212 34.2567C73.0441 35.7909 73.8834 37.0402 74.4063 38.5745C74.9449 39.8081 75.4835 41.0418 76.0221 42.2754C76.5607 43.509 77.0994 44.7427 77.6223 46.2769C78.1452 47.8111 78.9688 49.361 79.4917 50.8952C79.4761 51.1958 79.7767 51.2115 79.7611 51.5121C79.7454 51.8126 80.046 51.8283 80.0304 52.1289L80.2997 52.7457C80.5847 53.062 80.5533 53.6631 80.8383 53.9794L79.9206 54.2329C80.1742 55.1503 80.4279 56.0677 80.6815 56.985L80.9508 57.6019C80.9351 57.9024 80.9351 57.9024 80.9194 58.203C81.1887 58.8198 81.1417 59.7215 81.411 60.3384C81.8555 63.3754 82.6007 66.4282 83.0453 69.4652L83.0296 69.7658C83.4898 72.5023 83.95 75.2388 84.3945 78.2758C84.6168 79.7944 84.5384 81.2972 84.7607 82.8157C84.7136 83.7174 84.6823 84.3186 84.6352 85.2203C84.6039 85.8214 84.5725 86.4226 84.5411 87.0237C84.4784 88.226 84.4314 89.1277 84.6693 90.3457L84.6066 91.5479C84.5596 92.4496 84.5282 93.0508 84.7818 93.9682C84.7505 94.5693 84.7034 95.471 84.9727 96.0878C84.9414 96.689 85.195 97.6064 85.1636 98.2075C84.8943 97.5907 84.9257 96.9895 84.6721 96.0721C83.9425 92.7188 82.928 89.0493 82.1985 85.6959C81.6913 83.8612 81.1997 81.7258 80.6924 79.891C79.44 75.0035 77.8869 70.1003 76.6344 65.2128C76.7783 68.2341 76.9222 71.2555 77.3667 74.2926C77.3353 74.8937 77.6046 75.5105 77.589 75.8111C77.7642 78.2313 78.2244 80.9678 78.7003 83.4037C79.1605 86.1402 79.9371 88.5918 80.3973 91.3283C81.6497 96.2159 82.9022 101.103 84.4553 106.007C84.9939 107.24 85.2318 108.458 85.7704 109.692C86.0241 110.609 86.2777 111.527 86.832 112.46C86.8163 112.76 86.8006 113.061 87.0856 113.377C86.2463 112.128 85.692 111.195 85.1378 110.262ZM87.8418 139.336C87.5411 139.32 87.2561 139.004 86.6548 138.973C86.0691 138.641 85.4678 138.609 84.5815 138.262C82.8089 137.566 81.0205 137.172 79.2479 136.476L78.0609 136.113C75.9876 135.402 74.1993 135.008 72.7273 134.328L71.841 133.98C70.369 133.301 68.5964 132.605 66.8081 132.211C65.6211 131.847 64.1334 131.468 62.9464 131.105C61.7595 130.742 60.2718 130.363 59.0848 130C57.8978 129.636 56.4102 129.257 54.9225 128.878C54.6219 128.863 54.3212 128.847 54.0362 128.531C53.1499 128.183 52.2479 128.136 51.6622 127.804C50.7759 127.456 50.1746 127.425 49.5889 127.093C48.7026 126.745 47.8163 126.398 47.2306 126.066C46.645 125.734 46.0437 125.703 45.7587 125.386L45.173 125.054L44.5874 124.722C44.2867 124.707 43.986 124.691 43.7011 124.375C43.4004 124.359 43.1154 124.043 43.1154 124.043C42.5297 123.711 42.2291 123.695 41.6434 123.363C41.3428 123.348 41.0578 123.031 41.0578 123.031C40.4721 122.699 40.1871 122.383 39.5858 122.352C39.0002 122.02 38.1295 121.372 37.5439 121.04C36.9582 120.708 36.3726 120.376 35.8026 119.743C35.5176 119.427 34.9319 119.095 34.3463 118.763L33.7606 118.431C33.7606 118.431 33.46 118.416 33.4757 118.115C32.89 117.783 32.605 117.467 32.0194 117.135L31.7187 117.119L31.418 117.104L31.7187 117.119C32.32 117.151 32.6364 116.866 33.2377 116.897C34.4561 116.659 35.6744 116.421 36.8927 116.184C37.8104 115.93 39.0288 115.692 39.9465 115.439C40.5635 115.17 41.1648 115.201 42.0825 114.947C43.6015 114.725 45.1205 114.503 46.6395 114.281L46.9402 114.297C47.5415 114.328 48.1585 114.059 49.0605 114.106C49.9625 114.153 50.5639 114.184 51.4659 114.231C52.0672 114.263 52.9692 114.31 53.5705 114.341C54.1719 114.373 55.0739 114.42 55.6752 114.451C56.5772 114.498 57.4792 114.545 58.0648 114.877C58.6662 114.908 59.2675 114.94 59.8532 115.272C60.4545 115.303 61.3408 115.651 62.2428 115.698C62.5435 115.713 62.8441 115.729 63.1291 116.045C63.4298 116.061 64.0154 116.393 64.3161 116.409L64.6168 116.424C65.5031 116.772 66.0887 117.104 66.9751 117.452C67.2757 117.467 67.5607 117.784 67.8614 117.799C68.1621 117.815 68.447 118.131 68.7477 118.147L69.0327 118.463L69.9033 119.111C70.204 119.127 70.489 119.443 70.774 119.759L71.0746 119.775C71.9453 120.423 72.5152 121.056 73.4016 121.403C74.2722 122.052 74.8579 122.384 75.7285 123.032C76.2985 123.664 77.1848 124.012 77.7548 124.644L78.0397 124.961C78.9104 125.609 79.4804 126.241 80.351 126.89C81.206 127.838 82.3773 128.502 83.2322 129.451C83.8179 129.783 84.0872 130.4 84.6728 130.732C85.8128 131.997 86.9684 132.961 88.124 133.926C88.979 134.874 89.8339 135.823 90.6889 136.772C90.9739 137.088 91.2589 137.404 91.5439 137.721C90.6732 137.072 89.7869 136.725 89.2169 136.092C89.2169 136.092 89.2169 136.092 89.5176 136.108C88.9319 135.776 88.0613 135.128 87.4757 134.796C86.89 134.464 86.3043 134.132 85.7187 133.8C84.5474 133.136 83.3918 132.172 82.2205 131.508C81.9355 131.192 81.6348 131.176 81.0492 130.844C80.7485 130.828 80.4635 130.512 80.1628 130.496C79.5772 130.164 78.9915 129.833 78.1052 129.485C76.9182 129.122 75.7312 128.758 74.5443 128.395C74.2436 128.379 73.9429 128.364 73.3573 128.032C73.0566 128.016 72.7559 128 72.1546 127.969C71.5533 127.938 70.6513 127.891 70.0656 127.559C70.667 127.59 71.2526 127.922 72.1389 128.269C72.7246 128.601 73.3259 128.633 74.2122 128.98C74.7979 129.312 75.3992 129.344 75.6842 129.66C76.2699 129.992 76.5705 130.008 77.1562 130.34C77.7418 130.671 78.3275 131.003 78.6125 131.32C79.1981 131.652 79.7838 131.984 80.3537 132.616C80.9394 132.948 81.5094 133.581 82.095 133.912C83.2506 134.877 84.1213 135.525 85.2769 136.49C87.0182 137.786 88.7751 138.782 90.5164 140.078C88.4274 139.668 88.1268 139.652 87.8418 139.336ZM105.955 260.233C105.416 258.999 105.194 257.481 104.656 256.247L104.402 255.33L104.418 255.029L104.433 254.728C103.91 253.194 103.372 251.961 103.149 250.442C102.896 249.525 102.627 248.908 102.373 247.99C102.119 247.073 101.85 246.456 101.596 245.539C101.327 244.922 101.073 244.005 100.804 243.388C100.535 242.771 100.281 241.854 100.028 240.936C100.028 240.936 100.028 240.936 100.043 240.636C100.059 240.335 100.059 240.335 100.075 240.035L100.09 239.734C99.868 238.215 99.3451 236.681 99.1228 235.163C98.9006 233.644 98.6783 232.126 98.1554 230.591L98.1867 229.99L98.2181 229.389L98.2338 229.089C98.0115 227.57 97.7892 226.051 97.567 224.533C97.3447 223.014 97.1381 221.195 96.9315 219.376L96.9472 219.076L96.9629 218.775C97.0099 217.873 96.7563 216.956 96.8033 216.054C95.7104 213.888 95.8202 211.784 95.6293 209.664C95.645 209.363 95.6763 208.762 95.692 208.462C95.7861 206.658 95.5795 204.839 95.6893 202.735C95.7677 201.232 95.8304 200.03 95.9245 198.227C95.9402 197.926 95.9715 197.325 95.9872 197.024C96.0499 195.822 96.1126 194.62 96.1754 193.417C96.2224 192.516 96.2538 191.915 96.3008 191.013C96.3478 190.111 96.3792 189.51 96.7269 188.624C97.1217 186.836 97.5007 185.349 97.8798 183.862C98.2745 182.074 98.6536 180.587 99.0484 178.799C99.0954 177.898 99.4274 177.312 99.4745 176.411C99.8222 175.525 99.8692 174.623 100.217 173.737C100.612 171.949 100.991 170.462 101.37 168.975C101.718 168.089 101.749 167.488 102.081 166.902C102.097 166.602 102.097 166.602 102.413 166.317C102.429 166.016 102.761 165.431 102.776 165.13C103.14 163.943 103.804 162.773 104.483 161.301C105.163 159.83 105.859 158.058 106.538 156.586C107.218 155.115 107.613 153.327 108.293 151.855C109.367 148.596 110.442 145.337 111.532 141.777C112.227 140.005 112.606 138.518 112.985 137.031C113.364 135.544 113.743 134.057 114.122 132.569L114.107 132.87C114.376 133.487 114.345 134.088 114.614 134.705C114.598 135.005 114.883 135.322 114.868 135.622L114.852 135.923C115.09 137.141 115.344 138.058 115.581 139.276C115.835 140.193 116.073 141.411 116.026 142.313L115.995 142.914C116.248 143.832 116.201 144.733 116.455 145.651C116.709 146.568 116.646 147.77 116.899 148.688L116.884 148.988L116.868 149.289C116.852 149.59 116.837 149.89 116.837 149.89C116.821 150.191 116.805 150.491 116.79 150.792C116.774 151.092 116.774 151.092 116.758 151.393C116.727 151.994 116.996 152.611 116.949 153.513C116.902 154.414 117.14 155.632 117.077 156.835C117.062 157.135 117.046 157.436 117.015 158.037L116.921 159.84C117.08 162.561 116.923 165.567 117.067 168.588C117.02 169.49 117.274 170.407 117.227 171.309C117.195 171.91 117.449 172.827 117.418 173.429C117.64 174.947 117.546 176.75 117.752 178.57C118.56 180.42 118.435 182.825 118.309 185.229C118.262 186.131 118.2 187.333 118.153 188.235C118.106 189.137 118.059 190.038 118.012 190.94C117.996 191.241 117.964 191.842 117.949 192.142C117.839 194.246 118.046 196.065 117.936 198.169L117.92 198.47C117.748 201.776 117.575 205.082 117.086 208.674C117.039 209.575 116.992 210.477 116.945 211.379C116.93 211.679 116.914 211.98 116.898 212.28C116.867 212.882 116.835 213.483 116.82 213.783C116.804 214.084 116.788 214.384 116.773 214.685C116.741 215.286 116.726 215.587 116.694 216.188C116.679 216.488 116.647 217.09 116.632 217.39C116.616 217.691 116.6 217.991 116.585 218.292C116.585 218.292 116.585 218.292 116.569 218.592C116.553 218.893 116.538 219.193 116.506 219.795L116.491 220.095C116.111 221.582 116.033 223.085 115.654 224.572C114.912 227.246 114.454 230.236 113.712 232.91L112.716 234.666C112.336 236.153 111.973 237.34 111.895 238.843L111.848 239.745L111.816 240.346C111.785 240.947 111.453 241.532 111.422 242.133C111.374 243.035 111.027 243.921 110.98 244.823C110.585 246.611 110.507 248.113 110.428 249.616C110.413 249.917 110.381 250.518 110.35 251.119C110.334 251.42 110.303 252.021 110.287 252.321C110.287 252.321 110.287 252.321 110.271 252.622C110.24 253.223 110.224 253.524 110.193 254.125C110.209 253.824 110.24 253.223 110.256 252.923C110.253 247.196 109.95 241.454 109.345 235.696L109.361 235.395C109.361 235.395 109.361 235.395 109.345 235.696C109.361 235.395 109.377 235.095 109.393 234.794L109.408 234.494C109.408 234.494 109.408 234.494 109.424 234.193C109.424 234.193 109.424 234.193 109.408 234.494C109.455 233.592 109.186 232.975 109.233 232.073C109.233 232.073 109.233 232.073 109.217 232.374C109.042 229.954 108.883 227.233 108.707 224.813C108.485 223.294 108.548 222.092 108.626 220.589C108.705 219.086 108.467 217.868 108.545 216.365C108.623 214.863 108.401 213.344 108.48 211.841C108.542 210.639 108.621 209.136 108.683 207.934C108.84 204.928 108.981 202.223 109.439 199.233C109.596 196.227 110.037 193.538 110.194 190.532C110.351 187.526 110.492 184.821 110.649 181.816C110.727 180.313 111.106 178.826 111.185 177.323C111.564 175.836 111.627 174.633 112.006 173.146C112.385 171.659 112.463 170.156 112.542 168.653C112.62 167.151 112.698 165.648 112.777 164.145C112.382 165.933 111.987 167.72 111.608 169.207C111.245 170.394 110.881 171.581 110.534 172.467C110.186 173.353 109.823 174.539 109.475 175.425C109.143 176.011 109.096 176.912 108.764 177.498C108.432 178.083 108.385 178.985 108.053 179.571C107.674 181.058 107.295 182.545 107.232 183.747C106.774 186.737 106.333 189.427 106.176 192.432C106.097 193.935 106.019 195.438 105.956 196.64C105.878 198.143 105.799 199.646 105.737 200.848C105.58 203.854 105.423 206.86 105.583 209.58C105.727 212.602 105.57 215.607 105.714 218.629C105.635 220.132 105.873 221.35 105.795 222.852C105.716 224.355 105.954 225.573 106.177 227.092C106.32 230.113 106.765 233.15 107.209 236.187C107.67 238.924 107.829 241.645 108.289 244.381C108.242 245.283 108.496 246.2 108.433 247.402C108.371 248.605 108.624 249.522 108.561 250.724C108.752 252.844 108.658 254.647 108.849 256.767C108.993 259.789 109.153 262.509 109.597 265.546C109.566 266.148 109.835 266.764 109.804 267.365C109.772 267.967 109.741 268.568 109.409 269.153L109.378 269.754L109.362 270.055C109.378 269.754 109.378 269.754 109.393 269.454C109.409 269.153 109.425 268.853 109.14 268.536C109.171 267.935 108.886 267.619 108.917 267.018C106.907 265.105 106.732 262.684 105.955 260.233ZM83.2184 331.982C83.2341 331.682 82.9491 331.365 82.9805 330.764L83.2812 330.78C83.2812 330.78 83.2812 330.78 83.5818 330.796L83.2184 331.982ZM80.7108 316.481C80.4885 314.962 80.2819 313.143 79.7747 311.308C79.5681 309.489 79.0765 307.354 78.87 305.535C78.6477 304.016 78.4097 302.798 77.8868 301.264L77.6332 300.347C77.1259 298.512 76.9037 296.993 76.3964 295.159C75.6512 292.106 75.2224 288.768 74.5399 284.513C74.3333 282.694 74.1267 280.875 73.9045 279.356C73.6979 277.537 73.4913 275.718 73.2847 273.899C73.3004 273.599 73.3317 272.997 73.3474 272.697L73.3945 271.795C73.4101 271.495 73.4101 271.495 73.4258 271.194C73.4415 270.893 73.4572 270.593 73.4885 269.992L73.5356 269.09C73.5669 268.489 73.5826 268.188 73.614 267.587C73.6297 267.287 73.6297 267.287 73.6453 266.986C73.661 266.686 73.6767 266.385 73.7081 265.784C73.7394 265.183 73.7551 264.882 73.7865 264.281C73.8335 263.379 73.8806 262.478 73.9276 261.576L73.959 260.975C74.0217 259.772 74.0687 258.871 74.1314 257.668L74.1942 256.466C74.2569 255.264 74.3353 253.761 74.398 252.559L74.4607 251.357C74.4921 250.755 74.5391 249.854 74.5705 249.253C74.6018 248.651 74.6332 248.05 74.6646 247.449C74.6802 247.149 74.6959 246.848 74.7116 246.547C75.2004 242.956 75.6893 239.365 76.1624 236.075C76.2094 235.173 76.5572 234.287 76.6199 233.085C76.6512 232.483 76.6826 231.882 77.0146 231.297C77.0617 230.395 77.4094 229.509 77.4564 228.607C77.4878 228.006 77.5035 227.706 77.8355 227.12C77.8825 226.219 78.2302 225.332 78.2616 224.731L78.625 223.545C79.004 222.058 79.0824 220.555 79.4615 219.068L79.5242 217.865C79.5556 217.264 79.587 216.663 79.6183 216.062L79.634 215.761L79.7124 214.259L79.8065 212.455L79.8222 212.155C79.7908 212.756 80.0758 213.072 80.0444 213.673C80.0287 213.974 80.3137 214.29 80.2981 214.59C80.536 215.808 80.7739 217.026 81.3126 218.26C81.5662 219.177 81.8198 220.095 82.0734 221.012C82.3271 221.93 82.5964 222.546 82.85 223.464L83.1036 224.381C83.6265 225.915 83.8645 227.133 84.3874 228.668C84.641 229.585 84.9104 230.202 84.8633 231.104C85.3392 233.539 86.1001 236.292 86.861 239.044C87.3682 240.879 87.6062 242.097 87.8441 243.314C88.0664 244.833 88.2886 246.352 88.5109 247.87C88.9554 250.907 89.4156 253.644 89.5752 256.364C89.7347 259.085 89.9256 261.205 90.1165 263.325C90.3388 264.843 90.2447 266.647 90.1663 268.149L90.3572 270.269C90.4854 273.591 90.5979 277.213 90.4097 280.82C90.2059 284.728 90.3184 288.35 90.1303 291.957C90.1146 292.258 90.0989 292.558 90.0675 293.159L90.0518 293.46C89.9734 294.963 89.895 296.466 89.8166 297.968C89.7069 300.072 89.2965 302.161 89.2024 303.964L88.8233 305.451L88.7919 306.052L88.7763 306.353C88.7449 306.954 88.7135 307.555 88.3972 307.84C88.3502 308.742 88.0181 309.327 87.9711 310.229L87.9084 311.431L87.8927 311.732L87.877 312.032L87.8457 312.634C87.4509 314.421 87.3411 316.525 86.9464 318.313C86.8993 319.215 86.536 320.401 86.4889 321.303C86.0628 323.692 85.6524 325.78 85.242 327.868C85.2733 327.267 85.3047 326.666 85.336 326.065C85.3988 324.863 85.4615 323.661 85.5242 322.458C85.5712 321.557 85.6183 320.655 85.6653 319.753C85.6967 319.152 85.7437 318.25 85.7751 317.649C85.9162 314.944 86.0573 312.239 85.8978 309.518C86.0389 306.813 85.8794 304.092 85.7198 301.371C85.5603 298.651 85.4007 295.93 85.2569 292.908C85.0973 290.188 84.9378 287.467 84.7782 284.746C84.6187 282.025 84.4748 279.004 84.3153 276.283C84.1557 273.562 84.2969 270.857 84.153 267.836C83.8496 262.093 83.5462 256.351 83.2428 250.609C82.9237 245.168 82.9053 239.742 82.8868 234.316C82.8241 235.518 82.7614 236.72 82.7143 237.622C82.5575 240.628 82.1158 243.317 81.959 246.323C81.9276 246.924 81.8962 247.525 81.8649 248.126C81.8335 248.727 81.7865 249.629 81.7551 250.23C81.6767 251.733 81.614 252.935 81.5356 254.438C81.2377 260.149 81.2404 265.875 81.2432 271.602C81.2616 277.028 81.5807 282.469 82.2004 287.927C82.4384 289.145 82.3913 290.046 82.6293 291.264C82.5822 292.166 82.8359 293.083 82.7731 294.286C82.7261 295.187 82.9797 296.105 82.9327 297.007C83.1549 298.525 83.3615 300.344 83.2831 301.847C83.5054 303.366 83.427 304.868 83.6493 306.387C83.8088 309.108 83.9683 311.829 84.1279 314.549C84.2874 317.27 84.1463 319.975 84.0052 322.68C83.9425 323.883 83.8798 325.085 83.817 326.287C81.8535 323.472 81.124 320.119 80.7108 316.481ZM44.1686 340.795C44.2157 339.893 44.247 339.292 43.9934 338.375C44.0405 337.473 44.0875 336.571 43.8339 335.654C43.8652 335.053 43.8966 334.452 43.9123 334.151L43.975 332.949C44.0064 332.348 44.0377 331.747 44.0691 331.146L44.0848 330.845L44.1004 330.544C44.1318 329.943 44.1632 329.342 44.1945 328.741L44.652 325.751C44.6834 325.15 45.0154 324.564 45.0467 323.963L45.0624 323.663C45.1095 322.761 45.4572 321.875 45.5042 320.973C45.5512 320.072 45.899 319.185 46.2467 318.299C46.6257 316.812 47.0048 315.325 47.3682 314.139L47.7159 313.253C48.095 311.765 48.4897 309.978 48.8688 308.491C49.2478 307.003 49.9433 305.231 50.3223 303.744C51.0177 301.972 51.4282 299.884 52.1236 298.112C52.8347 296.039 53.5614 293.666 54.2725 291.593C54.6203 290.707 54.9836 289.521 55.3313 288.635L56.0268 286.863C56.3901 285.676 57.0699 284.205 57.4333 283.018L57.4646 282.417L57.8123 281.531C58.1914 280.044 58.8711 278.572 59.2345 277.386L59.5665 276.8C59.8986 276.215 59.9299 275.614 60.262 275.028L60.594 274.443C60.6097 274.142 60.9417 273.557 60.9574 273.256C60.9417 273.557 60.926 273.857 60.9103 274.158L61.1483 275.376C61.3392 277.495 61.5458 279.315 61.7367 281.434C61.6896 282.336 61.9276 283.554 61.8805 284.456L62.1028 285.974L62.3251 287.493C62.2937 288.094 62.5473 289.011 62.516 289.612L62.4846 290.213L62.4533 290.815C62.4219 291.416 62.6755 292.333 62.6442 292.934L62.5971 293.836C62.5658 294.437 62.5187 295.339 62.4874 295.94L62.4246 297.142C62.3776 298.044 62.3306 298.946 62.2835 299.847L62.1894 301.651C62.1424 302.552 62.0954 303.454 62.064 304.055L62.0013 305.258C61.8758 307.662 61.7347 310.367 61.6093 312.772L61.5465 313.974C61.4838 315.176 61.4211 316.379 61.3584 317.581C61.3427 317.881 61.327 318.182 61.3113 318.483C61.28 319.084 61.2486 319.685 61.2173 320.286L61.1232 322.089L61.0605 323.292C60.9977 324.494 60.6187 325.981 60.5559 327.183L60.4932 328.386C60.4148 329.889 60.0358 331.376 59.973 332.578L59.9574 332.879C59.5783 334.366 59.4999 335.869 59.1208 337.356L59.0738 338.257C58.6947 339.745 58.6163 341.247 58.2372 342.735C58.2216 343.035 58.2059 343.336 58.1902 343.636C58.1588 344.237 57.8111 345.123 57.7798 345.725C57.7484 346.326 57.4007 347.212 57.3694 347.813L57.0216 348.699C56.2635 351.673 55.4897 354.948 54.4309 357.907L54.0832 358.793C53.7198 359.979 53.3407 361.467 52.9773 362.653L52.6296 363.539C52.2976 364.125 52.2662 364.726 51.9185 365.612C51.5708 366.498 51.5238 367.399 51.1761 368.285L50.8127 369.472C50.4493 370.659 50.0702 372.146 49.7069 373.332C49.3591 374.218 49.0114 375.104 48.6481 376.291L48.6324 376.592C48.6481 376.291 48.6637 375.99 48.9801 375.706C49.3278 374.82 49.3748 373.918 49.4219 373.016C49.7853 371.83 49.848 370.627 50.2114 369.441C50.5904 367.954 50.6532 366.751 51.0322 365.264C51.4583 362.875 51.8844 360.486 52.3105 358.098C52.3576 357.196 52.7053 356.31 52.7367 355.709C52.8151 354.206 53.1941 352.719 53.2725 351.216C53.6986 348.827 53.8084 346.723 54.2345 344.334C54.2815 343.432 54.6449 342.246 54.692 341.344C54.7547 340.142 55.1181 338.955 55.1808 337.753C55.5755 335.965 55.6853 333.861 56.0801 332.073C56.0957 331.773 56.1114 331.472 56.1271 331.172C56.1741 330.27 56.5062 329.685 56.5532 328.783C56.5846 328.182 56.6002 327.881 56.9323 327.296C57.2957 326.109 57.659 324.923 57.7218 323.72C58.4485 321.347 58.8746 318.958 59.6171 316.285C58.8903 318.658 57.8629 321.015 57.1361 323.388C56.7727 324.575 56.4093 325.762 56.0459 326.948C56.0303 327.249 55.6982 327.834 55.6826 328.135C55.3349 329.021 55.3035 329.622 54.9558 330.508C54.9401 330.808 54.6238 331.093 54.5924 331.694C54.561 332.296 54.2447 332.581 54.2133 333.182C53.8343 334.669 53.4709 335.855 53.0918 337.343C53.0761 337.643 53.0605 337.944 53.0448 338.244C52.9977 339.146 52.6657 339.731 52.6187 340.633C52.2553 341.82 52.1926 343.022 51.8292 344.209C51.4187 346.297 51.0083 348.385 50.8986 350.489C50.4724 352.878 50.062 354.966 49.9366 357.371C49.8895 358.273 49.5418 359.159 49.4948 360.06C49.4321 361.263 49.0687 362.449 49.006 363.651C49.006 363.651 49.006 363.651 49.0216 363.351C48.6112 365.439 48.2008 367.527 47.7904 369.616C47.4113 371.103 47.3329 372.606 46.9538 374.093C46.9068 374.995 46.5591 375.881 46.512 376.782C46.4963 377.083 46.465 377.684 46.1486 377.969C46.1957 377.067 46.227 376.466 46.2741 375.564C46.4152 372.859 46.2557 370.138 46.0804 367.718C46.1275 366.817 45.8582 366.2 45.9052 365.298C45.777 361.976 45.6488 358.654 45.22 355.317C45.2357 355.016 45.2357 355.016 45.2514 354.715C45.0448 352.896 45.1388 351.093 44.9323 349.274C44.71 347.755 44.7884 346.252 44.5661 344.734C44.3125 343.816 44.0902 342.298 44.1686 340.795ZM97.1541 353.806L95.2874 354.915C95.9201 354.345 96.5528 353.775 96.8692 353.49L97.1541 353.806L97.4548 353.822C97.7712 353.537 97.4705 353.522 97.1541 353.806ZM172.154 274.235C172.123 274.836 171.806 275.121 171.791 275.421C171.775 275.722 171.744 276.323 171.427 276.608C171.412 276.909 171.38 277.51 171.064 277.795C170.716 278.681 170.654 279.883 170.306 280.769C169.943 281.956 169.895 282.857 169.548 283.743C169.169 285.23 168.505 286.401 168.126 287.889C167.794 288.474 167.462 289.059 167.129 289.645C166.797 290.23 166.465 290.816 166.133 291.401C165.801 291.987 165.169 292.556 164.821 293.442C164.489 294.028 163.841 294.898 163.208 295.468C162.243 296.623 160.962 298.063 159.997 299.219L159.349 300.089C158.716 300.659 158.068 301.529 157.42 302.399C157.103 302.684 156.771 303.27 156.455 303.555C155.806 304.425 155.174 304.995 154.525 305.865L153.877 306.735C153.244 307.305 152.596 308.175 151.963 308.745L151.331 309.315L150.682 310.185L149.733 311.04C149.417 311.325 149.417 311.325 149.1 311.61L148.784 311.895L147.835 312.749C147.187 313.62 146.253 314.174 145.605 315.044L145.289 315.329L144.008 316.769L143.691 317.054L143.375 317.339L143.059 317.624L142.742 317.909L142.41 318.494L142.094 318.779L141.777 319.064C141.461 319.349 141.145 319.634 141.145 319.634L140.196 320.488L138.282 322.498C137.649 323.068 137.333 323.353 136.7 323.922C136.384 324.207 136.068 324.492 136.052 324.793L134.47 326.217L134.154 326.502C133.837 326.787 133.837 326.787 133.521 327.072L132.888 327.642L131.623 328.781L130.99 329.351C130.674 329.636 130.358 329.921 130.041 330.206C129.725 330.49 129.409 330.775 129.092 331.06L126.561 333.339L124.98 334.764C124.347 335.333 124.031 335.618 123.398 336.188C123.082 336.473 123.082 336.473 122.765 336.758C122.449 337.043 122.133 337.328 121.516 337.597C120.883 338.167 119.95 338.721 119.317 339.29C117.751 340.414 116.185 341.538 114.919 342.678C114.603 342.963 113.986 343.232 113.67 343.517L113.037 344.086L112.42 344.356L110.538 345.764C109.905 346.334 108.987 346.588 108.354 347.157C108.038 347.442 107.722 347.727 107.105 347.996C106.171 348.55 105.238 349.105 104.305 349.659L103.371 350.213L103.055 350.498C103.688 349.928 104.305 349.659 104.637 349.073C105.269 348.503 106.218 347.649 106.851 347.079C107.484 346.509 107.8 346.224 108.433 345.655L108.749 345.37L109.066 345.085L109.382 344.8C110.015 344.23 110.347 343.645 110.964 343.376C111.28 343.091 111.28 343.091 111.596 342.806C111.612 342.505 111.913 342.521 111.928 342.22C113.526 340.495 115.107 339.071 116.705 337.346C117.338 336.776 117.97 336.206 118.603 335.637C119.251 334.766 120.185 334.212 120.833 333.342C121.466 332.772 122.098 332.202 122.747 331.332C123.063 331.047 123.063 331.047 123.38 330.762L123.696 330.477C124.012 330.192 124.329 329.908 124.645 329.623C125.278 329.053 125.594 328.768 126.227 328.198C126.859 327.629 127.808 326.774 128.441 326.204C129.074 325.634 129.706 325.065 130.355 324.194C130.988 323.624 131.304 323.34 131.937 322.77C132.253 322.485 132.253 322.485 132.569 322.2C133.518 321.345 134.182 320.174 135.131 319.32C135.448 319.035 135.463 318.734 135.78 318.449C136.112 317.864 136.745 317.294 137.077 316.709C138.358 315.269 139.338 313.813 140.318 312.357C140.967 311.487 141.615 310.616 142.264 309.746C142.912 308.876 143.56 308.005 144.209 307.135C144.841 306.565 145.49 305.695 145.822 305.11C145.822 305.11 145.822 305.11 145.837 304.809C145.837 304.809 145.853 304.508 146.154 304.524C146.802 303.654 147.451 302.783 148.083 302.214C146.501 303.638 144.904 305.363 143.322 306.787C143.006 307.072 142.69 307.357 142.373 307.642C142.041 308.228 141.424 308.497 141.092 309.082C140.444 309.953 139.811 310.522 139.163 311.393C138.53 311.962 137.882 312.833 137.249 313.403C136.616 313.972 135.968 314.843 135.335 315.412C134.703 315.982 134.371 316.568 133.738 317.137C133.422 317.422 133.105 317.707 132.789 317.992C132.156 318.562 131.824 319.147 131.508 319.432C131.191 319.717 130.875 320.002 130.543 320.587C130.527 320.888 130.227 320.872 130.211 321.173C129.262 322.027 128.297 323.183 127.348 324.037C125.766 325.462 124.185 326.886 122.603 328.311C121.338 329.45 119.756 330.875 118.475 332.315C115.311 335.163 112.433 338.329 109.269 341.177C108.637 341.747 108.004 342.317 107.356 343.187C107.988 342.618 108.32 342.032 108.953 341.462L109.269 341.177L110.234 340.022C110.867 339.452 111.5 338.883 111.832 338.297C112.164 337.712 112.781 337.443 113.113 336.857L113.429 336.572C113.745 336.287 114.062 336.002 114.394 335.417C115.358 334.262 116.323 333.107 116.971 332.236L117.288 331.951C117.62 331.366 118.253 330.796 118.585 330.211C118.6 329.91 118.901 329.926 118.917 329.625L119.249 329.04L119.897 328.169L120.229 327.584C120.877 326.714 121.826 325.859 122.475 324.989C122.49 324.688 122.791 324.704 123.108 324.419C123.756 323.549 124.705 322.694 125.353 321.824C126.302 320.969 126.966 319.798 127.915 318.943C128.232 318.658 128.548 318.374 128.864 318.089L129.197 317.503C129.212 317.203 129.513 317.218 129.529 316.918C129.845 316.633 130.161 316.348 130.478 316.063C130.478 316.063 130.493 315.763 130.794 315.778C131.11 315.493 131.442 314.908 131.759 314.623C132.091 314.038 132.407 313.753 133.04 313.183C133.672 312.613 134.02 311.727 134.653 311.157L135.301 310.287C135.618 310.002 135.95 309.417 136.266 309.132C136.598 308.546 136.914 308.262 137.246 307.676C137.578 307.091 137.895 306.806 138.227 306.22C138.543 305.935 138.875 305.35 139.191 305.065C139.508 304.78 139.824 304.495 140.156 303.91L140.472 303.625L141.105 303.055L141.422 302.77C141.422 302.77 141.437 302.47 141.738 302.485L143.003 301.346C143.636 300.776 143.968 300.191 144.585 299.921C144.901 299.637 145.534 299.067 145.85 298.782L146.167 298.497L146.483 298.212C146.799 297.927 147.116 297.642 147.432 297.357L148.065 296.788C149.014 295.933 149.963 295.078 151.213 294.239L152.162 293.385L153.111 292.53C153.427 292.245 153.743 291.96 153.759 291.66L154.075 291.375L155.973 289.666C156.29 289.381 156.305 289.08 156.622 288.795L156.938 288.51L157.571 287.941C158.204 287.371 158.852 286.501 159.485 285.931L160.133 285.06C160.766 284.491 161.414 283.62 162.047 283.051C162.363 282.766 162.679 282.481 162.996 282.196C163.629 281.626 164.277 280.756 164.91 280.186L165.558 279.316C166.191 278.746 167.14 277.891 167.772 277.322L168.721 276.467L169.67 275.612C171.521 274.805 171.838 274.52 172.154 274.235C172.471 273.95 172.471 273.95 172.154 274.235C172.471 273.95 172.17 273.934 172.154 274.235Z" fill="#2EC4B6"/>
<path d="M60.0234 111.966C60.3241 111.982 60.3084 112.282 60.0234 111.966C60.3241 111.982 60.0234 111.966 60.0234 111.966Z" fill="#2EC4B6"/>
</g>
<defs>
<clipPath id="clip1">
<rect width="168" height="431" fill="#2EC4B6" transform="translate(22.4531) rotate(2.98633)"/>
</clipPath>
</defs>
</svg>
