<svg width="30" height="30" viewBox="0 0 30 30" fill="none" xmlns="http://www.w3.org/2000/svg">
  <path d="M3.29257 22.0465C4.23119 21.1071 5.32794 20.3404 6.53255 19.7815C4.83381 18.4053 3.75007 16.3054 3.75007 13.9505C3.75007 9.79559 7.21505 6.38694 11.37 6.45069C15.4612 6.51444 18.7575 9.84809 18.7575 13.9505C18.7575 16.3054 17.67 18.4053 15.975 19.7815C17.1798 20.34 18.2767 21.1068 19.215 22.0465C21.2625 24.0977 22.425 26.8051 22.5 29.6925C22.501 29.7325 22.4939 29.7723 22.4793 29.8096C22.4647 29.8469 22.4427 29.8808 22.4148 29.9095C22.3868 29.9382 22.3534 29.9609 22.3165 29.9765C22.2796 29.992 22.24 30 22.2 30H20.1C19.9387 30 19.8037 29.8725 19.8 29.7113C19.7287 27.5363 18.8475 25.5001 17.2987 23.9552C16.5062 23.1585 15.5635 22.5268 14.5253 22.0969C13.487 21.6669 12.3738 21.4471 11.25 21.4503C8.96629 21.4503 6.81755 22.339 5.20131 23.9552C3.65632 25.5001 2.77508 27.5363 2.70008 29.7113C2.69633 29.8725 2.56133 30 2.40008 30H0.300091C0.260055 30 0.220422 29.992 0.183527 29.9765C0.146632 29.9609 0.113221 29.9382 0.0852637 29.9095C0.057306 29.8808 0.0353676 29.8469 0.02074 29.8096C0.00611247 29.7723 -0.000908166 29.7325 9.27216e-05 29.6925C0.0750923 26.8051 1.23758 24.0977 3.29257 22.0465ZM11.25 18.7503C12.5325 18.7503 13.74 18.2516 14.6438 17.3441C15.0973 16.8942 15.4556 16.3574 15.6972 15.766C15.9388 15.1746 16.0588 14.5405 16.05 13.9017C16.0387 12.6718 15.5475 11.483 14.6888 10.6018C13.7888 9.67935 12.585 9.16561 11.2988 9.15061C10.0275 9.13936 8.79379 9.63435 7.88629 10.5231C6.9563 11.4343 6.4463 12.653 6.4463 13.9505C6.4463 15.2329 6.94505 16.4366 7.85254 17.3441C8.29777 17.7915 8.82729 18.1461 9.41046 18.3875C9.99363 18.6288 10.6189 18.7522 11.25 18.7503ZM20.6437 14.9404C20.6775 14.6142 20.6962 14.2842 20.6962 13.9505C20.6962 13.3542 20.64 12.773 20.535 12.2068C20.5087 12.0718 20.58 11.933 20.7037 11.8768C21.2137 11.648 21.6825 11.333 22.0875 10.9356C22.5647 10.4729 22.9402 9.91575 23.1901 9.29979C23.44 8.68384 23.5587 8.02257 23.5387 7.35817C23.5049 6.15445 23.0212 5.01073 22.1775 4.14826C21.2512 3.19954 20.0062 2.68205 18.6825 2.69705C17.4862 2.7083 16.3312 3.16954 15.4575 3.98701C15.1612 4.26451 14.9062 4.572 14.6925 4.90199C14.6175 5.01823 14.4713 5.06698 14.3438 5.02198C13.6838 4.79324 12.9863 4.63199 12.27 4.557C12.06 4.5345 11.94 4.3095 12.0338 4.12201C13.2525 1.71083 15.7425 0.0458785 18.6225 0.000879865C22.7812 -0.0628683 26.2462 3.34578 26.2462 7.49691C26.2462 9.85184 25.1624 11.9518 23.4637 13.328C24.6562 13.8792 25.7549 14.6405 26.7074 15.5929C28.7624 17.6441 29.9249 20.3515 29.9999 23.2427C30.0009 23.2827 29.9939 23.3225 29.9793 23.3598C29.9646 23.3971 29.9427 23.431 29.9147 23.4597C29.8868 23.4883 29.8534 23.5111 29.8165 23.5267C29.7796 23.5422 29.7399 23.5502 29.6999 23.5502H27.5962C27.4349 23.5502 27.2999 23.4227 27.2962 23.2614C27.2249 21.0865 26.3437 19.0503 24.7949 17.5054C23.6924 16.4029 22.3425 15.6379 20.8687 15.2667C20.7225 15.2292 20.625 15.0904 20.6437 14.9404V14.9404Z" fill="#B8B5B5"/>
</svg>
