<svg width="24" height="24" viewBox="0 0 24 24" fill="none" xmlns="http://www.w3.org/2000/svg">
  <path d="M16.0002 15C20.0092 14.935 23.0002 11.967 23.0002 8C23.0002 4.988 22.0032 5.985 21.0002 7C20.0092 7.98 18.0002 10 18.0002 10L14.0002 6C14.0002 6 16.0202 3.991 17.0002 3C18.0152 1.997 18.0152 1 16.0002 1C12.0332 1 9.0532 3.991 9.0002 8C9.0422 8.976 9.0002 11 9.0002 11C7.1152 12.897 4.6602 15.353 3.0002 17C0.0681976 19.944 4.0562 23.932 7.0002 21C8.6502 19.338 11.1132 16.875 13.0002 15C13.0002 15 15.0242 14.958 16.0002 15Z" stroke="#B8B5B5" stroke-width="2"/>
</svg>
