<svg width="20" height="21" viewBox="0 0 20 21" fill="none" xmlns="http://www.w3.org/2000/svg">
  <path d="M8.855 1.18935C9.16445 0.919554 9.57415 0.769226 10 0.769226C10.4259 0.769226 10.8356 0.919554 11.145 1.18935L19.2183 8.22729C19.7183 8.66226 20 9.26938 20 9.90262V18.4637C20 19.0752 19.7366 19.6616 19.2678 20.094C18.7989 20.5263 18.163 20.7692 17.5 20.7692H14.1667C13.8382 20.7692 13.513 20.7095 13.2096 20.5936C12.9062 20.4776 12.6305 20.3077 12.3983 20.0934C12.1661 19.8792 11.982 19.6248 11.8565 19.3449C11.731 19.065 11.6664 18.7651 11.6667 18.4622V14.6197C11.6667 14.4159 11.5789 14.2204 11.4226 14.0763C11.2663 13.9321 11.0543 13.8512 10.8333 13.8512H9.16667C8.94565 13.8512 8.73369 13.9321 8.57741 14.0763C8.42113 14.2204 8.33333 14.4159 8.33333 14.6197V18.4622C8.33333 19.0736 8.06994 19.6601 7.6011 20.0924C7.13226 20.5248 6.49637 20.7677 5.83333 20.7677H2.5C1.83696 20.7677 1.20107 20.5248 0.732233 20.0924C0.263392 19.6601 0 19.0736 0 18.4622V9.90108C0 9.26784 0.283333 8.66072 0.783333 8.22575L8.855 1.18628V1.18935ZM10 2.30522L1.92667 9.34469C1.84471 9.41634 1.7794 9.50261 1.7347 9.59826C1.69001 9.69391 1.66686 9.79693 1.66667 9.90108V18.4622C1.66667 18.666 1.75446 18.8615 1.91074 19.0056C2.06702 19.1497 2.27899 19.2307 2.5 19.2307H5.83333C6.05435 19.2307 6.26631 19.1497 6.42259 19.0056C6.57887 18.8615 6.66667 18.666 6.66667 18.4622V14.6197C6.66667 14.0082 6.93006 13.4218 7.3989 12.9894C7.86774 12.5571 8.50363 12.3142 9.16667 12.3142H10.8333C11.4964 12.3142 12.1323 12.5571 12.6011 12.9894C13.0699 13.4218 13.3333 14.0082 13.3333 14.6197V18.4622C13.3333 18.666 13.4211 18.8615 13.5774 19.0056C13.7337 19.1497 13.9457 19.2307 14.1667 19.2307H17.5C17.721 19.2307 17.933 19.1497 18.0893 19.0056C18.2455 18.8615 18.3333 18.666 18.3333 18.4622V9.90108C18.3334 9.79667 18.3103 9.69335 18.2656 9.59743C18.2209 9.5015 18.1555 9.41498 18.0733 9.34315L10 2.30522Z" fill="#B8B5B5"/>
</svg>
