<svg width="25" height="25" viewBox="0 0 25 25" fill="none" xmlns="http://www.w3.org/2000/svg">
<path d="M12.5 8.33325C11.395 8.33325 10.3352 8.77224 9.55376 9.55364C8.77236 10.335 8.33337 11.3949 8.33337 12.4999C8.33337 13.605 8.77236 14.6648 9.55376 15.4462C10.3352 16.2276 11.395 16.6666 12.5 16.6666C13.6051 16.6666 14.6649 16.2276 15.4463 15.4462C16.2277 14.6648 16.6667 13.605 16.6667 12.4999C16.6667 11.3949 16.2277 10.335 15.4463 9.55364C14.6649 8.77224 13.6051 8.33325 12.5 8.33325Z" fill="#353D4D"/>
<path fill-rule="evenodd" clip-rule="evenodd" d="M7.5 0C5.51088 0 3.60322 0.790176 2.1967 2.1967C0.790176 3.60322 0 5.51088 0 7.5L0 17.5C0 19.4891 0.790176 21.3968 2.1967 22.8033C3.60322 24.2098 5.51088 25 7.5 25H17.5C19.4891 25 21.3968 24.2098 22.8033 22.8033C24.2098 21.3968 25 19.4891 25 17.5V7.5C25 5.51088 24.2098 3.60322 22.8033 2.1967C21.3968 0.790176 19.4891 0 17.5 0L7.5 0ZM6.66667 12.5C6.66667 10.9529 7.28125 9.46917 8.37521 8.37521C9.46917 7.28125 10.9529 6.66667 12.5 6.66667C14.0471 6.66667 15.5308 7.28125 16.6248 8.37521C17.7188 9.46917 18.3333 10.9529 18.3333 12.5C18.3333 14.0471 17.7188 15.5308 16.6248 16.6248C15.5308 17.7188 14.0471 18.3333 12.5 18.3333C10.9529 18.3333 9.46917 17.7188 8.37521 16.6248C7.28125 15.5308 6.66667 14.0471 6.66667 12.5V12.5ZM18.3333 6.66667H20V5H18.3333V6.66667Z" fill="#353D4D"/>
</svg>
