<svg width="32" height="32" viewBox="0 0 32 32" fill="none" xmlns="http://www.w3.org/2000/svg">
  <path d="M31.43 16.7725L24.5 13.5825V4.44248C24.4968 4.25072 24.4386 4.06392 24.3322 3.90435C24.2258 3.74478 24.0758 3.61916 23.9 3.54248L16.4 0.0924758C16.2684 0.0315548 16.1251 0 15.98 0C15.835 0 15.6916 0.0315548 15.56 0.0924758L8.06 3.54248C7.88642 3.62281 7.73952 3.75123 7.63672 3.91253C7.53392 4.07382 7.47953 4.26121 7.48 4.45248V13.5925L0.580003 16.7725C0.406423 16.8528 0.259522 16.9812 0.15672 17.1425C0.0539189 17.3038 -0.000470225 17.4912 3.06274e-06 17.6825V27.4625C-0.000470225 27.6537 0.0539189 27.8411 0.15672 28.0024C0.259522 28.1637 0.406423 28.2921 0.580003 28.3725L8.08 31.8225C8.21164 31.8834 8.35495 31.915 8.5 31.915C8.64505 31.915 8.78837 31.8834 8.92 31.8225L16 28.5625L23.08 31.8225C23.2116 31.8834 23.355 31.915 23.5 31.915C23.6451 31.915 23.7884 31.8834 23.92 31.8225L31.42 28.3725C31.5936 28.2921 31.7405 28.1637 31.8433 28.0024C31.9461 27.8411 32.0005 27.6537 32 27.4625V17.6825C32.0014 17.4923 31.9485 17.3057 31.8475 17.1445C31.7465 16.9833 31.6017 16.8543 31.43 16.7725V16.7725ZM23.51 20.0125L18.4 17.6825L23.51 15.3325L28.62 17.6825L23.51 20.0125ZM22.51 13.5725L16.07 16.5725V8.88248C16.1905 8.87714 16.3091 8.85004 16.42 8.80248L22.5 6.01248V13.5925L22.51 13.5725ZM16 2.09248L21.11 4.44248L16 6.79248L10.9 4.44248L16 2.09248ZM8.5 15.3225L13.61 17.6725L8.5 20.0125L3.39 17.6825L8.5 15.3225ZM15 26.8125L8.5 29.8125V22.1225C8.63956 22.1142 8.77583 22.0767 8.9 22.0125L14.98 19.2125L15 26.8125ZM30 26.8125L23.54 29.8125V22.1225C23.6659 22.1089 23.788 22.0716 23.9 22.0125L29.98 19.2125L30 26.8125Z" fill="#B8B5B5"/>
</svg>
