<svg width="433" height="429" viewBox="0 0 433 429" fill="none" xmlns="http://www.w3.org/2000/svg">
  <path d="M130.915 130.1C131.863 130.1 132.632 129.331 132.632 128.382C132.632 127.434 131.863 126.665 130.915 126.665C129.966 126.665 129.197 127.434 129.197 128.382C129.197 129.331 129.966 130.1 130.915 130.1Z" fill="#E6E6E6"/>
  <path d="M169.27 130.1C169.902 130.1 170.415 129.331 170.415 128.382C170.415 127.434 169.902 126.665 169.27 126.665C168.638 126.665 168.125 127.434 168.125 128.382C168.125 129.331 168.638 130.1 169.27 130.1Z" fill="#E6E6E6"/>
  <path d="M289.485 403.733H290.541C290.541 331.084 317.802 271.979 351.31 271.979V270.924C334.705 270.924 319.139 284.784 307.476 309.952C295.874 334.99 289.485 368.296 289.485 403.733Z" fill="#3F3D56"/>
  <path d="M374.208 239.594C374.208 247.814 370.62 258.33 366.194 258.33C361.767 258.33 358.179 247.814 358.179 239.594C358.179 231.374 361.767 228.562 366.194 228.562C370.62 228.562 374.208 231.374 374.208 239.594Z" fill="#C4C4C4"/>
  <path d="M406.676 275.146C398.494 276.402 387.493 274.305 386.834 269.736C386.175 265.168 396.108 259.858 404.29 258.602C412.472 257.346 415.804 260.62 416.463 265.188C417.122 269.757 414.857 273.89 406.676 275.146Z" fill="#C4C4C4"/>
  <path d="M369.648 306.378C366.598 298.687 366.234 287.571 370.599 285.997C374.964 284.423 382.404 292.987 385.454 300.678C388.504 308.37 386.009 312.276 381.644 313.85C377.279 315.425 372.698 314.07 369.648 306.378Z" fill="#C4C4C4"/>
  <path d="M369.629 281.228C363.939 281.228 359.325 276.615 359.325 270.924C359.325 265.233 363.939 260.62 369.629 260.62C375.32 260.62 379.934 265.233 379.934 270.924C379.934 276.615 375.32 281.228 369.629 281.228Z" fill="#FBBC05"/>
  <path d="M216.225 428.341C335.605 428.341 432.382 419.926 432.382 409.545C432.382 399.164 335.605 390.749 216.225 390.749C96.8451 390.749 0.0683594 399.164 0.0683594 409.545C0.0683594 419.926 96.8451 428.341 216.225 428.341Z" fill="#018175"/>
  <path d="M168.769 407.458L167.27 407.314C176.521 270.474 145.375 155.443 97.8392 150.891L97.9736 148.903C121.529 151.159 141.848 179.381 155.187 228.37C168.458 277.108 173.282 340.709 168.769 407.458Z" fill="#3F3D56"/>
  <path d="M85.7271 84.6725C81.5265 96.1724 81.0182 112.817 87.0199 115.202C93.0217 117.587 103.261 104.808 107.461 93.3076C111.662 81.8077 108.233 75.9414 102.231 73.5569C96.2297 71.1723 89.9276 73.1725 85.7271 84.6725Z" fill="#C4C4C4"/>
  <path d="M24.9347 118.943C34.9983 124.928 50.4396 127.746 53.6059 121.778C56.7723 115.809 46.4646 103.314 36.401 97.3295C26.3373 91.3445 20.3285 94.1357 17.1622 100.104C13.9959 106.072 14.871 112.958 24.9347 118.943Z" fill="#C4C4C4"/>
  <path d="M56.5718 182.218C64.4889 172.71 70.7843 156.926 66.056 152.458C61.3278 147.99 47.3664 156.53 39.4493 166.037C31.5321 175.545 32.6574 182.418 37.3856 186.886C42.1139 191.354 48.6547 191.725 56.5718 182.218Z" fill="#C4C4C4"/>
  <path d="M70.0863 146.505C77.6234 149.5 86.0611 145.555 88.9323 137.694C91.8036 129.833 88.0212 121.033 80.4841 118.039C72.947 115.044 64.5093 118.989 61.638 126.85C58.7668 134.711 62.5492 143.511 70.0863 146.505Z" fill="#FBBC05"/>
  <path d="M102.741 401.017V359.03C102.741 359.03 119.391 374.232 102.741 404.636" fill="#018175"/>
  <path d="M103.291 399.928L115.09 359.633C115.09 359.633 126.797 378.902 102.273 403.402" fill="#018175"/>
  <path d="M270.233 406.637V364.65C270.233 364.65 253.583 379.852 270.233 410.256" fill="#018175"/>
  <path d="M269.685 405.548L257.886 365.253C257.886 365.253 246.179 384.521 270.702 409.021" fill="#018175"/>
  <path d="M216.784 0.726074H216.784C225.028 0.726074 232.933 4.00077 238.762 9.82976C244.591 15.6588 247.866 23.5646 247.866 31.808V62.2492H185.702V31.808C185.702 27.7263 186.506 23.6845 188.068 19.9135C189.63 16.1424 191.92 12.716 194.806 9.82976C197.692 6.94354 201.119 4.65406 204.89 3.09204C208.661 1.53003 212.702 0.726073 216.784 0.726074Z" fill="#2F2E41"/>
  <path d="M247.545 65.7738C236.145 73.8726 220.958 76.9961 204.607 78.5911C215.873 69.4506 211.458 59.3551 204.607 49.1113L229.601 46.5479C230.323 55.8472 237.535 61.5797 247.545 65.7738Z" fill="#FFB8B8"/>
  <path d="M252.673 162.544L178.974 152.29C184.948 141.035 188.96 130.162 187.552 120.343C186.803 115.436 186.865 110.439 187.737 105.553L188.206 103.051C189.182 98.2387 191.043 93.6491 193.696 89.5165C196.656 84.7473 195.635 77.5814 194.354 70.2595L211.658 67.696C221.206 72.5459 231.925 69.3146 243.06 63.21L263.568 65.1325C262.178 101.677 259.124 135.196 252.673 162.544Z" fill="#E6E6E6"/>
  <path d="M314.196 382.362L300.097 384.925L209.094 226.631L173.205 384.925L160.388 384.284C160.107 294.578 156.074 196.084 177.768 157.83C185.907 138.515 198.361 120.02 193.713 101.022C211.968 106.342 230.343 105.961 248.827 100.381C247.96 123.177 248.782 144.535 252.032 163.827L314.196 382.362Z" fill="#2D9CDB"/>
  <path d="M310.181 425.3C307.104 425.3 304.112 424.286 301.669 422.413C299.226 420.541 297.469 417.916 296.669 414.944L295.419 410.301C295.123 409.202 295.033 408.057 295.156 406.925L297.534 384.926C302.069 379.304 308.663 377.948 318.042 382.362L323.837 408.249C324.295 410.296 324.288 412.419 323.815 414.463C323.342 416.506 322.415 418.417 321.104 420.054C319.793 421.691 318.131 423.013 316.24 423.921C314.349 424.829 312.279 425.3 310.181 425.3Z" fill="#2F2E41"/>
  <path d="M168.55 425.3C165.472 425.3 162.48 424.286 160.037 422.413C157.594 420.541 155.837 417.916 155.037 414.944L153.787 410.302C153.491 409.202 153.402 408.057 153.524 406.925L155.902 384.926C160.437 379.304 167.031 377.948 176.41 382.362L182.205 408.249C182.664 410.296 182.656 412.419 182.183 414.463C181.71 416.506 180.783 418.417 179.472 420.054C178.161 421.691 176.499 423.013 174.608 423.921C172.717 424.829 170.647 425.3 168.55 425.3Z" fill="#2F2E41"/>
  <path d="M213.58 56.801C225.26 56.801 234.729 47.3325 234.729 35.6525C234.729 23.9724 225.26 14.5039 213.58 14.5039C201.9 14.5039 192.432 23.9724 192.432 35.6525C192.432 47.3325 201.9 56.801 213.58 56.801Z" fill="#FFB8B8"/>
  <path d="M197.237 107.11C198.299 107.11 199.16 106.25 199.16 105.188C199.16 104.126 198.299 103.265 197.237 103.265C196.175 103.265 195.314 104.126 195.314 105.188C195.314 106.25 196.175 107.11 197.237 107.11Z" fill="#E6E6E6"/>
  <path d="M245.943 107.11C247.005 107.11 247.866 106.25 247.866 105.188C247.866 104.126 247.005 103.265 245.943 103.265C244.881 103.265 244.021 104.126 244.021 105.188C244.021 106.25 244.881 107.11 245.943 107.11Z" fill="#E6E6E6"/>
  <path d="M227.358 32.7692L194.033 32.1792V10.3389H234.408L227.358 32.7692Z" fill="#2F2E41"/>
  <path d="M240.816 61.6082H226.076C231.524 48.5923 231.044 34.8627 226.076 20.5928H240.816V61.6082Z" fill="#2F2E41"/>
  <path d="M259.081 183.052L250.349 193.289C249.228 194.604 247.809 195.633 246.21 196.29C244.612 196.946 242.88 197.213 241.158 197.066C239.436 196.92 237.773 196.365 236.309 195.447C234.844 194.53 233.619 193.276 232.736 191.791C231.945 190.46 231.447 188.976 231.276 187.438C231.104 185.899 231.264 184.342 231.743 182.87C232.222 181.398 233.01 180.046 234.054 178.903C235.098 177.76 236.374 176.854 237.797 176.244L253.313 169.594L271.898 143.319L261.645 97.8171L279.589 92.0493L289.843 149.727L259.081 183.052Z" fill="#FFB8B8"/>
  <path d="M191.791 187.847L200.522 198.084C201.644 199.399 203.063 200.427 204.662 201.084C206.26 201.741 207.992 202.007 209.714 201.86C211.436 201.714 213.099 201.159 214.563 200.241C216.028 199.324 217.253 198.07 218.136 196.585C218.927 195.254 219.425 193.77 219.596 192.232C219.767 190.694 219.608 189.136 219.129 187.664C218.65 186.193 217.862 184.84 216.818 183.697C215.774 182.555 214.497 181.648 213.075 181.038L197.559 174.388L178.974 148.113L189.227 102.612L171.283 96.8438L161.029 154.522L191.791 187.847Z" fill="#FFB8B8"/>
  <path d="M282.152 94.6123C278.13 94.4928 274.125 95.2 270.387 96.6903C266.65 98.1806 263.257 100.422 260.42 103.276L254.012 64.8243L261.763 64.7334C264.924 64.8505 267.972 65.9345 270.497 67.8392C273.022 69.7439 274.901 72.3775 275.882 75.3843L282.152 94.6123Z" fill="#E6E6E6"/>
  <path d="M168.72 99.4072C172.742 99.2877 176.746 99.995 180.484 101.485C184.222 102.975 187.614 105.217 190.451 108.071C197.868 96.8212 198.943 83.689 196.86 69.6192L189.108 69.5283C185.948 69.6454 182.899 70.7294 180.375 72.6341C177.85 74.5388 175.97 77.1724 174.99 80.1793L168.72 99.4072Z" fill="#E6E6E6"/>
  <path d="M245.623 103.585H246.329L250.585 64.0699C250.596 63.9614 250.585 63.8518 250.551 63.748C250.518 63.6443 250.463 63.5487 250.39 63.4676C250.317 63.3865 250.228 63.3217 250.128 63.2773C250.029 63.2329 249.921 63.21 249.812 63.21H246.4C246.194 63.2102 245.997 63.2921 245.851 63.4378C245.705 63.5836 245.623 63.7812 245.623 63.9873V103.585Z" fill="#6C63FF"/>
  <path d="M196.277 105.507H196.989L201.245 69.3375C201.255 69.2521 201.247 69.1655 201.221 69.0835C201.195 69.0015 201.152 68.9258 201.095 68.8616C201.038 68.7973 200.967 68.7459 200.889 68.7106C200.811 68.6754 200.726 68.6572 200.639 68.6572H196.887C196.725 68.6574 196.57 68.7217 196.456 68.836C196.342 68.9502 196.278 69.1052 196.277 69.2668V105.507Z" fill="#6C63FF"/>
</svg>
