<svg width="437" height="386" viewBox="0 0 437 386" fill="none" xmlns="http://www.w3.org/2000/svg">
<path d="M366.033 74.48C399.394 116.07 418.535 164.226 417.989 212.93C417.989 261.086 398.3 308.696 364.939 338.246C331.031 367.797 283.451 378.741 230.401 383.667C177.352 388.592 119.38 388.044 73.987 358.494C29.141 328.943 -3.12627 270.937 3.98346 219.497C10.5463 168.057 55.9392 123.731 100.785 82.1412C146.178 40.5516 190.477 2.24524 236.964 0.0563122C283.997 -1.58539 332.125 32.8903 366.033 74.48Z" fill="url(#paint0_linear_0:1)"/>
<path d="M384.52 339.742C380.49 336.322 375.37 334.512 370.34 332.882C334.01 321.132 302.5 323.782 261.19 315.902L126.05 330.602C133.51 341.402 146.38 348.252 159.51 348.392C168.17 348.482 177.64 346.032 184.96 350.662C189.82 353.732 192.49 359.262 196.55 363.342C203.17 369.992 213.09 372.302 222.48 372.252C231.87 372.202 241.12 370.122 250.47 369.332C272.82 367.462 295.02 373.062 317.3 375.642C339.58 378.222 363.8 377.282 382.01 364.202C385.69 361.552 389.23 358.162 390.19 353.732C391.32 348.562 388.55 343.162 384.52 339.742Z" fill="#C3D1D4"/>
<path d="M436.04 317.403C436.04 317.543 338.42 317.663 218.03 317.663C97.6 317.663 0 317.543 0 317.403C0 317.263 97.6 317.143 218.03 317.143C338.42 317.143 436.04 317.253 436.04 317.403Z" fill="#263238"/>
<path d="M38.6601 295.501C32.3001 291.811 28.8901 283.232 28.6401 276.212C28.3901 269.192 31.3101 261.861 37.0701 257.831C43.1401 253.591 51.78 253.671 58.01 257.661C64.24 261.651 67.8901 269.181 67.6101 276.581C67.3301 283.981 63.3001 291.041 57.3301 295.421" fill="#0F7D73"/>
<path d="M48.8201 296.182C48.7801 296.182 48.7401 295.612 48.7001 294.572C48.6701 293.422 48.6301 291.952 48.5801 290.192C48.4901 286.492 48.3401 281.392 48.0901 275.752C47.8401 270.112 47.5401 265.012 47.3101 261.322C47.2101 259.562 47.1201 258.092 47.0501 256.952C47.0001 255.922 46.9901 255.342 47.0301 255.342C47.0701 255.342 47.1601 255.902 47.2801 256.932C47.4101 257.962 47.5601 259.452 47.7301 261.292C48.0701 264.982 48.4401 270.082 48.6901 275.732C48.9401 281.372 49.0201 286.492 49.0001 290.192C48.9901 292.042 48.9701 293.542 48.9301 294.572C48.9001 295.612 48.8601 296.182 48.8201 296.182Z" fill="white"/>
<path d="M30.5299 274.621C30.5199 274.781 29.4999 274.831 28.2599 274.731C27.0199 274.631 26.0299 274.411 26.0399 274.251C26.0499 274.091 27.0699 274.041 28.3099 274.141C29.5499 274.241 30.5399 274.461 30.5299 274.621Z" fill="#263238"/>
<path d="M30.87 268.322C30.8 268.472 29.93 268.232 28.92 267.782C27.91 267.332 27.14 266.842 27.21 266.692C27.28 266.542 28.15 266.782 29.16 267.232C30.17 267.682 30.94 268.172 30.87 268.322Z" fill="#263238"/>
<path d="M34.1199 263.642C34.0299 263.782 33.0499 263.312 32.0299 262.462C30.9999 261.612 30.3699 260.732 30.4799 260.622C30.5999 260.502 31.4099 261.182 32.4099 262.002C33.3899 262.832 34.2099 263.502 34.1199 263.642Z" fill="#263238"/>
<path d="M37.3801 259.232C37.2301 259.302 36.7601 258.562 36.3301 257.582C35.9001 256.602 35.6701 255.762 35.8201 255.692C35.9701 255.622 36.4401 256.362 36.8701 257.342C37.3001 258.322 37.5301 259.162 37.3801 259.232Z" fill="#263238"/>
<path d="M42.4901 256.102C42.3401 256.172 41.84 255.382 41.5 254.302C41.16 253.212 41.1301 252.282 41.2901 252.252C41.4501 252.222 41.74 253.072 42.07 254.122C42.39 255.162 42.6401 256.032 42.4901 256.102Z" fill="#263238"/>
<path d="M51.0301 252.572C51.1901 252.622 51.0901 253.292 50.8201 254.072C50.5501 254.842 50.2001 255.422 50.0501 255.372C49.8901 255.322 49.9901 254.652 50.2601 253.872C50.5301 253.102 50.8701 252.512 51.0301 252.572Z" fill="#263238"/>
<path d="M57.36 255.292C57.47 255.412 57.07 255.972 56.45 256.542C55.84 257.112 55.25 257.472 55.14 257.352C55.03 257.232 55.43 256.672 56.05 256.102C56.66 255.532 57.25 255.172 57.36 255.292Z" fill="#263238"/>
<path d="M62.93 258.891C63.02 259.031 62.53 259.521 61.82 260.001C61.12 260.481 60.47 260.751 60.38 260.621C60.29 260.481 60.78 259.991 61.49 259.511C62.2 259.021 62.84 258.751 62.93 258.891Z" fill="#263238"/>
<path d="M66.89 264.252C66.95 264.402 66.17 264.882 65.15 265.322C64.12 265.762 63.24 265.992 63.17 265.842C63.11 265.692 63.89 265.212 64.91 264.772C65.94 264.332 66.83 264.102 66.89 264.252Z" fill="#263238"/>
<path d="M68.45 270.112C68.47 270.272 67.68 270.512 66.68 270.632C65.68 270.752 64.85 270.722 64.83 270.562C64.81 270.402 65.6 270.162 66.6 270.042C67.6 269.912 68.43 269.942 68.45 270.112Z" fill="#263238"/>
<path d="M69.2599 277.312C69.1899 277.462 68.3499 277.242 67.3699 276.812C66.3899 276.382 65.6499 275.922 65.7199 275.772C65.7899 275.622 66.6299 275.842 67.6099 276.272C68.5899 276.692 69.3299 277.162 69.2599 277.312Z" fill="#263238"/>
<path d="M68.5501 283.491C68.5001 283.641 67.4301 283.391 66.3101 282.651C65.1901 281.921 64.5301 281.041 64.6401 280.931C64.7601 280.811 65.5701 281.461 66.6301 282.151C67.6901 282.851 68.6101 283.331 68.5501 283.491Z" fill="#263238"/>
<path d="M65.33 289.122C65.23 289.252 64.38 288.752 63.56 287.862C62.74 286.982 62.3 286.092 62.44 286.012C62.58 285.922 63.21 286.622 64 287.462C64.78 288.312 65.43 288.992 65.33 289.122Z" fill="#263238"/>
<path d="M34.7601 289.782C34.8401 289.932 33.9401 290.542 32.7601 291.162C31.5801 291.772 30.5601 292.152 30.4901 292.012C30.4101 291.862 31.3101 291.252 32.4901 290.632C33.6701 290.022 34.6801 289.642 34.7601 289.782Z" fill="#263238"/>
<path d="M31.9701 284.691C32.0401 284.841 31.3201 285.311 30.3701 285.741C29.4201 286.171 28.5901 286.401 28.5201 286.251C28.4501 286.101 29.1701 285.631 30.1201 285.201C31.0701 284.771 31.9001 284.541 31.9701 284.691Z" fill="#263238"/>
<path d="M29.92 280.182C29.94 280.342 29.06 280.602 27.95 280.762C26.84 280.922 25.92 280.912 25.89 280.752C25.87 280.592 26.75 280.332 27.86 280.172C28.97 280.022 29.89 280.022 29.92 280.182Z" fill="#263238"/>
<path d="M36.65 277.701C36.7 277.851 35.84 278.261 34.69 278.381C33.54 278.511 32.61 278.311 32.63 278.151C32.64 277.981 33.54 277.911 34.63 277.791C35.71 277.671 36.6 277.541 36.65 277.701Z" fill="#263238"/>
<path d="M42.2399 272.131C42.2899 272.281 41.5999 272.631 40.6799 272.721C39.7599 272.811 39.0199 272.611 39.0299 272.451C39.0499 272.281 39.7599 272.221 40.6199 272.131C41.4799 272.051 42.1899 271.971 42.2399 272.131Z" fill="#263238"/>
<path d="M43.3101 267.681C43.2601 267.841 42.5101 267.721 41.6501 267.421C40.7901 267.121 40.1301 266.751 40.1901 266.601C40.2401 266.441 40.9901 266.561 41.8501 266.861C42.7101 267.151 43.3601 267.521 43.3101 267.681Z" fill="#263238"/>
<path d="M45.36 263.172C45.25 263.282 44.74 262.952 44.37 262.322C44 261.692 43.97 261.082 44.12 261.042C44.28 260.992 44.56 261.462 44.88 262.022C45.21 262.582 45.48 263.052 45.36 263.172Z" fill="#263238"/>
<path d="M42.8899 281.622C42.9299 281.782 42.2899 282.072 41.4599 282.282C40.9799 282.402 40.5399 282.462 40.2499 282.462L40.1299 282.112C40.3499 282.072 40.4799 282.082 40.5099 282.142C40.5399 282.202 40.4499 282.312 40.2799 282.442L40.1599 282.092C40.4099 281.962 40.8299 281.812 41.3099 281.692C42.1399 281.502 42.8499 281.462 42.8899 281.622Z" fill="#263238"/>
<path d="M44.0401 289.532C44.1001 289.682 43.2801 290.152 42.2101 290.572C41.1401 290.992 40.2201 291.212 40.1601 291.052C40.1001 290.902 40.9201 290.432 41.9901 290.012C43.0601 289.592 43.9801 289.372 44.0401 289.532Z" fill="#263238"/>
<path d="M37.7199 286.022C37.7699 286.182 37.2299 286.502 36.4999 286.752C35.7699 287.002 35.1399 287.072 35.0899 286.922C35.0399 286.762 35.5799 286.442 36.3099 286.192C37.0399 285.932 37.6699 285.862 37.7199 286.022Z" fill="#263238"/>
<path d="M38.2099 269.932C38.1699 270.092 37.2199 269.992 36.1199 269.602C35.0199 269.212 34.2199 268.692 34.2899 268.542C34.3599 268.392 35.2499 268.662 36.3199 269.042C37.3799 269.422 38.2499 269.772 38.2099 269.932Z" fill="#263238"/>
<path d="M53.49 268.182C53.58 268.322 53.05 268.832 52.29 269.332C51.54 269.832 50.86 270.122 50.77 269.982C50.68 269.842 51.21 269.332 51.97 268.832C52.72 268.332 53.4 268.042 53.49 268.182Z" fill="#263238"/>
<path d="M54.3199 276.122C54.3499 276.282 53.7899 276.532 53.0599 276.692C52.3299 276.842 51.7199 276.832 51.6799 276.672C51.6499 276.512 52.2099 276.262 52.9399 276.102C53.6699 275.952 54.2899 275.962 54.3199 276.122Z" fill="#263238"/>
<path d="M55.2899 285.041C55.2199 285.191 54.4099 284.961 53.4799 284.531C52.5499 284.101 51.8499 283.631 51.9199 283.481C51.9899 283.331 52.7999 283.561 53.7299 283.991C54.6599 284.421 55.3599 284.891 55.2899 285.041Z" fill="#263238"/>
<path d="M53.25 293.731C53.12 293.831 52.6 293.401 52.07 292.771C51.55 292.131 51.23 291.541 51.36 291.431C51.49 291.331 52.01 291.761 52.54 292.391C53.05 293.021 53.37 293.621 53.25 293.731Z" fill="#263238"/>
<path d="M52.83 262.342C52.93 262.472 52.58 262.912 51.99 263.202C51.39 263.502 50.84 263.522 50.79 263.362C50.74 263.202 51.18 262.942 51.72 262.672C52.26 262.402 52.73 262.202 52.83 262.342Z" fill="#263238"/>
<path d="M60.3199 270.342C60.3699 270.492 59.6799 270.872 58.7299 271.002C57.7799 271.132 57.0099 270.962 57.0199 270.792C57.0299 270.622 57.7599 270.532 58.6499 270.402C59.5299 270.292 60.2699 270.182 60.3199 270.342Z" fill="#263238"/>
<path d="M58.83 263.161C58.9 263.301 58.21 263.801 57.24 264.111C56.26 264.421 55.42 264.421 55.39 264.261C55.36 264.091 56.13 263.841 57.06 263.541C57.98 263.241 58.75 263.011 58.83 263.161Z" fill="#263238"/>
<path d="M61.9599 281.472C61.9599 281.632 60.7799 281.732 59.3599 281.472C57.9399 281.212 56.8699 280.702 56.9299 280.552C56.9799 280.392 58.0999 280.632 59.4699 280.882C60.8299 281.142 61.9599 281.302 61.9599 281.472Z" fill="#263238"/>
<path d="M59.17 291.911C59.07 292.041 58.2 291.531 57.34 290.661C56.47 289.791 55.97 288.921 56.1 288.821C56.23 288.721 56.93 289.401 57.77 290.241C58.6 291.081 59.28 291.781 59.17 291.911Z" fill="#263238"/>
<path d="M46.93 254.662C47.02 254.792 44.55 255.792 41.7 258.792C38.85 261.732 35.91 266.912 35.19 273.182C34.84 276.292 35.14 279.312 35.58 282.002C36.05 284.692 36.66 287.082 37.23 289.072C37.8 291.062 38.33 292.662 38.68 293.762C39.03 294.872 39.22 295.482 39.18 295.502C39.14 295.512 38.88 294.932 38.46 293.842C38.04 292.762 37.45 291.182 36.82 289.192C36.2 287.202 35.53 284.812 35.03 282.092C34.55 279.372 34.23 276.312 34.59 273.112C35.33 266.702 38.4 261.422 41.39 258.502C42.88 257.022 44.27 256.032 45.29 255.452C45.78 255.142 46.21 254.972 46.48 254.832C46.77 254.702 46.92 254.642 46.93 254.662Z" fill="white"/>
<path d="M55.0601 295.882C54.9301 295.822 56.4001 293.552 57.7401 289.482C59.1201 285.452 60.2601 279.492 59.3401 273.022C58.9101 269.792 57.9801 266.802 56.8001 264.242C55.5801 261.722 54.0101 259.652 52.4701 258.212C50.8801 256.802 49.3201 256.002 48.2301 255.532C47.1301 255.072 46.4701 254.962 46.4801 254.912C46.4801 254.892 46.6501 254.902 46.9701 254.952C47.2801 255.012 47.7501 255.112 48.3201 255.312C49.4601 255.722 51.0801 256.482 52.7601 257.892C54.3901 259.352 56.0201 261.412 57.3101 264.002C58.5401 266.602 59.5001 269.642 59.9401 272.932C60.8801 279.532 59.6401 285.582 58.1501 289.612C57.8101 290.642 57.3801 291.522 57.0601 292.322C56.6801 293.092 56.3601 293.762 56.0701 294.292C55.4501 295.342 55.0901 295.902 55.0601 295.882Z" fill="white"/>
<path d="M31.97 294.473H64.83L65.03 301.053H31.97V294.473Z" fill="#263238"/>
<path d="M34.76 297.762L36.65 317.842H60.67L62.6 297.982L34.76 297.762Z" fill="#263238"/>
<path d="M65.03 301.132C65.03 301.292 57.63 301.432 48.5 301.432C39.37 301.432 31.97 301.302 31.97 301.132C31.97 300.972 39.37 300.832 48.5 300.832C57.63 300.832 65.03 300.972 65.03 301.132Z" fill="#455A64"/>
<path d="M61.6901 307.252C61.7201 307.272 61.5002 307.732 60.9902 308.502C60.4702 309.272 59.6501 310.352 58.4401 311.512L58.2901 311.652L58.1401 311.492C56.5601 309.832 54.3801 307.802 51.7001 305.852L52.0602 305.832C51.1402 306.642 50.1901 307.472 49.2001 308.342C48.0301 309.362 46.9001 310.342 45.8201 311.282L45.6301 311.442L45.4401 311.282C43.3901 309.562 41.5302 307.992 39.9502 306.672L40.2701 306.642C39.1401 308.022 38.1801 309.182 37.4301 310.102C36.7501 310.912 36.3501 311.352 36.3201 311.322C36.2801 311.292 36.6102 310.802 37.2402 309.952C37.9502 309.002 38.8501 307.802 39.9201 306.362L40.0602 306.182L40.2402 306.332C41.8402 307.632 43.7302 309.162 45.8102 310.842L45.4401 310.852C46.5101 309.912 47.6401 308.922 48.8001 307.902C49.7801 307.042 50.7401 306.212 51.6601 305.402L51.8401 305.252L52.0301 305.392C54.7401 307.382 56.9001 309.482 58.4401 311.212L58.1401 311.202C60.5901 308.992 61.6001 307.172 61.6901 307.252Z" fill="#455A64"/>
<path d="M170.93 133.952C163.88 132.282 157.78 127.032 155.08 120.312C152.38 113.592 153.14 105.582 157.06 99.4924C152.67 90.9224 156.05 79.2124 164.33 74.3124C165.83 73.4224 167.47 72.7224 168.72 71.5024C171.06 69.2124 171.48 65.6624 172.7 62.6124C174.68 57.6724 179.15 53.8024 184.32 52.5624C189.49 51.3224 195.24 52.7224 199.24 56.2324C204.04 53.8524 209 51.4624 214.34 51.0524C219.68 50.6424 225.55 52.6324 228.27 57.2424C229.76 59.7724 230.27 62.9724 232.47 64.9224C234.69 66.9024 237.99 67.0224 240.61 68.4124C245.62 71.0724 247.07 77.5524 247.07 83.2224C247.08 88.8924 246.25 94.8824 248.75 99.9624C250.05 102.612 252.19 104.842 253.09 107.652C254.08 110.762 253.32 114.372 251.15 116.822C248.98 119.262 245.49 120.452 242.28 119.842C244.45 124.802 243.62 130.752 240.89 135.432C238.16 140.112 233.73 143.612 228.9 146.062C225.44 147.822 221.54 149.122 217.7 148.542C214.13 148.002 210.98 145.892 208.35 143.432C202.4 137.872 198.46 130.212 197.41 122.132" fill="#263238"/>
<path d="M184.22 66.6827C181.17 66.3627 178.38 68.4327 177.8 71.4427L164.43 150.153C162.59 159.393 174.93 167.473 184.84 169.363C194.85 171.273 196.22 166.463 198.23 157.733C201.59 143.143 202.76 137.643 202.75 137.723C202.75 137.723 215.78 138.313 221.89 122.453C224.93 114.563 227.37 101.083 229.02 89.9927C230.5 80.0127 226.55 66.5227 216.51 65.4727L184.22 66.6827Z" fill="#FFBE9D"/>
<path d="M223.13 99.8422C222.93 100.962 221.82 101.722 220.65 101.532C219.48 101.352 218.69 100.292 218.88 99.1722C219.08 98.0522 220.19 97.2922 221.36 97.4822C222.53 97.6622 223.32 98.7222 223.13 99.8422Z" fill="#263238"/>
<path d="M224.64 97.7223C224.32 97.9423 222.98 96.4223 220.71 95.9423C218.45 95.4323 216.54 96.2423 216.35 95.9123C216.26 95.7623 216.63 95.3223 217.46 94.9523C218.28 94.5823 219.61 94.3323 221.02 94.6323C222.43 94.9423 223.51 95.7123 224.08 96.3923C224.66 97.0723 224.79 97.6223 224.64 97.7223Z" fill="#263238"/>
<path d="M200.55 94.9731C200.35 96.0931 199.24 96.8531 198.07 96.6631C196.9 96.4731 196.11 95.4231 196.3 94.3031C196.5 93.1831 197.61 92.4231 198.78 92.6131C199.95 92.7931 200.74 93.8531 200.55 94.9731Z" fill="#263238"/>
<path d="M202.27 92.6529C201.95 92.8729 200.6 91.3529 198.34 90.8729C196.08 90.3629 194.17 91.1729 193.98 90.8429C193.89 90.6929 194.25 90.2529 195.09 89.8829C195.92 89.5129 197.24 89.2629 198.65 89.5629C200.06 89.8729 201.14 90.6429 201.71 91.3229C202.29 92.0129 202.42 92.5529 202.27 92.6529Z" fill="#263238"/>
<path d="M206.91 110.573C206.93 110.443 208.39 110.503 210.73 110.693C211.32 110.753 211.89 110.763 212.08 110.383C212.31 109.993 212.2 109.323 212.06 108.583C211.81 107.063 211.56 105.473 211.29 103.813C210.25 97.0331 209.63 91.5031 209.9 91.4631C210.17 91.4231 211.24 96.8931 212.28 103.673C212.52 105.343 212.75 106.933 212.97 108.453C213.05 109.153 213.27 109.983 212.79 110.793C212.54 111.193 212.05 111.413 211.66 111.433C211.27 111.463 210.94 111.403 210.65 111.363C208.32 110.993 206.89 110.703 206.91 110.573Z" fill="#263238"/>
<path d="M202.76 137.723C202.76 137.723 191.56 136.083 182.02 127.163C182.02 127.163 185.1 139.933 201.86 141.903L202.76 137.723Z" fill="#EB996E"/>
<path d="M204.79 115.832C204.2 114.582 202.9 113.682 201.45 113.532C200.44 113.432 199.35 113.692 198.58 114.362C197.81 115.032 197.44 116.142 197.82 117.022C198.25 118.012 199.48 118.482 200.63 118.412C201.78 118.332 202.86 117.822 203.9 117.302C204.19 117.162 204.48 117.002 204.69 116.772C204.9 116.532 205.01 116.192 204.87 115.932" fill="#EB996E"/>
<path d="M199.91 110.723C200.28 110.783 199.76 113.243 201.5 115.433C203.23 117.633 205.91 117.913 205.86 118.263C205.86 118.423 205.17 118.613 204.06 118.413C202.97 118.223 201.46 117.533 200.39 116.193C199.33 114.853 199.09 113.303 199.22 112.273C199.34 111.223 199.74 110.673 199.91 110.723Z" fill="#263238"/>
<path d="M204.14 88.2625C203.79 88.8325 201.58 88.0525 198.86 87.8125C196.14 87.5125 193.83 87.8324 193.59 87.2024C193.49 86.9024 193.99 86.4025 194.98 85.9925C195.97 85.5825 197.46 85.3025 199.09 85.4725C200.72 85.6425 202.13 86.2025 203.02 86.8025C203.91 87.4025 204.29 87.9925 204.14 88.2625Z" fill="#263238"/>
<path d="M225.2 93.6324C224.69 94.0624 223.24 93.1924 221.37 92.7724C219.51 92.2824 217.83 92.3824 217.58 91.7624C217.48 91.4624 217.84 91.0024 218.63 90.6624C219.42 90.3224 220.65 90.1724 221.93 90.4824C223.21 90.8024 224.23 91.5024 224.77 92.1724C225.33 92.8424 225.43 93.4224 225.2 93.6324Z" fill="#263238"/>
<path d="M196.14 63.6622C192.92 60.3222 188.31 58.1022 183.65 58.4222C179 58.7322 174.52 61.9022 173.41 66.3322C172.69 69.2122 173.28 72.5622 171.43 74.9022C169.67 77.1222 166.43 77.4922 163.9 78.8322C159.93 80.9422 157.82 85.9122 159.08 90.1822C160.16 93.8622 163.41 97.0822 162.93 100.862C162.47 104.422 158.89 106.732 157.43 110.022C155.82 113.642 157.08 118.012 159.54 121.182C162.01 124.342 163.91 130.882 167.34 133.022C170.01 134.692 174.08 135.852 177.58 134.542C181.1 133.222 184.79 129.262 186.05 125.802C187.31 122.342 186.63 118.372 184.77 115.152C183.16 112.372 180.63 109.762 180.79 106.592C181.03 101.652 187.56 98.9522 188.25 94.0522C188.61 91.5222 187.3 89.0922 186.28 86.7322C185.26 84.3722 184.54 81.5222 185.94 79.3822C187.76 76.6022 191.92 76.6722 194.81 74.9622C197.23 73.5322 198.69 70.7022 198.43 67.9322C198.17 65.1622 196.22 62.6022 193.57 61.5722" fill="#263238"/>
<path d="M195.17 59.5822C194.45 62.8622 195.26 66.4522 197.33 69.1022C199.39 71.7522 202.67 73.4222 206.03 73.5222C208.64 73.6022 211.66 72.9322 213.54 74.7322C215.52 76.6322 214.87 80.0922 216.52 82.2822C218.87 85.4222 223.98 84.0522 227.42 85.9322C230.08 87.3822 231.26 90.4822 232.66 93.1622C234.05 95.8522 236.41 98.6322 239.43 98.3922C239.8 95.8022 240.17 93.1822 239.94 90.5822C239.71 87.9722 238.81 85.3422 236.97 83.4922C235.96 82.4722 234.7 81.7122 233.8 80.6022C231.85 78.1922 232.02 74.7622 231.14 71.8022C230 67.9722 226.9 64.7922 223.1 63.5622C219.94 62.5322 216.41 62.7922 213.43 61.3122C211.23 60.2222 209.52 58.2722 207.26 57.3222C202.86 55.4622 197.88 57.8322 193.84 60.3922" fill="#263238"/>
<path d="M221.01 165.612C221.01 165.612 231.44 175.392 231.14 191.492C230.84 207.592 233.43 236.792 233.43 236.792L277.97 264.012L265.4 283.262L216.33 261.502L206.04 240.432L221.01 165.612Z" fill="#E8505B"/>
<path d="M234.62 275.923C234.62 275.923 236.28 272.733 231.61 270.303L224.04 270.283L209.27 244.793L221.06 165.623L200.91 150.313L156.32 146.343L140.74 226.483L160.66 262.893L200.16 279.133L234.62 275.923Z" fill="#E8505B"/>
<path d="M164.19 146.933L165.07 139.383C165.24 137.933 166.66 136.963 168.08 137.343C179.12 145.993 190.5 150.383 202.49 146.933C204.12 147.383 205.09 149.053 204.69 150.693L200.03 169.623L187.83 173.273L171.72 170.123L164.2 156.213V146.933H164.19Z" fill="#E8505B"/>
<path d="M202.81 152.142C202.83 152.172 202.33 152.502 201.38 153.012C200.43 153.522 199 154.162 197.16 154.752C193.51 155.942 188.03 156.712 182.23 155.402C176.43 154.092 171.8 151.042 169.02 148.402C167.61 147.082 166.6 145.892 165.96 145.022C165.32 144.162 165.01 143.642 165.04 143.622C165.14 143.542 166.45 145.552 169.31 148.082C172.13 150.602 176.69 153.522 182.37 154.802C188.04 156.082 193.42 155.402 197.04 154.342C200.7 153.282 202.75 152.032 202.81 152.142Z" fill="#263238"/>
<g opacity="0.3">
<g opacity="0.3">
<g opacity="0.3">
<path opacity="0.3" d="M166.34 145.103C165.66 146.503 166.03 148.233 166.89 149.543C167.75 150.843 169.02 151.813 170.27 152.743C174.59 155.953 179.09 159.153 184.27 160.633C189.45 162.103 195.52 161.553 199.49 157.923C200.64 156.873 201.54 154.893 200.34 153.893C199.44 153.143 198.1 153.603 197.01 154.023C191.73 156.043 185.77 156.243 180.36 154.563C174.96 152.893 170.15 149.363 166.93 144.713" fill="black"/>
</g>
</g>
</g>
<path d="M160.19 230.813L233.05 269.873L206.77 285.763L156.65 271.063C130.07 264.033 122.81 252.983 123.07 241.593C123.17 237.443 122.68 196.933 124.47 177.063C126.91 149.993 156.33 146.343 156.33 146.343L155.82 169.483L156.15 197.743L157.15 223.673C159.81 222.343 160.47 227.333 160.47 227.333L160.19 230.813Z" fill="#E8505B"/>
<path d="M156.64 226.763C156.47 226.763 156.24 216.963 156.13 204.873C156.02 192.783 156.07 182.973 156.24 182.973C156.41 182.973 156.64 192.773 156.75 204.863C156.86 216.963 156.81 226.763 156.64 226.763Z" fill="#263238"/>
<path d="M159.93 232.152C159.85 232.102 160.07 231.662 160.19 230.922C160.31 230.192 160.26 229.112 159.7 228.142C159.13 227.182 158.22 226.602 157.52 226.352C156.82 226.082 156.32 226.072 156.32 225.972C156.31 225.902 156.82 225.752 157.64 225.942C158.44 226.112 159.55 226.702 160.22 227.842C160.88 228.982 160.85 230.242 160.6 231.022C160.37 231.822 159.99 232.192 159.93 232.152Z" fill="#263238"/>
<path d="M159.93 232.152C159.95 232.152 159.96 232.202 160.06 232.262C160.15 232.332 160.29 232.422 160.48 232.532C160.86 232.762 161.44 233.082 162.19 233.492C163.69 234.312 165.87 235.462 168.58 236.862C174.08 239.682 181.55 243.512 189.81 247.742C198.07 251.972 205.55 255.792 211.06 258.602C213.71 259.982 215.89 261.112 217.48 261.942C218.18 262.322 218.76 262.632 219.21 262.872C219.6 263.092 219.8 263.212 219.8 263.232C219.79 263.252 219.57 263.162 219.16 262.982C218.69 262.762 218.1 262.492 217.38 262.152C215.77 261.372 213.57 260.302 210.87 258.992C205.39 256.292 197.84 252.522 189.54 248.292C181.24 244.062 173.76 240.162 168.39 237.252C163.02 234.352 159.74 232.382 159.93 232.152Z" fill="#263238"/>
<path d="M156.34 176.313C156.24 176.323 156.09 174.673 155.71 172.043C155.31 169.423 154.65 165.773 152.97 162.103C151.29 158.443 148.75 155.683 146.59 154.183C144.43 152.653 142.8 152.233 142.85 152.113C142.86 152.083 143.27 152.153 143.98 152.393C144.69 152.633 145.7 153.083 146.83 153.823C149.11 155.263 151.79 158.083 153.52 161.843C155.24 165.603 155.84 169.333 156.13 171.983C156.27 173.313 156.34 174.393 156.36 175.143C156.39 175.893 156.38 176.313 156.34 176.313Z" fill="#263238"/>
<g opacity="0.3">
<g opacity="0.3">
<g opacity="0.3">
<path opacity="0.3" d="M223.21 265.332C225.63 260.682 225.03 255.042 223.67 249.982C222.31 244.922 220.23 239.992 219.83 234.772C219.49 230.242 220.44 225.732 221.34 221.282C222.25 216.832 223.13 212.292 222.66 207.782C222.19 203.262 220.17 198.692 216.37 196.202C217.88 199.952 219.41 203.762 219.91 207.772C220.41 211.782 219.79 216.102 217.34 219.322C216.09 220.972 214.39 222.322 213.57 224.222C212.49 226.752 212.65 229.622 211.85 232.162C210.97 234.952 209.36 244.292 209.36 244.292C209.26 244.802 212.13 250.092 214.97 253.862C217.81 257.632 221.25 261.022 223.31 265.272" fill="black"/>
</g>
</g>
</g>
<path d="M223.39 265.013C223.38 265.023 223.28 264.903 223.09 264.663C222.88 264.383 222.62 264.023 222.29 263.593C221.57 262.593 220.58 261.213 219.34 259.503C216.8 255.913 213.25 250.893 209.05 244.953L208.98 244.853L209 244.733C210.14 239.113 211.44 232.733 212.82 225.973C212.97 225.253 213.11 224.543 213.25 223.853L213.27 223.763L213.33 223.693C217.82 219.103 220.17 212.993 220.05 207.663C219.77 202.293 217.77 197.763 215.39 194.983L215.35 194.933V194.873C215.16 191.873 215.01 189.473 214.9 187.753C214.86 186.973 214.83 186.343 214.81 185.863C214.8 185.433 214.8 185.213 214.81 185.213C214.83 185.213 214.86 185.433 214.91 185.863C214.96 186.343 215.02 186.973 215.1 187.743C215.25 189.453 215.46 191.853 215.72 194.843L215.67 194.733C218.18 197.553 220.26 202.143 220.59 207.643C220.75 210.413 220.07 213.333 218.96 216.173C217.81 219.013 216.07 221.763 213.76 224.123L213.84 223.973C213.7 224.663 213.55 225.373 213.41 226.093C212.01 232.843 210.69 239.233 209.53 244.843L209.49 244.633C213.62 250.623 217.1 255.683 219.6 259.313C220.79 261.073 221.74 262.473 222.43 263.493C222.73 263.953 222.97 264.313 223.16 264.613C223.33 264.873 223.4 265.003 223.39 265.013Z" fill="#263238"/>
<g opacity="0.3">
<g opacity="0.3">
<g opacity="0.3">
<path opacity="0.3" d="M170.5 226.562C169.77 225.992 168.64 226.882 168.68 227.802C168.73 228.722 169.5 229.442 170.28 229.922C172.44 231.242 175.08 231.582 177.6 231.382C180.73 231.132 183.87 230.042 186.15 227.882C188.43 225.722 189.73 222.422 189.04 219.352C188.98 219.102 188.91 218.852 188.73 218.662C188.14 218.052 187.15 218.732 186.56 219.352C182.54 223.612 176.83 226.242 170.98 226.522" fill="black"/>
</g>
</g>
</g>
<g opacity="0.3">
<g opacity="0.3">
<g opacity="0.3">
<path opacity="0.3" d="M156.29 226.052C153.59 224.852 150.12 225.742 148.32 228.092C147.75 228.842 147.34 229.902 147.84 230.702C148.25 231.362 149.16 231.572 149.91 231.402C150.67 231.232 151.32 230.752 151.94 230.272C153.29 229.232 154.61 228.152 155.9 227.032C156.08 226.872 156.27 226.702 156.35 226.482C156.43 226.252 156.36 225.952 156.14 225.862" fill="black"/>
</g>
</g>
</g>
<path d="M150.13 232.203C150.06 232.183 150.12 231.603 150.48 230.743C150.84 229.883 151.55 228.763 152.63 227.813C153.71 226.863 154.92 226.313 155.82 226.073C156.72 225.833 157.31 225.853 157.32 225.923C157.37 226.103 155.08 226.453 153.04 228.273C150.96 230.043 150.3 232.273 150.13 232.203Z" fill="#263238"/>
<path d="M249.66 329.523C249.54 329.643 234.26 313.553 215.54 293.603C196.82 273.643 181.74 257.373 181.87 257.253C181.99 257.133 197.27 273.223 215.99 293.183C234.71 313.133 249.79 329.403 249.66 329.523Z" fill="#455A64"/>
<path d="M136.65 180.493C136.51 180.503 136.19 178.253 135.93 175.453C135.68 172.653 135.59 170.383 135.73 170.373C135.87 170.363 136.19 172.613 136.45 175.413C136.7 178.203 136.79 180.473 136.65 180.493Z" fill="#FAFAFA"/>
<path d="M142.23 197.122C142.09 197.102 142.29 194.962 142.68 192.332C143.07 189.712 143.5 187.602 143.64 187.622C143.78 187.642 143.58 189.782 143.19 192.412C142.81 195.032 142.37 197.142 142.23 197.122Z" fill="#FAFAFA"/>
<path d="M131.57 208.382C131.43 208.392 131.19 206.152 131.05 203.382C130.91 200.612 130.91 198.362 131.05 198.362C131.19 198.362 131.43 200.592 131.57 203.362C131.72 206.132 131.72 208.382 131.57 208.382Z" fill="#FAFAFA"/>
<path d="M147.03 222.472C146.9 222.542 145.94 220.892 144.88 218.802C143.82 216.712 143.07 214.962 143.2 214.892C143.33 214.832 144.29 216.472 145.35 218.562C146.4 220.652 147.15 222.402 147.03 222.472Z" fill="#FAFAFA"/>
<path d="M135.11 230.903C135.19 231.023 133.96 232.023 132.35 233.133C130.74 234.243 129.38 235.053 129.3 234.933C129.22 234.813 130.45 233.813 132.06 232.703C133.66 231.593 135.03 230.793 135.11 230.903Z" fill="#FAFAFA"/>
<path d="M159.22 237.912C159.09 237.972 158.43 236.712 157.75 235.112C157.07 233.512 156.63 232.162 156.76 232.112C156.89 232.052 157.55 233.312 158.23 234.912C158.91 236.512 159.35 237.852 159.22 237.912Z" fill="#FAFAFA"/>
<path d="M185.02 249.023C184.96 249.153 182.74 248.193 180.07 246.883C177.4 245.573 175.29 244.403 175.35 244.273C175.41 244.143 177.63 245.103 180.3 246.413C182.97 247.733 185.09 248.893 185.02 249.023Z" fill="#FAFAFA"/>
<path d="M191.17 263.053C191.05 262.973 191.86 261.463 192.99 259.673C194.12 257.883 195.13 256.493 195.25 256.563C195.37 256.643 194.56 258.153 193.43 259.943C192.3 261.743 191.29 263.133 191.17 263.053Z" fill="#FAFAFA"/>
<path d="M203.27 274.673C203.13 274.673 203.09 272.183 203.19 269.123C203.29 266.063 203.49 263.593 203.63 263.593C203.77 263.593 203.81 266.083 203.71 269.143C203.61 272.203 203.41 274.673 203.27 274.673Z" fill="#FAFAFA"/>
<path d="M164.82 158.443C164.77 158.573 163.07 158.053 161.11 157.073C159.15 156.103 157.7 155.063 157.78 154.943C157.86 154.813 159.41 155.653 161.34 156.613C163.28 157.573 164.87 158.303 164.82 158.443Z" fill="#FAFAFA"/>
<path d="M146.69 161.472C146.61 161.592 145.29 160.862 143.73 159.842C142.17 158.822 140.98 157.902 141.06 157.782C141.14 157.662 142.46 158.392 144.02 159.412C145.57 160.422 146.77 161.352 146.69 161.472Z" fill="#FAFAFA"/>
<path d="M164.25 182.872C164.12 182.812 164.92 180.642 166.04 178.022C167.16 175.402 168.17 173.322 168.3 173.382C168.43 173.442 167.63 175.612 166.51 178.232C165.4 180.852 164.38 182.932 164.25 182.872Z" fill="#FAFAFA"/>
<path d="M167.61 204.703C167.48 204.773 166.43 202.863 165.03 200.593C163.64 198.313 162.42 196.513 162.54 196.423C162.65 196.343 164.07 198.013 165.48 200.313C166.89 202.623 167.74 204.643 167.61 204.703Z" fill="#FAFAFA"/>
<path d="M186.64 180.632C186.73 180.742 185.26 182.052 183.37 183.552C181.47 185.052 179.87 186.182 179.78 186.072C179.69 185.962 181.15 184.652 183.05 183.142C184.94 181.652 186.55 180.522 186.64 180.632Z" fill="#FAFAFA"/>
<path d="M184.36 169.692C184.24 169.762 182.95 167.822 181.49 165.342C180.03 162.862 178.95 160.802 179.07 160.732C179.19 160.662 180.48 162.602 181.94 165.082C183.4 167.552 184.48 169.612 184.36 169.692Z" fill="#FAFAFA"/>
<path d="M199.57 160.703C199.7 160.773 198.91 162.523 197.82 164.623C196.72 166.723 195.73 168.373 195.61 168.303C195.48 168.233 196.27 166.483 197.36 164.383C198.45 162.283 199.44 160.643 199.57 160.703Z" fill="#FAFAFA"/>
<path d="M183.29 154.233C183.15 154.173 183.52 153.043 183.7 151.603C183.89 150.163 183.82 148.973 183.97 148.953C184.1 148.923 184.42 150.153 184.21 151.673C184.03 153.193 183.41 154.293 183.29 154.233Z" fill="#FAFAFA"/>
<path d="M197.17 153.522C197.09 153.642 196.07 153.062 194.91 152.242C193.74 151.412 192.87 150.652 192.95 150.532C193.03 150.412 194.05 150.992 195.21 151.812C196.37 152.642 197.25 153.412 197.17 153.522Z" fill="#FAFAFA"/>
<path d="M171.5 144.212C171.5 144.352 170.83 144.472 170.01 144.472C169.18 144.472 168.52 144.352 168.52 144.212C168.52 144.072 169.19 143.952 170.01 143.952C170.83 143.952 171.5 144.062 171.5 144.212Z" fill="#FAFAFA"/>
<path d="M214.79 168.432C214.69 168.532 213.12 167.102 211.29 165.242C209.46 163.382 208.06 161.792 208.16 161.692C208.26 161.592 209.83 163.022 211.66 164.882C213.49 166.742 214.89 168.332 214.79 168.432Z" fill="#FAFAFA"/>
<path d="M206.29 190.272C206.15 190.252 206.33 187.922 206.88 185.102C207.43 182.272 208.14 180.052 208.27 180.082C208.41 180.122 207.93 182.392 207.39 185.202C206.84 188.002 206.44 190.292 206.29 190.272Z" fill="#FAFAFA"/>
<path d="M196.07 200.303C195.92 200.323 195.53 197.713 195.02 194.513C194.51 191.313 194.07 188.713 194.22 188.683C194.36 188.653 195.03 191.213 195.54 194.433C196.05 197.653 196.21 200.293 196.07 200.303Z" fill="#FAFAFA"/>
<path d="M182.59 214.362C182.47 214.432 181.24 212.612 180.07 210.162C178.89 207.722 178.23 205.622 178.36 205.572C178.5 205.522 179.37 207.512 180.54 209.932C181.69 212.352 182.71 214.282 182.59 214.362Z" fill="#FAFAFA"/>
<path d="M173.64 222.683C173.6 222.823 171.36 222.283 168.63 221.483C165.9 220.683 163.73 219.923 163.77 219.783C163.81 219.643 166.05 220.183 168.78 220.983C171.5 221.783 173.68 222.543 173.64 222.683Z" fill="#FAFAFA"/>
<path d="M180.5 231.823C180.58 231.953 179.32 232.793 177.93 234.003C176.53 235.203 175.52 236.323 175.4 236.233C175.29 236.153 176.14 234.853 177.59 233.613C179.02 232.363 180.43 231.703 180.5 231.823Z" fill="#FAFAFA"/>
<path d="M192.48 242.682C192.34 242.702 191.95 240.672 191.63 238.142C191.3 235.612 191.15 233.552 191.29 233.532C191.43 233.512 191.82 235.542 192.15 238.072C192.48 240.602 192.63 242.672 192.48 242.682Z" fill="#FAFAFA"/>
<path d="M206.14 238.982C206.1 239.112 204.42 238.672 202.5 237.732C200.58 236.802 199.2 235.752 199.28 235.632C199.36 235.502 200.85 236.342 202.73 237.262C204.61 238.182 206.18 238.842 206.14 238.982Z" fill="#FAFAFA"/>
<path d="M209.86 216.752C209.91 216.892 207.81 217.672 205.28 218.752C202.75 219.822 200.73 220.792 200.66 220.662C200.59 220.542 202.51 219.352 205.07 218.272C207.63 217.182 209.82 216.612 209.86 216.752Z" fill="#FAFAFA"/>
<path d="M212.84 210.303C212.73 210.393 211.27 208.763 209.59 206.663C207.91 204.563 206.63 202.783 206.75 202.693C206.86 202.603 208.32 204.233 210 206.333C211.67 208.443 212.95 210.213 212.84 210.303Z" fill="#FAFAFA"/>
<path d="M205.06 255.682C204.92 255.702 204.6 254.342 204.36 252.642C204.11 250.942 204.03 249.552 204.17 249.532C204.31 249.512 204.63 250.872 204.87 252.572C205.11 254.272 205.2 255.662 205.06 255.682Z" fill="#FAFAFA"/>
<path d="M226.92 235.963C226.81 236.053 225.31 234.483 223.56 232.443C221.81 230.403 220.48 228.673 220.59 228.583C220.7 228.493 222.2 230.063 223.95 232.103C225.7 234.143 227.03 235.873 226.92 235.963Z" fill="#FAFAFA"/>
<path d="M225.49 224.043C225.36 223.983 226.05 222.053 227.03 219.733C228.01 217.403 228.92 215.563 229.05 215.623C229.18 215.683 228.49 217.613 227.51 219.933C226.53 222.253 225.62 224.093 225.49 224.043Z" fill="#FAFAFA"/>
<path d="M227.13 202.183C227.01 202.273 225.88 200.933 224.6 199.193C223.32 197.453 222.38 195.983 222.49 195.893C222.61 195.803 223.74 197.143 225.02 198.883C226.3 200.623 227.25 202.093 227.13 202.183Z" fill="#FAFAFA"/>
<path d="M224.46 182.503C224.35 182.593 222.83 180.903 221.06 178.733C219.29 176.563 217.95 174.733 218.07 174.643C218.18 174.553 219.7 176.243 221.47 178.413C223.23 180.583 224.57 182.413 224.46 182.503Z" fill="#FAFAFA"/>
<path d="M230.79 256.763C230.67 256.693 231.67 254.743 233.03 252.413C234.39 250.083 235.6 248.253 235.72 248.333C235.84 248.403 234.84 250.353 233.48 252.683C232.12 255.003 230.91 256.833 230.79 256.763Z" fill="#FAFAFA"/>
<path d="M243.39 265.363C243.25 265.403 242.46 263.033 241.62 260.083C240.78 257.123 240.21 254.693 240.35 254.653C240.49 254.613 241.28 256.983 242.12 259.933C242.96 262.893 243.53 265.323 243.39 265.363Z" fill="#FAFAFA"/>
<path d="M257.82 263.072C257.69 263.132 257.02 261.842 256.33 260.192C255.64 258.542 255.18 257.172 255.32 257.112C255.45 257.052 256.12 258.342 256.81 259.992C257.5 261.632 257.95 263.012 257.82 263.072Z" fill="#FAFAFA"/>
<path d="M225.8 280.843L303.63 243.033C311.57 239.173 320.93 239.633 328.46 244.233C342.05 252.543 344.98 271.043 334.64 283.153L300.92 322.613L214.82 334.523L206.76 285.753L216.33 270.933L225.8 280.843Z" fill="#263238"/>
<path d="M272.81 296.982C272.83 297.022 272.49 297.292 271.86 297.772C271.22 298.242 270.29 298.912 269.12 299.712C266.78 301.312 263.5 303.452 259.8 305.682C256.1 307.912 252.68 309.812 250.17 311.132C248.92 311.792 247.89 312.312 247.18 312.652C246.46 312.992 246.06 313.162 246.04 313.122C246.02 313.082 246.39 312.842 247.07 312.442C247.87 311.972 248.84 311.412 249.96 310.752C252.41 309.342 255.79 307.382 259.48 305.162C263.17 302.932 266.48 300.862 268.88 299.362C269.99 298.672 270.94 298.082 271.72 297.592C272.4 297.162 272.79 296.952 272.81 296.982Z" fill="#455A64"/>
<path d="M108.43 299.882C108.43 299.882 116.16 262.552 120.13 256.812C124.1 251.072 132.5 238.212 143.1 236.892C153.7 235.572 175.37 248.282 179.31 253.282C189.29 265.922 252.25 332.582 251.48 331.712L231.19 345.712L209.75 338.912H148.21C148.2 338.912 105.57 331.712 108.43 299.882Z" fill="#263238"/>
<path d="M209.74 338.912C209.74 338.932 209.42 338.912 208.8 338.862C208.18 338.832 207.28 338.672 206.13 338.442C203.84 337.922 200.58 336.872 196.76 335.132C189.1 331.692 179.08 325.702 169.03 317.772C158.87 309.992 150.06 302.442 144.23 296.392C141.33 293.362 139.1 290.792 137.79 288.832C137.07 287.902 136.67 287.072 136.35 286.542C136.04 286.002 135.89 285.722 135.91 285.712C135.93 285.702 136.12 285.972 136.46 286.482C136.82 286.982 137.24 287.792 137.99 288.692C139.35 290.592 141.62 293.112 144.55 296.092C150.44 302.032 159.28 309.522 169.42 317.282C179.45 325.192 189.38 331.202 196.96 334.732C200.74 336.512 203.94 337.622 206.2 338.202C207.33 338.472 208.22 338.672 208.83 338.732C209.43 338.832 209.75 338.892 209.74 338.912Z" fill="#455A64"/>
<path d="M182.16 330.583C182.17 330.603 181.9 330.773 181.36 331.073C180.77 331.393 179.99 331.823 179.01 332.363C177.99 332.923 176.66 333.433 175.15 334.113C174.4 334.463 173.54 334.693 172.66 335.023C171.77 335.313 170.85 335.703 169.83 335.933C165.84 337.133 160.9 337.943 155.39 338.083C149.88 338.203 143.79 337.553 137.66 335.793C131.53 334.043 126.04 331.283 121.51 328.133C120.41 327.303 119.29 326.553 118.29 325.703C117.27 324.863 116.41 323.913 115.61 322.983C114.03 321.093 112.8 319.153 111.82 317.303C109.86 313.603 108.97 310.293 108.63 307.993C108.46 306.843 108.38 305.933 108.39 305.323C108.39 304.713 108.39 304.393 108.42 304.393C108.49 304.393 108.45 305.683 108.87 307.963C109.29 310.233 110.22 313.483 112.21 317.103C113.2 318.913 114.44 320.813 116 322.653C116.8 323.553 117.65 324.473 118.65 325.293C119.64 326.113 120.76 326.853 121.85 327.663C126.34 330.753 131.78 333.463 137.85 335.203C143.91 336.943 149.94 337.613 155.39 337.513C160.85 337.403 165.75 336.643 169.73 335.513C170.74 335.303 171.66 334.923 172.55 334.653C173.43 334.343 174.29 334.133 175.04 333.793C176.55 333.143 177.89 332.673 178.92 332.143C179.92 331.643 180.71 331.253 181.31 330.953C181.86 330.693 182.15 330.563 182.16 330.583Z" fill="#455A64"/>
<path d="M186.14 329.232C186.14 329.232 172.22 334.892 173.68 341.382C175.13 347.872 182.31 350.872 189.57 350.182C196.83 349.492 210.18 343.502 210.18 343.502L217.06 339.862C217.06 339.862 208.7 339.732 204.48 338.222C199.58 336.482 186.14 329.232 186.14 329.232Z" fill="#E8505B"/>
<path d="M203.35 340.602L252.72 348.372L357.04 337.982L299.85 322.312L203.38 336.182C202.28 336.342 201.46 337.282 201.46 338.402C201.46 339.492 202.26 340.432 203.35 340.602Z" fill="#455A64"/>
<path d="M266.02 269.792L254.06 340.462C253.39 344.442 256.68 347.972 260.7 347.572L357.04 337.972C359.76 337.702 361.97 335.662 362.46 332.982L375.49 261.442C376.22 257.422 372.88 253.822 368.81 254.262L271.4 264.732C268.68 265.022 266.48 267.082 266.02 269.792Z" fill="#455A64"/>
<path d="M201.46 338.392C201.46 338.382 201.55 338.392 201.72 338.402C201.92 338.422 202.17 338.462 202.48 338.492C203.19 338.592 204.17 338.732 205.41 338.902C208.01 339.292 211.7 339.842 216.29 340.522C225.57 341.962 238.48 343.952 253.16 346.232L252.82 346.482C253.43 342.792 254.06 338.962 254.7 335.042C257.6 317.652 260.23 301.922 262.15 290.472C263.13 284.812 263.92 280.212 264.48 276.982C264.76 275.422 264.98 274.202 265.14 273.322C265.22 272.932 265.28 272.622 265.33 272.372C265.38 272.162 265.4 272.052 265.41 272.052C265.42 272.052 265.41 272.162 265.39 272.382C265.36 272.632 265.31 272.952 265.26 273.342C265.13 274.232 264.94 275.462 264.71 277.022C264.2 280.262 263.47 284.872 262.58 290.552C260.71 302.002 258.15 317.752 255.31 335.142C254.66 339.062 254.03 342.892 253.42 346.582L253.37 346.882L253.07 346.832C238.4 344.482 225.51 342.412 216.23 340.922C211.65 340.162 207.97 339.552 205.38 339.122C204.15 338.902 203.17 338.732 202.47 338.612C202.17 338.552 201.92 338.502 201.72 338.462C201.54 338.422 201.46 338.402 201.46 338.392Z" fill="#263238"/>
<path d="M326.22 300.402C326.22 304.242 323.45 307.352 320.03 307.352C316.61 307.352 313.84 304.242 313.84 300.402C313.84 296.562 316.61 293.452 320.03 293.452C323.45 293.452 326.22 296.562 326.22 300.402Z" fill="#FAFAFA"/>
<path d="M254.97 293.803C251.57 290.753 255.39 287.193 249.25 281.393C244.67 277.063 235.97 269.643 219.13 264.013L208.59 282.853L226.94 288.783L226.76 300.753C226.72 303.213 228.73 305.223 231.19 305.193L240.72 305.083C240.72 305.083 237.94 316.843 238.4 317.563C239.71 319.613 242.52 318.663 242.89 317.083C243.26 315.503 251.11 296.503 251.11 296.503C251.11 296.503 256.23 300.923 256.96 298.393C256.96 298.403 258.37 296.863 254.97 293.803Z" fill="#FFBE9D"/>
<path d="M229.33 305.492C229.29 305.422 229.78 305.132 230.4 304.512C231.03 303.892 231.76 302.892 232.21 301.622C232.65 300.352 232.7 299.112 232.58 298.232C232.47 297.352 232.27 296.832 232.35 296.802C232.39 296.782 232.71 297.272 232.91 298.182C233.11 299.082 233.12 300.422 232.65 301.772C232.18 303.122 231.34 304.162 230.62 304.752C229.9 305.342 229.35 305.532 229.33 305.492Z" fill="#EB996E"/>
<path d="M235.46 305.103C235.35 305.013 236.74 303.653 237.3 301.423C237.89 299.203 237.32 297.343 237.47 297.313C237.52 297.293 237.74 297.733 237.88 298.503C238.02 299.273 238.05 300.373 237.75 301.543C237.45 302.703 236.9 303.663 236.4 304.263C235.89 304.863 235.49 305.143 235.46 305.103Z" fill="#EB996E"/>
<path d="M242.85 298.202C242.91 298.192 243.03 298.582 243.04 299.232C243.06 299.882 242.93 300.792 242.54 301.712C242.15 302.632 241.58 303.362 241.1 303.792C240.62 304.232 240.26 304.412 240.22 304.372C240.13 304.262 241.39 303.282 242.12 301.532C242.87 299.802 242.71 298.212 242.85 298.202Z" fill="#EB996E"/>
<path d="M170.22 131.292C170.22 131.302 170.13 131.292 169.96 131.282C169.76 131.252 169.51 131.222 169.2 131.182C168.86 131.152 168.47 131.032 167.99 130.912C167.51 130.812 166.99 130.582 166.4 130.342C165.24 129.812 163.88 129.012 162.55 127.762C161.23 126.522 159.96 124.832 159.07 122.712C158.6 121.662 158.31 120.482 158.11 119.252C157.97 118.002 157.95 116.682 158.21 115.352C158.67 112.692 160.17 110.112 160.19 107.162C160.2 105.702 159.64 104.282 159 102.862C158.38 101.442 157.64 99.932 157.6 98.202C157.55 96.472 158.44 94.812 159.65 93.612C160.86 92.372 162.37 91.4621 163.89 90.6521C165.41 89.8221 166.91 89.032 168.14 87.932C169.38 86.852 170.21 85.4121 170.7 83.8921C171.68 80.8321 171.66 77.6321 172.29 74.6721C172.6 73.1921 173.07 71.7521 173.86 70.5221C174.65 69.2921 175.71 68.2921 176.91 67.6521C179.32 66.332 181.87 66.0421 184.1 65.7621C186.36 65.5221 188.39 65.3321 190.1 64.8221C191.82 64.3421 193.22 63.6721 194.22 62.9121C195.23 62.1621 195.82 61.3621 196.14 60.7821C196.47 60.2121 196.58 59.8721 196.61 59.8821C196.61 59.8821 196.53 60.2321 196.23 60.8321C195.94 61.4321 195.36 62.2821 194.34 63.0721C193.34 63.8721 191.92 64.592 190.18 65.102C188.45 65.652 186.38 65.8721 184.14 66.1321C181.92 66.4321 179.4 66.7521 177.11 68.0321C175.96 68.6521 174.97 69.6021 174.23 70.7721C173.49 71.9421 173.03 73.3221 172.74 74.7721C172.13 77.6721 172.17 80.8721 171.17 84.0521C170.67 85.6321 169.78 87.172 168.47 88.312C167.18 89.472 165.63 90.2821 164.12 91.1021C162.6 91.9121 161.15 92.792 160 93.972C158.85 95.122 158.05 96.632 158.09 98.202C158.2 101.362 160.7 103.962 160.65 107.162C160.65 108.712 160.22 110.162 159.78 111.502C159.34 112.852 158.85 114.142 158.61 115.432C158.35 116.712 158.36 117.992 158.48 119.202C158.67 120.402 158.94 121.552 159.38 122.572C160.22 124.642 161.45 126.312 162.72 127.552C164 128.802 165.32 129.612 166.45 130.162C168.78 131.192 170.24 131.202 170.22 131.292Z" fill="#455A64"/>
<path d="M247.07 95.1322C247.01 95.1422 247.01 94.1922 246.6 92.5522C246.19 90.9322 245.29 88.6022 243.32 86.3322C241.39 84.0822 238.31 81.8922 234.36 81.3422C232.41 81.0122 230.29 80.9222 228.14 80.3322C225.98 79.8022 223.94 78.3722 222.64 76.3922C221.32 74.4222 220.58 72.2522 219.79 70.2322C219.01 68.2122 218.21 66.2622 217.04 64.6822C214.67 61.5122 211.33 59.7522 208.45 59.0222C205.54 58.2822 203.05 58.4522 201.42 58.7922C200.6 58.9822 199.97 59.1422 199.55 59.3122C199.13 59.4522 198.9 59.5222 198.9 59.5022C198.89 59.4822 199.1 59.3922 199.52 59.2122C199.93 59.0122 200.56 58.8222 201.38 58.5922C203.02 58.1822 205.56 57.9522 208.55 58.6622C211.5 59.3622 214.95 61.1222 217.43 64.3922C218.66 66.0322 219.48 68.0222 220.27 70.0422C221.07 72.0622 221.81 74.2022 223.08 76.0922C224.33 77.9822 226.21 79.3022 228.28 79.8322C230.34 80.4122 232.45 80.5122 234.44 80.8622C238.5 81.4522 241.67 83.7522 243.6 86.0822C245.58 88.4422 246.44 90.8422 246.8 92.4922C246.97 93.3222 247.06 93.9822 247.06 94.4322C247.08 94.9022 247.08 95.1322 247.07 95.1322Z" fill="#455A64"/>
<path d="M307 180.872C307.1 163.712 293.27 149.732 276.12 149.632C269.71 149.592 263.74 151.502 258.77 154.802L246 152.032L249.83 163.852C246.73 168.652 244.9 174.362 244.87 180.512C244.77 197.672 258.6 211.652 275.75 211.752C292.91 211.852 306.9 198.022 307 180.872Z" fill="white"/>
<path d="M307 180.872C307 180.872 307.01 181.052 307 181.412C306.99 181.792 306.96 182.312 306.94 182.992C306.92 183.342 306.92 183.732 306.88 184.152C306.82 184.572 306.75 185.042 306.67 185.542C306.59 186.042 306.51 186.582 306.42 187.162C306.27 187.732 306.12 188.332 305.96 188.972C305.69 190.272 305.1 191.622 304.55 193.122C304.2 193.842 303.84 194.602 303.46 195.382C303.07 196.162 302.55 196.912 302.08 197.722C300.04 200.862 297.13 204.112 293.2 206.752C289.26 209.342 284.3 211.312 278.75 211.842C277.36 211.872 275.95 212.062 274.51 211.912C273.79 211.862 273.07 211.852 272.34 211.772C271.62 211.662 270.89 211.542 270.16 211.432C267.27 210.842 264.29 209.982 261.54 208.472C258.78 207.012 256.12 205.142 253.8 202.832C251.5 200.492 249.51 197.762 247.96 194.722C247.61 193.942 247.19 193.192 246.89 192.392C246.6 191.582 246.31 190.772 246.01 189.952C245.78 189.122 245.58 188.272 245.36 187.422C245.12 186.582 245.07 185.692 244.92 184.832C244.87 184.392 244.77 183.962 244.75 183.522L244.69 182.192C244.65 181.302 244.59 180.422 244.64 179.522C244.7 177.742 244.93 175.952 245.3 174.182C246.09 170.422 247.6 166.872 249.62 163.732L249.59 163.952C248.29 159.922 247.01 155.982 245.76 152.132L245.62 151.712L246.05 151.802C250.44 152.752 254.7 153.682 258.81 154.582L258.62 154.622C262.75 151.882 267.37 150.252 271.89 149.692C273.02 149.542 274.14 149.472 275.26 149.442C276.37 149.392 277.47 149.532 278.55 149.572C280.71 149.752 282.79 150.162 284.75 150.732C288.68 151.892 292.12 153.772 294.93 155.952C297.74 158.152 300 160.602 301.66 163.072C305.01 168.042 306.2 172.762 306.66 175.932C306.76 176.732 306.9 177.442 306.92 178.052C306.94 178.662 306.96 179.182 306.97 179.612C306.98 180.012 306.99 180.332 306.99 180.562C307.01 180.762 307.01 180.872 307 180.872C306.99 180.872 306.98 180.762 306.96 180.552C306.94 180.322 306.92 180.012 306.9 179.602C306.88 179.182 306.85 178.662 306.81 178.052C306.78 177.442 306.62 176.742 306.52 175.942C306.01 172.802 304.78 168.122 301.43 163.232C299.76 160.792 297.51 158.382 294.72 156.222C291.92 154.082 288.52 152.242 284.64 151.112C282.7 150.552 280.65 150.162 278.52 149.992C277.45 149.962 276.37 149.822 275.28 149.872C274.18 149.902 273.08 149.972 271.96 150.122C267.51 150.692 262.97 152.312 258.9 155.012L258.81 155.072L258.71 155.052C254.59 154.162 250.33 153.242 245.94 152.292L246.23 151.962C247.48 155.812 248.76 159.762 250.07 163.782L250.11 163.902L250.04 164.002C248.06 167.082 246.58 170.572 245.8 174.272C245.43 176.012 245.21 177.772 245.15 179.522C245.1 180.402 245.16 181.272 245.2 182.142L245.26 183.442C245.28 183.872 245.37 184.302 245.43 184.732C245.58 185.582 245.62 186.452 245.86 187.282C246.07 188.112 246.27 188.952 246.49 189.772C246.78 190.572 247.07 191.372 247.35 192.172C247.65 192.962 248.06 193.702 248.4 194.472C249.91 197.462 251.87 200.152 254.13 202.462C256.42 204.742 259.02 206.582 261.74 208.032C264.45 209.522 267.37 210.372 270.22 210.972C270.94 211.092 271.66 211.202 272.37 211.312C273.08 211.402 273.8 211.402 274.51 211.462C275.93 211.612 277.32 211.432 278.69 211.402C284.17 210.892 289.06 208.972 292.97 206.432C296.87 203.832 299.77 200.642 301.81 197.552C302.29 196.752 302.81 196.022 303.2 195.252C303.58 194.482 303.95 193.732 304.3 193.022C304.86 191.532 305.46 190.192 305.74 188.912C305.91 188.282 306.07 187.682 306.22 187.122C306.32 186.552 306.4 186.012 306.49 185.512C306.57 185.012 306.65 184.552 306.72 184.132C306.77 183.712 306.78 183.322 306.81 182.982C306.86 182.312 306.9 181.782 306.92 181.412C306.97 181.052 307 180.872 307 180.872Z" fill="#263238"/>
<path d="M271.73 177.964C271.737 177.347 271.871 176.752 272.091 176.18C272.48 172.865 275.647 169.448 277.53 167.29C279.209 165.368 280.904 163.391 282.764 161.639C284.37 160.128 287.983 158.284 290.43 161.365C290.804 162.414 290.655 163.593 290.089 164.866C288.896 167.549 287.486 170.205 285.953 172.71C284.773 174.636 283.359 176.55 281.683 178.121C280.641 179.333 279.475 180.41 278.188 181.043C277.698 181.318 277.187 181.554 276.661 181.75C276.13 181.947 275.649 182.034 275.209 182.032C274.098 182.095 273 181.578 272.372 180.623C271.762 179.698 271.612 178.819 271.73 177.966" fill="#D6912D"/>
<path d="M284.942 160.21C285.604 159.919 286.326 159.714 287.059 159.697C286.64 160.057 286.229 160.427 285.826 160.803C285.537 160.598 285.242 160.4 284.942 160.21" fill="#E7A131"/>
<path d="M283.376 161.132C283.778 160.826 284.207 160.559 284.659 160.335C284.988 160.547 285.311 160.768 285.626 160.999C285.273 161.332 284.927 161.672 284.587 162.018C284.193 161.709 283.79 161.414 283.376 161.132" fill="#E7A131"/>
<path d="M282.043 162.351C282.282 162.113 282.518 161.87 282.764 161.638C282.885 161.525 283.015 161.411 283.158 161.296C283.579 161.592 283.989 161.903 284.386 162.229C284.024 162.603 283.67 162.984 283.32 163.369C282.908 163.014 282.482 162.674 282.045 162.351" fill="#E7A131"/>
<path d="M280.434 164.028C280.896 163.524 281.367 163.03 281.849 162.544C282.283 162.881 282.703 163.235 283.108 163.606C282.681 164.084 282.27 164.579 281.861 165.074C281.394 164.714 280.918 164.365 280.434 164.028" fill="#E7A131"/>
<path d="M278.91 165.719C279.352 165.218 279.798 164.722 280.249 164.23C280.732 164.574 281.206 164.931 281.67 165.301C281.264 165.801 280.868 166.307 280.481 166.821C279.971 166.435 279.447 166.067 278.91 165.719" fill="#E7A131"/>
<path d="M277.625 167.179C277.998 166.752 278.371 166.326 278.746 165.9C279.286 166.252 279.81 166.628 280.316 167.028C279.956 167.506 279.605 167.993 279.26 168.484C278.743 168.015 278.197 167.579 277.624 167.179" fill="#E7A131"/>
<path d="M274.441 171.033C274.899 170.404 275.379 169.791 275.88 169.195C276.534 169.668 277.164 170.173 277.769 170.708C277.367 171.334 276.975 171.965 276.593 172.603C275.902 172.045 275.184 171.521 274.442 171.033" fill="#E7A131"/>
<path d="M273.055 173.268C273.41 172.576 273.833 171.896 274.291 171.244C275.031 171.746 275.737 172.295 276.426 172.87C276.066 173.468 275.715 174.072 275.369 174.68C274.621 174.172 273.849 173.701 273.055 173.268" fill="#E7A131"/>
<path d="M272.168 175.72C272.312 174.972 272.582 174.224 272.942 173.489C273.728 173.929 274.491 174.409 275.227 174.929C274.849 175.596 274.488 176.272 274.125 176.947C273.493 176.505 272.84 176.096 272.168 175.72" fill="#F9BD31"/>
<path d="M272.09 176.18C272.098 176.109 272.116 176.037 272.128 175.965C272.78 176.337 273.397 176.75 273.996 177.183C273.411 178.275 272.842 179.377 272.291 180.487C271.753 179.612 271.616 178.776 271.729 177.964C271.736 177.346 271.87 176.752 272.09 176.18" fill="#F9BD31"/>
<path d="M276.067 168.974C276.556 168.396 277.031 167.859 277.448 167.383C278.023 167.794 278.576 168.235 279.106 168.703C278.712 169.27 278.328 169.843 277.952 170.421C277.346 169.91 276.717 169.427 276.067 168.974" fill="#E7A131"/>
<path d="M288.153 162.715C287.831 162.414 287.507 162.121 287.172 161.841C287.791 161.269 288.429 160.72 289.085 160.192C289.166 160.237 289.244 160.298 289.323 160.351C288.899 161.129 288.525 161.925 288.153 162.714" fill="#F9BD31"/>
<path d="M289.518 160.48C289.691 160.61 289.86 160.754 290.027 160.919C289.89 161.934 289.636 162.905 289.29 163.839C288.972 163.506 288.645 163.181 288.311 162.863C288.694 162.071 289.082 161.275 289.518 160.48Z" fill="#F9BD31"/>
<path d="M290.36 161.286C290.383 161.314 290.407 161.337 290.43 161.366C290.791 162.383 290.66 163.522 290.135 164.752C289.931 164.523 289.725 164.298 289.514 164.075C289.882 163.174 290.165 162.24 290.36 161.286" fill="#F9BD31"/>
<path d="M288.149 163.197C288.487 163.536 288.817 163.883 289.139 164.237C288.931 164.756 288.699 165.265 288.445 165.762C288.116 165.373 287.777 164.993 287.427 164.623C287.676 164.152 287.917 163.677 288.149 163.197" fill="#F9BD31"/>
<path d="M287.284 164.469C286.829 163.992 286.357 163.533 285.867 163.092C286.218 162.739 286.575 162.393 286.938 162.055C287.301 162.374 287.654 162.704 287.997 163.045C287.77 163.524 287.532 163.999 287.284 164.469" fill="#F9BD31"/>
<path d="M289.353 164.477C289.555 164.702 289.754 164.93 289.951 165.159C289.714 165.685 289.468 166.207 289.215 166.725C289.026 166.478 288.828 166.235 288.629 165.992C288.889 165.496 289.131 164.991 289.353 164.477" fill="#F9BD31"/>
<path d="M286.248 166.169C285.673 165.583 285.092 165.022 284.555 164.503L284.544 164.494C284.902 164.099 285.264 163.712 285.635 163.333C286.141 163.812 286.626 164.31 287.091 164.828C286.834 165.29 286.553 165.737 286.248 166.169" fill="#F9BD31"/>
<path d="M287.231 164.988C287.576 165.377 287.91 165.77 288.225 166.172C287.987 166.616 287.733 167.055 287.465 167.487C287.125 167.093 286.774 166.71 286.41 166.339C286.703 165.902 286.977 165.451 287.231 164.99" fill="#F9BD31"/>
<path d="M288.402 166.405C288.604 166.663 288.801 166.925 288.992 167.19C288.767 167.646 288.538 168.099 288.303 168.549C288.094 168.26 287.875 167.979 287.647 167.706C287.909 167.279 288.161 166.845 288.402 166.406" fill="#F9BD31"/>
<path d="M284.965 167.834C284.384 167.235 283.776 166.663 283.142 166.119C283.522 165.659 283.909 165.207 284.305 164.762C284.573 165.036 284.84 165.312 285.102 165.592C285.38 165.892 285.682 166.207 285.989 166.529C285.657 166.972 285.316 167.407 284.965 167.834" fill="#F9BD31"/>
<path d="M286.16 166.712C286.516 167.092 286.876 167.487 287.209 167.891C286.907 168.359 286.596 168.822 286.276 169.278C285.918 168.852 285.545 168.437 285.16 168.036C285.506 167.604 285.84 167.162 286.16 166.71" fill="#F9BD31"/>
<path d="M287.387 168.111C287.623 168.407 287.842 168.716 288.042 169.037C287.778 169.531 287.509 170.021 287.234 170.509C286.984 170.167 286.725 169.832 286.456 169.504C286.776 169.046 287.086 168.582 287.387 168.111" fill="#F9BD31"/>
<path d="M286.2 169.87C286.473 170.227 286.733 170.592 286.981 170.966C286.635 171.572 286.28 172.173 285.915 172.768C285.614 172.347 285.31 171.928 285.004 171.51C285.409 170.969 285.808 170.422 286.2 169.87" fill="#F9BD31"/>
<path d="M283.462 169.575C283.006 169.047 282.519 168.547 282.003 168.078C281.924 168.006 281.844 167.939 281.765 167.87C282.145 167.362 282.535 166.862 282.935 166.369C283.558 166.926 284.154 167.511 284.722 168.123C284.31 168.614 283.89 169.098 283.462 169.575" fill="#F9BD31"/>
<path d="M284.918 168.341C285.303 168.761 285.671 169.194 286.024 169.642C285.633 170.193 285.231 170.739 284.83 171.282C284.455 170.78 284.065 170.29 283.66 169.812C284.09 169.331 284.51 168.84 284.918 168.341" fill="#F9BD31"/>
<path d="M281.94 171.254C281.457 170.713 280.963 170.183 280.459 169.662C280.819 169.144 281.187 168.632 281.564 168.126C281.997 168.545 282.409 168.981 282.783 169.453C282.907 169.608 283.028 169.767 283.151 169.924C282.749 170.368 282.344 170.81 281.94 171.254" fill="#F9BD31"/>
<path d="M283.34 170.167C283.736 170.678 284.128 171.191 284.515 171.708C284.166 172.179 283.82 172.653 283.477 173.129C283.056 172.562 282.599 172.013 282.135 171.48C282.538 171.045 282.94 170.607 283.338 170.167" fill="#F9BD31"/>
<path d="M283.934 172.931C284.185 172.6 284.436 172.267 284.685 171.934C285.005 172.357 285.323 172.782 285.641 173.207C285.302 173.74 284.947 174.264 284.578 174.777C284.287 174.281 283.972 173.799 283.633 173.334C283.733 173.2 283.832 173.066 283.934 172.933" fill="#F9BD31"/>
<path d="M281.002 172.286C280.825 172.483 280.652 172.685 280.479 172.891C280.072 172.423 279.645 171.973 279.201 171.541C279.566 170.974 279.94 170.413 280.323 169.857C280.823 170.369 281.3 170.903 281.753 171.457C281.502 171.731 281.251 172.007 281.002 172.286" fill="#F9BD31"/>
<path d="M280.948 172.758C281.278 172.4 281.609 172.043 281.941 171.688C282.4 172.262 282.829 172.859 283.227 173.478C282.859 173.992 282.485 174.503 282.105 175.009C281.663 174.339 281.178 173.697 280.655 173.089C280.752 172.979 280.848 172.866 280.948 172.758" fill="#F9BD31"/>
<path d="M283.361 173.691C283.678 174.196 283.967 174.717 284.226 175.254C283.855 175.746 283.467 176.224 283.061 176.688C282.813 176.174 282.534 175.676 282.227 175.196C282.607 174.696 282.985 174.194 283.361 173.691" fill="#F9BD31"/>
<path d="M279.028 174.727C278.639 174.364 278.251 174.014 277.879 173.688C278.24 173.079 278.61 172.476 278.988 171.877C279.41 172.312 279.812 172.766 280.194 173.236C279.799 173.72 279.413 174.218 279.028 174.727Z" fill="#F9BD31"/>
<path d="M280.354 173.427C280.877 174.083 281.357 174.76 281.766 175.455C281.47 175.839 281.168 176.219 280.86 176.593C280.332 175.984 279.758 175.409 279.182 174.869C279.56 174.379 279.951 173.898 280.353 173.427" fill="#F9BD31"/>
<path d="M281.881 175.647C282.162 176.137 282.41 176.644 282.624 177.166C282.385 177.424 282.14 177.674 281.891 177.917C281.617 177.514 281.32 177.127 281.004 176.757C281.299 176.392 281.591 176.023 281.881 175.647" fill="#F9BD31"/>
<path d="M276.195 178.563C275.959 178.359 275.723 178.153 275.48 177.958C275.839 177.286 276.194 176.615 276.565 175.95C276.889 176.22 277.204 176.501 277.509 176.791C277.078 177.387 276.64 177.977 276.195 178.563" fill="#F9BD31"/>
<path d="M277.648 176.924C278.173 177.426 278.667 177.96 279.128 178.521C278.655 179 278.16 179.455 277.643 179.885C277.223 179.475 276.791 179.077 276.348 178.692C276.785 178.105 277.219 177.516 277.648 176.924" fill="#F9BD31"/>
<path d="M279.301 178.723C279.567 179.06 279.819 179.408 280.055 179.767C279.582 180.177 279.087 180.538 278.573 180.832C278.345 180.591 278.115 180.352 277.88 180.118C278.373 179.673 278.847 179.208 279.301 178.723" fill="#F9BD31"/>
<path d="M273.618 181.583C274.174 180.455 274.747 179.335 275.336 178.224C275.562 178.412 275.781 178.614 276.001 178.815C275.249 179.789 274.465 180.726 273.618 181.583" fill="#F9BD31"/>
<path d="M276.156 178.949C276.57 179.327 276.973 179.717 277.365 180.116C276.467 180.84 275.492 181.464 274.459 181.979C274.235 181.935 274.017 181.869 273.806 181.782C274.64 180.893 275.411 179.934 276.158 178.949" fill="#F9BD31"/>
<path d="M277.601 180.361C277.811 180.58 278.018 180.801 278.222 181.025C278.21 181.03 278.2 181.038 278.187 181.043C277.697 181.318 277.187 181.554 276.66 181.75C276.178 181.928 275.737 182.012 275.332 182.025C276.133 181.534 276.892 180.978 277.601 180.361" fill="#F9BD31"/>
<path d="M278.958 175.164C279.501 175.704 280.063 176.305 280.568 176.943C280.197 177.381 279.814 177.808 279.418 178.224C278.928 177.667 278.407 177.138 277.857 176.64C278.219 176.144 278.585 175.652 278.958 175.164" fill="#F9BD31"/>
<path d="M277.715 176.511C277.394 176.221 277.063 175.941 276.724 175.673C277.042 175.105 277.368 174.54 277.701 173.98C277.86 174.124 278.021 174.268 278.179 174.414C278.393 174.611 278.603 174.812 278.811 175.016C278.443 175.513 278.078 176.011 277.715 176.511" fill="#F9BD31"/>
<path d="M280.71 177.121C281.009 177.508 281.286 177.902 281.522 178.301C281.17 178.703 280.798 179.087 280.407 179.452C280.149 179.095 279.876 178.748 279.591 178.411C279.974 177.989 280.347 177.559 280.71 177.119" fill="#F9BD31"/>
<path d="M268.471 164.611C270.342 163.74 272.648 164.354 274.185 165.662C275.461 166.75 276.012 168.223 276.146 169.864C276.457 173.627 274.55 177.344 275.218 181.09C275.224 181.127 275.221 181.165 275.209 181.201C275.439 181.99 275.77 182.745 276.032 183.531C276.045 183.564 276.048 183.6 276.039 183.635C276.031 183.67 276.013 183.701 275.986 183.725C276.018 183.845 275.954 184.002 275.79 184.009C273.698 184.116 271.634 183.567 270.466 181.766C270.38 181.796 270.279 181.779 270.227 181.672C268.905 178.981 269.892 176.401 271.141 173.902C271.912 172.361 272.256 170.902 271.843 169.191C271.408 167.395 270.161 165.887 268.533 165.048C268.492 165.027 268.46 164.992 268.445 164.948C268.338 164.859 268.311 164.684 268.47 164.611" fill="#41A56E"/>
<path d="M273.711 183.601C272.874 183.039 272.756 182.144 273.019 181.288C273.306 180.742 273.752 180.232 274.19 179.813C276.072 178.023 278.502 176.68 280.814 175.545C282.799 174.57 284.979 173.566 287.222 173.474C289.33 173.388 291.088 174.564 292.401 176.112C292.495 176.224 292.452 176.359 292.365 176.43C292.369 176.451 292.379 176.468 292.383 176.49C292.388 176.518 292.383 176.547 292.381 176.575C292.583 176.689 292.47 177.039 292.226 176.959C288.079 175.618 284.797 179.075 281.742 181.339C280.675 182.131 279.059 183.164 277.45 183.583C275.793 184.01 274.348 184.027 273.711 183.601" fill="#4FC180"/>
<path d="M280.374 189.518C280.366 188.752 280.2 188.014 279.927 187.305C279.445 183.194 275.517 178.957 273.182 176.281C271.101 173.898 268.999 171.446 266.693 169.275C264.702 167.401 260.221 165.114 257.186 168.935C256.723 170.236 256.908 171.697 257.61 173.276C259.088 176.603 260.838 179.896 262.739 183.002C264.201 185.39 265.955 187.764 268.033 189.713C269.325 191.215 270.771 192.55 272.367 193.335C272.975 193.676 273.608 193.97 274.261 194.212C274.919 194.457 275.515 194.564 276.06 194.562C277.438 194.639 278.8 193.998 279.579 192.815C280.335 191.668 280.521 190.578 280.374 189.519" fill="#D6912D"/>
<path d="M263.992 167.503C263.171 167.142 262.276 166.888 261.367 166.867C261.886 167.313 262.396 167.772 262.895 168.238C263.255 167.984 263.62 167.739 263.992 167.503" fill="#E7A131"/>
<path d="M265.933 168.646C265.436 168.267 264.903 167.936 264.343 167.658C263.935 167.921 263.535 168.195 263.143 168.482C263.581 168.895 264.011 169.316 264.432 169.745C264.92 169.362 265.421 168.996 265.933 168.646" fill="#E7A131"/>
<path d="M267.587 170.159C267.29 169.864 266.998 169.563 266.693 169.275C266.543 169.135 266.382 168.993 266.204 168.851C265.682 169.218 265.174 169.604 264.681 170.008C265.13 170.471 265.57 170.944 266.004 171.422C266.515 170.981 267.042 170.56 267.585 170.159" fill="#E7A131"/>
<path d="M269.582 172.237C269.009 171.612 268.424 170.999 267.828 170.396C267.289 170.814 266.768 171.253 266.266 171.713C266.795 172.306 267.305 172.92 267.813 173.534C268.391 173.087 268.981 172.654 269.582 172.237" fill="#E7A131"/>
<path d="M271.471 174.334C270.924 173.713 270.371 173.098 269.812 172.488C269.212 172.915 268.625 173.357 268.05 173.816C268.552 174.435 269.044 175.064 269.524 175.701C270.156 175.222 270.806 174.766 271.471 174.334" fill="#E7A131"/>
<path d="M273.065 176.145C272.603 175.616 272.14 175.087 271.675 174.56C271.005 174.996 270.355 175.462 269.728 175.957C270.174 176.551 270.61 177.155 271.038 177.763C271.679 177.182 272.356 176.641 273.066 176.145" fill="#E7A131"/>
<path d="M277.012 180.924C276.445 180.143 275.85 179.383 275.229 178.645C274.418 179.231 273.636 179.857 272.886 180.521C273.385 181.296 273.871 182.079 274.344 182.87C275.201 182.178 276.091 181.528 277.011 180.923" fill="#E7A131"/>
<path d="M278.732 183.695C278.292 182.837 277.768 181.994 277.199 181.186C276.281 181.807 275.406 182.489 274.551 183.202C274.998 183.943 275.434 184.692 275.862 185.446C276.79 184.816 277.748 184.231 278.732 183.695" fill="#E7A131"/>
<path d="M279.832 186.735C279.653 185.808 279.318 184.88 278.872 183.969C277.897 184.514 276.951 185.11 276.039 185.754C276.508 186.581 276.955 187.419 277.405 188.256C278.188 187.709 278.998 187.201 279.832 186.735" fill="#F9BD31"/>
<path d="M279.929 187.305C279.919 187.218 279.897 187.128 279.882 187.039C279.073 187.501 278.308 188.013 277.565 188.549C278.29 189.904 278.995 191.27 279.68 192.646C280.347 191.561 280.517 190.525 280.376 189.518C280.368 188.752 280.201 188.015 279.929 187.305" fill="#F9BD31"/>
<path d="M274.998 178.369C274.391 177.652 273.802 176.986 273.284 176.396C272.572 176.907 271.886 177.453 271.229 178.034C271.717 178.736 272.194 179.447 272.66 180.164C273.411 179.53 274.191 178.931 274.998 178.369" fill="#E7A131"/>
<path d="M260.01 170.608C260.409 170.235 260.811 169.872 261.226 169.525C260.459 168.816 259.668 168.134 258.854 167.48C258.754 167.536 258.658 167.612 258.559 167.677C259.085 168.642 259.548 169.629 260.01 170.608" fill="#F9BD31"/>
<path d="M258.317 167.837C258.103 167.998 257.893 168.175 257.686 168.381C257.856 169.639 258.17 170.843 258.6 172.002C258.995 171.589 259.399 171.185 259.813 170.791C259.339 169.809 258.858 168.822 258.317 167.837Z" fill="#F9BD31"/>
<path d="M257.273 168.837C257.245 168.871 257.215 168.9 257.187 168.936C256.739 170.197 256.901 171.61 257.552 173.135C257.805 172.851 258.061 172.571 258.322 172.295C257.866 171.177 257.515 170.02 257.273 168.837" fill="#F9BD31"/>
<path d="M260.015 171.206C259.596 171.626 259.187 172.056 258.788 172.495C259.045 173.139 259.333 173.77 259.648 174.387C260.055 173.904 260.476 173.433 260.91 172.974C260.602 172.39 260.303 171.8 260.015 171.206" fill="#F9BD31"/>
<path d="M261.088 172.783C261.652 172.192 262.237 171.623 262.844 171.076C262.41 170.639 261.967 170.21 261.516 169.79C261.066 170.186 260.628 170.595 260.203 171.017C260.485 171.613 260.78 172.201 261.088 172.783" fill="#F9BD31"/>
<path d="M258.522 172.793C258.272 173.073 258.024 173.355 257.78 173.639C258.075 174.291 258.379 174.938 258.693 175.582C258.927 175.274 259.174 174.974 259.42 174.672C259.097 174.057 258.798 173.43 258.522 172.793" fill="#F9BD31"/>
<path d="M262.372 174.891C263.086 174.165 263.806 173.468 264.472 172.825L264.485 172.813C264.042 172.324 263.592 171.844 263.132 171.374C262.505 171.968 261.903 172.586 261.327 173.228C261.646 173.801 261.994 174.356 262.372 174.891" fill="#F9BD31"/>
<path d="M261.153 173.428C260.725 173.909 260.311 174.396 259.921 174.895C260.216 175.447 260.531 175.99 260.863 176.526C261.284 176.038 261.721 175.563 262.172 175.103C261.809 174.56 261.469 174.002 261.153 173.43" fill="#F9BD31"/>
<path d="M259.701 175.185C259.451 175.505 259.207 175.829 258.969 176.158C259.248 176.723 259.533 177.285 259.824 177.843C260.083 177.485 260.354 177.136 260.638 176.797C260.312 176.268 260 175.73 259.701 175.185" fill="#F9BD31"/>
<path d="M263.963 176.958C264.684 176.215 265.438 175.505 266.223 174.83C265.753 174.261 265.273 173.7 264.782 173.147C264.449 173.487 264.118 173.83 263.794 174.177C263.448 174.549 263.074 174.939 262.694 175.339C263.105 175.888 263.528 176.428 263.963 176.958" fill="#F9BD31"/>
<path d="M262.481 175.564C262.039 176.037 261.593 176.526 261.181 177.027C261.555 177.608 261.941 178.181 262.337 178.747C262.781 178.218 263.243 177.705 263.722 177.206C263.292 176.671 262.878 176.123 262.481 175.562" fill="#F9BD31"/>
<path d="M260.96 177.3C260.667 177.666 260.396 178.05 260.148 178.448C260.475 179.06 260.809 179.668 261.149 180.273C261.459 179.849 261.781 179.433 262.115 179.027C261.718 178.459 261.333 177.883 260.96 177.3" fill="#F9BD31"/>
<path d="M262.432 179.481C262.094 179.923 261.771 180.377 261.463 180.84C261.892 181.592 262.333 182.337 262.785 183.075C263.158 182.553 263.535 182.033 263.915 181.515C263.412 180.843 262.918 180.165 262.432 179.481" fill="#F9BD31"/>
<path d="M265.827 179.114C266.392 178.46 266.996 177.84 267.636 177.258C267.734 177.169 267.833 177.087 267.932 177.001C267.46 176.371 266.976 175.75 266.48 175.14C265.708 175.83 264.969 176.556 264.264 177.314C264.775 177.923 265.296 178.523 265.827 179.114" fill="#F9BD31"/>
<path d="M264.021 177.584C263.544 178.104 263.087 178.642 262.65 179.197C263.135 179.881 263.634 180.558 264.13 181.231C264.595 180.608 265.079 180 265.581 179.408C265.048 178.811 264.528 178.203 264.021 177.584" fill="#F9BD31"/>
<path d="M267.714 181.196C268.313 180.526 268.925 179.868 269.551 179.222C269.105 178.579 268.648 177.944 268.18 177.317C267.644 177.837 267.132 178.378 266.668 178.963C266.515 179.156 266.365 179.352 266.213 179.546C266.711 180.098 267.213 180.646 267.714 181.196" fill="#F9BD31"/>
<path d="M265.978 179.849C265.487 180.482 265.001 181.119 264.521 181.759C264.954 182.344 265.383 182.931 265.807 183.521C266.33 182.818 266.897 182.137 267.473 181.477C266.972 180.937 266.474 180.394 265.98 179.849" fill="#F9BD31"/>
<path d="M265.242 183.276C264.93 182.865 264.619 182.452 264.31 182.039C263.914 182.565 263.52 183.091 263.125 183.618C263.546 184.279 263.986 184.929 264.443 185.565C264.804 184.949 265.195 184.352 265.615 183.775C265.491 183.609 265.368 183.444 265.242 183.278" fill="#F9BD31"/>
<path d="M268.877 182.476C269.097 182.721 269.311 182.971 269.526 183.226C270.031 182.647 270.559 182.088 271.11 181.553C270.658 180.85 270.194 180.154 269.719 179.465C269.099 180.099 268.508 180.761 267.946 181.448C268.257 181.788 268.568 182.13 268.877 182.476" fill="#F9BD31"/>
<path d="M268.944 183.062C268.535 182.618 268.124 182.175 267.712 181.734C267.143 182.447 266.611 183.188 266.118 183.954C266.575 184.593 267.039 185.226 267.51 185.854C268.058 185.022 268.659 184.227 269.308 183.472C269.187 183.336 269.068 183.196 268.944 183.062" fill="#F9BD31"/>
<path d="M265.952 184.219C265.559 184.844 265.201 185.491 264.88 186.156C265.339 186.766 265.821 187.359 266.324 187.934C266.632 187.298 266.977 186.68 267.358 186.084C266.887 185.464 266.418 184.842 265.952 184.219" fill="#F9BD31"/>
<path d="M271.325 185.503C271.807 185.053 272.289 184.618 272.75 184.215C272.302 183.46 271.844 182.711 271.375 181.969C270.852 182.508 270.353 183.071 269.879 183.654C270.369 184.254 270.847 184.872 271.325 185.503Z" fill="#F9BD31"/>
<path d="M269.681 183.891C269.032 184.704 268.437 185.544 267.93 186.406C268.297 186.882 268.671 187.353 269.054 187.816C269.708 187.061 270.42 186.349 271.135 185.679C270.665 185.071 270.18 184.475 269.682 183.891" fill="#F9BD31"/>
<path d="M267.788 186.645C267.439 187.251 267.132 187.88 266.866 188.528C267.162 188.847 267.467 189.157 267.775 189.458C268.115 188.959 268.483 188.48 268.875 188.021C268.509 187.568 268.147 187.11 267.788 186.645" fill="#F9BD31"/>
<path d="M274.838 190.26C275.131 190.006 275.423 189.75 275.724 189.509C275.28 188.676 274.84 187.843 274.379 187.02C273.978 187.354 273.587 187.702 273.208 188.062C273.743 188.801 274.287 189.533 274.838 190.26" fill="#F9BD31"/>
<path d="M273.036 188.229C272.385 188.851 271.772 189.513 271.201 190.21C271.787 190.803 272.402 191.367 273.043 191.901C273.564 191.392 274.099 190.899 274.648 190.421C274.106 189.694 273.568 188.963 273.036 188.229" fill="#F9BD31"/>
<path d="M270.987 190.458C270.657 190.876 270.344 191.308 270.051 191.753C270.639 192.261 271.252 192.709 271.889 193.074C272.171 192.774 272.458 192.479 272.748 192.188C272.137 191.636 271.549 191.059 270.987 190.458" fill="#F9BD31"/>
<path d="M278.034 194.005C277.344 192.607 276.634 191.218 275.903 189.84C275.623 190.073 275.351 190.324 275.078 190.573C276.011 191.781 276.983 192.943 278.034 194.005" fill="#F9BD31"/>
<path d="M274.886 190.739C274.373 191.208 273.873 191.691 273.386 192.187C274.501 193.084 275.71 193.858 276.991 194.496C277.268 194.442 277.539 194.36 277.8 194.251C276.765 193.149 275.81 191.961 274.884 190.739" fill="#F9BD31"/>
<path d="M273.094 192.49C272.834 192.761 272.577 193.035 272.324 193.313C272.339 193.32 272.352 193.329 272.367 193.335C272.975 193.676 273.608 193.969 274.261 194.212C274.859 194.433 275.405 194.537 275.909 194.553C274.915 193.944 273.974 193.254 273.094 192.49" fill="#F9BD31"/>
<path d="M271.412 186.046C270.739 186.716 270.042 187.461 269.415 188.252C269.875 188.795 270.351 189.325 270.842 189.84C271.449 189.149 272.095 188.494 272.777 187.876C272.329 187.261 271.874 186.651 271.412 186.046" fill="#F9BD31"/>
<path d="M272.954 187.715C273.352 187.355 273.762 187.009 274.182 186.675C273.787 185.971 273.383 185.272 272.971 184.577C272.774 184.755 272.574 184.933 272.378 185.115C272.113 185.359 271.852 185.608 271.594 185.862C272.05 186.478 272.503 187.095 272.954 187.715" fill="#F9BD31"/>
<path d="M269.239 188.472C268.869 188.952 268.525 189.441 268.232 189.935C268.669 190.433 269.131 190.91 269.615 191.363C269.936 190.92 270.273 190.489 270.627 190.072C270.152 189.549 269.689 189.015 269.239 188.47" fill="#F9BD31"/>
<path d="M284.415 172.96C282.096 171.88 279.236 172.642 277.331 174.264C275.748 175.613 275.065 177.439 274.899 179.474C274.513 184.14 276.877 188.749 276.05 193.394C276.042 193.44 276.046 193.488 276.061 193.532C275.776 194.51 275.365 195.447 275.04 196.421C275.024 196.462 275.021 196.507 275.031 196.55C275.041 196.593 275.064 196.632 275.097 196.661C275.058 196.811 275.137 197.005 275.341 197.014C277.934 197.146 280.494 196.466 281.942 194.233C282.049 194.27 282.174 194.249 282.238 194.116C283.878 190.779 282.654 187.58 281.105 184.482C280.149 182.571 279.722 180.761 280.235 178.64C280.774 176.412 282.32 174.542 284.339 173.502C284.39 173.477 284.43 173.432 284.449 173.378C284.58 173.268 284.614 173.051 284.418 172.96" fill="#41A56E"/>
<path d="M277.918 196.507C278.957 195.81 279.102 194.701 278.777 193.639C278.421 192.962 277.868 192.329 277.325 191.81C274.991 189.59 271.977 187.925 269.111 186.518C266.649 185.308 263.946 184.064 261.165 183.95C258.551 183.843 256.371 185.302 254.743 187.221C254.626 187.359 254.68 187.526 254.788 187.615C254.782 187.641 254.77 187.663 254.765 187.689C254.758 187.724 254.765 187.76 254.767 187.794C254.517 187.936 254.657 188.37 254.959 188.271C260.103 186.608 264.172 190.895 267.96 193.702C269.283 194.684 271.287 195.966 273.282 196.485C275.336 197.014 277.128 197.036 277.918 196.507" fill="#4FC180"/>
<defs>
<linearGradient id="paint0_linear_0:1" x1="3" y1="386" x2="387.989" y2="-27.9135" gradientUnits="userSpaceOnUse">
<stop stop-color="#3FB9D5"/>
<stop offset="1" stop-color="#5CCF5A"/>
</linearGradient>
</defs>
</svg>
