<svg width="470" height="246" viewBox="0 0 470 246" fill="none" xmlns="http://www.w3.org/2000/svg">
  <path d="M469.194 245.277C418.462 236.248 362.985 237.749 304.792 245.277C331.315 222.885 354.207 200.494 327.683 178.102C379.421 188.776 386.668 187.695 444.221 178.102C430.872 200.494 455.845 222.885 469.194 245.277Z" fill="#076FAB"/>
  <path d="M456.82 235.724C413.725 228.517 366.599 229.715 317.166 235.724C339.697 217.851 359.142 199.977 336.612 182.104C380.561 190.623 386.717 189.761 435.606 182.104C424.267 199.977 445.48 217.851 456.82 235.724Z" fill="#2D9CDB"/>
  <path d="M440.405 206.926C453.087 206.926 463.367 196.645 463.367 183.964C463.367 171.282 453.087 161.002 440.405 161.002C427.724 161.002 417.443 171.282 417.443 183.964C417.443 196.645 427.724 206.926 440.405 206.926Z" fill="#2F2E41"/>
  <path d="M336.169 157.331L352.079 159.983L360.034 182.964L337.054 197.106L310.537 157.331H335.286H336.169Z" fill="#A0616A"/>
  <path d="M381.248 192.686C401.75 192.686 418.371 176.066 418.371 155.563C418.371 135.061 401.75 118.44 381.248 118.44C360.745 118.44 344.125 135.061 344.125 155.563C344.125 176.066 360.745 192.686 381.248 192.686Z" fill="#A0616A"/>
  <path d="M176.187 20.3291C176.187 20.3291 86.0307 30.0518 70.1209 28.2841C54.211 26.5163 47.1399 24.7485 47.1399 24.7485C47.1399 24.7485 36.5333 38.8906 41.8366 45.0778C44.8067 48.6431 48.4008 51.6382 52.4432 53.9166C52.4432 53.9166 62.1659 51.265 69.237 53.9166C76.3081 56.5683 147.903 68.0587 160.277 57.4522C172.651 46.8456 176.187 20.3291 176.187 20.3291Z" fill="#2F2E41"/>
  <path d="M182.374 217.435C182.374 217.435 123.154 200.641 112.547 126.395V119.324C112.547 119.324 100.83 139.88 96.6374 144.073C91.7761 148.934 74.5403 192.687 75.4242 197.106C76.3081 201.525 75.4242 203.293 75.4242 203.293L49.7916 200.642V192.687C49.7916 192.687 63.4918 151.586 64.3757 141.863C65.2596 132.141 98.4051 64.5236 98.4051 64.5236C98.4051 64.5236 110.78 38.891 131.993 64.5236C153.206 90.1562 154.974 107.834 154.974 107.834L182.374 160.867L182.374 217.435Z" fill="#2F2E41"/>
  <path d="M49.7916 22.0971L21.5074 12.3743C21.5074 12.3743 -5.00913 -7.07107 1.17805 12.3743C7.36523 31.8198 35.6495 74.2461 43.6044 69.8267C51.5593 65.4073 61.1264 54.4375 58.9945 52.8513C56.8626 51.2652 42.7205 39.7747 49.7916 22.0971Z" fill="#2F2E41"/>
  <path d="M53.2106 187.468L30.3782 198.618C30.3782 198.618 2.76698 202.866 18.1656 210.831C33.5641 218.796 76.043 227.292 78.1669 219.858C80.2909 212.424 79.4482 200.087 77.2146 200.415C74.981 200.742 59.5824 202.335 53.2106 187.468Z" fill="#2F2E41"/>
  <path d="M170.883 159.099C170.883 159.099 159.393 208.596 178.838 219.203C198.284 229.809 334.402 231.577 345.008 212.132C355.615 192.686 350.312 192.686 350.312 192.686L322.027 160.866L345.008 159.099C345.008 159.099 345.008 152.028 337.053 151.144C329.098 150.26 304.35 141.421 283.136 147.608C261.923 153.795 249.549 135.234 249.549 135.234L170.883 159.099Z" fill="#2EC4B6"/>
  <path d="M155.858 4.41937L140.831 86.6209L244.246 74.2465L262.807 0L155.858 4.41937Z" fill="#3F3D56"/>
  <path d="M158.952 7.51312L146.577 80.8751L240.71 69.8271L258.83 3.09375L158.952 7.51312Z" fill="white"/>
  <path d="M144.367 87.5048L140.831 86.6211L139.064 90.156L167.348 168.822L170.008 167.805L170.883 162.635L144.367 87.5048Z" fill="#B3B3B3"/>
  <path d="M140.831 85.7365L169.116 167.938L276.065 152.028L244.246 74.2466L140.831 85.7365Z" fill="#D0CDE1"/>
  <path d="M154.974 83.0853V87.5047L233.639 78.666L232.755 74.2466L154.974 83.0853Z" fill="#3F3D56"/>
  <path d="M156.741 91.9238L169.116 126.395L249.549 116.673L235.407 83.9688L156.741 91.9238Z" fill="#3F3D56"/>
  <path d="M257.504 140.537L254.852 133.466C254.852 133.466 234.523 98.111 223.916 105.182C213.31 112.253 246.014 146.725 246.014 146.725H256.62L257.504 140.537Z" fill="#A0616A"/>
  <path d="M190.329 145.84L187.677 135.234C187.677 135.234 180.606 102.53 192.981 104.298C205.355 106.065 208.891 137.001 208.891 137.001L208.007 144.072L190.329 145.84Z" fill="#A0616A"/>
  <path d="M211.542 141.421C211.542 141.421 188.561 137.886 187.677 143.189C186.793 148.492 182.374 228.042 204.471 230.693C226.568 233.345 336.17 244.835 324.679 217.435C313.189 190.035 295.511 193.57 295.511 193.57L220.381 201.525L211.542 141.421Z" fill="#2EC4B6"/>
  <path d="M280.927 151.586L257.504 135.234L242.036 147.166L261.482 168.38L280.927 151.586Z" fill="#2EC4B6"/>
  <path opacity="0.2" d="M218.172 167.496L221.707 201.084L282.695 197.548L229.662 196.664L218.172 167.496Z" fill="black"/>
  <path d="M399.573 206.502C423.98 206.502 443.767 186.716 443.767 162.308C443.767 137.901 423.98 118.114 399.573 118.114C375.165 118.114 355.379 137.901 355.379 162.308C355.379 186.716 375.165 206.502 399.573 206.502Z" fill="#2F2E41"/>
  <path d="M156.3 53.4752L239.385 50.8233L240.269 47.2876L157.183 50.213L156.3 53.4752Z" fill="#E6E6E6"/>
  <path d="M155.416 60.5457L238.5 57.8945L239.385 54.3589L156.3 57.2835L155.416 60.5457Z" fill="#E6E6E6"/>
</svg>
