<svg width="264" height="56" viewBox="0 0 264 56" fill="none" xmlns="http://www.w3.org/2000/svg">
  <path d="M248.319 0.737786C233.929 1.32804 219.355 3.24635 204.688 3.09879C188.545 2.87744 172.126 7.23054 155.799 4.35307C141.686 1.84451 95.7488 5.09088 92.4281 4.64819C89.8453 4.27929 51.4721 2.36097 39.3883 1.99207C33.6692 1.84451 28.0423 2.21341 22.4155 1.99207C18.2646 1.84451 9.22473 -0.221371 5.44276 1.99207C0.461627 4.94332 3.32117 15.4203 3.32117 21.249C3.32117 24.1265 2.21425 31.0619 3.13668 33.5705C4.33584 36.9644 7.56435 34.6772 9.31697 36.4479C6.91865 37.9973 4.52033 38.5138 2.02976 39.473C1.38406 41.6864 -0.645291 48.7694 0.369384 50.9828C1.56855 53.5652 6.91865 52.3109 8.76351 52.0158C16.5119 50.5402 25.1828 52.3847 33.3924 53.1225C55.992 55.2622 79.1451 53.7865 101.929 55.7049C111.707 56.5164 121.669 55.1884 131.539 55.4835C143.9 55.8524 155.891 52.3847 168.16 51.8682C181.351 51.3518 194.265 50.6139 207.548 50.7615C215.942 50.8353 224.613 51.8682 233.283 51.4993C240.109 51.2042 247.12 50.9091 253.946 52.0896C256.16 52.4585 260.403 54.8933 262.34 52.7536C264.185 50.6877 264 44.195 264.093 41.1699C264.185 37.8498 264.369 30.9881 262.801 28.9222C261.971 27.8155 259.204 30.029 259.112 27.0777C259.019 24.1265 262.248 26.1185 262.893 25.0856C264.093 23.2411 263.17 16.7483 261.879 14.9776C260.218 12.7641 255.237 13.2068 253.116 12.9855C251.548 12.8379 250.072 13.2068 248.78 12.1739C251.732 7.0092 263.078 11.5099 263.539 5.23844C264 -2.50859 251.64 0.590223 248.319 0.737786Z" fill="#C18156"/>
  <path d="M258.65 48.99C250.164 48.3997 242.415 45.8174 234.021 45.2271C222.398 44.4155 210.868 43.6777 199.153 43.6777C186.7 43.6777 174.155 43.235 161.887 43.8991C150.725 44.4893 140.117 46.4814 129.048 47.3668C117.61 48.2522 105.157 48.2522 93.7191 46.9241C79.9749 45.3009 66.5074 38.5868 52.4864 41.6856C46.7673 42.9399 41.7862 45.0796 35.8826 46.0387C30.4403 46.9241 24.9057 47.4406 19.3711 47.7357C15.1279 47.957 10.608 47.6619 6.36483 47.8095C4.51997 47.8833 2.30613 48.1784 0.276779 48.1784C0.184536 49.2851 0.276779 50.318 0.553508 50.9083C1.75267 53.4906 7.10277 52.2364 8.94764 51.9412C16.6961 50.4656 25.3669 52.3101 33.5766 53.0479C56.1762 55.1876 79.3292 53.712 102.113 55.6303C111.891 56.4419 121.853 55.1138 131.723 55.4089C144.084 55.7779 156.076 52.3101 168.344 51.7937C181.535 51.2772 194.449 50.5394 207.732 50.6869C216.126 50.7607 224.797 51.7937 233.468 51.4248C240.294 51.1296 247.304 50.8345 254.13 52.015C256.344 52.3839 260.587 54.8187 262.524 52.679C263.17 52.015 263.539 50.7607 263.816 49.3589C261.786 49.5064 259.757 49.0638 258.65 48.99Z" fill="#DA9859"/>
  <path d="M253.392 29.1428C249.149 29.2904 243.983 28.7001 239.832 29.5117C245.182 30.4709 250.901 31.0611 256.252 31.799C258.373 32.0941 261.14 32.463 263.723 33.0532C263.539 31.5776 263.262 30.2496 262.801 29.438C259.665 29.2904 256.344 28.9953 253.392 29.1428Z" fill="#DA9859"/>
  <path d="M33.9455 15.3459C45.1069 17.1904 57.7443 19.5514 69.2747 19.9203C75.5472 20.1416 80.5283 19.9941 86.2474 19.1825C89.4759 18.666 99.4382 17.7806 100.637 15.641C98.7002 15.4934 96.9476 15.641 95.195 15.7148C81.4508 16.2312 67.6143 16.1574 54.7002 12.1733C49.1656 10.4763 44 7.89394 38.5577 5.90185C36.2516 5.01647 31.2705 3.76219 28.1342 2.139C26.1971 2.139 24.26 2.139 22.4151 2.06522C18.2642 1.91766 9.22435 -0.148216 5.44238 2.06522C2.4906 3.68841 2.30611 8.04151 2.58284 12.5422C10.8847 10.6976 28.7799 14.4605 33.9455 15.3459Z" fill="#DA9859"/>
  <path d="M249.241 14.6075C241.401 14.0911 233.099 12.9106 225.258 13.3533C213.451 14.0173 201.736 15.0502 189.929 15.8618C167.606 17.485 143.53 16.2307 123.052 23.7564C114.197 27.0028 110.507 34.012 100.73 36.6681C90.2139 39.5456 79.5137 35.709 69.1825 33.9382C57.0064 31.8724 44.5535 29.8803 32.1007 29.1424C25.6437 28.6998 19.0944 28.9949 12.5452 28.8473C9.96235 28.7735 5.81141 28.4784 2.76738 28.6998C2.67514 30.6181 2.76738 32.4626 3.13636 33.4955C4.33552 36.8895 7.56403 34.6023 9.31665 36.373C6.91833 37.9224 4.52 38.4389 2.02944 39.398C1.66047 40.5785 0.92252 43.0871 0.461304 45.5219C1.38374 45.5957 2.21392 45.6695 2.95187 45.7432C7.65627 45.8908 11.9917 45.5957 16.6039 45.3743C29.1489 44.7841 40.4948 43.0871 52.0252 39.398C64.3858 35.4876 77.1154 43.7511 89.5682 44.2676C103.036 44.7841 116.872 45.8908 130.155 45.0054C137.35 44.489 144.545 43.5298 151.832 42.792C161.149 41.8328 170.742 42.128 180.059 40.9475C189.652 39.767 199.799 40.8737 209.484 40.2096C219.816 39.4718 229.132 41.9066 239.187 43.456C245.736 44.489 252.562 44.6365 259.111 45.5219C260.126 45.6695 262.155 45.817 263.816 46.1859C263.908 44.7103 263.908 43.3085 263.908 42.128C261.602 41.8328 259.111 41.6853 257.359 41.3164C253.484 40.5785 249.795 39.3243 245.92 38.9554C238.08 38.2175 230.331 38.4389 222.583 37.4797C205.241 35.4139 188.361 38.5127 170.834 37.4797C161.887 36.9633 153.677 34.1596 145.006 32.9791C142.7 32.684 138.642 32.9791 136.981 31.5772C134.675 29.5851 137.719 27.8882 140.302 27.2241C143.346 26.4125 147.405 26.6339 150.725 26.4125C156.352 26.1174 161.979 25.5272 167.606 25.1583C182.457 24.1991 197.032 21.6168 211.975 20.9527C223.505 20.4363 234.667 20.7314 246.105 21.2478C251.824 21.4692 257.451 20.9527 263.17 20.6576C262.985 18.3704 262.34 15.9356 261.602 14.9764C261.51 14.9027 261.417 14.8289 261.325 14.6813C257.266 15.1978 251.732 14.7551 249.241 14.6075Z" fill="#DA9859"/>
  <path d="M243.245 23.2403C233.375 23.5354 223.598 23.4616 213.82 24.5684C206.164 25.4537 198.507 25.1586 190.851 25.7489C178.491 26.708 166.13 27.4458 153.954 28.7739C150.449 29.1428 146.574 28.8477 143.346 29.4379C144.453 32.0941 155.338 33.0532 158.751 33.6435C164.839 34.7502 170.742 36.2996 177.107 36.4472C190.205 36.8161 202.474 34.3813 215.849 34.824C226.734 35.1191 237.711 35.7831 248.226 37.2587C253.392 37.9966 258.281 39.1033 263.631 39.6935C263.723 39.6935 263.908 39.6935 264 39.7673C264 38.5868 264 37.185 264 35.7831C257.728 34.5288 252.101 32.9057 245.275 32.3892C237.711 31.8727 230.055 30.766 222.398 30.4709C209.023 29.9544 197.031 32.8319 184.025 33.3483C179.321 33.4959 171.941 34.0862 167.514 32.9057C167.698 31.0611 180.797 30.766 183.748 30.3233C189.929 29.4379 196.017 27.5934 202.197 27.3721C218.155 26.7818 234.298 28.2574 250.164 27.0769C253.208 26.8556 256.067 26.708 259.019 26.6342C259.296 24.4946 262.155 26.1178 262.801 25.1586C263.078 24.6421 263.262 23.8306 263.354 22.8714C256.344 22.6501 249.979 23.0927 243.245 23.2403Z" fill="#DA9859"/>
  <path d="M248.319 0.737104C233.929 1.32735 219.354 3.24567 204.688 3.0981C188.545 2.87676 95.6563 5.01642 92.3355 4.57373C89.7527 4.20482 51.3795 2.28651 39.2957 1.9176C37.6353 1.84382 36.0672 1.84382 34.499 1.9176C37.0818 2.95054 39.5724 4.20482 41.9707 5.16398C47.6898 7.52498 52.6709 8.77926 58.8512 10.2549C74.3481 13.944 90.6751 12.247 106.633 13.6488C108.847 13.8702 114.197 14.3129 111.799 16.3787C110.876 17.1165 104.604 17.5592 102.943 17.8544C94.5493 19.1086 87.1699 21.9861 78.2223 22.2812C63.6479 22.7977 50.3649 20.3629 36.2517 18.2233C28.5032 17.0428 20.6626 15.7147 12.7296 15.7885C9.50113 15.7885 6.36486 16.305 3.13635 16.4525C3.32084 18.2233 3.50533 19.9202 3.50533 21.3221C3.50533 22.2812 3.41308 23.6831 3.2286 25.1587C12.7296 23.8306 30.4403 25.4538 33.6688 25.9703C46.0294 28.11 58.39 29.8069 70.8429 31.9466C76.7464 32.9795 82.9267 34.3076 88.8303 34.7503C95.7485 35.2667 99.346 34.0125 104.235 30.8399C112.998 25.2325 119.824 18.3708 132.185 16.7476C138.18 15.936 144.453 15.7885 150.633 15.5671C157.367 15.3458 163.916 14.0915 170.558 13.6488C183.195 12.6897 196.201 13.5013 208.839 12.247C221.845 10.9927 235.312 12.6897 248.411 11.4354C248.872 11.3616 249.241 11.3616 249.702 11.2878C253.577 7.82011 263.17 11.214 263.631 5.38532C264 -2.50927 251.64 0.589541 248.319 0.737104Z" fill="#DA9859"/>
  <g opacity="0.5">
  <path opacity="0.5" d="M262.616 28.9955C261.786 27.8888 259.019 30.1022 258.927 27.151C258.834 24.1997 262.063 26.1918 262.709 25.1589C263.908 23.3144 262.985 16.8216 261.694 15.0509C261.417 14.7557 261.14 14.4606 260.771 14.2393C261.509 16.0838 260.864 20.1418 261.417 22.0601C255.606 19.1826 255.883 32.2419 261.417 31.1352C261.602 35.0456 262.063 38.7346 261.878 42.6451C261.602 48.4738 260.771 47.4408 257.174 48.0311C251.916 48.9165 246.935 50.1707 241.216 49.5067C210.314 45.8914 175.723 38.2182 145.375 50.6872C133.199 55.7043 118.071 51.1299 105.526 51.1299C97.87 51.1299 89.9371 49.5805 82.3732 51.1299C76.0084 52.3842 71.0272 50.5397 64.6625 50.097C51.0105 49.1378 37.6352 48.3262 24.1677 46.4079C17.434 45.4487 10.7924 46.8506 4.24318 46.4079C3.04402 46.3341 1.66037 46.5555 0.276724 46.9982C-5.37932e-06 48.6951 -5.37932e-06 50.2445 0.368967 51.0561C1.56813 53.6385 6.91823 52.3842 8.7631 52.0891C16.5115 50.6134 25.1824 52.458 33.392 53.1958C55.9916 55.3354 79.1446 53.8598 101.929 55.7781C111.706 56.5897 121.669 55.2617 131.539 55.5568C143.899 55.9257 155.891 52.458 168.159 51.9415C181.35 51.425 194.264 50.6872 207.547 50.8348C215.941 50.9086 224.612 51.9415 233.283 51.5726C240.109 51.2775 247.119 50.9823 253.945 52.1628C256.159 52.5317 260.402 54.9665 262.34 52.8269C264.184 50.761 264 44.2682 264.092 41.2432C263.908 37.8493 264.184 31.0614 262.616 28.9955Z" fill="#7C5438"/>
  <path opacity="0.5" d="M244.813 12.0255C246.105 12.0993 247.396 12.0993 248.595 12.0255C251.639 7.08216 262.801 11.4353 263.262 5.23763C263.447 2.5815 262.155 1.17966 260.218 0.515625C260.126 1.401 260.034 2.36016 259.757 3.09797C258.004 8.70535 248.872 7.81997 244.721 10.0334C244.813 10.7712 244.813 11.3615 244.813 12.0255Z" fill="#7C5438"/>
  </g>
</svg>
