<svg width="165" height="147" viewBox="0 0 165 147" fill="none" xmlns="http://www.w3.org/2000/svg">
  <path d="M106.136 132.219C121.327 128.997 137.214 120.709 141.721 108.553C146.269 96.2325 139.615 80.0884 133.285 64.8978C126.996 49.5428 121.166 35.3495 109.9 25.7469C98.5933 16.3088 81.8903 11.2968 67.0788 13.7391C52.4434 16.2251 39.6048 25.7927 29.3802 36.8812C18.9387 48.0906 11.1519 60.6564 10.9934 73.3659C10.8757 85.911 18.5217 98.808 28.0398 108.676C37.7747 118.423 49.5579 125.185 62.9147 129.368C76.0547 133.672 90.9444 135.44 106.136 132.219Z" fill="#E8F2F1"/>
  <ellipse cx="39.5" cy="21" rx="9.5" ry="10" fill="#2EC4B6"/>
  <circle cx="7" cy="92" r="7" fill="#2EC4B6"/>
  <circle cx="155" cy="83" r="10" fill="#2EC4B6"/>
  <circle cx="55" cy="61" r="6" fill="#C4C4C4"/>
  <circle cx="114" cy="119" r="6" fill="#2EC4B6"/>
</svg>
